M48
; DRILL file {KiCad 9.0.6} date 2025-12-02T19:22:11-0500
; FORMAT={-:-/ absolute / metric / decimal}
; #@! TF.CreationDate,2025-12-02T19:22:11-05:00
; #@! TF.GenerationSoftware,Kicad,Pcbnew,9.0.6
; #@! TF.FileFunction,Plated,1,2,PTH
FMAT,2
METRIC
; #@! TA.AperFunction,Plated,PTH,ViaDrill
T1C0.300
; #@! TA.AperFunction,Plated,PTH,ComponentDrill
T2C0.600
; #@! TA.AperFunction,Plated,PTH,ComponentDrill
T3C1.000
%
G90
G05
T1
X143.662Y-101.25
X144.79Y-95.75
X145.749Y-95.751
X145.825Y-94.0
X145.825Y-94.0
X146.679Y-101.324
X146.687Y-97.624
X146.691Y-102.425
X147.05Y-118.75
X147.857Y-93.25
X148.5Y-95.25
X148.5Y-102.5
X148.7Y-86.688
X148.72Y-91.0
X148.74Y-121.0
X149.892Y-97.642
X149.892Y-97.642
X150.105Y-83.29
X151.253Y-98.402
X151.487Y-102.685
X151.547Y-92.532
X152.105Y-95.433
X152.25Y-82.25
X152.56Y-92.55
X154.0Y-85.75
X155.048Y-98.135
X155.944Y-84.944
T3
X140.41Y-75.78
X140.41Y-78.32
X140.41Y-80.86
X140.41Y-83.4
X140.41Y-85.94
X140.41Y-88.48
X140.41Y-91.02
X140.41Y-93.56
X140.41Y-96.1
X140.41Y-98.64
X140.41Y-101.18
X140.41Y-103.72
X140.41Y-106.26
X140.41Y-108.8
X140.41Y-111.34
X140.41Y-113.88
X140.41Y-116.42
X140.41Y-118.96
X140.41Y-121.5
X140.41Y-124.04
X146.92Y-123.75
X149.46Y-123.75
X152.0Y-123.75
X158.339Y-75.777
X158.339Y-78.317
X158.339Y-80.857
X158.339Y-83.397
X158.339Y-85.937
X158.339Y-88.477
X158.339Y-91.017
X158.339Y-93.557
X158.339Y-96.097
X158.339Y-98.637
X158.339Y-101.177
X158.339Y-103.717
X158.339Y-106.257
X158.339Y-108.797
X158.339Y-111.337
X158.339Y-113.877
X158.339Y-116.417
X158.339Y-118.957
X158.339Y-121.497
X158.339Y-124.037
T2
G00X145.43Y-75.9
M15
G01X145.43Y-75.3
M16
G05
G00X145.43Y-80.33
M15
G01X145.43Y-79.23
M16
G05
G00X154.07Y-75.9
M15
G01X154.07Y-75.3
M16
G05
G00X154.07Y-80.33
M15
G01X154.07Y-79.23
M16
G05
M30
