%TF.GenerationSoftware,KiCad,Pcbnew,9.0.6*%
%TF.CreationDate,2025-12-02T19:28:56-05:00*%
%TF.ProjectId,DEVBOARD,44455642-4f41-4524-942e-6b696361645f,rev?*%
%TF.SameCoordinates,Original*%
%TF.FileFunction,Paste,Top*%
%TF.FilePolarity,Positive*%
%FSLAX46Y46*%
G04 Gerber Fmt 4.6, Leading zero omitted, Abs format (unit mm)*
G04 Created by KiCad (PCBNEW 9.0.6) date 2025-12-02 19:28:56*
%MOMM*%
%LPD*%
G01*
G04 APERTURE LIST*
G04 Aperture macros list*
%AMRoundRect*
0 Rectangle with rounded corners*
0 $1 Rounding radius*
0 $2 $3 $4 $5 $6 $7 $8 $9 X,Y pos of 4 corners*
0 Add a 4 corners polygon primitive as box body*
4,1,4,$2,$3,$4,$5,$6,$7,$8,$9,$2,$3,0*
0 Add four circle primitives for the rounded corners*
1,1,$1+$1,$2,$3*
1,1,$1+$1,$4,$5*
1,1,$1+$1,$6,$7*
1,1,$1+$1,$8,$9*
0 Add four rect primitives between the rounded corners*
20,1,$1+$1,$2,$3,$4,$5,0*
20,1,$1+$1,$4,$5,$6,$7,0*
20,1,$1+$1,$6,$7,$8,$9,0*
20,1,$1+$1,$8,$9,$2,$3,0*%
G04 Aperture macros list end*
%ADD10RoundRect,0.140000X0.140000X0.170000X-0.140000X0.170000X-0.140000X-0.170000X0.140000X-0.170000X0*%
%ADD11R,0.600000X1.450000*%
%ADD12R,0.300000X1.450000*%
%ADD13RoundRect,0.040000X-0.040000X-0.605000X0.040000X-0.605000X0.040000X0.605000X-0.040000X0.605000X0*%
%ADD14RoundRect,0.062500X-0.387500X-0.062500X0.387500X-0.062500X0.387500X0.062500X-0.387500X0.062500X0*%
%ADD15RoundRect,0.140000X0.170000X-0.140000X0.170000X0.140000X-0.170000X0.140000X-0.170000X-0.140000X0*%
%ADD16RoundRect,0.150000X0.150000X-0.587500X0.150000X0.587500X-0.150000X0.587500X-0.150000X-0.587500X0*%
%ADD17RoundRect,0.140000X-0.170000X0.140000X-0.170000X-0.140000X0.170000X-0.140000X0.170000X0.140000X0*%
%ADD18RoundRect,0.135000X-0.185000X0.135000X-0.185000X-0.135000X0.185000X-0.135000X0.185000X0.135000X0*%
%ADD19RoundRect,0.140000X-0.140000X-0.170000X0.140000X-0.170000X0.140000X0.170000X-0.140000X0.170000X0*%
%ADD20RoundRect,0.135000X0.135000X0.185000X-0.135000X0.185000X-0.135000X-0.185000X0.135000X-0.185000X0*%
%ADD21RoundRect,0.200000X-0.200000X-0.800000X0.200000X-0.800000X0.200000X0.800000X-0.200000X0.800000X0*%
%ADD22RoundRect,0.249999X-0.395001X-0.395001X0.395001X-0.395001X0.395001X0.395001X-0.395001X0.395001X0*%
%ADD23RoundRect,0.050000X-0.387500X-0.050000X0.387500X-0.050000X0.387500X0.050000X-0.387500X0.050000X0*%
%ADD24RoundRect,0.050000X-0.050000X-0.387500X0.050000X-0.387500X0.050000X0.387500X-0.050000X0.387500X0*%
%ADD25RoundRect,0.250000X0.450000X0.350000X-0.450000X0.350000X-0.450000X-0.350000X0.450000X-0.350000X0*%
%ADD26RoundRect,0.225000X-0.250000X0.225000X-0.250000X-0.225000X0.250000X-0.225000X0.250000X0.225000X0*%
%ADD27RoundRect,0.225000X0.225000X0.250000X-0.225000X0.250000X-0.225000X-0.250000X0.225000X-0.250000X0*%
%ADD28RoundRect,0.135000X-0.135000X-0.185000X0.135000X-0.185000X0.135000X0.185000X-0.135000X0.185000X0*%
G04 APERTURE END LIST*
D10*
%TO.C,C15*%
X148163354Y-110290324D03*
X147203354Y-110290324D03*
%TD*%
D11*
%TO.C,J1*%
X153000000Y-80695000D03*
X152200000Y-80695000D03*
D12*
X151000000Y-80695000D03*
X150000000Y-80695000D03*
X149500000Y-80695000D03*
X148500000Y-80695000D03*
D11*
X147300000Y-80695000D03*
X146500000Y-80695000D03*
X146500000Y-80695000D03*
X147300000Y-80695000D03*
D12*
X148000000Y-80695000D03*
X149000000Y-80695000D03*
X150500000Y-80695000D03*
X151500000Y-80695000D03*
D11*
X152200000Y-80695000D03*
X153000000Y-80695000D03*
%TD*%
D13*
%TO.C,U4*%
X147250000Y-93000000D03*
D14*
X145825000Y-92250000D03*
X145825000Y-92750000D03*
X145825000Y-93250000D03*
X145825000Y-93750000D03*
X148675000Y-93750000D03*
X148675000Y-93250000D03*
X148675000Y-92750000D03*
X148675000Y-92250000D03*
%TD*%
D15*
%TO.C,C6*%
X152560342Y-92549722D03*
X152560342Y-91589722D03*
%TD*%
D10*
%TO.C,C3*%
X143650605Y-101261264D03*
X142690605Y-101261264D03*
%TD*%
D16*
%TO.C,U2*%
X146800000Y-86687500D03*
X148700000Y-86687500D03*
X147750000Y-84812500D03*
%TD*%
D15*
%TO.C,C11*%
X151547092Y-92532466D03*
X151547092Y-91572466D03*
%TD*%
%TO.C,C10*%
X152104983Y-95433019D03*
X152104983Y-94473019D03*
%TD*%
D17*
%TO.C,C12*%
X152386750Y-106002744D03*
X152386750Y-106962744D03*
%TD*%
D18*
%TO.C,R4*%
X150986750Y-94472744D03*
X150986750Y-95492744D03*
%TD*%
%TO.C,R3*%
X149986750Y-94472744D03*
X149986750Y-95492744D03*
%TD*%
D19*
%TO.C,C1*%
X154224784Y-96165452D03*
X155184784Y-96165452D03*
%TD*%
D20*
%TO.C,R6*%
X149760000Y-121000000D03*
X148740000Y-121000000D03*
%TD*%
D21*
%TO.C,SW1*%
X147050000Y-118750000D03*
X151250000Y-118750000D03*
%TD*%
D22*
%TO.C,U1*%
X148386750Y-99382744D03*
X148386750Y-100982744D03*
X149986750Y-99382744D03*
X149986750Y-100982744D03*
D23*
X145749250Y-97582744D03*
X145749250Y-97982744D03*
X145749250Y-98382744D03*
X145749250Y-98782744D03*
X145749250Y-99182744D03*
X145749250Y-99582744D03*
X145749250Y-99982744D03*
X145749250Y-100382744D03*
X145749250Y-100782744D03*
X145749250Y-101182744D03*
X145749250Y-101582744D03*
X145749250Y-101982744D03*
X145749250Y-102382744D03*
X145749250Y-102782744D03*
D24*
X146586750Y-103620244D03*
X146986750Y-103620244D03*
X147386750Y-103620244D03*
X147786750Y-103620244D03*
X148186750Y-103620244D03*
X148586750Y-103620244D03*
X148986750Y-103620244D03*
X149386750Y-103620244D03*
X149786750Y-103620244D03*
X150186750Y-103620244D03*
X150586750Y-103620244D03*
X150986750Y-103620244D03*
X151386750Y-103620244D03*
X151786750Y-103620244D03*
D23*
X152624250Y-102782744D03*
X152624250Y-102382744D03*
X152624250Y-101982744D03*
X152624250Y-101582744D03*
X152624250Y-101182744D03*
X152624250Y-100782744D03*
X152624250Y-100382744D03*
X152624250Y-99982744D03*
X152624250Y-99582744D03*
X152624250Y-99182744D03*
X152624250Y-98782744D03*
X152624250Y-98382744D03*
X152624250Y-97982744D03*
X152624250Y-97582744D03*
D24*
X151786750Y-96745244D03*
X151386750Y-96745244D03*
X150986750Y-96745244D03*
X150586750Y-96745244D03*
X150186750Y-96745244D03*
X149786750Y-96745244D03*
X149386750Y-96745244D03*
X148986750Y-96745244D03*
X148586750Y-96745244D03*
X148186750Y-96745244D03*
X147786750Y-96745244D03*
X147386750Y-96745244D03*
X146986750Y-96745244D03*
X146586750Y-96745244D03*
%TD*%
D25*
%TO.C,Y1*%
X149736750Y-107132744D03*
X147536750Y-107132744D03*
X147536750Y-108832744D03*
X149736750Y-108832744D03*
%TD*%
D10*
%TO.C,C4*%
X145750000Y-95750000D03*
X144790000Y-95750000D03*
%TD*%
D18*
%TO.C,R2*%
X148909748Y-83279854D03*
X148909748Y-84299854D03*
%TD*%
D10*
%TO.C,C17*%
X148720000Y-91000000D03*
X147760000Y-91000000D03*
%TD*%
D26*
%TO.C,C13*%
X145250000Y-83725000D03*
X145250000Y-85275000D03*
%TD*%
D17*
%TO.C,C2*%
X151386750Y-106002744D03*
X151386750Y-106962744D03*
%TD*%
D20*
%TO.C,R5*%
X150166722Y-105636947D03*
X149146722Y-105636947D03*
%TD*%
D27*
%TO.C,C14*%
X148525000Y-88500000D03*
X146975000Y-88500000D03*
%TD*%
D18*
%TO.C,R1*%
X150105032Y-83289651D03*
X150105032Y-84309651D03*
%TD*%
D19*
%TO.C,C9*%
X155114209Y-101427535D03*
X156074209Y-101427535D03*
%TD*%
D15*
%TO.C,C7*%
X153560342Y-92549722D03*
X153560342Y-91589722D03*
%TD*%
%TO.C,C16*%
X151386750Y-108962744D03*
X151386750Y-108002744D03*
%TD*%
%TO.C,C5*%
X153236750Y-95482744D03*
X153236750Y-94522744D03*
%TD*%
D19*
%TO.C,C8*%
X153878693Y-97237920D03*
X154838693Y-97237920D03*
%TD*%
D28*
%TO.C,R7*%
X145480000Y-91000000D03*
X146500000Y-91000000D03*
%TD*%
M02*
