%TF.GenerationSoftware,KiCad,Pcbnew,9.0.6*%
%TF.CreationDate,2025-12-02T19:28:56-05:00*%
%TF.ProjectId,DEVBOARD,44455642-4f41-4524-942e-6b696361645f,rev?*%
%TF.SameCoordinates,Original*%
%TF.FileFunction,Copper,L1,Top*%
%TF.FilePolarity,Positive*%
%FSLAX46Y46*%
G04 Gerber Fmt 4.6, Leading zero omitted, Abs format (unit mm)*
G04 Created by KiCad (PCBNEW 9.0.6) date 2025-12-02 19:28:56*
%MOMM*%
%LPD*%
G01*
G04 APERTURE LIST*
G04 Aperture macros list*
%AMRoundRect*
0 Rectangle with rounded corners*
0 $1 Rounding radius*
0 $2 $3 $4 $5 $6 $7 $8 $9 X,Y pos of 4 corners*
0 Add a 4 corners polygon primitive as box body*
4,1,4,$2,$3,$4,$5,$6,$7,$8,$9,$2,$3,0*
0 Add four circle primitives for the rounded corners*
1,1,$1+$1,$2,$3*
1,1,$1+$1,$4,$5*
1,1,$1+$1,$6,$7*
1,1,$1+$1,$8,$9*
0 Add four rect primitives between the rounded corners*
20,1,$1+$1,$2,$3,$4,$5,0*
20,1,$1+$1,$4,$5,$6,$7,0*
20,1,$1+$1,$6,$7,$8,$9,0*
20,1,$1+$1,$8,$9,$2,$3,0*%
G04 Aperture macros list end*
%TA.AperFunction,SMDPad,CuDef*%
%ADD10RoundRect,0.140000X0.140000X0.170000X-0.140000X0.170000X-0.140000X-0.170000X0.140000X-0.170000X0*%
%TD*%
%TA.AperFunction,SMDPad,CuDef*%
%ADD11R,0.600000X1.450000*%
%TD*%
%TA.AperFunction,SMDPad,CuDef*%
%ADD12R,0.300000X1.450000*%
%TD*%
%TA.AperFunction,HeatsinkPad*%
%ADD13O,1.000000X2.100000*%
%TD*%
%TA.AperFunction,HeatsinkPad*%
%ADD14O,1.000000X1.600000*%
%TD*%
%TA.AperFunction,SMDPad,CuDef*%
%ADD15RoundRect,0.062500X-0.387500X-0.062500X0.387500X-0.062500X0.387500X0.062500X-0.387500X0.062500X0*%
%TD*%
%TA.AperFunction,HeatsinkPad*%
%ADD16R,0.200000X1.600000*%
%TD*%
%TA.AperFunction,SMDPad,CuDef*%
%ADD17RoundRect,0.140000X0.170000X-0.140000X0.170000X0.140000X-0.170000X0.140000X-0.170000X-0.140000X0*%
%TD*%
%TA.AperFunction,SMDPad,CuDef*%
%ADD18RoundRect,0.150000X0.150000X-0.587500X0.150000X0.587500X-0.150000X0.587500X-0.150000X-0.587500X0*%
%TD*%
%TA.AperFunction,SMDPad,CuDef*%
%ADD19RoundRect,0.140000X-0.170000X0.140000X-0.170000X-0.140000X0.170000X-0.140000X0.170000X0.140000X0*%
%TD*%
%TA.AperFunction,SMDPad,CuDef*%
%ADD20RoundRect,0.135000X-0.185000X0.135000X-0.185000X-0.135000X0.185000X-0.135000X0.185000X0.135000X0*%
%TD*%
%TA.AperFunction,ComponentPad*%
%ADD21R,1.700000X1.700000*%
%TD*%
%TA.AperFunction,ComponentPad*%
%ADD22C,1.700000*%
%TD*%
%TA.AperFunction,SMDPad,CuDef*%
%ADD23RoundRect,0.140000X-0.140000X-0.170000X0.140000X-0.170000X0.140000X0.170000X-0.140000X0.170000X0*%
%TD*%
%TA.AperFunction,SMDPad,CuDef*%
%ADD24RoundRect,0.135000X0.135000X0.185000X-0.135000X0.185000X-0.135000X-0.185000X0.135000X-0.185000X0*%
%TD*%
%TA.AperFunction,SMDPad,CuDef*%
%ADD25RoundRect,0.200000X-0.200000X-0.800000X0.200000X-0.800000X0.200000X0.800000X-0.200000X0.800000X0*%
%TD*%
%TA.AperFunction,SMDPad,CuDef*%
%ADD26RoundRect,0.050000X-0.387500X-0.050000X0.387500X-0.050000X0.387500X0.050000X-0.387500X0.050000X0*%
%TD*%
%TA.AperFunction,SMDPad,CuDef*%
%ADD27RoundRect,0.050000X-0.050000X-0.387500X0.050000X-0.387500X0.050000X0.387500X-0.050000X0.387500X0*%
%TD*%
%TA.AperFunction,HeatsinkPad*%
%ADD28R,3.200000X3.200000*%
%TD*%
%TA.AperFunction,SMDPad,CuDef*%
%ADD29RoundRect,0.250000X0.450000X0.350000X-0.450000X0.350000X-0.450000X-0.350000X0.450000X-0.350000X0*%
%TD*%
%TA.AperFunction,SMDPad,CuDef*%
%ADD30RoundRect,0.225000X-0.250000X0.225000X-0.250000X-0.225000X0.250000X-0.225000X0.250000X0.225000X0*%
%TD*%
%TA.AperFunction,SMDPad,CuDef*%
%ADD31RoundRect,0.225000X0.225000X0.250000X-0.225000X0.250000X-0.225000X-0.250000X0.225000X-0.250000X0*%
%TD*%
%TA.AperFunction,SMDPad,CuDef*%
%ADD32RoundRect,0.135000X-0.135000X-0.185000X0.135000X-0.185000X0.135000X0.185000X-0.135000X0.185000X0*%
%TD*%
%TA.AperFunction,ViaPad*%
%ADD33C,0.600000*%
%TD*%
%TA.AperFunction,Conductor*%
%ADD34C,0.200000*%
%TD*%
G04 APERTURE END LIST*
D10*
%TO.P,C15,1*%
%TO.N,GND*%
X148163354Y-110290324D03*
%TO.P,C15,2*%
%TO.N,XIN*%
X147203354Y-110290324D03*
%TD*%
D11*
%TO.P,J1,A1,GND*%
%TO.N,GND*%
X153000000Y-80695000D03*
%TO.P,J1,A4,VBUS*%
%TO.N,VBUS*%
X152200000Y-80695000D03*
D12*
%TO.P,J1,A5,CC1*%
%TO.N,Net-(J1-CC1)*%
X151000000Y-80695000D03*
%TO.P,J1,A6,D+*%
%TO.N,USB_D+*%
X150000000Y-80695000D03*
%TO.P,J1,A7,D-*%
%TO.N,USB_D-*%
X149500000Y-80695000D03*
%TO.P,J1,A8*%
%TO.N,N/C*%
X148500000Y-80695000D03*
D11*
%TO.P,J1,A9,VBUS*%
%TO.N,VBUS*%
X147300000Y-80695000D03*
%TO.P,J1,A12,GND*%
%TO.N,GND*%
X146500000Y-80695000D03*
%TO.P,J1,B1,GND*%
X146500000Y-80695000D03*
%TO.P,J1,B4,VBUS*%
%TO.N,VBUS*%
X147300000Y-80695000D03*
D12*
%TO.P,J1,B5,CC2*%
%TO.N,Net-(J1-CC2)*%
X148000000Y-80695000D03*
%TO.P,J1,B6,D+*%
%TO.N,USB_D+*%
X149000000Y-80695000D03*
%TO.P,J1,B7,D-*%
%TO.N,USB_D-*%
X150500000Y-80695000D03*
%TO.P,J1,B8*%
%TO.N,N/C*%
X151500000Y-80695000D03*
D11*
%TO.P,J1,B9,VBUS*%
%TO.N,VBUS*%
X152200000Y-80695000D03*
%TO.P,J1,B12,GND*%
%TO.N,GND*%
X153000000Y-80695000D03*
D13*
%TO.P,J1,S1,SHIELD*%
X154070000Y-79780000D03*
D14*
X154070000Y-75600000D03*
D13*
X145430000Y-79780000D03*
D14*
X145430000Y-75600000D03*
%TD*%
D15*
%TO.P,U4,1,~{CS}*%
%TO.N,QSPI_SS*%
X145825000Y-92250000D03*
%TO.P,U4,2,DO/IO_{1}*%
%TO.N,QSPI_SD1*%
X145825000Y-92750000D03*
%TO.P,U4,3,~{WP}/IO_{2}*%
%TO.N,QSPI_SD2*%
X145825000Y-93250000D03*
%TO.P,U4,4,GND*%
%TO.N,GND*%
X145825000Y-93750000D03*
%TO.P,U4,5,DI/IO_{0}*%
%TO.N,QSPI_SD0*%
X148675000Y-93750000D03*
%TO.P,U4,6,CLK*%
%TO.N,QSPI_SCLK*%
X148675000Y-93250000D03*
%TO.P,U4,7,~{HOLD}/~{RESET}/IO_{3}*%
%TO.N,QSPI_SD3*%
X148675000Y-92750000D03*
%TO.P,U4,8,VCC*%
%TO.N,+3V3*%
X148675000Y-92250000D03*
D16*
%TO.P,U4,9*%
%TO.N,N/C*%
X147250000Y-93000000D03*
%TD*%
D17*
%TO.P,C6,1*%
%TO.N,+3V3*%
X152560342Y-92549722D03*
%TO.P,C6,2*%
%TO.N,GND*%
X152560342Y-91589722D03*
%TD*%
D10*
%TO.P,C3,1*%
%TO.N,+3V3*%
X143650605Y-101261264D03*
%TO.P,C3,2*%
%TO.N,GND*%
X142690605Y-101261264D03*
%TD*%
D18*
%TO.P,U2,1,GND*%
%TO.N,GND*%
X146800000Y-86687500D03*
%TO.P,U2,2,VO*%
%TO.N,+3V3*%
X148700000Y-86687500D03*
%TO.P,U2,3,VI*%
%TO.N,VBUS*%
X147750000Y-84812500D03*
%TD*%
D17*
%TO.P,C11,1*%
%TO.N,+1V1*%
X151547092Y-92532466D03*
%TO.P,C11,2*%
%TO.N,GND*%
X151547092Y-91572466D03*
%TD*%
%TO.P,C10,1*%
%TO.N,+1V1*%
X152104983Y-95433019D03*
%TO.P,C10,2*%
%TO.N,GND*%
X152104983Y-94473019D03*
%TD*%
D19*
%TO.P,C12,1*%
%TO.N,+1V1*%
X152386750Y-106002744D03*
%TO.P,C12,2*%
%TO.N,GND*%
X152386750Y-106962744D03*
%TD*%
D20*
%TO.P,R4,1*%
%TO.N,USB_D-*%
X150986750Y-94472744D03*
%TO.P,R4,2*%
%TO.N,Net-(U1-USB_DM)*%
X150986750Y-95492744D03*
%TD*%
D21*
%TO.P,J2,1,Pin_1*%
%TO.N,GPIO0*%
X140410000Y-75780000D03*
D22*
%TO.P,J2,2,Pin_2*%
%TO.N,GPIO1*%
X140410000Y-78320000D03*
%TO.P,J2,3,Pin_3*%
%TO.N,GND*%
X140410000Y-80860000D03*
%TO.P,J2,4,Pin_4*%
%TO.N,GPIO2*%
X140410000Y-83400000D03*
%TO.P,J2,5,Pin_5*%
%TO.N,GPIO3*%
X140410000Y-85940000D03*
%TO.P,J2,6,Pin_6*%
%TO.N,GPIO4*%
X140410000Y-88480000D03*
%TO.P,J2,7,Pin_7*%
%TO.N,GPIO5*%
X140410000Y-91020000D03*
%TO.P,J2,8,Pin_8*%
%TO.N,GND*%
X140410000Y-93560000D03*
%TO.P,J2,9,Pin_9*%
%TO.N,GPIO6*%
X140410000Y-96100000D03*
%TO.P,J2,10,Pin_10*%
%TO.N,GPIO7*%
X140410000Y-98640000D03*
%TO.P,J2,11,Pin_11*%
%TO.N,GPIO8*%
X140410000Y-101180000D03*
%TO.P,J2,12,Pin_12*%
%TO.N,GPIO9*%
X140410000Y-103720000D03*
%TO.P,J2,13,Pin_13*%
%TO.N,GND*%
X140410000Y-106260000D03*
%TO.P,J2,14,Pin_14*%
%TO.N,GPIO10*%
X140410000Y-108800000D03*
%TO.P,J2,15,Pin_15*%
%TO.N,GPIO11*%
X140410000Y-111340000D03*
%TO.P,J2,16,Pin_16*%
%TO.N,GPIO12*%
X140410000Y-113880000D03*
%TO.P,J2,17,Pin_17*%
%TO.N,GPIO13*%
X140410000Y-116420000D03*
%TO.P,J2,18,Pin_18*%
%TO.N,GND*%
X140410000Y-118960000D03*
%TO.P,J2,19,Pin_19*%
%TO.N,GPIO14*%
X140410000Y-121500000D03*
%TO.P,J2,20,Pin_20*%
%TO.N,GPIO15*%
X140410000Y-124040000D03*
%TD*%
D20*
%TO.P,R3,1*%
%TO.N,USB_D+*%
X149986750Y-94472744D03*
%TO.P,R3,2*%
%TO.N,Net-(U1-USB_DP)*%
X149986750Y-95492744D03*
%TD*%
D23*
%TO.P,C1,1*%
%TO.N,+3V3*%
X154224784Y-96165452D03*
%TO.P,C1,2*%
%TO.N,GND*%
X155184784Y-96165452D03*
%TD*%
D24*
%TO.P,R6,1*%
%TO.N,Net-(R6-Pad1)*%
X149760000Y-121000000D03*
%TO.P,R6,2*%
%TO.N,QSPI_SS*%
X148740000Y-121000000D03*
%TD*%
D25*
%TO.P,SW1,1,1*%
%TO.N,GND*%
X147050000Y-118750000D03*
%TO.P,SW1,2,2*%
%TO.N,Net-(R6-Pad1)*%
X151250000Y-118750000D03*
%TD*%
D26*
%TO.P,U1,1,IOVDD*%
%TO.N,+3V3*%
X145749250Y-97582744D03*
%TO.P,U1,2,GPIO0*%
%TO.N,GPIO0*%
X145749250Y-97982744D03*
%TO.P,U1,3,GPIO1*%
%TO.N,GPIO1*%
X145749250Y-98382744D03*
%TO.P,U1,4,GPIO2*%
%TO.N,GPIO2*%
X145749250Y-98782744D03*
%TO.P,U1,5,GPIO3*%
%TO.N,GPIO3*%
X145749250Y-99182744D03*
%TO.P,U1,6,GPIO4*%
%TO.N,GPIO4*%
X145749250Y-99582744D03*
%TO.P,U1,7,GPIO5*%
%TO.N,GPIO5*%
X145749250Y-99982744D03*
%TO.P,U1,8,GPIO6*%
%TO.N,GPIO6*%
X145749250Y-100382744D03*
%TO.P,U1,9,GPIO7*%
%TO.N,GPIO7*%
X145749250Y-100782744D03*
%TO.P,U1,10,IOVDD*%
%TO.N,+3V3*%
X145749250Y-101182744D03*
%TO.P,U1,11,GPIO8*%
%TO.N,GPIO8*%
X145749250Y-101582744D03*
%TO.P,U1,12,GPIO9*%
%TO.N,GPIO9*%
X145749250Y-101982744D03*
%TO.P,U1,13,GPIO10*%
%TO.N,GPIO10*%
X145749250Y-102382744D03*
%TO.P,U1,14,GPIO11*%
%TO.N,GPIO11*%
X145749250Y-102782744D03*
D27*
%TO.P,U1,15,GPIO12*%
%TO.N,GPIO12*%
X146586750Y-103620244D03*
%TO.P,U1,16,GPIO13*%
%TO.N,GPIO13*%
X146986750Y-103620244D03*
%TO.P,U1,17,GPIO14*%
%TO.N,GPIO14*%
X147386750Y-103620244D03*
%TO.P,U1,18,GPIO15*%
%TO.N,GPIO15*%
X147786750Y-103620244D03*
%TO.P,U1,19,TESTEN*%
%TO.N,GND*%
X148186750Y-103620244D03*
%TO.P,U1,20,XIN*%
%TO.N,XIN*%
X148586750Y-103620244D03*
%TO.P,U1,21,XOUT*%
%TO.N,XOUT*%
X148986750Y-103620244D03*
%TO.P,U1,22,IOVDD*%
%TO.N,+3V3*%
X149386750Y-103620244D03*
%TO.P,U1,23,DVDD*%
%TO.N,+1V1*%
X149786750Y-103620244D03*
%TO.P,U1,24,SWCLK*%
%TO.N,SWCLK*%
X150186750Y-103620244D03*
%TO.P,U1,25,SWD*%
%TO.N,SWD*%
X150586750Y-103620244D03*
%TO.P,U1,26,RUN*%
%TO.N,RUN*%
X150986750Y-103620244D03*
%TO.P,U1,27,GPIO16*%
%TO.N,GPIO16*%
X151386750Y-103620244D03*
%TO.P,U1,28,GPIO17*%
%TO.N,GPIO17*%
X151786750Y-103620244D03*
D26*
%TO.P,U1,29,GPIO18*%
%TO.N,GPIO18*%
X152624250Y-102782744D03*
%TO.P,U1,30,GPIO19*%
%TO.N,GPIO19*%
X152624250Y-102382744D03*
%TO.P,U1,31,GPIO20*%
%TO.N,GPIO20*%
X152624250Y-101982744D03*
%TO.P,U1,32,GPIO21*%
%TO.N,GPIO21*%
X152624250Y-101582744D03*
%TO.P,U1,33,IOVDD*%
%TO.N,+3V3*%
X152624250Y-101182744D03*
%TO.P,U1,34,GPIO22*%
%TO.N,GPIO22*%
X152624250Y-100782744D03*
%TO.P,U1,35,GPIO23*%
%TO.N,GPIO23*%
X152624250Y-100382744D03*
%TO.P,U1,36,GPIO24*%
%TO.N,GPIO24*%
X152624250Y-99982744D03*
%TO.P,U1,37,GPIO25*%
%TO.N,unconnected-(U1-GPIO25-Pad37)*%
X152624250Y-99582744D03*
%TO.P,U1,38,GPIO26_ADC0*%
%TO.N,GPIO26_ADC0*%
X152624250Y-99182744D03*
%TO.P,U1,39,GPIO27_ADC1*%
%TO.N,GPIO27_ADC1*%
X152624250Y-98782744D03*
%TO.P,U1,40,GPIO28_ADC2*%
%TO.N,GPIO28_ADC2*%
X152624250Y-98382744D03*
%TO.P,U1,41,GPIO29_ADC3*%
%TO.N,GPIO29_ADC3*%
X152624250Y-97982744D03*
%TO.P,U1,42,IOVDD*%
%TO.N,+3V3*%
X152624250Y-97582744D03*
D27*
%TO.P,U1,43,ADC_AVDD*%
X151786750Y-96745244D03*
%TO.P,U1,44,VREG_IN*%
X151386750Y-96745244D03*
%TO.P,U1,45,VREG_VOUT*%
%TO.N,+1V1*%
X150986750Y-96745244D03*
%TO.P,U1,46,USB_DM*%
%TO.N,Net-(U1-USB_DM)*%
X150586750Y-96745244D03*
%TO.P,U1,47,USB_DP*%
%TO.N,Net-(U1-USB_DP)*%
X150186750Y-96745244D03*
%TO.P,U1,48,USB_VDD*%
%TO.N,+3V3*%
X149786750Y-96745244D03*
%TO.P,U1,49,IOVDD*%
X149386750Y-96745244D03*
%TO.P,U1,50,DVDD*%
%TO.N,+1V1*%
X148986750Y-96745244D03*
%TO.P,U1,51,QSPI_SD3*%
%TO.N,QSPI_SD3*%
X148586750Y-96745244D03*
%TO.P,U1,52,QSPI_SCLK*%
%TO.N,QSPI_SCLK*%
X148186750Y-96745244D03*
%TO.P,U1,53,QSPI_SD0*%
%TO.N,QSPI_SD0*%
X147786750Y-96745244D03*
%TO.P,U1,54,QSPI_SD2*%
%TO.N,QSPI_SD2*%
X147386750Y-96745244D03*
%TO.P,U1,55,QSPI_SD1*%
%TO.N,QSPI_SD1*%
X146986750Y-96745244D03*
%TO.P,U1,56,QSPI_SS*%
%TO.N,QSPI_SS*%
X146586750Y-96745244D03*
D28*
%TO.P,U1,57,GND*%
%TO.N,GND*%
X149186750Y-100182744D03*
%TD*%
D21*
%TO.P,J3,1,Pin_1*%
%TO.N,VBUS*%
X158338861Y-75776831D03*
D22*
%TO.P,J3,2,Pin_2*%
%TO.N,GPIO29_ADC3*%
X158338861Y-78316831D03*
%TO.P,J3,3,Pin_3*%
%TO.N,GND*%
X158338861Y-80856831D03*
%TO.P,J3,4,Pin_4*%
%TO.N,GPIO28_ADC2*%
X158338861Y-83396831D03*
%TO.P,J3,5,Pin_5*%
%TO.N,+3V3*%
X158338861Y-85936831D03*
%TO.P,J3,6,Pin_6*%
%TO.N,GPIO27_ADC1*%
X158338861Y-88476831D03*
%TO.P,J3,7,Pin_7*%
%TO.N,GPIO26_ADC0*%
X158338861Y-91016831D03*
%TO.P,J3,8,Pin_8*%
%TO.N,GND*%
X158338861Y-93556831D03*
%TO.P,J3,9,Pin_9*%
%TO.N,GPIO24*%
X158338861Y-96096831D03*
%TO.P,J3,10,Pin_10*%
%TO.N,GPIO23*%
X158338861Y-98636831D03*
%TO.P,J3,11,Pin_11*%
%TO.N,RUN*%
X158338861Y-101176831D03*
%TO.P,J3,12,Pin_12*%
%TO.N,GPIO22*%
X158338861Y-103716831D03*
%TO.P,J3,13,Pin_13*%
%TO.N,GND*%
X158338861Y-106256831D03*
%TO.P,J3,14,Pin_14*%
%TO.N,GPIO21*%
X158338861Y-108796831D03*
%TO.P,J3,15,Pin_15*%
%TO.N,GPIO20*%
X158338861Y-111336831D03*
%TO.P,J3,16,Pin_16*%
%TO.N,GPIO19*%
X158338861Y-113876831D03*
%TO.P,J3,17,Pin_17*%
%TO.N,GPIO18*%
X158338861Y-116416831D03*
%TO.P,J3,18,Pin_18*%
%TO.N,GND*%
X158338861Y-118956831D03*
%TO.P,J3,19,Pin_19*%
%TO.N,GPIO17*%
X158338861Y-121496831D03*
%TO.P,J3,20,Pin_20*%
%TO.N,GPIO16*%
X158338861Y-124036831D03*
%TD*%
D29*
%TO.P,Y1,1,1*%
%TO.N,Net-(C16-Pad2)*%
X149736750Y-107132744D03*
%TO.P,Y1,2,2*%
%TO.N,GND*%
X147536750Y-107132744D03*
%TO.P,Y1,3,3*%
%TO.N,XIN*%
X147536750Y-108832744D03*
%TO.P,Y1,4,4*%
%TO.N,GND*%
X149736750Y-108832744D03*
%TD*%
D10*
%TO.P,C4,1*%
%TO.N,+3V3*%
X145750000Y-95750000D03*
%TO.P,C4,2*%
%TO.N,GND*%
X144790000Y-95750000D03*
%TD*%
D20*
%TO.P,R2,1*%
%TO.N,Net-(J1-CC2)*%
X148909748Y-83279854D03*
%TO.P,R2,2*%
%TO.N,GND*%
X148909748Y-84299854D03*
%TD*%
D10*
%TO.P,C17,1*%
%TO.N,+3V3*%
X148720000Y-91000000D03*
%TO.P,C17,2*%
%TO.N,GND*%
X147760000Y-91000000D03*
%TD*%
D30*
%TO.P,C13,1*%
%TO.N,VBUS*%
X145250000Y-83725000D03*
%TO.P,C13,2*%
%TO.N,GND*%
X145250000Y-85275000D03*
%TD*%
D19*
%TO.P,C2,1*%
%TO.N,+3V3*%
X151386750Y-106002744D03*
%TO.P,C2,2*%
%TO.N,GND*%
X151386750Y-106962744D03*
%TD*%
D24*
%TO.P,R5,1*%
%TO.N,Net-(C16-Pad2)*%
X150166722Y-105636947D03*
%TO.P,R5,2*%
%TO.N,XOUT*%
X149146722Y-105636947D03*
%TD*%
D31*
%TO.P,C14,1*%
%TO.N,+3V3*%
X148525000Y-88500000D03*
%TO.P,C14,2*%
%TO.N,GND*%
X146975000Y-88500000D03*
%TD*%
D20*
%TO.P,R1,1*%
%TO.N,Net-(J1-CC1)*%
X150105032Y-83289651D03*
%TO.P,R1,2*%
%TO.N,GND*%
X150105032Y-84309651D03*
%TD*%
D23*
%TO.P,C9,1*%
%TO.N,+3V3*%
X155114209Y-101427535D03*
%TO.P,C9,2*%
%TO.N,GND*%
X156074209Y-101427535D03*
%TD*%
D21*
%TO.P,J4,1,Pin_1*%
%TO.N,SWCLK*%
X146920000Y-123750000D03*
D22*
%TO.P,J4,2,Pin_2*%
%TO.N,GND*%
X149460000Y-123750000D03*
%TO.P,J4,3,Pin_3*%
%TO.N,SWD*%
X152000000Y-123750000D03*
%TD*%
D17*
%TO.P,C7,1*%
%TO.N,+3V3*%
X153560342Y-92549722D03*
%TO.P,C7,2*%
%TO.N,GND*%
X153560342Y-91589722D03*
%TD*%
%TO.P,C16,1*%
%TO.N,GND*%
X151386750Y-108962744D03*
%TO.P,C16,2*%
%TO.N,Net-(C16-Pad2)*%
X151386750Y-108002744D03*
%TD*%
%TO.P,C5,1*%
%TO.N,+3V3*%
X153236750Y-95482744D03*
%TO.P,C5,2*%
%TO.N,GND*%
X153236750Y-94522744D03*
%TD*%
D23*
%TO.P,C8,1*%
%TO.N,+3V3*%
X153878693Y-97237920D03*
%TO.P,C8,2*%
%TO.N,GND*%
X154838693Y-97237920D03*
%TD*%
D32*
%TO.P,R7,1*%
%TO.N,QSPI_SS*%
X145480000Y-91000000D03*
%TO.P,R7,2*%
%TO.N,+3V3*%
X146500000Y-91000000D03*
%TD*%
D33*
%TO.N,+3V3*%
X145749250Y-95750750D03*
X152560342Y-92549722D03*
X143661869Y-101250000D03*
X154000000Y-85750000D03*
X149892113Y-97642113D03*
X149892113Y-97642113D03*
X148720000Y-91000000D03*
X148500000Y-102500000D03*
X148700000Y-86687500D03*
X146690815Y-102425114D03*
X155943581Y-84943581D03*
%TO.N,GND*%
X144790000Y-95750000D03*
X147050000Y-118750000D03*
X145825000Y-94000000D03*
X145825000Y-94000000D03*
%TO.N,+1V1*%
X152104983Y-95433019D03*
X151252891Y-98401875D03*
X151547092Y-92532466D03*
%TO.N,Net-(J1-CC1)*%
X150105032Y-83289651D03*
X152250000Y-82250000D03*
%TO.N,GPIO6*%
X146679213Y-101324162D03*
%TO.N,GPIO20*%
X151487102Y-102684811D03*
%TO.N,GPIO29_ADC3*%
X155048351Y-98134929D03*
%TO.N,QSPI_SS*%
X146686749Y-97623548D03*
X148740000Y-121000000D03*
%TO.N,QSPI_SCLK*%
X148500000Y-95250000D03*
X147857354Y-93250000D03*
%TD*%
D34*
%TO.N,+3V3*%
X149786750Y-97536750D02*
X149892113Y-97642113D01*
X148720000Y-91000000D02*
X148720000Y-88695000D01*
X149892113Y-97642113D02*
X149966584Y-97642113D01*
X145749250Y-95750750D02*
X145750000Y-95750000D01*
X151386750Y-106002744D02*
X151386750Y-105722745D01*
X154500000Y-101250000D02*
X153500000Y-101250000D01*
X149386750Y-102886750D02*
X149386750Y-103620244D01*
X154224784Y-93214164D02*
X154224784Y-96165452D01*
X153560342Y-92549722D02*
X152560342Y-92549722D01*
X149000000Y-102500000D02*
X149386750Y-102886750D01*
X155943581Y-84943581D02*
X154806419Y-84943581D01*
X153236750Y-95482744D02*
X153049250Y-95482744D01*
X146500000Y-91000000D02*
X146500000Y-90525000D01*
X153236750Y-95482744D02*
X153542076Y-95482744D01*
X148525000Y-88500000D02*
X148525000Y-86862500D01*
X143728125Y-101183744D02*
X144249156Y-101183744D01*
X145749250Y-101182744D02*
X144250156Y-101182744D01*
X148720000Y-91000000D02*
X148720000Y-92205000D01*
X150000000Y-105000000D02*
X149386750Y-104386750D01*
X149386750Y-104386750D02*
X149386750Y-103620244D01*
X152624250Y-101182744D02*
X152090976Y-101182744D01*
X153560342Y-92549722D02*
X154224784Y-93214164D01*
X151864733Y-97768114D02*
X151864733Y-100958501D01*
X153432744Y-101182744D02*
X153500000Y-101250000D01*
X148720000Y-88695000D02*
X148525000Y-88500000D01*
X143661869Y-101250000D02*
X143728125Y-101183744D01*
X144250156Y-101182744D02*
X144249156Y-101183744D01*
X150664005Y-105000000D02*
X150000000Y-105000000D01*
X149786750Y-96745244D02*
X149386750Y-96745244D01*
X152090976Y-101182744D02*
X152089976Y-101183744D01*
X152624250Y-101182744D02*
X153432744Y-101182744D01*
X154224784Y-96891829D02*
X153878693Y-97237920D01*
X152050103Y-97582744D02*
X151864733Y-97768114D01*
X149966584Y-97642113D02*
X150005232Y-97603465D01*
X152969074Y-97237920D02*
X152624250Y-97582744D01*
X146765701Y-102500000D02*
X148500000Y-102500000D01*
X148500000Y-102500000D02*
X149000000Y-102500000D01*
X155114209Y-101427535D02*
X154677535Y-101427535D01*
X151386750Y-96745244D02*
X151786750Y-96745244D01*
X154677535Y-101427535D02*
X154500000Y-101250000D01*
X152624250Y-97582744D02*
X152050103Y-97582744D01*
X151864733Y-100958501D02*
X152089976Y-101183744D01*
X154224784Y-96165452D02*
X154224784Y-96891829D01*
X153049250Y-95482744D02*
X151786750Y-96745244D01*
X148525000Y-86862500D02*
X148700000Y-86687500D01*
X148720000Y-92205000D02*
X148675000Y-92250000D01*
X145749250Y-97582744D02*
X145749250Y-95750750D01*
X146690815Y-102425114D02*
X146765701Y-102500000D01*
X143650605Y-101261264D02*
X143661869Y-101250000D01*
X154806419Y-84943581D02*
X154000000Y-85750000D01*
X146500000Y-90525000D02*
X148525000Y-88500000D01*
X149786750Y-96745244D02*
X149786750Y-97536750D01*
X153878693Y-97237920D02*
X152969074Y-97237920D01*
X151386750Y-105722745D02*
X150664005Y-105000000D01*
X153542076Y-95482744D02*
X154224784Y-96165452D01*
%TO.N,GND*%
X154838693Y-97237920D02*
X154838693Y-96511543D01*
X155184784Y-93214164D02*
X155184784Y-96165452D01*
X145825000Y-94000000D02*
X145825000Y-94152295D01*
X152543086Y-91572466D02*
X152560342Y-91589722D01*
X153560342Y-91589722D02*
X152560342Y-91589722D01*
X151547092Y-91572466D02*
X152543086Y-91572466D01*
X153560342Y-91589722D02*
X155184784Y-93214164D01*
X154838693Y-96511543D02*
X155184784Y-96165452D01*
X145825000Y-93750000D02*
X145825000Y-94000000D01*
X145825000Y-94152295D02*
X145825147Y-94152442D01*
%TO.N,+1V1*%
X151086102Y-101846798D02*
X151252891Y-101680009D01*
X148986750Y-98268494D02*
X149000000Y-98281744D01*
X150750000Y-102500000D02*
X151086102Y-102163898D01*
X151252891Y-101680009D02*
X151252891Y-98401875D01*
X150975456Y-104591450D02*
X152386750Y-106002744D01*
X150250000Y-102500000D02*
X150750000Y-102500000D01*
X151252891Y-98401875D02*
X151087750Y-98401875D01*
X149000000Y-98281744D02*
X147285750Y-98281744D01*
X150158550Y-104591450D02*
X150975456Y-104591450D01*
X151087750Y-98281744D02*
X149000000Y-98281744D01*
X150986750Y-97513250D02*
X150986750Y-96745244D01*
X149786750Y-104219650D02*
X150158550Y-104591450D01*
X151252891Y-98401875D02*
X151250000Y-98398984D01*
X151250000Y-98398984D02*
X151250000Y-97776500D01*
X151086102Y-102163898D02*
X151086102Y-101846798D01*
X151087750Y-98401875D02*
X151087750Y-98281744D01*
X149786750Y-102963250D02*
X150250000Y-102500000D01*
X149786750Y-103620244D02*
X149786750Y-104219650D01*
X149786750Y-103620244D02*
X149786750Y-102963250D01*
X148986750Y-96745244D02*
X148986750Y-98268494D01*
X151250000Y-97776500D02*
X150986750Y-97513250D01*
%TO.N,VBUS*%
X152200000Y-80695000D02*
X152200000Y-79850900D01*
X145250000Y-83725000D02*
X147300000Y-81675000D01*
X149750000Y-78867000D02*
X148203000Y-78867000D01*
X148203000Y-78867000D02*
X147300000Y-79770000D01*
X156615692Y-77500000D02*
X151117000Y-77500000D01*
X152200000Y-79850900D02*
X151216100Y-78867000D01*
X151117000Y-77500000D02*
X149750000Y-78867000D01*
X158338861Y-75776831D02*
X156615692Y-77500000D01*
X147300000Y-81675000D02*
X147300000Y-80695000D01*
X147750000Y-84812500D02*
X146662500Y-83725000D01*
X146662500Y-83725000D02*
X145250000Y-83725000D01*
X147300000Y-79770000D02*
X147300000Y-80695000D01*
X151216100Y-78867000D02*
X149750000Y-78867000D01*
%TO.N,XIN*%
X148575722Y-107924278D02*
X147667256Y-108832744D01*
X148575722Y-104347778D02*
X148575722Y-107924278D01*
X148586750Y-103620244D02*
X148586750Y-104336750D01*
X147203354Y-110290324D02*
X147203354Y-109166140D01*
X148586750Y-104336750D02*
X148575722Y-104347778D01*
X147667256Y-108832744D02*
X147536750Y-108832744D01*
X147203354Y-109166140D02*
X147536750Y-108832744D01*
%TO.N,Net-(C16-Pad2)*%
X150166722Y-105636947D02*
X150166722Y-106702772D01*
X150166722Y-106702772D02*
X149736750Y-107132744D01*
X151386750Y-108002744D02*
X150606750Y-108002744D01*
X150606750Y-108002744D02*
X149736750Y-107132744D01*
%TO.N,Net-(J1-CC1)*%
X151000000Y-81500000D02*
X151750000Y-82250000D01*
X151750000Y-82250000D02*
X152250000Y-82250000D01*
X151000000Y-80695000D02*
X151000000Y-81500000D01*
%TO.N,USB_D-*%
X149500000Y-80695000D02*
X149500000Y-79718000D01*
X150500000Y-81270000D02*
X150475000Y-81295000D01*
X152975000Y-88593198D02*
X150750000Y-90818198D01*
X150750000Y-90818198D02*
X150750000Y-94235994D01*
X150500000Y-79750000D02*
X150500000Y-80695000D01*
X150750000Y-94235994D02*
X150986750Y-94472744D01*
X149549000Y-79669000D02*
X150419000Y-79669000D01*
X150419000Y-79669000D02*
X150500000Y-79750000D01*
X149500000Y-79718000D02*
X149549000Y-79669000D01*
X150475000Y-81295000D02*
X150475000Y-81656802D01*
X152975000Y-84156802D02*
X152975000Y-88593198D01*
X150500000Y-80695000D02*
X150500000Y-81270000D01*
X150475000Y-81656802D02*
X152975000Y-84156802D01*
%TO.N,Net-(J1-CC2)*%
X148909748Y-83279854D02*
X148000000Y-82370106D01*
X148000000Y-82370106D02*
X148000000Y-80695000D01*
%TO.N,USB_D+*%
X150349000Y-90652098D02*
X150349000Y-93746891D01*
X152525000Y-88406802D02*
X150500000Y-90431802D01*
X150000000Y-81500000D02*
X150000000Y-80695000D01*
X150000000Y-81270000D02*
X150025000Y-81295000D01*
X150500000Y-90501098D02*
X150349000Y-90652098D01*
X150025000Y-81295000D02*
X150025000Y-81843198D01*
X149986750Y-94109141D02*
X149986750Y-94472744D01*
X149000000Y-80695000D02*
X149000000Y-81500000D01*
X150025000Y-81843198D02*
X152525000Y-84343198D01*
X149250000Y-81750000D02*
X149750000Y-81750000D01*
X150500000Y-90431802D02*
X150500000Y-90501098D01*
X152525000Y-84343198D02*
X152525000Y-88406802D01*
X150349000Y-93746891D02*
X149986750Y-94109141D01*
X149000000Y-81500000D02*
X149250000Y-81750000D01*
X149750000Y-81750000D02*
X150000000Y-81500000D01*
X150000000Y-80695000D02*
X150000000Y-81270000D01*
%TO.N,GPIO2*%
X142901000Y-85891000D02*
X142901000Y-98333900D01*
X142901000Y-98333900D02*
X143349844Y-98782744D01*
X140410000Y-83400000D02*
X142901000Y-85891000D01*
X143349844Y-98782744D02*
X145749250Y-98782744D01*
%TO.N,GPIO1*%
X143882744Y-98382744D02*
X143500000Y-98000000D01*
X145749250Y-98382744D02*
X143882744Y-98382744D01*
X143500000Y-81410000D02*
X140410000Y-78320000D01*
X143500000Y-98000000D02*
X143500000Y-81410000D01*
%TO.N,GPIO10*%
X143000000Y-107500000D02*
X141700000Y-108800000D01*
X145749250Y-102382744D02*
X145117256Y-102382744D01*
X143000000Y-104500000D02*
X143000000Y-107500000D01*
X141700000Y-108800000D02*
X140410000Y-108800000D01*
X145117256Y-102382744D02*
X143000000Y-104500000D01*
%TO.N,GPIO0*%
X144232744Y-97982744D02*
X145749250Y-97982744D01*
X144000000Y-79370000D02*
X144000000Y-97750000D01*
X144000000Y-97750000D02*
X144232744Y-97982744D01*
X140410000Y-75780000D02*
X144000000Y-79370000D01*
%TO.N,GPIO8*%
X143970000Y-102030000D02*
X141260000Y-102030000D01*
X145749250Y-101582744D02*
X144417256Y-101582744D01*
X141260000Y-102030000D02*
X140410000Y-101180000D01*
X144417256Y-101582744D02*
X143970000Y-102030000D01*
%TO.N,GPIO4*%
X142000000Y-99000000D02*
X142000000Y-90070000D01*
X142000000Y-90070000D02*
X140410000Y-88480000D01*
X142582744Y-99582744D02*
X142000000Y-99000000D01*
X145749250Y-99582744D02*
X142582744Y-99582744D01*
%TO.N,GPIO14*%
X147386750Y-104514250D02*
X144901000Y-107000000D01*
X144901000Y-117009000D02*
X144901000Y-107000000D01*
X140410000Y-121500000D02*
X144901000Y-117009000D01*
X147386750Y-103620244D02*
X147386750Y-104514250D01*
%TO.N,GPIO11*%
X143500000Y-105031994D02*
X143500000Y-109750000D01*
X143500000Y-109750000D02*
X141910000Y-111340000D01*
X141910000Y-111340000D02*
X140410000Y-111340000D01*
X145749250Y-102782744D02*
X143500000Y-105031994D01*
%TO.N,GPIO12*%
X143901000Y-110389000D02*
X140410000Y-113880000D01*
X146586750Y-103620244D02*
X143901000Y-106305994D01*
X143901000Y-106305994D02*
X143901000Y-110389000D01*
%TO.N,GPIO15*%
X145500000Y-107000000D02*
X145500000Y-118950000D01*
X147786750Y-103620244D02*
X147786750Y-104713250D01*
X147786750Y-104713250D02*
X145500000Y-107000000D01*
X145500000Y-118950000D02*
X140410000Y-124040000D01*
%TO.N,GPIO7*%
X145749250Y-100782744D02*
X144282744Y-100782744D01*
X142250000Y-100480000D02*
X140410000Y-98640000D01*
X142250000Y-100500000D02*
X142250000Y-100480000D01*
X144000000Y-100500000D02*
X142250000Y-100500000D01*
X144282744Y-100782744D02*
X144000000Y-100500000D01*
%TO.N,GPIO6*%
X146750000Y-100750000D02*
X146382744Y-100382744D01*
X146750000Y-101253375D02*
X146750000Y-100750000D01*
X146679213Y-101324162D02*
X146750000Y-101253375D01*
X146382744Y-100382744D02*
X145749250Y-100382744D01*
%TO.N,GPIO5*%
X145749250Y-99982744D02*
X142319844Y-99982744D01*
X141543550Y-99206450D02*
X141561000Y-99189000D01*
X141561000Y-99189000D02*
X141561000Y-92171000D01*
X142319844Y-99982744D02*
X141543550Y-99206450D01*
X141561000Y-92171000D02*
X140410000Y-91020000D01*
%TO.N,GPIO13*%
X144500000Y-106750000D02*
X144500000Y-112330000D01*
X146986750Y-103620244D02*
X146986750Y-104263250D01*
X146986750Y-104263250D02*
X144500000Y-106750000D01*
X144500000Y-112330000D02*
X140410000Y-116420000D01*
%TO.N,GPIO9*%
X144767256Y-101982744D02*
X143030000Y-103720000D01*
X143030000Y-103720000D02*
X140410000Y-103720000D01*
X145749250Y-101982744D02*
X144767256Y-101982744D01*
%TO.N,GPIO3*%
X142500000Y-88030000D02*
X140410000Y-85940000D01*
X142500000Y-98500000D02*
X142500000Y-88030000D01*
X145749250Y-99182744D02*
X143182744Y-99182744D01*
X143182744Y-99182744D02*
X142500000Y-98500000D01*
%TO.N,GPIO20*%
X151517256Y-101982744D02*
X152624250Y-101982744D01*
X151487102Y-102012898D02*
X151517256Y-101982744D01*
X151487102Y-102684811D02*
X151487102Y-102012898D01*
%TO.N,GPIO29_ADC3*%
X152624250Y-97982744D02*
X154482744Y-97982744D01*
X154750000Y-98250000D02*
X154933280Y-98250000D01*
X154933280Y-98250000D02*
X155048351Y-98134929D01*
X154482744Y-97982744D02*
X154750000Y-98250000D01*
%TO.N,GPIO17*%
X155047000Y-104181200D02*
X155047000Y-114797000D01*
X156250000Y-119407970D02*
X158338861Y-121496831D01*
X156250000Y-116000000D02*
X156250000Y-119407970D01*
X151786750Y-103620244D02*
X154486044Y-103620244D01*
X154486044Y-103620244D02*
X155047000Y-104181200D01*
X155047000Y-114797000D02*
X156250000Y-116000000D01*
%TO.N,GPIO28_ADC2*%
X155697544Y-98750000D02*
X155948000Y-98499544D01*
X155948000Y-85787692D02*
X158338861Y-83396831D01*
X153882744Y-98382744D02*
X154250000Y-98750000D01*
X152624250Y-98382744D02*
X153882744Y-98382744D01*
X154250000Y-98750000D02*
X155697544Y-98750000D01*
X155948000Y-98499544D02*
X155948000Y-85787692D01*
%TO.N,GPIO21*%
X153159524Y-101582744D02*
X152624250Y-101582744D01*
X154548844Y-101981744D02*
X153558524Y-101981744D01*
X153558524Y-101981744D02*
X153159524Y-101582744D01*
X158338861Y-108796831D02*
X156250000Y-106707970D01*
X156250000Y-106707970D02*
X156250000Y-103682900D01*
X156250000Y-103682900D02*
X154548844Y-101981744D01*
%TO.N,GPIO18*%
X153532744Y-102782744D02*
X152624250Y-102782744D01*
X155448000Y-113525970D02*
X155448000Y-104015100D01*
X154216644Y-102783744D02*
X153533744Y-102783744D01*
X158338861Y-116416831D02*
X155448000Y-113525970D01*
X153533744Y-102783744D02*
X153532744Y-102782744D01*
X155448000Y-104015100D02*
X154216644Y-102783744D01*
%TO.N,GPIO23*%
X158338861Y-98636831D02*
X156592948Y-100382744D01*
X156592948Y-100382744D02*
X152624250Y-100382744D01*
%TO.N,GPIO24*%
X157187861Y-99187861D02*
X157204296Y-99204296D01*
X157187861Y-97247831D02*
X157187861Y-99187861D01*
X157204296Y-99204296D02*
X156425848Y-99982744D01*
X156425848Y-99982744D02*
X152624250Y-99982744D01*
X158338861Y-96096831D02*
X157187861Y-97247831D01*
%TO.N,GPIO27_ADC1*%
X156349000Y-90466692D02*
X158338861Y-88476831D01*
X155833900Y-99180744D02*
X156349000Y-98665644D01*
X156349000Y-98665644D02*
X156349000Y-90466692D01*
X153930744Y-99180744D02*
X155833900Y-99180744D01*
X152624250Y-98782744D02*
X153532744Y-98782744D01*
X153532744Y-98782744D02*
X153930744Y-99180744D01*
%TO.N,GPIO26_ADC0*%
X153581744Y-99581744D02*
X156000000Y-99581744D01*
X153182744Y-99182744D02*
X153581744Y-99581744D01*
X156750000Y-98831744D02*
X156750000Y-92605692D01*
X156750000Y-92605692D02*
X158338861Y-91016831D01*
X156000000Y-99581744D02*
X156750000Y-98831744D01*
X152624250Y-99182744D02*
X153182744Y-99182744D01*
%TO.N,GPIO19*%
X152624250Y-102382744D02*
X154382744Y-102382744D01*
X155849000Y-111386970D02*
X158338861Y-113876831D01*
X155849000Y-103849000D02*
X155849000Y-111386970D01*
X154382744Y-102382744D02*
X155849000Y-103849000D01*
%TO.N,GPIO22*%
X156750000Y-101000000D02*
X156750000Y-102127970D01*
X156533744Y-100783744D02*
X156750000Y-101000000D01*
X156750000Y-102127970D02*
X158338861Y-103716831D01*
X152624250Y-100782744D02*
X153499000Y-100782744D01*
X153500000Y-100783744D02*
X156533744Y-100783744D01*
X153499000Y-100782744D02*
X153500000Y-100783744D01*
%TO.N,GPIO16*%
X155750000Y-116250000D02*
X154646000Y-115146000D01*
X151386750Y-104386750D02*
X151386750Y-103620244D01*
X154646000Y-115146000D02*
X154646000Y-104750000D01*
X154646000Y-104750000D02*
X151750000Y-104750000D01*
X158338861Y-124036831D02*
X155750000Y-121447970D01*
X155750000Y-121447970D02*
X155750000Y-116250000D01*
X151750000Y-104750000D02*
X151386750Y-104386750D01*
%TO.N,Net-(U1-USB_DP)*%
X149986750Y-95801000D02*
X150186750Y-96001000D01*
X150186750Y-96001000D02*
X150186750Y-96745244D01*
X149986750Y-95492744D02*
X149986750Y-95801000D01*
%TO.N,Net-(U1-USB_DM)*%
X150986750Y-95492744D02*
X150586750Y-95892744D01*
X150586750Y-95892744D02*
X150586750Y-96745244D01*
%TO.N,XOUT*%
X148986750Y-104736750D02*
X148986750Y-103620244D01*
X149146722Y-104896722D02*
X148986750Y-104736750D01*
X149146722Y-105636947D02*
X149146722Y-104896722D01*
%TO.N,QSPI_SS*%
X146586750Y-96745244D02*
X146584750Y-96743244D01*
X145071900Y-95139000D02*
X144401000Y-94468100D01*
X145480000Y-91000000D02*
X145480000Y-91905000D01*
X146187550Y-95250000D02*
X146076550Y-95139000D01*
X146586750Y-97586750D02*
X146586750Y-96745244D01*
X144401000Y-93141102D02*
X145292102Y-92250000D01*
X144401000Y-94468100D02*
X144401000Y-93141102D01*
X145480000Y-91905000D02*
X145825000Y-92250000D01*
X146623548Y-97623548D02*
X146586750Y-97586750D01*
X146584750Y-95235750D02*
X146570500Y-95250000D01*
X146076550Y-95139000D02*
X145071900Y-95139000D01*
X146570500Y-95250000D02*
X146187550Y-95250000D01*
X146584750Y-96743244D02*
X146584750Y-95235750D01*
X145292102Y-92250000D02*
X145825000Y-92250000D01*
X146686749Y-97623548D02*
X146623548Y-97623548D01*
%TO.N,Net-(R6-Pad1)*%
X149760000Y-120240000D02*
X151250000Y-118750000D01*
X149760000Y-121000000D02*
X149760000Y-120240000D01*
%TO.N,QSPI_SD0*%
X147786750Y-94638250D02*
X147786750Y-96745244D01*
X148675000Y-93750000D02*
X147786750Y-94638250D01*
%TO.N,QSPI_SCLK*%
X148675000Y-93250000D02*
X147857354Y-93250000D01*
X148500000Y-95250000D02*
X148186750Y-95563250D01*
X148186750Y-95563250D02*
X148186750Y-96745244D01*
%TO.N,QSPI_SD2*%
X146849000Y-93808202D02*
X146849000Y-94099000D01*
X145825000Y-93250000D02*
X146290798Y-93250000D01*
X147386750Y-94636750D02*
X147386750Y-96745244D01*
X146290798Y-93250000D02*
X146849000Y-93808202D01*
X146849000Y-94099000D02*
X147386750Y-94636750D01*
%TO.N,QSPI_SD3*%
X148586750Y-96163250D02*
X148586750Y-96745244D01*
X149426000Y-93964798D02*
X149250000Y-94140798D01*
X148675000Y-92750000D02*
X149140798Y-92750000D01*
X149250000Y-95500000D02*
X148586750Y-96163250D01*
X149140798Y-92750000D02*
X149426000Y-93035202D01*
X149426000Y-93035202D02*
X149426000Y-93964798D01*
X149250000Y-94140798D02*
X149250000Y-95500000D01*
%TO.N,QSPI_SD1*%
X144802000Y-93307202D02*
X145359202Y-92750000D01*
X146738000Y-94738000D02*
X145238000Y-94738000D01*
X146985750Y-94985750D02*
X146738000Y-94738000D01*
X145359202Y-92750000D02*
X145825000Y-92750000D01*
X146986750Y-95751000D02*
X146985750Y-95750000D01*
X145238000Y-94738000D02*
X144802000Y-94302000D01*
X144802000Y-94302000D02*
X144802000Y-93307202D01*
X146986750Y-96745244D02*
X146986750Y-95751000D01*
X146985750Y-95750000D02*
X146985750Y-94985750D01*
%TD*%
%TA.AperFunction,Conductor*%
%TO.N,GND*%
G36*
X145177826Y-117261796D02*
G01*
X145199500Y-117314122D01*
X145199500Y-118794876D01*
X145177826Y-118847202D01*
X140948480Y-123076547D01*
X140896154Y-123098221D01*
X140867836Y-123092588D01*
X140716424Y-123029871D01*
X140716413Y-123029868D01*
X140563516Y-122999455D01*
X140513465Y-122989500D01*
X140306535Y-122989500D01*
X140266385Y-122997486D01*
X140103586Y-123029868D01*
X140103579Y-123029870D01*
X139912401Y-123109059D01*
X139740345Y-123224022D01*
X139740344Y-123224024D01*
X139594024Y-123370344D01*
X139594022Y-123370345D01*
X139479059Y-123542401D01*
X139399870Y-123733579D01*
X139399868Y-123733586D01*
X139359500Y-123936535D01*
X139359500Y-124143464D01*
X139399868Y-124346413D01*
X139399870Y-124346420D01*
X139479059Y-124537598D01*
X139591905Y-124706486D01*
X139594023Y-124709655D01*
X139740345Y-124855977D01*
X139912402Y-124970941D01*
X139939422Y-124982133D01*
X139979470Y-125022181D01*
X139979470Y-125078819D01*
X139939422Y-125118867D01*
X139911103Y-125124500D01*
X139199500Y-125124500D01*
X139147174Y-125102826D01*
X139125500Y-125050500D01*
X139125500Y-119716541D01*
X139147174Y-119664215D01*
X139199500Y-119642541D01*
X139251826Y-119664215D01*
X139259367Y-119673045D01*
X139294728Y-119721716D01*
X139927037Y-119089407D01*
X139944075Y-119152993D01*
X140009901Y-119267007D01*
X140102993Y-119360099D01*
X140217007Y-119425925D01*
X140280590Y-119442962D01*
X139648282Y-120075269D01*
X139702449Y-120114624D01*
X139891778Y-120211093D01*
X139891782Y-120211095D01*
X140093863Y-120276755D01*
X140093876Y-120276758D01*
X140286449Y-120307259D01*
X140334740Y-120336852D01*
X140347962Y-120391924D01*
X140318369Y-120440215D01*
X140289310Y-120452926D01*
X140103585Y-120489868D01*
X140103579Y-120489870D01*
X139912401Y-120569059D01*
X139740345Y-120684022D01*
X139740344Y-120684024D01*
X139594024Y-120830344D01*
X139594022Y-120830345D01*
X139479059Y-121002401D01*
X139399870Y-121193579D01*
X139399868Y-121193586D01*
X139359500Y-121396535D01*
X139359500Y-121603464D01*
X139399868Y-121806413D01*
X139399870Y-121806420D01*
X139479059Y-121997598D01*
X139591905Y-122166486D01*
X139594023Y-122169655D01*
X139740345Y-122315977D01*
X139912402Y-122430941D01*
X140103580Y-122510130D01*
X140306535Y-122550500D01*
X140306536Y-122550500D01*
X140513464Y-122550500D01*
X140513465Y-122550500D01*
X140716420Y-122510130D01*
X140907598Y-122430941D01*
X141079655Y-122315977D01*
X141225977Y-122169655D01*
X141340941Y-121997598D01*
X141420130Y-121806420D01*
X141460500Y-121603465D01*
X141460500Y-121396535D01*
X141420130Y-121193580D01*
X141357410Y-121042161D01*
X141357410Y-120985526D01*
X141373448Y-120961521D01*
X145073175Y-117261795D01*
X145125500Y-117240122D01*
X145177826Y-117261796D01*
G37*
%TD.AperFunction*%
%TA.AperFunction,Conductor*%
G36*
X148264576Y-103641918D02*
G01*
X148286250Y-103694244D01*
X148286250Y-104257314D01*
X148283729Y-104276466D01*
X148275222Y-104308216D01*
X148275222Y-105985751D01*
X148253548Y-106038077D01*
X148201222Y-106059751D01*
X148177946Y-106055995D01*
X148139448Y-106043238D01*
X148036725Y-106032744D01*
X147786750Y-106032744D01*
X147786750Y-107058744D01*
X147765076Y-107111070D01*
X147712750Y-107132744D01*
X147536750Y-107132744D01*
X147536750Y-107308744D01*
X147515076Y-107361070D01*
X147462750Y-107382744D01*
X146336751Y-107382744D01*
X146336751Y-107532720D01*
X146347244Y-107635440D01*
X146402392Y-107801865D01*
X146494433Y-107951087D01*
X146494436Y-107951091D01*
X146618403Y-108075058D01*
X146618406Y-108075060D01*
X146693798Y-108121563D01*
X146726955Y-108167480D01*
X146717933Y-108223394D01*
X146714491Y-108228487D01*
X146683958Y-108269859D01*
X146683956Y-108269863D01*
X146639105Y-108398039D01*
X146639104Y-108398043D01*
X146639104Y-108398045D01*
X146636250Y-108428478D01*
X146636250Y-109237010D01*
X146639104Y-109267443D01*
X146639104Y-109267445D01*
X146639105Y-109267448D01*
X146683956Y-109395625D01*
X146683957Y-109395627D01*
X146764596Y-109504890D01*
X146764599Y-109504893D01*
X146764600Y-109504894D01*
X146872796Y-109584746D01*
X146875800Y-109589731D01*
X146881180Y-109591960D01*
X146890056Y-109613390D01*
X146902027Y-109633256D01*
X146902854Y-109644286D01*
X146902854Y-109772322D01*
X146881180Y-109824648D01*
X146869803Y-109832619D01*
X146870341Y-109833387D01*
X146865037Y-109837100D01*
X146780130Y-109922007D01*
X146729381Y-110030838D01*
X146722854Y-110080424D01*
X146722854Y-110500223D01*
X146729381Y-110549809D01*
X146729382Y-110549811D01*
X146780130Y-110658640D01*
X146865038Y-110743548D01*
X146973867Y-110794296D01*
X147023453Y-110800824D01*
X147383254Y-110800823D01*
X147425640Y-110795243D01*
X147480345Y-110809902D01*
X147498991Y-110830941D01*
X147513634Y-110855701D01*
X147627976Y-110970043D01*
X147767157Y-111052355D01*
X147913353Y-111094829D01*
X147913354Y-111094829D01*
X148413354Y-111094829D01*
X148559550Y-111052355D01*
X148698731Y-110970043D01*
X148813073Y-110855701D01*
X148895385Y-110716520D01*
X148940498Y-110561240D01*
X148942145Y-110540324D01*
X148413354Y-110540324D01*
X148413354Y-111094829D01*
X147913354Y-111094829D01*
X147913354Y-110364324D01*
X147935028Y-110311998D01*
X147987354Y-110290324D01*
X148163354Y-110290324D01*
X148163354Y-110114324D01*
X148185028Y-110061998D01*
X148237354Y-110040324D01*
X148942143Y-110040324D01*
X148942144Y-110040322D01*
X148940499Y-110019413D01*
X148940498Y-110019405D01*
X148927914Y-109976092D01*
X148934128Y-109919797D01*
X148978329Y-109884385D01*
X149022252Y-109885202D01*
X149134052Y-109922249D01*
X149236775Y-109932743D01*
X149486750Y-109932743D01*
X149986750Y-109932743D01*
X150236721Y-109932743D01*
X150236726Y-109932742D01*
X150339446Y-109922249D01*
X150505871Y-109867101D01*
X150655093Y-109775060D01*
X150655096Y-109775058D01*
X150778471Y-109651683D01*
X150830797Y-109630009D01*
X150868467Y-109640314D01*
X150960556Y-109694776D01*
X151115838Y-109739889D01*
X151136748Y-109741534D01*
X151136750Y-109741533D01*
X151636750Y-109741533D01*
X151636751Y-109741534D01*
X151657660Y-109739889D01*
X151657662Y-109739889D01*
X151812946Y-109694775D01*
X151952127Y-109612463D01*
X152066469Y-109498121D01*
X152148781Y-109358940D01*
X152191255Y-109212744D01*
X151636750Y-109212744D01*
X151636750Y-109741533D01*
X151136750Y-109741533D01*
X151136750Y-109212744D01*
X150570750Y-109212744D01*
X150518424Y-109191070D01*
X150496750Y-109138744D01*
X150496750Y-109082744D01*
X149986750Y-109082744D01*
X149986750Y-109932743D01*
X149486750Y-109932743D01*
X149486750Y-108906744D01*
X149508424Y-108854418D01*
X149560750Y-108832744D01*
X149736750Y-108832744D01*
X149736750Y-108656744D01*
X149758424Y-108604418D01*
X149810750Y-108582744D01*
X150942750Y-108582744D01*
X150995076Y-108604418D01*
X151016750Y-108656744D01*
X151016750Y-108712744D01*
X152191255Y-108712744D01*
X152191255Y-108712743D01*
X152148781Y-108566547D01*
X152066469Y-108427366D01*
X151952125Y-108313022D01*
X151927367Y-108298380D01*
X151893362Y-108253088D01*
X151891670Y-108225027D01*
X151891885Y-108223394D01*
X151897250Y-108182645D01*
X151897249Y-107822844D01*
X151891989Y-107782886D01*
X151906648Y-107728181D01*
X151955698Y-107699863D01*
X151986002Y-107702168D01*
X152115840Y-107739889D01*
X152115839Y-107739889D01*
X152136748Y-107741534D01*
X152136750Y-107741533D01*
X152636750Y-107741533D01*
X152636751Y-107741534D01*
X152657660Y-107739889D01*
X152657662Y-107739889D01*
X152812946Y-107694775D01*
X152952127Y-107612463D01*
X153066469Y-107498121D01*
X153148781Y-107358940D01*
X153191255Y-107212744D01*
X152636750Y-107212744D01*
X152636750Y-107741533D01*
X152136750Y-107741533D01*
X152136750Y-107212744D01*
X151460750Y-107212744D01*
X151408424Y-107191070D01*
X151386750Y-107138744D01*
X151386750Y-106786744D01*
X151408424Y-106734418D01*
X151460750Y-106712744D01*
X153191255Y-106712744D01*
X153191255Y-106712743D01*
X153148781Y-106566547D01*
X153066469Y-106427366D01*
X152952125Y-106313022D01*
X152927367Y-106298380D01*
X152893362Y-106253088D01*
X152891670Y-106225027D01*
X152897250Y-106182645D01*
X152897249Y-105822844D01*
X152890722Y-105773257D01*
X152839974Y-105664428D01*
X152755066Y-105579520D01*
X152646237Y-105528772D01*
X152646235Y-105528771D01*
X152609705Y-105523962D01*
X152596651Y-105522244D01*
X152596649Y-105522244D01*
X152361873Y-105522244D01*
X152309547Y-105500570D01*
X151985803Y-105176826D01*
X151964129Y-105124500D01*
X151985803Y-105072174D01*
X152038129Y-105050500D01*
X154271500Y-105050500D01*
X154323826Y-105072174D01*
X154345500Y-105124500D01*
X154345500Y-115185564D01*
X154365977Y-115261985D01*
X154365979Y-115261990D01*
X154405540Y-115330511D01*
X155427826Y-116352797D01*
X155449500Y-116405123D01*
X155449500Y-121487534D01*
X155469977Y-121563955D01*
X155469979Y-121563960D01*
X155475727Y-121573914D01*
X155475728Y-121573918D01*
X155475729Y-121573918D01*
X155509540Y-121632481D01*
X157375409Y-123498350D01*
X157397083Y-123550676D01*
X157391450Y-123578995D01*
X157328731Y-123730410D01*
X157328729Y-123730417D01*
X157300828Y-123870689D01*
X157288361Y-123933366D01*
X157288361Y-124140296D01*
X157290311Y-124150099D01*
X157328729Y-124343244D01*
X157328731Y-124343251D01*
X157407920Y-124534429D01*
X157522883Y-124706485D01*
X157669206Y-124852808D01*
X157841263Y-124967772D01*
X157875933Y-124982133D01*
X157915982Y-125022181D01*
X157915982Y-125078818D01*
X157875934Y-125118867D01*
X157847615Y-125124500D01*
X150044253Y-125124500D01*
X149991927Y-125102826D01*
X149970253Y-125050500D01*
X149991927Y-124998174D01*
X150010658Y-124984566D01*
X150167554Y-124904623D01*
X150167561Y-124904618D01*
X150221716Y-124865270D01*
X150221717Y-124865270D01*
X149589409Y-124232962D01*
X149652993Y-124215925D01*
X149767007Y-124150099D01*
X149860099Y-124057007D01*
X149925925Y-123942993D01*
X149942962Y-123879409D01*
X150575270Y-124511717D01*
X150575270Y-124511716D01*
X150614618Y-124457561D01*
X150614623Y-124457554D01*
X150711093Y-124268221D01*
X150711095Y-124268217D01*
X150776755Y-124066136D01*
X150776758Y-124066123D01*
X150807259Y-123873550D01*
X150836852Y-123825259D01*
X150891924Y-123812037D01*
X150940215Y-123841630D01*
X150952926Y-123870689D01*
X150989868Y-124056414D01*
X150989870Y-124056420D01*
X151069059Y-124247598D01*
X151135084Y-124346413D01*
X151184023Y-124419655D01*
X151330345Y-124565977D01*
X151502402Y-124680941D01*
X151693580Y-124760130D01*
X151896535Y-124800500D01*
X151896536Y-124800500D01*
X152103464Y-124800500D01*
X152103465Y-124800500D01*
X152306420Y-124760130D01*
X152497598Y-124680941D01*
X152669655Y-124565977D01*
X152815977Y-124419655D01*
X152930941Y-124247598D01*
X153010130Y-124056420D01*
X153050500Y-123853465D01*
X153050500Y-123646535D01*
X153010130Y-123443580D01*
X152930941Y-123252402D01*
X152815977Y-123080345D01*
X152669655Y-122934023D01*
X152589180Y-122880252D01*
X152497598Y-122819059D01*
X152306420Y-122739870D01*
X152306413Y-122739868D01*
X152153516Y-122709455D01*
X152103465Y-122699500D01*
X151896535Y-122699500D01*
X151856385Y-122707486D01*
X151693586Y-122739868D01*
X151693579Y-122739870D01*
X151502401Y-122819059D01*
X151330345Y-122934022D01*
X151330344Y-122934024D01*
X151184024Y-123080344D01*
X151184022Y-123080345D01*
X151069059Y-123252401D01*
X150989870Y-123443579D01*
X150989868Y-123443585D01*
X150952926Y-123629310D01*
X150921460Y-123676402D01*
X150865911Y-123687451D01*
X150818819Y-123655985D01*
X150807259Y-123626449D01*
X150776758Y-123433876D01*
X150776755Y-123433863D01*
X150711095Y-123231782D01*
X150711093Y-123231778D01*
X150614624Y-123042449D01*
X150614625Y-123042449D01*
X150575269Y-122988282D01*
X149942962Y-123620590D01*
X149925925Y-123557007D01*
X149860099Y-123442993D01*
X149767007Y-123349901D01*
X149652993Y-123284075D01*
X149589407Y-123267037D01*
X150221716Y-122634728D01*
X150167556Y-122595378D01*
X150167550Y-122595375D01*
X149978221Y-122498906D01*
X149978217Y-122498904D01*
X149776136Y-122433244D01*
X149776123Y-122433241D01*
X149566249Y-122400000D01*
X149353751Y-122400000D01*
X149143876Y-122433241D01*
X149143863Y-122433244D01*
X148941785Y-122498903D01*
X148752450Y-122595374D01*
X148698282Y-122634729D01*
X149330590Y-123267037D01*
X149267007Y-123284075D01*
X149152993Y-123349901D01*
X149059901Y-123442993D01*
X148994075Y-123557007D01*
X148977037Y-123620590D01*
X148344729Y-122988282D01*
X148305374Y-123042450D01*
X148208903Y-123231785D01*
X148143244Y-123433863D01*
X148143241Y-123433876D01*
X148117589Y-123595837D01*
X148087996Y-123644128D01*
X148032924Y-123657350D01*
X147984633Y-123627757D01*
X147970500Y-123584261D01*
X147970500Y-122880253D01*
X147970500Y-122880252D01*
X147958867Y-122821769D01*
X147957056Y-122819059D01*
X147944027Y-122799560D01*
X147914552Y-122755448D01*
X147848231Y-122711133D01*
X147789748Y-122699500D01*
X146050252Y-122699500D01*
X146021010Y-122705316D01*
X145991767Y-122711133D01*
X145925449Y-122755447D01*
X145925447Y-122755449D01*
X145881133Y-122821767D01*
X145869500Y-122880253D01*
X145869500Y-124619746D01*
X145881133Y-124678232D01*
X145902130Y-124709655D01*
X145925448Y-124744552D01*
X145969560Y-124774027D01*
X145991767Y-124788866D01*
X145991768Y-124788866D01*
X145991769Y-124788867D01*
X146050252Y-124800500D01*
X146050254Y-124800500D01*
X147789746Y-124800500D01*
X147789748Y-124800500D01*
X147848231Y-124788867D01*
X147914552Y-124744552D01*
X147958867Y-124678231D01*
X147970500Y-124619748D01*
X147970500Y-123915738D01*
X147992174Y-123863412D01*
X148044500Y-123841738D01*
X148096826Y-123863412D01*
X148117589Y-123904162D01*
X148143241Y-124066123D01*
X148143244Y-124066136D01*
X148208904Y-124268217D01*
X148208906Y-124268221D01*
X148305375Y-124457550D01*
X148305378Y-124457556D01*
X148344728Y-124511716D01*
X148977037Y-123879407D01*
X148994075Y-123942993D01*
X149059901Y-124057007D01*
X149152993Y-124150099D01*
X149267007Y-124215925D01*
X149330590Y-124232962D01*
X148698282Y-124865270D01*
X148752449Y-124904624D01*
X148909342Y-124984566D01*
X148946125Y-125027633D01*
X148941681Y-125084095D01*
X148898614Y-125120878D01*
X148875747Y-125124500D01*
X140908897Y-125124500D01*
X140856571Y-125102826D01*
X140834897Y-125050500D01*
X140856571Y-124998174D01*
X140880578Y-124982133D01*
X140907598Y-124970941D01*
X141079655Y-124855977D01*
X141225977Y-124709655D01*
X141340941Y-124537598D01*
X141420130Y-124346420D01*
X141460500Y-124143465D01*
X141460500Y-123936535D01*
X141420130Y-123733580D01*
X141357410Y-123582161D01*
X141357410Y-123525526D01*
X141373448Y-123501521D01*
X143940862Y-120934108D01*
X148239500Y-120934108D01*
X148239500Y-120938606D01*
X148239500Y-121065891D01*
X148266979Y-121168446D01*
X148269500Y-121187598D01*
X148269500Y-121224314D01*
X148275931Y-121273171D01*
X148275932Y-121273173D01*
X148325935Y-121380404D01*
X148409596Y-121464065D01*
X148516827Y-121514068D01*
X148565684Y-121520500D01*
X148565686Y-121520500D01*
X148914314Y-121520500D01*
X148914316Y-121520500D01*
X148963173Y-121514068D01*
X149070404Y-121464065D01*
X149154065Y-121380404D01*
X149182933Y-121318495D01*
X149224690Y-121280232D01*
X149281273Y-121282702D01*
X149317067Y-121318496D01*
X149345933Y-121380402D01*
X149345935Y-121380404D01*
X149429596Y-121464065D01*
X149536827Y-121514068D01*
X149585684Y-121520500D01*
X149585686Y-121520500D01*
X149934314Y-121520500D01*
X149934316Y-121520500D01*
X149983173Y-121514068D01*
X150090404Y-121464065D01*
X150174065Y-121380404D01*
X150224068Y-121273173D01*
X150230500Y-121224316D01*
X150230500Y-120775684D01*
X150224068Y-120726827D01*
X150174065Y-120619596D01*
X150090404Y-120535935D01*
X150085826Y-120531357D01*
X150086565Y-120530617D01*
X150082174Y-120528799D01*
X150073624Y-120508158D01*
X150061622Y-120489312D01*
X150060500Y-120476473D01*
X150060500Y-120395122D01*
X150082173Y-120342797D01*
X150626963Y-119798006D01*
X150679289Y-119776333D01*
X150731615Y-119798007D01*
X150811658Y-119878050D01*
X150924696Y-119935646D01*
X151018481Y-119950500D01*
X151481518Y-119950499D01*
X151481519Y-119950499D01*
X151575304Y-119935646D01*
X151575306Y-119935645D01*
X151591615Y-119927335D01*
X151688342Y-119878050D01*
X151778050Y-119788342D01*
X151835646Y-119675304D01*
X151850500Y-119581519D01*
X151850499Y-117918482D01*
X151846531Y-117893429D01*
X151835646Y-117824695D01*
X151835645Y-117824693D01*
X151778049Y-117711657D01*
X151688343Y-117621951D01*
X151688342Y-117621950D01*
X151575304Y-117564354D01*
X151575302Y-117564353D01*
X151575301Y-117564353D01*
X151481519Y-117549500D01*
X151018480Y-117549500D01*
X150924695Y-117564353D01*
X150924693Y-117564354D01*
X150811657Y-117621950D01*
X150721951Y-117711656D01*
X150664353Y-117824698D01*
X150649500Y-117918480D01*
X150649500Y-118894876D01*
X150627826Y-118947202D01*
X149575489Y-119999540D01*
X149519540Y-120055488D01*
X149479979Y-120124009D01*
X149479977Y-120124014D01*
X149459500Y-120200435D01*
X149459500Y-120476473D01*
X149437826Y-120528799D01*
X149431020Y-120534510D01*
X149345935Y-120619595D01*
X149345935Y-120619596D01*
X149317371Y-120680853D01*
X149317067Y-120681504D01*
X149275309Y-120719767D01*
X149218726Y-120717297D01*
X149182933Y-120681504D01*
X149182630Y-120680854D01*
X149154065Y-120619596D01*
X149070404Y-120535935D01*
X148963173Y-120485932D01*
X148963171Y-120485931D01*
X148927178Y-120481193D01*
X148914316Y-120479500D01*
X148565684Y-120479500D01*
X148554318Y-120480996D01*
X148516828Y-120485931D01*
X148409595Y-120535935D01*
X148325935Y-120619595D01*
X148275931Y-120726828D01*
X148269500Y-120775685D01*
X148269500Y-120812401D01*
X148267125Y-120830443D01*
X148267176Y-120830802D01*
X148267075Y-120831193D01*
X148239500Y-120934108D01*
X143940862Y-120934108D01*
X145268388Y-119606583D01*
X146150001Y-119606583D01*
X146156408Y-119677102D01*
X146156409Y-119677106D01*
X146206979Y-119839393D01*
X146294925Y-119984874D01*
X146415125Y-120105074D01*
X146560606Y-120193020D01*
X146722890Y-120243589D01*
X146722901Y-120243591D01*
X146793421Y-120249999D01*
X147300000Y-120249999D01*
X147306571Y-120249999D01*
X147306583Y-120249998D01*
X147377102Y-120243591D01*
X147377106Y-120243590D01*
X147539393Y-120193020D01*
X147684874Y-120105074D01*
X147805074Y-119984874D01*
X147893020Y-119839393D01*
X147943589Y-119677109D01*
X147943591Y-119677099D01*
X147949999Y-119606582D01*
X147950000Y-119606573D01*
X147950000Y-119000000D01*
X147300000Y-119000000D01*
X147300000Y-120249999D01*
X146793421Y-120249999D01*
X146800000Y-120249998D01*
X146800000Y-119000000D01*
X146150001Y-119000000D01*
X146150001Y-119606583D01*
X145268388Y-119606583D01*
X145740460Y-119134511D01*
X145780021Y-119065989D01*
X145800499Y-118989564D01*
X145800500Y-118989564D01*
X145800500Y-117893417D01*
X146150000Y-117893417D01*
X146150000Y-118500000D01*
X146800000Y-118500000D01*
X147300000Y-118500000D01*
X147949999Y-118500000D01*
X147949999Y-117893429D01*
X147949998Y-117893416D01*
X147943591Y-117822897D01*
X147943590Y-117822893D01*
X147893020Y-117660606D01*
X147805074Y-117515125D01*
X147684874Y-117394925D01*
X147539393Y-117306979D01*
X147377109Y-117256410D01*
X147377099Y-117256408D01*
X147306582Y-117250000D01*
X147300000Y-117250000D01*
X147300000Y-118500000D01*
X146800000Y-118500000D01*
X146800000Y-117250000D01*
X146799999Y-117249999D01*
X146793434Y-117250000D01*
X146793411Y-117250001D01*
X146722897Y-117256408D01*
X146722893Y-117256409D01*
X146560606Y-117306979D01*
X146415125Y-117394925D01*
X146294925Y-117515125D01*
X146206979Y-117660606D01*
X146156410Y-117822890D01*
X146156408Y-117822900D01*
X146150000Y-117893417D01*
X145800500Y-117893417D01*
X145800500Y-107155122D01*
X145822173Y-107102797D01*
X146210425Y-106714545D01*
X146262750Y-106692872D01*
X146315076Y-106714546D01*
X146336750Y-106766872D01*
X146336750Y-106882744D01*
X147286750Y-106882744D01*
X147286750Y-106032744D01*
X147070877Y-106032744D01*
X147018551Y-106011070D01*
X146996877Y-105958744D01*
X147018549Y-105906421D01*
X148027210Y-104897761D01*
X148035148Y-104884012D01*
X148066771Y-104829239D01*
X148087249Y-104752814D01*
X148087250Y-104752814D01*
X148087250Y-103694244D01*
X148108924Y-103641918D01*
X148161250Y-103620244D01*
X148212250Y-103620244D01*
X148264576Y-103641918D01*
G37*
%TD.AperFunction*%
%TA.AperFunction,Conductor*%
G36*
X159454131Y-119718548D02*
G01*
X159454131Y-119718547D01*
X159490634Y-119668309D01*
X159538925Y-119638717D01*
X159593997Y-119651940D01*
X159623589Y-119700231D01*
X159624500Y-119711806D01*
X159624500Y-125050500D01*
X159602826Y-125102826D01*
X159550500Y-125124500D01*
X158830107Y-125124500D01*
X158777781Y-125102826D01*
X158756107Y-125050500D01*
X158777781Y-124998174D01*
X158801789Y-124982133D01*
X158828808Y-124970941D01*
X158836459Y-124967772D01*
X159008516Y-124852808D01*
X159154838Y-124706486D01*
X159269802Y-124534429D01*
X159348991Y-124343251D01*
X159389361Y-124140296D01*
X159389361Y-123933366D01*
X159348991Y-123730411D01*
X159269802Y-123539233D01*
X159154838Y-123367176D01*
X159008516Y-123220854D01*
X158836459Y-123105890D01*
X158645281Y-123026701D01*
X158645274Y-123026699D01*
X158492377Y-122996286D01*
X158442326Y-122986331D01*
X158235396Y-122986331D01*
X158195246Y-122994317D01*
X158032447Y-123026699D01*
X158032440Y-123026701D01*
X157881025Y-123089420D01*
X157824387Y-123089420D01*
X157800380Y-123073379D01*
X156072174Y-121345173D01*
X156050500Y-121292847D01*
X156050500Y-119812093D01*
X156072174Y-119759767D01*
X156124500Y-119738093D01*
X156176826Y-119759767D01*
X157375409Y-120958350D01*
X157397083Y-121010676D01*
X157391450Y-121038995D01*
X157328731Y-121190410D01*
X157328729Y-121190417D01*
X157310373Y-121282702D01*
X157288361Y-121393366D01*
X157288361Y-121600296D01*
X157294763Y-121632481D01*
X157328729Y-121803244D01*
X157328731Y-121803251D01*
X157407920Y-121994429D01*
X157522884Y-122166486D01*
X157669206Y-122312808D01*
X157841263Y-122427772D01*
X158032441Y-122506961D01*
X158235396Y-122547331D01*
X158235397Y-122547331D01*
X158442325Y-122547331D01*
X158442326Y-122547331D01*
X158645281Y-122506961D01*
X158836459Y-122427772D01*
X159008516Y-122312808D01*
X159154838Y-122166486D01*
X159269802Y-121994429D01*
X159348991Y-121803251D01*
X159389361Y-121600296D01*
X159389361Y-121393366D01*
X159348991Y-121190411D01*
X159269802Y-120999233D01*
X159154838Y-120827176D01*
X159008516Y-120680854D01*
X158916836Y-120619596D01*
X158836459Y-120565890D01*
X158645281Y-120486701D01*
X158645275Y-120486699D01*
X158459550Y-120449757D01*
X158412458Y-120418291D01*
X158401409Y-120362742D01*
X158432875Y-120315650D01*
X158462411Y-120304090D01*
X158654984Y-120273589D01*
X158654997Y-120273586D01*
X158857078Y-120207926D01*
X158857082Y-120207924D01*
X159046415Y-120111454D01*
X159046422Y-120111449D01*
X159100577Y-120072101D01*
X158468269Y-119439793D01*
X158531854Y-119422756D01*
X158645868Y-119356930D01*
X158738960Y-119263838D01*
X158804786Y-119149824D01*
X158821823Y-119086240D01*
X159454131Y-119718548D01*
G37*
%TD.AperFunction*%
%TA.AperFunction,Conductor*%
G36*
X144578826Y-112780796D02*
G01*
X144600500Y-112833122D01*
X144600500Y-116853876D01*
X144578826Y-116906202D01*
X141557692Y-119927335D01*
X141505366Y-119949009D01*
X141453040Y-119927335D01*
X141431366Y-119875009D01*
X141445499Y-119831513D01*
X141564621Y-119667556D01*
X141564624Y-119667550D01*
X141661093Y-119478221D01*
X141661095Y-119478217D01*
X141726755Y-119276136D01*
X141726758Y-119276123D01*
X141760000Y-119066248D01*
X141760000Y-118853751D01*
X141726758Y-118643876D01*
X141726755Y-118643863D01*
X141661095Y-118441782D01*
X141661093Y-118441778D01*
X141564624Y-118252449D01*
X141564625Y-118252449D01*
X141525269Y-118198282D01*
X140892962Y-118830590D01*
X140875925Y-118767007D01*
X140810099Y-118652993D01*
X140717007Y-118559901D01*
X140602993Y-118494075D01*
X140539407Y-118477037D01*
X141171716Y-117844728D01*
X141117556Y-117805378D01*
X141117550Y-117805375D01*
X140928221Y-117708906D01*
X140928217Y-117708904D01*
X140726136Y-117643244D01*
X140726125Y-117643242D01*
X140533549Y-117612740D01*
X140485259Y-117583147D01*
X140472037Y-117528074D01*
X140501630Y-117479784D01*
X140530686Y-117467074D01*
X140716420Y-117430130D01*
X140907598Y-117350941D01*
X141079655Y-117235977D01*
X141225977Y-117089655D01*
X141340941Y-116917598D01*
X141420130Y-116726420D01*
X141460500Y-116523465D01*
X141460500Y-116316535D01*
X141420130Y-116113580D01*
X141357410Y-115962161D01*
X141357410Y-115905526D01*
X141373448Y-115881521D01*
X144474175Y-112780795D01*
X144526500Y-112759122D01*
X144578826Y-112780796D01*
G37*
%TD.AperFunction*%
%TA.AperFunction,Conductor*%
G36*
X155473826Y-113976767D02*
G01*
X157375409Y-115878350D01*
X157397083Y-115930676D01*
X157391450Y-115958994D01*
X157390853Y-115960436D01*
X157328731Y-116110410D01*
X157328729Y-116110417D01*
X157328099Y-116113586D01*
X157288361Y-116313366D01*
X157288361Y-116520296D01*
X157298316Y-116570347D01*
X157328729Y-116723244D01*
X157328731Y-116723251D01*
X157407920Y-116914429D01*
X157502530Y-117056025D01*
X157522884Y-117086486D01*
X157669206Y-117232808D01*
X157841263Y-117347772D01*
X158032441Y-117426961D01*
X158218171Y-117463904D01*
X158265263Y-117495369D01*
X158276312Y-117550918D01*
X158244847Y-117598011D01*
X158215311Y-117609571D01*
X158022735Y-117640073D01*
X158022724Y-117640075D01*
X157820646Y-117705734D01*
X157631311Y-117802205D01*
X157577143Y-117841560D01*
X158209451Y-118473868D01*
X158145868Y-118490906D01*
X158031854Y-118556732D01*
X157938762Y-118649824D01*
X157872936Y-118763838D01*
X157855898Y-118827422D01*
X157223590Y-118195113D01*
X157184235Y-118249281D01*
X157087764Y-118438616D01*
X157022105Y-118640694D01*
X157022102Y-118640707D01*
X156988861Y-118850582D01*
X156988861Y-119063079D01*
X157022102Y-119272954D01*
X157022105Y-119272967D01*
X157087765Y-119475048D01*
X157087767Y-119475052D01*
X157184236Y-119664381D01*
X157184239Y-119664387D01*
X157303363Y-119828347D01*
X157316585Y-119883419D01*
X157286992Y-119931710D01*
X157231920Y-119944932D01*
X157191170Y-119924169D01*
X156572174Y-119305173D01*
X156550500Y-119252847D01*
X156550500Y-115960436D01*
X156550499Y-115960435D01*
X156530022Y-115884014D01*
X156530020Y-115884009D01*
X156490459Y-115815488D01*
X155369174Y-114694203D01*
X155347500Y-114641877D01*
X155347500Y-114029093D01*
X155369174Y-113976767D01*
X155421500Y-113955093D01*
X155473826Y-113976767D01*
G37*
%TD.AperFunction*%
%TA.AperFunction,Conductor*%
G36*
X139944075Y-106452993D02*
G01*
X140009901Y-106567007D01*
X140102993Y-106660099D01*
X140217007Y-106725925D01*
X140280590Y-106742962D01*
X139648282Y-107375270D01*
X139702449Y-107414624D01*
X139891778Y-107511093D01*
X139891782Y-107511095D01*
X140093863Y-107576755D01*
X140093876Y-107576758D01*
X140286449Y-107607259D01*
X140334740Y-107636852D01*
X140347962Y-107691924D01*
X140318369Y-107740215D01*
X140289310Y-107752926D01*
X140103585Y-107789868D01*
X140103579Y-107789870D01*
X139912401Y-107869059D01*
X139740345Y-107984022D01*
X139740344Y-107984024D01*
X139594024Y-108130344D01*
X139594022Y-108130345D01*
X139479059Y-108302401D01*
X139399870Y-108493579D01*
X139399868Y-108493586D01*
X139359500Y-108696535D01*
X139359500Y-108903464D01*
X139399868Y-109106413D01*
X139399870Y-109106420D01*
X139479059Y-109297598D01*
X139591905Y-109466486D01*
X139594023Y-109469655D01*
X139740345Y-109615977D01*
X139912402Y-109730941D01*
X140103580Y-109810130D01*
X140306535Y-109850500D01*
X140306536Y-109850500D01*
X140513464Y-109850500D01*
X140513465Y-109850500D01*
X140716420Y-109810130D01*
X140907598Y-109730941D01*
X141079655Y-109615977D01*
X141225977Y-109469655D01*
X141340941Y-109297598D01*
X141403660Y-109146180D01*
X141443708Y-109106133D01*
X141472027Y-109100500D01*
X141739564Y-109100500D01*
X141739564Y-109100499D01*
X141815989Y-109080021D01*
X141884511Y-109040460D01*
X141940460Y-108984511D01*
X143073174Y-107851797D01*
X143125500Y-107830123D01*
X143177826Y-107851797D01*
X143199500Y-107904123D01*
X143199500Y-109594877D01*
X143177826Y-109647203D01*
X141807203Y-111017826D01*
X141754877Y-111039500D01*
X141472027Y-111039500D01*
X141419701Y-111017826D01*
X141403660Y-110993819D01*
X141393812Y-110970043D01*
X141340941Y-110842402D01*
X141225977Y-110670345D01*
X141079655Y-110524023D01*
X141074912Y-110520854D01*
X140907598Y-110409059D01*
X140716420Y-110329870D01*
X140716413Y-110329868D01*
X140563516Y-110299455D01*
X140513465Y-110289500D01*
X140306535Y-110289500D01*
X140266385Y-110297486D01*
X140103586Y-110329868D01*
X140103579Y-110329870D01*
X139912401Y-110409059D01*
X139740345Y-110524022D01*
X139740344Y-110524024D01*
X139594024Y-110670344D01*
X139594022Y-110670345D01*
X139479059Y-110842401D01*
X139399870Y-111033579D01*
X139399868Y-111033586D01*
X139359500Y-111236535D01*
X139359500Y-111443464D01*
X139399868Y-111646413D01*
X139399870Y-111646420D01*
X139479059Y-111837598D01*
X139591905Y-112006486D01*
X139594023Y-112009655D01*
X139740345Y-112155977D01*
X139912402Y-112270941D01*
X140103580Y-112350130D01*
X140306535Y-112390500D01*
X140306536Y-112390500D01*
X140513464Y-112390500D01*
X140513465Y-112390500D01*
X140716420Y-112350130D01*
X140907598Y-112270941D01*
X141079655Y-112155977D01*
X141225977Y-112009655D01*
X141340941Y-111837598D01*
X141403660Y-111686180D01*
X141443708Y-111646133D01*
X141472027Y-111640500D01*
X141949564Y-111640500D01*
X141949564Y-111640499D01*
X142025989Y-111620021D01*
X142057410Y-111601879D01*
X142113561Y-111594486D01*
X142158495Y-111628963D01*
X142165889Y-111685116D01*
X142146736Y-111718291D01*
X140948480Y-112916547D01*
X140896154Y-112938221D01*
X140867836Y-112932588D01*
X140716424Y-112869871D01*
X140716413Y-112869868D01*
X140531674Y-112833122D01*
X140513465Y-112829500D01*
X140306535Y-112829500D01*
X140288326Y-112833122D01*
X140103586Y-112869868D01*
X140103579Y-112869870D01*
X139912401Y-112949059D01*
X139740345Y-113064022D01*
X139740344Y-113064024D01*
X139594024Y-113210344D01*
X139594022Y-113210345D01*
X139479059Y-113382401D01*
X139399870Y-113573579D01*
X139399868Y-113573586D01*
X139359500Y-113776535D01*
X139359500Y-113983464D01*
X139399868Y-114186413D01*
X139399870Y-114186420D01*
X139479059Y-114377598D01*
X139591905Y-114546486D01*
X139594023Y-114549655D01*
X139740345Y-114695977D01*
X139912402Y-114810941D01*
X140103580Y-114890130D01*
X140306535Y-114930500D01*
X140306536Y-114930500D01*
X140513464Y-114930500D01*
X140513465Y-114930500D01*
X140716420Y-114890130D01*
X140907598Y-114810941D01*
X141079655Y-114695977D01*
X141225977Y-114549655D01*
X141340941Y-114377598D01*
X141420130Y-114186420D01*
X141460500Y-113983465D01*
X141460500Y-113776535D01*
X141420130Y-113573580D01*
X141357410Y-113422161D01*
X141357410Y-113365526D01*
X141373448Y-113341521D01*
X144073175Y-110641795D01*
X144125500Y-110620122D01*
X144177826Y-110641796D01*
X144199500Y-110694122D01*
X144199500Y-112174876D01*
X144177826Y-112227202D01*
X140948480Y-115456547D01*
X140896154Y-115478221D01*
X140867836Y-115472588D01*
X140716424Y-115409871D01*
X140716413Y-115409868D01*
X140563516Y-115379455D01*
X140513465Y-115369500D01*
X140306535Y-115369500D01*
X140266385Y-115377486D01*
X140103586Y-115409868D01*
X140103579Y-115409870D01*
X139912401Y-115489059D01*
X139740345Y-115604022D01*
X139740344Y-115604024D01*
X139594024Y-115750344D01*
X139594022Y-115750345D01*
X139479059Y-115922401D01*
X139399870Y-116113579D01*
X139399868Y-116113586D01*
X139359500Y-116316535D01*
X139359500Y-116523464D01*
X139399868Y-116726413D01*
X139399870Y-116726420D01*
X139479059Y-116917598D01*
X139591905Y-117086486D01*
X139594023Y-117089655D01*
X139740345Y-117235977D01*
X139912402Y-117350941D01*
X140103580Y-117430130D01*
X140289310Y-117467073D01*
X140336402Y-117498538D01*
X140347451Y-117554087D01*
X140315986Y-117601180D01*
X140286450Y-117612740D01*
X140093874Y-117643242D01*
X140093863Y-117643244D01*
X139891785Y-117708903D01*
X139702450Y-117805374D01*
X139648282Y-117844729D01*
X140280590Y-118477037D01*
X140217007Y-118494075D01*
X140102993Y-118559901D01*
X140009901Y-118652993D01*
X139944075Y-118767007D01*
X139927037Y-118830590D01*
X139294729Y-118198282D01*
X139294728Y-118198282D01*
X139259367Y-118246953D01*
X139211076Y-118276546D01*
X139156004Y-118263324D01*
X139126411Y-118215033D01*
X139125500Y-118203457D01*
X139125500Y-107016541D01*
X139147174Y-106964215D01*
X139199500Y-106942541D01*
X139251826Y-106964215D01*
X139259367Y-106973045D01*
X139294728Y-107021716D01*
X139927037Y-106389407D01*
X139944075Y-106452993D01*
G37*
%TD.AperFunction*%
%TA.AperFunction,Conductor*%
G36*
X159454131Y-107018548D02*
G01*
X159454131Y-107018547D01*
X159490634Y-106968309D01*
X159538925Y-106938717D01*
X159593997Y-106951940D01*
X159623589Y-107000231D01*
X159624500Y-107011806D01*
X159624500Y-118201856D01*
X159602826Y-118254182D01*
X159550500Y-118275856D01*
X159498174Y-118254182D01*
X159490633Y-118245353D01*
X159454130Y-118195113D01*
X158821823Y-118827421D01*
X158804786Y-118763838D01*
X158738960Y-118649824D01*
X158645868Y-118556732D01*
X158531854Y-118490906D01*
X158468268Y-118473868D01*
X159100577Y-117841559D01*
X159046417Y-117802209D01*
X159046411Y-117802206D01*
X158857082Y-117705737D01*
X158857078Y-117705735D01*
X158654997Y-117640075D01*
X158654986Y-117640073D01*
X158462410Y-117609571D01*
X158414120Y-117579978D01*
X158400898Y-117524905D01*
X158430491Y-117476615D01*
X158459547Y-117463905D01*
X158645281Y-117426961D01*
X158836459Y-117347772D01*
X159008516Y-117232808D01*
X159154838Y-117086486D01*
X159269802Y-116914429D01*
X159348991Y-116723251D01*
X159389361Y-116520296D01*
X159389361Y-116313366D01*
X159348991Y-116110411D01*
X159269802Y-115919233D01*
X159154838Y-115747176D01*
X159008516Y-115600854D01*
X158836459Y-115485890D01*
X158645281Y-115406701D01*
X158645274Y-115406699D01*
X158492377Y-115376286D01*
X158442326Y-115366331D01*
X158235396Y-115366331D01*
X158195246Y-115374317D01*
X158032447Y-115406699D01*
X158032440Y-115406701D01*
X157881025Y-115469420D01*
X157824387Y-115469420D01*
X157800380Y-115453379D01*
X155770174Y-113423173D01*
X155748500Y-113370847D01*
X155748500Y-111890093D01*
X155770174Y-111837767D01*
X155822500Y-111816093D01*
X155874826Y-111837767D01*
X157375409Y-113338350D01*
X157397083Y-113390676D01*
X157391450Y-113418995D01*
X157328731Y-113570410D01*
X157328729Y-113570417D01*
X157328099Y-113573586D01*
X157288361Y-113773366D01*
X157288361Y-113980296D01*
X157298067Y-114029093D01*
X157328729Y-114183244D01*
X157328731Y-114183251D01*
X157407920Y-114374429D01*
X157522884Y-114546486D01*
X157669206Y-114692808D01*
X157841263Y-114807772D01*
X158032441Y-114886961D01*
X158235396Y-114927331D01*
X158235397Y-114927331D01*
X158442325Y-114927331D01*
X158442326Y-114927331D01*
X158645281Y-114886961D01*
X158836459Y-114807772D01*
X159008516Y-114692808D01*
X159154838Y-114546486D01*
X159269802Y-114374429D01*
X159348991Y-114183251D01*
X159389361Y-113980296D01*
X159389361Y-113773366D01*
X159348991Y-113570411D01*
X159269802Y-113379233D01*
X159154838Y-113207176D01*
X159008516Y-113060854D01*
X158836459Y-112945890D01*
X158645281Y-112866701D01*
X158645274Y-112866699D01*
X158476467Y-112833122D01*
X158442326Y-112826331D01*
X158235396Y-112826331D01*
X158201255Y-112833122D01*
X158032447Y-112866699D01*
X158032440Y-112866701D01*
X157881025Y-112929420D01*
X157824387Y-112929420D01*
X157800380Y-112913379D01*
X156171174Y-111284173D01*
X156150129Y-111233366D01*
X157288361Y-111233366D01*
X157288361Y-111440296D01*
X157298316Y-111490347D01*
X157328729Y-111643244D01*
X157328731Y-111643251D01*
X157407920Y-111834429D01*
X157522884Y-112006486D01*
X157669206Y-112152808D01*
X157841263Y-112267772D01*
X158032441Y-112346961D01*
X158235396Y-112387331D01*
X158235397Y-112387331D01*
X158442325Y-112387331D01*
X158442326Y-112387331D01*
X158645281Y-112346961D01*
X158836459Y-112267772D01*
X159008516Y-112152808D01*
X159154838Y-112006486D01*
X159269802Y-111834429D01*
X159348991Y-111643251D01*
X159389361Y-111440296D01*
X159389361Y-111233366D01*
X159348991Y-111030411D01*
X159269802Y-110839233D01*
X159154838Y-110667176D01*
X159008516Y-110520854D01*
X158977642Y-110500225D01*
X158836459Y-110405890D01*
X158645281Y-110326701D01*
X158645274Y-110326699D01*
X158462400Y-110290324D01*
X158442326Y-110286331D01*
X158235396Y-110286331D01*
X158215322Y-110290324D01*
X158032447Y-110326699D01*
X158032440Y-110326701D01*
X157841262Y-110405890D01*
X157669206Y-110520853D01*
X157669205Y-110520855D01*
X157522885Y-110667175D01*
X157522883Y-110667176D01*
X157407920Y-110839232D01*
X157328731Y-111030410D01*
X157328729Y-111030417D01*
X157288663Y-111231847D01*
X157288361Y-111233366D01*
X156150129Y-111233366D01*
X156149500Y-111231847D01*
X156149500Y-107211093D01*
X156171174Y-107158767D01*
X156223500Y-107137093D01*
X156275826Y-107158767D01*
X157375409Y-108258350D01*
X157397083Y-108310676D01*
X157391450Y-108338995D01*
X157328731Y-108490410D01*
X157328729Y-108490417D01*
X157288361Y-108693366D01*
X157288361Y-108900296D01*
X157289644Y-108906744D01*
X157328729Y-109103244D01*
X157328731Y-109103251D01*
X157407920Y-109294429D01*
X157475536Y-109395625D01*
X157522884Y-109466486D01*
X157669206Y-109612808D01*
X157841263Y-109727772D01*
X158032441Y-109806961D01*
X158235396Y-109847331D01*
X158235397Y-109847331D01*
X158442325Y-109847331D01*
X158442326Y-109847331D01*
X158645281Y-109806961D01*
X158836459Y-109727772D01*
X159008516Y-109612808D01*
X159154838Y-109466486D01*
X159269802Y-109294429D01*
X159348991Y-109103251D01*
X159389361Y-108900296D01*
X159389361Y-108693366D01*
X159348991Y-108490411D01*
X159269802Y-108299233D01*
X159154838Y-108127176D01*
X159008516Y-107980854D01*
X158963972Y-107951091D01*
X158836459Y-107865890D01*
X158645281Y-107786701D01*
X158645275Y-107786699D01*
X158459550Y-107749757D01*
X158412458Y-107718291D01*
X158401409Y-107662742D01*
X158432875Y-107615650D01*
X158462411Y-107604090D01*
X158654984Y-107573589D01*
X158654997Y-107573586D01*
X158857078Y-107507926D01*
X158857082Y-107507924D01*
X159046415Y-107411454D01*
X159046422Y-107411449D01*
X159100577Y-107372101D01*
X158468269Y-106739793D01*
X158531854Y-106722756D01*
X158645868Y-106656930D01*
X158738960Y-106563838D01*
X158804786Y-106449824D01*
X158821823Y-106386240D01*
X159454131Y-107018548D01*
G37*
%TD.AperFunction*%
%TA.AperFunction,Conductor*%
G36*
X142928203Y-104042174D02*
G01*
X142949877Y-104094500D01*
X142928203Y-104146826D01*
X142759540Y-104315488D01*
X142719979Y-104384009D01*
X142719977Y-104384014D01*
X142699500Y-104460435D01*
X142699500Y-107344877D01*
X142677826Y-107397203D01*
X141597203Y-108477826D01*
X141544877Y-108499500D01*
X141472027Y-108499500D01*
X141419701Y-108477826D01*
X141403660Y-108453819D01*
X141393166Y-108428484D01*
X141340941Y-108302402D01*
X141225977Y-108130345D01*
X141079655Y-107984023D01*
X141074912Y-107980854D01*
X140907598Y-107869059D01*
X140716420Y-107789870D01*
X140716414Y-107789868D01*
X140530689Y-107752926D01*
X140483597Y-107721460D01*
X140472548Y-107665911D01*
X140504014Y-107618819D01*
X140533550Y-107607259D01*
X140726123Y-107576758D01*
X140726136Y-107576755D01*
X140928217Y-107511095D01*
X140928221Y-107511093D01*
X141117554Y-107414623D01*
X141117561Y-107414618D01*
X141171716Y-107375270D01*
X141171717Y-107375270D01*
X140539409Y-106742962D01*
X140602993Y-106725925D01*
X140717007Y-106660099D01*
X140810099Y-106567007D01*
X140875925Y-106452993D01*
X140892962Y-106389409D01*
X141525270Y-107021717D01*
X141525270Y-107021716D01*
X141564618Y-106967561D01*
X141564623Y-106967554D01*
X141661093Y-106778221D01*
X141661095Y-106778217D01*
X141726755Y-106576136D01*
X141726758Y-106576123D01*
X141760000Y-106366248D01*
X141760000Y-106153751D01*
X141726758Y-105943876D01*
X141726755Y-105943863D01*
X141661095Y-105741782D01*
X141661093Y-105741778D01*
X141564624Y-105552449D01*
X141564625Y-105552449D01*
X141525269Y-105498282D01*
X140892962Y-106130590D01*
X140875925Y-106067007D01*
X140810099Y-105952993D01*
X140717007Y-105859901D01*
X140602993Y-105794075D01*
X140539407Y-105777037D01*
X141171716Y-105144728D01*
X141117556Y-105105378D01*
X141117550Y-105105375D01*
X140928221Y-105008906D01*
X140928217Y-105008904D01*
X140726136Y-104943244D01*
X140726125Y-104943242D01*
X140533549Y-104912740D01*
X140485259Y-104883147D01*
X140472037Y-104828074D01*
X140501630Y-104779784D01*
X140530686Y-104767074D01*
X140716420Y-104730130D01*
X140907598Y-104650941D01*
X141079655Y-104535977D01*
X141225977Y-104389655D01*
X141340941Y-104217598D01*
X141403660Y-104066180D01*
X141443708Y-104026133D01*
X141472027Y-104020500D01*
X142875877Y-104020500D01*
X142928203Y-104042174D01*
G37*
%TD.AperFunction*%
%TA.AperFunction,Conductor*%
G36*
X156302535Y-101449209D02*
G01*
X156324209Y-101501535D01*
X156324209Y-102232039D01*
X156387427Y-102213673D01*
X156407351Y-102215872D01*
X156427226Y-102213256D01*
X156434548Y-102218875D01*
X156443723Y-102219888D01*
X156472159Y-102247735D01*
X156490722Y-102279887D01*
X156509540Y-102312481D01*
X157375409Y-103178350D01*
X157397083Y-103230676D01*
X157391450Y-103258995D01*
X157328731Y-103410410D01*
X157328729Y-103410417D01*
X157311231Y-103498388D01*
X157288361Y-103613366D01*
X157288361Y-103820296D01*
X157298316Y-103870347D01*
X157328729Y-104023244D01*
X157328731Y-104023251D01*
X157407920Y-104214429D01*
X157521603Y-104384570D01*
X157522884Y-104386486D01*
X157669206Y-104532808D01*
X157841263Y-104647772D01*
X158032441Y-104726961D01*
X158218171Y-104763904D01*
X158265263Y-104795369D01*
X158276312Y-104850918D01*
X158244847Y-104898011D01*
X158215311Y-104909571D01*
X158022735Y-104940073D01*
X158022724Y-104940075D01*
X157820646Y-105005734D01*
X157631311Y-105102205D01*
X157577143Y-105141560D01*
X158209451Y-105773868D01*
X158145868Y-105790906D01*
X158031854Y-105856732D01*
X157938762Y-105949824D01*
X157872936Y-106063838D01*
X157855898Y-106127422D01*
X157223590Y-105495113D01*
X157184235Y-105549281D01*
X157087764Y-105738616D01*
X157022105Y-105940694D01*
X157022102Y-105940707D01*
X156988861Y-106150582D01*
X156988861Y-106363079D01*
X157022102Y-106572954D01*
X157022105Y-106572967D01*
X157087765Y-106775048D01*
X157087767Y-106775052D01*
X157184236Y-106964381D01*
X157184239Y-106964387D01*
X157303363Y-107128347D01*
X157316585Y-107183419D01*
X157286992Y-107231710D01*
X157231920Y-107244932D01*
X157191170Y-107224169D01*
X156572174Y-106605173D01*
X156550500Y-106552847D01*
X156550500Y-103643336D01*
X156550499Y-103643335D01*
X156550119Y-103641918D01*
X156530021Y-103566911D01*
X156490460Y-103498389D01*
X156434511Y-103442440D01*
X155056431Y-102064360D01*
X155034757Y-102012034D01*
X155056431Y-101959708D01*
X155108755Y-101938034D01*
X155294109Y-101938034D01*
X155336495Y-101932454D01*
X155391200Y-101947113D01*
X155409846Y-101968152D01*
X155424489Y-101992912D01*
X155538831Y-102107254D01*
X155678012Y-102189566D01*
X155824208Y-102232040D01*
X155824209Y-102232040D01*
X155824209Y-101501535D01*
X155845883Y-101449209D01*
X155898209Y-101427535D01*
X156250209Y-101427535D01*
X156302535Y-101449209D01*
G37*
%TD.AperFunction*%
%TA.AperFunction,Conductor*%
G36*
X139944075Y-93752993D02*
G01*
X140009901Y-93867007D01*
X140102993Y-93960099D01*
X140217007Y-94025925D01*
X140280589Y-94042962D01*
X139648282Y-94675269D01*
X139702449Y-94714624D01*
X139891778Y-94811093D01*
X139891782Y-94811095D01*
X140093863Y-94876755D01*
X140093876Y-94876758D01*
X140286449Y-94907259D01*
X140334740Y-94936852D01*
X140347962Y-94991924D01*
X140318369Y-95040215D01*
X140289310Y-95052926D01*
X140103585Y-95089868D01*
X140103579Y-95089870D01*
X139912401Y-95169059D01*
X139740345Y-95284022D01*
X139740344Y-95284024D01*
X139594024Y-95430344D01*
X139594022Y-95430345D01*
X139479059Y-95602401D01*
X139399870Y-95793579D01*
X139399868Y-95793586D01*
X139359500Y-95996535D01*
X139359500Y-96203464D01*
X139399868Y-96406413D01*
X139399870Y-96406420D01*
X139479059Y-96597598D01*
X139591905Y-96766486D01*
X139594023Y-96769655D01*
X139740345Y-96915977D01*
X139912402Y-97030941D01*
X140103580Y-97110130D01*
X140306535Y-97150500D01*
X140306536Y-97150500D01*
X140513464Y-97150500D01*
X140513465Y-97150500D01*
X140716420Y-97110130D01*
X140907598Y-97030941D01*
X141079655Y-96915977D01*
X141134174Y-96861458D01*
X141186500Y-96839784D01*
X141238826Y-96861458D01*
X141260500Y-96913784D01*
X141260500Y-97826216D01*
X141238826Y-97878542D01*
X141186500Y-97900216D01*
X141134174Y-97878542D01*
X141079654Y-97824022D01*
X140907598Y-97709059D01*
X140716420Y-97629870D01*
X140716413Y-97629868D01*
X140563516Y-97599455D01*
X140513465Y-97589500D01*
X140306535Y-97589500D01*
X140266385Y-97597486D01*
X140103586Y-97629868D01*
X140103579Y-97629870D01*
X139912401Y-97709059D01*
X139740345Y-97824022D01*
X139740344Y-97824024D01*
X139594024Y-97970344D01*
X139594022Y-97970345D01*
X139479059Y-98142401D01*
X139399870Y-98333579D01*
X139399868Y-98333586D01*
X139359500Y-98536535D01*
X139359500Y-98743464D01*
X139399868Y-98946413D01*
X139399870Y-98946420D01*
X139479059Y-99137598D01*
X139591905Y-99306486D01*
X139594023Y-99309655D01*
X139740345Y-99455977D01*
X139912402Y-99570941D01*
X140103580Y-99650130D01*
X140306535Y-99690500D01*
X140306536Y-99690500D01*
X140513464Y-99690500D01*
X140513465Y-99690500D01*
X140716420Y-99650130D01*
X140867836Y-99587411D01*
X140924474Y-99587411D01*
X140948481Y-99603452D01*
X141975330Y-100630301D01*
X141987090Y-100645627D01*
X142006726Y-100679638D01*
X142014118Y-100735791D01*
X142006335Y-100754307D01*
X141958573Y-100835067D01*
X141913460Y-100990347D01*
X141911814Y-101011264D01*
X142616605Y-101011264D01*
X142668931Y-101032938D01*
X142690605Y-101085264D01*
X142690605Y-101437264D01*
X142668931Y-101489590D01*
X142616605Y-101511264D01*
X141911816Y-101511264D01*
X141911814Y-101511265D01*
X141913459Y-101532174D01*
X141913459Y-101532176D01*
X141943290Y-101634855D01*
X141937075Y-101691150D01*
X141892873Y-101726562D01*
X141872228Y-101729500D01*
X141430192Y-101729500D01*
X141377866Y-101707826D01*
X141356192Y-101655500D01*
X141361825Y-101627182D01*
X141415982Y-101496434D01*
X141420130Y-101486420D01*
X141460500Y-101283465D01*
X141460500Y-101076535D01*
X141420130Y-100873580D01*
X141340941Y-100682402D01*
X141225977Y-100510345D01*
X141079655Y-100364023D01*
X141074912Y-100360854D01*
X140907598Y-100249059D01*
X140716420Y-100169870D01*
X140716413Y-100169868D01*
X140563516Y-100139455D01*
X140513465Y-100129500D01*
X140306535Y-100129500D01*
X140266385Y-100137486D01*
X140103586Y-100169868D01*
X140103579Y-100169870D01*
X139912401Y-100249059D01*
X139740345Y-100364022D01*
X139740344Y-100364024D01*
X139594024Y-100510344D01*
X139594022Y-100510345D01*
X139479059Y-100682401D01*
X139399870Y-100873579D01*
X139399868Y-100873586D01*
X139359500Y-101076535D01*
X139359500Y-101283464D01*
X139399868Y-101486413D01*
X139399870Y-101486420D01*
X139479059Y-101677598D01*
X139591905Y-101846486D01*
X139594023Y-101849655D01*
X139740345Y-101995977D01*
X139912402Y-102110941D01*
X140103580Y-102190130D01*
X140306535Y-102230500D01*
X140306536Y-102230500D01*
X140513464Y-102230500D01*
X140513465Y-102230500D01*
X140716420Y-102190130D01*
X140867836Y-102127411D01*
X140924474Y-102127411D01*
X140948481Y-102143452D01*
X141075489Y-102270460D01*
X141144012Y-102310022D01*
X141220438Y-102330500D01*
X141299562Y-102330500D01*
X143815877Y-102330500D01*
X143868203Y-102352174D01*
X143889877Y-102404500D01*
X143868203Y-102456826D01*
X142927203Y-103397826D01*
X142874877Y-103419500D01*
X141472027Y-103419500D01*
X141419701Y-103397826D01*
X141403660Y-103373819D01*
X141340941Y-103222402D01*
X141225977Y-103050345D01*
X141079655Y-102904023D01*
X141074912Y-102900854D01*
X140907598Y-102789059D01*
X140716420Y-102709870D01*
X140716413Y-102709868D01*
X140563516Y-102679455D01*
X140513465Y-102669500D01*
X140306535Y-102669500D01*
X140266385Y-102677486D01*
X140103586Y-102709868D01*
X140103579Y-102709870D01*
X139912401Y-102789059D01*
X139740345Y-102904022D01*
X139740344Y-102904024D01*
X139594024Y-103050344D01*
X139594022Y-103050345D01*
X139479059Y-103222401D01*
X139399870Y-103413579D01*
X139399868Y-103413586D01*
X139359500Y-103616535D01*
X139359500Y-103823464D01*
X139399868Y-104026413D01*
X139399870Y-104026420D01*
X139479059Y-104217598D01*
X139591905Y-104386486D01*
X139594023Y-104389655D01*
X139740345Y-104535977D01*
X139912402Y-104650941D01*
X140103580Y-104730130D01*
X140289310Y-104767073D01*
X140336402Y-104798538D01*
X140347451Y-104854087D01*
X140315986Y-104901180D01*
X140286450Y-104912740D01*
X140093874Y-104943242D01*
X140093863Y-104943244D01*
X139891785Y-105008903D01*
X139702450Y-105105374D01*
X139648282Y-105144729D01*
X140280590Y-105777037D01*
X140217007Y-105794075D01*
X140102993Y-105859901D01*
X140009901Y-105952993D01*
X139944075Y-106067007D01*
X139927037Y-106130590D01*
X139294729Y-105498282D01*
X139294728Y-105498282D01*
X139259367Y-105546953D01*
X139211076Y-105576546D01*
X139156004Y-105563324D01*
X139126411Y-105515033D01*
X139125500Y-105503457D01*
X139125500Y-94316541D01*
X139147174Y-94264215D01*
X139199500Y-94242541D01*
X139251826Y-94264215D01*
X139259367Y-94273045D01*
X139294728Y-94321716D01*
X139927037Y-93689407D01*
X139944075Y-93752993D01*
G37*
%TD.AperFunction*%
%TA.AperFunction,Conductor*%
G36*
X159454131Y-94318548D02*
G01*
X159454131Y-94318547D01*
X159490634Y-94268309D01*
X159538925Y-94238717D01*
X159593997Y-94251940D01*
X159623589Y-94300231D01*
X159624500Y-94311806D01*
X159624500Y-105501856D01*
X159602826Y-105554182D01*
X159550500Y-105575856D01*
X159498174Y-105554182D01*
X159490633Y-105545353D01*
X159454130Y-105495113D01*
X158821823Y-106127421D01*
X158804786Y-106063838D01*
X158738960Y-105949824D01*
X158645868Y-105856732D01*
X158531854Y-105790906D01*
X158468268Y-105773868D01*
X159100577Y-105141559D01*
X159046417Y-105102209D01*
X159046411Y-105102206D01*
X158857082Y-105005737D01*
X158857078Y-105005735D01*
X158654997Y-104940075D01*
X158654986Y-104940073D01*
X158462410Y-104909571D01*
X158414120Y-104879978D01*
X158400898Y-104824905D01*
X158430491Y-104776615D01*
X158459547Y-104763905D01*
X158645281Y-104726961D01*
X158836459Y-104647772D01*
X159008516Y-104532808D01*
X159154838Y-104386486D01*
X159269802Y-104214429D01*
X159348991Y-104023251D01*
X159389361Y-103820296D01*
X159389361Y-103613366D01*
X159348991Y-103410411D01*
X159269802Y-103219233D01*
X159154838Y-103047176D01*
X159008516Y-102900854D01*
X159007986Y-102900500D01*
X158836459Y-102785890D01*
X158645281Y-102706701D01*
X158645274Y-102706699D01*
X158492377Y-102676286D01*
X158442326Y-102666331D01*
X158235396Y-102666331D01*
X158195246Y-102674317D01*
X158032447Y-102706699D01*
X158032440Y-102706701D01*
X157881025Y-102769420D01*
X157824387Y-102769420D01*
X157800380Y-102753379D01*
X157072174Y-102025173D01*
X157050500Y-101972847D01*
X157050500Y-101073366D01*
X157288361Y-101073366D01*
X157288361Y-101280296D01*
X157295441Y-101315892D01*
X157328729Y-101483244D01*
X157328731Y-101483251D01*
X157407920Y-101674429D01*
X157508301Y-101824662D01*
X157522884Y-101846486D01*
X157669206Y-101992808D01*
X157841263Y-102107772D01*
X158032441Y-102186961D01*
X158235396Y-102227331D01*
X158235397Y-102227331D01*
X158442325Y-102227331D01*
X158442326Y-102227331D01*
X158645281Y-102186961D01*
X158836459Y-102107772D01*
X159008516Y-101992808D01*
X159154838Y-101846486D01*
X159269802Y-101674429D01*
X159348991Y-101483251D01*
X159389361Y-101280296D01*
X159389361Y-101073366D01*
X159348991Y-100870411D01*
X159269802Y-100679233D01*
X159154838Y-100507176D01*
X159008516Y-100360854D01*
X159003113Y-100357244D01*
X158836459Y-100245890D01*
X158645281Y-100166701D01*
X158645274Y-100166699D01*
X158492377Y-100136286D01*
X158442326Y-100126331D01*
X158235396Y-100126331D01*
X158195246Y-100134317D01*
X158032447Y-100166699D01*
X158032440Y-100166701D01*
X157841262Y-100245890D01*
X157669206Y-100360853D01*
X157669205Y-100360855D01*
X157522885Y-100507175D01*
X157522883Y-100507176D01*
X157407920Y-100679232D01*
X157328731Y-100870410D01*
X157328729Y-100870417D01*
X157292738Y-101051363D01*
X157288361Y-101073366D01*
X157050500Y-101073366D01*
X157050500Y-100960436D01*
X157050499Y-100960435D01*
X157030022Y-100884014D01*
X157030020Y-100884009D01*
X156990459Y-100815488D01*
X156840142Y-100665171D01*
X156818468Y-100612845D01*
X156840140Y-100560522D01*
X157800380Y-99600281D01*
X157852705Y-99578608D01*
X157881021Y-99584240D01*
X158032441Y-99646961D01*
X158235396Y-99687331D01*
X158235397Y-99687331D01*
X158442325Y-99687331D01*
X158442326Y-99687331D01*
X158645281Y-99646961D01*
X158836459Y-99567772D01*
X159008516Y-99452808D01*
X159154838Y-99306486D01*
X159269802Y-99134429D01*
X159348991Y-98943251D01*
X159389361Y-98740296D01*
X159389361Y-98533366D01*
X159348991Y-98330411D01*
X159269802Y-98139233D01*
X159154838Y-97967176D01*
X159008516Y-97820854D01*
X159002342Y-97816729D01*
X158836459Y-97705890D01*
X158645281Y-97626701D01*
X158645274Y-97626699D01*
X158474275Y-97592686D01*
X158442326Y-97586331D01*
X158235396Y-97586331D01*
X158203447Y-97592686D01*
X158032447Y-97626699D01*
X158032440Y-97626701D01*
X157841262Y-97705890D01*
X157669206Y-97820853D01*
X157669205Y-97820855D01*
X157614687Y-97875373D01*
X157562361Y-97897047D01*
X157510035Y-97875373D01*
X157488361Y-97823047D01*
X157488361Y-97402953D01*
X157510034Y-97350628D01*
X157800380Y-97060281D01*
X157852705Y-97038608D01*
X157881021Y-97044240D01*
X158032441Y-97106961D01*
X158235396Y-97147331D01*
X158235397Y-97147331D01*
X158442325Y-97147331D01*
X158442326Y-97147331D01*
X158645281Y-97106961D01*
X158836459Y-97027772D01*
X159008516Y-96912808D01*
X159154838Y-96766486D01*
X159269802Y-96594429D01*
X159348991Y-96403251D01*
X159389361Y-96200296D01*
X159389361Y-95993366D01*
X159348991Y-95790411D01*
X159269802Y-95599233D01*
X159154838Y-95427176D01*
X159008516Y-95280854D01*
X158967007Y-95253119D01*
X158836459Y-95165890D01*
X158645281Y-95086701D01*
X158645275Y-95086699D01*
X158459550Y-95049757D01*
X158412458Y-95018291D01*
X158401409Y-94962742D01*
X158432875Y-94915650D01*
X158462411Y-94904090D01*
X158654984Y-94873589D01*
X158654997Y-94873586D01*
X158857078Y-94807926D01*
X158857082Y-94807924D01*
X159046415Y-94711454D01*
X159046422Y-94711449D01*
X159100577Y-94672101D01*
X159100578Y-94672101D01*
X158468270Y-94039793D01*
X158531854Y-94022756D01*
X158645868Y-93956930D01*
X158738960Y-93863838D01*
X158804786Y-93749824D01*
X158821823Y-93686240D01*
X159454131Y-94318548D01*
G37*
%TD.AperFunction*%
%TA.AperFunction,Conductor*%
G36*
X146999150Y-98106554D02*
G01*
X147006545Y-98162707D01*
X147006544Y-98162710D01*
X146985250Y-98242179D01*
X146985250Y-98321308D01*
X147005727Y-98397729D01*
X147005729Y-98397734D01*
X147040187Y-98457416D01*
X147045290Y-98466255D01*
X147101239Y-98522204D01*
X147169761Y-98561765D01*
X147169762Y-98561765D01*
X147169764Y-98561766D01*
X147207974Y-98572004D01*
X147246185Y-98582243D01*
X147246186Y-98582244D01*
X147246188Y-98582244D01*
X148960438Y-98582244D01*
X150736375Y-98582244D01*
X150788701Y-98603918D01*
X150800461Y-98619244D01*
X150852391Y-98709189D01*
X150930717Y-98787515D01*
X150952391Y-98839841D01*
X150952391Y-101524886D01*
X150930717Y-101577212D01*
X150845642Y-101662286D01*
X150806081Y-101730807D01*
X150806079Y-101730812D01*
X150785602Y-101807233D01*
X150785602Y-102008775D01*
X150763928Y-102061101D01*
X150647203Y-102177826D01*
X150594877Y-102199500D01*
X150210436Y-102199500D01*
X150134014Y-102219977D01*
X150134009Y-102219979D01*
X150076198Y-102253357D01*
X150076197Y-102253356D01*
X150065489Y-102259539D01*
X149677326Y-102647703D01*
X149625000Y-102669377D01*
X149572674Y-102647703D01*
X149184510Y-102259539D01*
X149173804Y-102253357D01*
X149173801Y-102253357D01*
X149173799Y-102253356D01*
X149161583Y-102246303D01*
X149115990Y-102219979D01*
X149115985Y-102219977D01*
X149039564Y-102199500D01*
X149039562Y-102199500D01*
X148937966Y-102199500D01*
X148885640Y-102177826D01*
X148807314Y-102099500D01*
X148693190Y-102033610D01*
X148693181Y-102033606D01*
X148565894Y-101999500D01*
X148565892Y-101999500D01*
X148434108Y-101999500D01*
X148434106Y-101999500D01*
X148306818Y-102033606D01*
X148306809Y-102033610D01*
X148192685Y-102099500D01*
X148114360Y-102177826D01*
X148062034Y-102199500D01*
X147181209Y-102199500D01*
X147128883Y-102177826D01*
X147117123Y-102162500D01*
X147091317Y-102117803D01*
X147091316Y-102117802D01*
X147091315Y-102117800D01*
X146998129Y-102024614D01*
X146961557Y-102003499D01*
X146884005Y-101958724D01*
X146883996Y-101958720D01*
X146831154Y-101944561D01*
X146786221Y-101910082D01*
X146778829Y-101853930D01*
X146813308Y-101808997D01*
X146831146Y-101801607D01*
X146872399Y-101790554D01*
X146986527Y-101724662D01*
X147079713Y-101631476D01*
X147145605Y-101517348D01*
X147179712Y-101390056D01*
X147179713Y-101390056D01*
X147179713Y-101258268D01*
X147179712Y-101258267D01*
X147159841Y-101184108D01*
X147145605Y-101130976D01*
X147079713Y-101016848D01*
X147072174Y-101009309D01*
X147050500Y-100956983D01*
X147050500Y-100710436D01*
X147050499Y-100710435D01*
X147030022Y-100634014D01*
X147030020Y-100634009D01*
X147017801Y-100612845D01*
X146990460Y-100565489D01*
X146934511Y-100509540D01*
X146567255Y-100142284D01*
X146498734Y-100102723D01*
X146498730Y-100102722D01*
X146442096Y-100087546D01*
X146397164Y-100053067D01*
X146387250Y-100016068D01*
X146387250Y-99908071D01*
X146387250Y-99908070D01*
X146372716Y-99835004D01*
X146365266Y-99823855D01*
X146354218Y-99768307D01*
X146365267Y-99741632D01*
X146372716Y-99730484D01*
X146387250Y-99657418D01*
X146387250Y-99508070D01*
X146372716Y-99435004D01*
X146365266Y-99423855D01*
X146354218Y-99368307D01*
X146365267Y-99341632D01*
X146372716Y-99330484D01*
X146387250Y-99257418D01*
X146387250Y-99108070D01*
X146372716Y-99035004D01*
X146365266Y-99023855D01*
X146354218Y-98968307D01*
X146365267Y-98941632D01*
X146372716Y-98930484D01*
X146387250Y-98857418D01*
X146387250Y-98708070D01*
X146372716Y-98635004D01*
X146365266Y-98623855D01*
X146354218Y-98568307D01*
X146365267Y-98541632D01*
X146372716Y-98530484D01*
X146387250Y-98457418D01*
X146387250Y-98308070D01*
X146372716Y-98235004D01*
X146365266Y-98223855D01*
X146363230Y-98213619D01*
X146356443Y-98205690D01*
X146358575Y-98190212D01*
X146354218Y-98168307D01*
X146360824Y-98149223D01*
X146362820Y-98145293D01*
X146372716Y-98130484D01*
X146374240Y-98122817D01*
X146378858Y-98113731D01*
X146393216Y-98101439D01*
X146403716Y-98085725D01*
X146413953Y-98083688D01*
X146421884Y-98076899D01*
X146440727Y-98078361D01*
X146459264Y-98074673D01*
X146476421Y-98081130D01*
X146478351Y-98081280D01*
X146479079Y-98082130D01*
X146481830Y-98083166D01*
X146493563Y-98089940D01*
X146620854Y-98124047D01*
X146620855Y-98124048D01*
X146620857Y-98124048D01*
X146752643Y-98124048D01*
X146752643Y-98124047D01*
X146879935Y-98089940D01*
X146898064Y-98079472D01*
X146954216Y-98072078D01*
X146999150Y-98106554D01*
G37*
%TD.AperFunction*%
%TA.AperFunction,Conductor*%
G36*
X145018326Y-95771674D02*
G01*
X145040000Y-95824000D01*
X145040000Y-96554505D01*
X145186196Y-96512031D01*
X145325378Y-96429719D01*
X145329055Y-96426867D01*
X145330851Y-96429182D01*
X145374750Y-96410999D01*
X145427076Y-96432673D01*
X145448750Y-96484999D01*
X145448750Y-97208244D01*
X145427076Y-97260570D01*
X145374750Y-97282244D01*
X145337076Y-97282244D01*
X145295310Y-97290552D01*
X145264009Y-97296778D01*
X145181149Y-97352142D01*
X145181148Y-97352143D01*
X145125784Y-97435003D01*
X145111250Y-97508071D01*
X145111250Y-97608244D01*
X145089576Y-97660570D01*
X145037250Y-97682244D01*
X144387867Y-97682244D01*
X144335541Y-97660570D01*
X144322174Y-97647203D01*
X144300500Y-97594877D01*
X144300500Y-96583483D01*
X144322174Y-96531157D01*
X144374500Y-96509483D01*
X144395145Y-96512421D01*
X144539999Y-96554505D01*
X144540000Y-96554505D01*
X144540000Y-95824000D01*
X144561674Y-95771674D01*
X144614000Y-95750000D01*
X144966000Y-95750000D01*
X145018326Y-95771674D01*
G37*
%TD.AperFunction*%
%TA.AperFunction,Conductor*%
G36*
X157872936Y-93749824D02*
G01*
X157938762Y-93863838D01*
X158031854Y-93956930D01*
X158145868Y-94022756D01*
X158209451Y-94039793D01*
X157577143Y-94672101D01*
X157631310Y-94711455D01*
X157820639Y-94807924D01*
X157820643Y-94807926D01*
X158022724Y-94873586D01*
X158022737Y-94873589D01*
X158215310Y-94904090D01*
X158263601Y-94933683D01*
X158276823Y-94988755D01*
X158247230Y-95037046D01*
X158218171Y-95049757D01*
X158032446Y-95086699D01*
X158032440Y-95086701D01*
X157841262Y-95165890D01*
X157669206Y-95280853D01*
X157669205Y-95280855D01*
X157522885Y-95427175D01*
X157522883Y-95427176D01*
X157407920Y-95599232D01*
X157328731Y-95790410D01*
X157328729Y-95790417D01*
X157292830Y-95970900D01*
X157288361Y-95993366D01*
X157288361Y-96200296D01*
X157298316Y-96250347D01*
X157328729Y-96403244D01*
X157328732Y-96403255D01*
X157391449Y-96554667D01*
X157391449Y-96611304D01*
X157375408Y-96635311D01*
X157176826Y-96833894D01*
X157124500Y-96855568D01*
X157072174Y-96833894D01*
X157050500Y-96781568D01*
X157050500Y-94308058D01*
X157072174Y-94255732D01*
X157124500Y-94234058D01*
X157176826Y-94255732D01*
X157184367Y-94264562D01*
X157223589Y-94318547D01*
X157855898Y-93686239D01*
X157872936Y-93749824D01*
G37*
%TD.AperFunction*%
%TA.AperFunction,Conductor*%
G36*
X159602826Y-74647174D02*
G01*
X159624500Y-74699500D01*
X159624500Y-80101856D01*
X159602826Y-80154182D01*
X159550500Y-80175856D01*
X159498174Y-80154182D01*
X159490633Y-80145353D01*
X159454130Y-80095113D01*
X158821823Y-80727421D01*
X158804786Y-80663838D01*
X158738960Y-80549824D01*
X158645868Y-80456732D01*
X158531854Y-80390906D01*
X158468268Y-80373868D01*
X159100577Y-79741559D01*
X159046417Y-79702209D01*
X159046411Y-79702206D01*
X158857082Y-79605737D01*
X158857078Y-79605735D01*
X158654997Y-79540075D01*
X158654986Y-79540073D01*
X158462410Y-79509571D01*
X158414120Y-79479978D01*
X158400898Y-79424905D01*
X158430491Y-79376615D01*
X158459547Y-79363905D01*
X158645281Y-79326961D01*
X158836459Y-79247772D01*
X159008516Y-79132808D01*
X159154838Y-78986486D01*
X159269802Y-78814429D01*
X159348991Y-78623251D01*
X159389361Y-78420296D01*
X159389361Y-78213366D01*
X159348991Y-78010411D01*
X159269802Y-77819233D01*
X159154838Y-77647176D01*
X159008516Y-77500854D01*
X158836459Y-77385890D01*
X158645281Y-77306701D01*
X158645274Y-77306699D01*
X158492377Y-77276286D01*
X158442326Y-77266331D01*
X158235396Y-77266331D01*
X158195246Y-77274317D01*
X158032447Y-77306699D01*
X158032440Y-77306701D01*
X157841262Y-77385890D01*
X157669206Y-77500853D01*
X157669205Y-77500855D01*
X157522885Y-77647175D01*
X157522883Y-77647176D01*
X157407920Y-77819232D01*
X157328731Y-78010410D01*
X157328729Y-78010417D01*
X157328099Y-78013586D01*
X157288361Y-78213366D01*
X157288361Y-78420296D01*
X157292315Y-78440174D01*
X157328729Y-78623244D01*
X157328730Y-78623247D01*
X157328731Y-78623251D01*
X157366205Y-78713721D01*
X157407920Y-78814429D01*
X157498801Y-78950444D01*
X157522884Y-78986486D01*
X157669206Y-79132808D01*
X157841263Y-79247772D01*
X158032441Y-79326961D01*
X158218171Y-79363904D01*
X158265263Y-79395369D01*
X158276312Y-79450918D01*
X158244847Y-79498011D01*
X158215311Y-79509571D01*
X158022735Y-79540073D01*
X158022724Y-79540075D01*
X157820646Y-79605734D01*
X157631311Y-79702205D01*
X157577143Y-79741560D01*
X158209451Y-80373868D01*
X158145868Y-80390906D01*
X158031854Y-80456732D01*
X157938762Y-80549824D01*
X157872936Y-80663838D01*
X157855898Y-80727421D01*
X157223590Y-80095113D01*
X157184235Y-80149281D01*
X157087764Y-80338616D01*
X157022105Y-80540694D01*
X157022102Y-80540707D01*
X156988861Y-80750582D01*
X156988861Y-80963079D01*
X157022102Y-81172954D01*
X157022105Y-81172967D01*
X157087765Y-81375048D01*
X157087767Y-81375052D01*
X157184236Y-81564381D01*
X157184239Y-81564387D01*
X157223589Y-81618547D01*
X157855898Y-80986238D01*
X157872936Y-81049824D01*
X157938762Y-81163838D01*
X158031854Y-81256930D01*
X158145868Y-81322756D01*
X158209451Y-81339793D01*
X157577143Y-81972101D01*
X157631310Y-82011455D01*
X157820639Y-82107924D01*
X157820643Y-82107926D01*
X158022724Y-82173586D01*
X158022737Y-82173589D01*
X158215310Y-82204090D01*
X158263601Y-82233683D01*
X158276823Y-82288755D01*
X158247230Y-82337046D01*
X158218171Y-82349757D01*
X158032446Y-82386699D01*
X158032440Y-82386701D01*
X157841262Y-82465890D01*
X157669206Y-82580853D01*
X157669205Y-82580855D01*
X157522885Y-82727175D01*
X157522883Y-82727176D01*
X157407920Y-82899232D01*
X157328731Y-83090410D01*
X157328729Y-83090417D01*
X157310050Y-83184325D01*
X157288361Y-83293366D01*
X157288361Y-83500296D01*
X157290853Y-83512822D01*
X157328729Y-83703244D01*
X157328732Y-83703255D01*
X157391449Y-83854667D01*
X157391449Y-83911304D01*
X157375408Y-83935311D01*
X156532321Y-84778398D01*
X156479995Y-84800072D01*
X156427669Y-84778398D01*
X156411627Y-84754389D01*
X156409974Y-84750400D01*
X156409973Y-84750395D01*
X156344081Y-84636267D01*
X156250895Y-84543081D01*
X156173369Y-84498321D01*
X156136771Y-84477191D01*
X156136762Y-84477187D01*
X156009475Y-84443081D01*
X156009473Y-84443081D01*
X155877689Y-84443081D01*
X155877687Y-84443081D01*
X155750399Y-84477187D01*
X155750390Y-84477191D01*
X155636266Y-84543081D01*
X155557941Y-84621407D01*
X155505615Y-84643081D01*
X154845981Y-84643081D01*
X154766857Y-84643081D01*
X154690431Y-84663559D01*
X154690430Y-84663559D01*
X154690428Y-84663560D01*
X154690426Y-84663561D01*
X154621909Y-84703119D01*
X154097202Y-85227826D01*
X154044876Y-85249500D01*
X153934106Y-85249500D01*
X153806818Y-85283606D01*
X153806809Y-85283610D01*
X153692685Y-85349500D01*
X153599500Y-85442685D01*
X153533610Y-85556809D01*
X153533606Y-85556818D01*
X153499500Y-85684105D01*
X153499500Y-85815894D01*
X153533606Y-85943181D01*
X153533607Y-85943184D01*
X153533608Y-85943186D01*
X153599500Y-86057314D01*
X153692686Y-86150500D01*
X153806814Y-86216392D01*
X153934105Y-86250499D01*
X153934106Y-86250500D01*
X153934108Y-86250500D01*
X154065894Y-86250500D01*
X154065894Y-86250499D01*
X154193186Y-86216392D01*
X154307314Y-86150500D01*
X154400500Y-86057314D01*
X154466392Y-85943186D01*
X154500499Y-85815894D01*
X154500500Y-85815894D01*
X154500500Y-85705122D01*
X154522174Y-85652796D01*
X154909216Y-85265755D01*
X154961542Y-85244081D01*
X155505615Y-85244081D01*
X155557941Y-85265755D01*
X155636267Y-85344081D01*
X155750395Y-85409973D01*
X155750402Y-85409975D01*
X155754387Y-85411626D01*
X155764796Y-85422033D01*
X155778397Y-85427667D01*
X155784030Y-85441265D01*
X155794438Y-85451672D01*
X155794439Y-85466392D01*
X155800073Y-85479993D01*
X155794440Y-85493591D01*
X155794442Y-85508309D01*
X155778401Y-85532319D01*
X155763491Y-85547230D01*
X155763489Y-85547232D01*
X155707540Y-85603180D01*
X155667979Y-85671701D01*
X155667977Y-85671706D01*
X155647500Y-85748127D01*
X155647500Y-95324187D01*
X155625826Y-95376513D01*
X155573500Y-95398187D01*
X155552854Y-95395249D01*
X155434784Y-95360946D01*
X155434784Y-96091452D01*
X155413110Y-96143778D01*
X155360784Y-96165452D01*
X155008784Y-96165452D01*
X154956458Y-96143778D01*
X154934784Y-96091452D01*
X154934784Y-95360946D01*
X154788587Y-95403420D01*
X154649405Y-95485732D01*
X154645729Y-95488585D01*
X154644190Y-95486602D01*
X154599284Y-95505203D01*
X154546958Y-95483529D01*
X154525284Y-95431203D01*
X154525284Y-93174600D01*
X154525283Y-93174599D01*
X154504806Y-93098178D01*
X154504804Y-93098173D01*
X154477119Y-93050221D01*
X154465244Y-93029653D01*
X154409295Y-92973704D01*
X154092515Y-92656924D01*
X154070841Y-92604598D01*
X154070841Y-92369823D01*
X154070841Y-92369822D01*
X154065261Y-92327433D01*
X154079920Y-92272729D01*
X154100961Y-92254082D01*
X154125720Y-92239440D01*
X154240061Y-92125099D01*
X154322373Y-91985918D01*
X154364847Y-91839722D01*
X151718250Y-91839722D01*
X151705310Y-91838582D01*
X151608152Y-91821326D01*
X151589364Y-91809324D01*
X151568766Y-91800792D01*
X151566160Y-91794500D01*
X151560422Y-91790835D01*
X151555623Y-91769062D01*
X151547092Y-91748466D01*
X151547092Y-91572466D01*
X151371092Y-91572466D01*
X151318766Y-91550792D01*
X151297092Y-91498466D01*
X151297092Y-91322466D01*
X151797092Y-91322466D01*
X152310342Y-91322466D01*
X152310342Y-90810931D01*
X152810342Y-90810931D01*
X152810342Y-91339722D01*
X153310342Y-91339722D01*
X153810342Y-91339722D01*
X154364847Y-91339722D01*
X154364847Y-91339721D01*
X154322373Y-91193525D01*
X154240061Y-91054344D01*
X154125719Y-90940002D01*
X153986538Y-90857690D01*
X153831256Y-90812577D01*
X153831259Y-90812577D01*
X153810342Y-90810931D01*
X153810342Y-91339722D01*
X153310342Y-91339722D01*
X153310342Y-90810931D01*
X153289425Y-90812577D01*
X153134143Y-90857690D01*
X153098010Y-90879060D01*
X153041938Y-90887040D01*
X153022674Y-90879060D01*
X152986540Y-90857690D01*
X152831256Y-90812577D01*
X152831259Y-90812577D01*
X152810342Y-90810931D01*
X152310342Y-90810931D01*
X152289425Y-90812577D01*
X152134143Y-90857691D01*
X152105974Y-90874350D01*
X152049902Y-90882330D01*
X152030637Y-90874350D01*
X151973288Y-90840434D01*
X151818006Y-90795321D01*
X151818009Y-90795321D01*
X151797092Y-90793675D01*
X151797092Y-91322466D01*
X151297092Y-91322466D01*
X151297092Y-90786455D01*
X151279180Y-90747600D01*
X151298784Y-90694464D01*
X151300747Y-90692421D01*
X153215460Y-88777709D01*
X153255021Y-88709187D01*
X153275499Y-88632762D01*
X153275500Y-88632762D01*
X153275500Y-84117238D01*
X153275499Y-84117237D01*
X153255022Y-84040816D01*
X153255020Y-84040811D01*
X153242148Y-84018517D01*
X153215460Y-83972291D01*
X153159511Y-83916342D01*
X152118943Y-82875774D01*
X152097269Y-82823448D01*
X152118943Y-82771122D01*
X152171269Y-82749448D01*
X152180930Y-82750081D01*
X152184104Y-82750498D01*
X152184108Y-82750500D01*
X152184112Y-82750500D01*
X152315894Y-82750500D01*
X152315894Y-82750499D01*
X152443186Y-82716392D01*
X152557314Y-82650500D01*
X152650500Y-82557314D01*
X152716392Y-82443186D01*
X152750499Y-82315894D01*
X152750500Y-82315894D01*
X152750500Y-82184106D01*
X152750499Y-82184105D01*
X152748530Y-82176758D01*
X152716392Y-82056814D01*
X152701487Y-82030999D01*
X152694095Y-81974848D01*
X152728573Y-81929914D01*
X152744299Y-81925700D01*
X152750000Y-81920000D01*
X152750000Y-80945000D01*
X152732676Y-80927676D01*
X152722174Y-80923326D01*
X152700500Y-80871000D01*
X152700500Y-80519000D01*
X152722174Y-80466674D01*
X152774500Y-80445000D01*
X152926000Y-80445000D01*
X152978326Y-80466674D01*
X153000000Y-80519000D01*
X153000000Y-80695000D01*
X153176000Y-80695000D01*
X153228326Y-80716674D01*
X153250000Y-80769000D01*
X153250000Y-81920000D01*
X153347829Y-81920000D01*
X153407375Y-81913597D01*
X153407380Y-81913596D01*
X153542087Y-81863354D01*
X153542088Y-81863353D01*
X153657188Y-81777188D01*
X153743353Y-81662088D01*
X153743354Y-81662087D01*
X153793596Y-81527380D01*
X153793597Y-81527375D01*
X153800000Y-81467828D01*
X153800000Y-81351275D01*
X153820000Y-81302990D01*
X153820000Y-80496988D01*
X153829940Y-80514205D01*
X153885795Y-80570060D01*
X153954204Y-80609556D01*
X154030504Y-80630000D01*
X154109496Y-80630000D01*
X154185796Y-80609556D01*
X154254205Y-80570060D01*
X154310060Y-80514205D01*
X154320000Y-80496988D01*
X154320000Y-81299863D01*
X154361682Y-81291572D01*
X154361693Y-81291569D01*
X154543675Y-81216190D01*
X154707459Y-81106753D01*
X154846753Y-80967459D01*
X154956189Y-80803677D01*
X154991116Y-80719357D01*
X154991116Y-80719356D01*
X155031569Y-80621693D01*
X155031572Y-80621682D01*
X155070000Y-80428490D01*
X155070000Y-80030000D01*
X154370000Y-80030000D01*
X154370000Y-79530000D01*
X155070000Y-79530000D01*
X155070000Y-79131509D01*
X155031572Y-78938317D01*
X155031569Y-78938306D01*
X154956190Y-78756324D01*
X154846753Y-78592540D01*
X154707459Y-78453246D01*
X154543675Y-78343809D01*
X154385032Y-78278098D01*
X154385031Y-78278098D01*
X154361687Y-78268428D01*
X154361684Y-78268427D01*
X154320000Y-78260136D01*
X154320000Y-79063011D01*
X154310060Y-79045795D01*
X154254205Y-78989940D01*
X154185796Y-78950444D01*
X154109496Y-78930000D01*
X154030504Y-78930000D01*
X153954204Y-78950444D01*
X153885795Y-78989940D01*
X153829940Y-79045795D01*
X153820000Y-79063011D01*
X153820000Y-78260136D01*
X153819999Y-78260136D01*
X153778315Y-78268427D01*
X153778308Y-78268429D01*
X153596324Y-78343809D01*
X153432540Y-78453246D01*
X153293246Y-78592540D01*
X153183811Y-78756321D01*
X153160698Y-78812120D01*
X153120648Y-78852168D01*
X153064011Y-78852167D01*
X153040008Y-78836128D01*
X152993365Y-78789485D01*
X152993362Y-78789483D01*
X152862139Y-78713721D01*
X152862130Y-78713717D01*
X152715768Y-78674500D01*
X152715766Y-78674500D01*
X152564234Y-78674500D01*
X152564232Y-78674500D01*
X152417869Y-78713717D01*
X152417860Y-78713721D01*
X152286637Y-78789483D01*
X152179483Y-78896637D01*
X152103721Y-79027860D01*
X152103717Y-79027869D01*
X152073117Y-79142069D01*
X152038638Y-79187002D01*
X151982486Y-79194394D01*
X151949313Y-79175242D01*
X151400611Y-78626540D01*
X151394914Y-78623250D01*
X151394912Y-78623250D01*
X151332090Y-78586979D01*
X151332085Y-78586977D01*
X151255664Y-78566500D01*
X151255662Y-78566500D01*
X150654123Y-78566500D01*
X150601797Y-78544826D01*
X150580123Y-78492500D01*
X150601797Y-78440174D01*
X151219797Y-77822174D01*
X151272123Y-77800500D01*
X156655256Y-77800500D01*
X156655256Y-77800499D01*
X156731681Y-77780021D01*
X156800203Y-77740460D01*
X156856152Y-77684511D01*
X157691658Y-76849005D01*
X157743984Y-76827331D01*
X159208607Y-76827331D01*
X159208609Y-76827331D01*
X159267092Y-76815698D01*
X159333413Y-76771383D01*
X159377728Y-76705062D01*
X159389361Y-76646579D01*
X159389361Y-74907083D01*
X159377728Y-74848600D01*
X159333413Y-74782279D01*
X159301608Y-74761027D01*
X159270144Y-74713936D01*
X159281194Y-74658387D01*
X159328286Y-74626922D01*
X159342722Y-74625500D01*
X159550500Y-74625500D01*
X159602826Y-74647174D01*
G37*
%TD.AperFunction*%
%TA.AperFunction,Conductor*%
G36*
X152098318Y-92877431D02*
G01*
X152106607Y-92887309D01*
X152107116Y-92888036D01*
X152107118Y-92888038D01*
X152192026Y-92972946D01*
X152300855Y-93023694D01*
X152350441Y-93030222D01*
X152410066Y-93030221D01*
X152429218Y-93032742D01*
X152461642Y-93041431D01*
X152494449Y-93050222D01*
X152494450Y-93050222D01*
X152626236Y-93050222D01*
X152626236Y-93050221D01*
X152691466Y-93032743D01*
X152710619Y-93030221D01*
X152770242Y-93030221D01*
X152819829Y-93023694D01*
X152928658Y-92972946D01*
X153008016Y-92893588D01*
X153060342Y-92871914D01*
X153112668Y-92893588D01*
X153192026Y-92972946D01*
X153300855Y-93023694D01*
X153350441Y-93030222D01*
X153585218Y-93030221D01*
X153637544Y-93051895D01*
X153902610Y-93316961D01*
X153924284Y-93369287D01*
X153924284Y-93816725D01*
X153902610Y-93869051D01*
X153850284Y-93890725D01*
X153804932Y-93875199D01*
X153802130Y-93873025D01*
X153662946Y-93790712D01*
X153507664Y-93745599D01*
X153507667Y-93745599D01*
X153486750Y-93743953D01*
X153486750Y-94448744D01*
X153465076Y-94501070D01*
X153412750Y-94522744D01*
X153236750Y-94522744D01*
X153236750Y-94698744D01*
X153215076Y-94751070D01*
X153162750Y-94772744D01*
X152420750Y-94772744D01*
X152368424Y-94751070D01*
X152363914Y-94740183D01*
X152346750Y-94723019D01*
X152178983Y-94723019D01*
X152126657Y-94701345D01*
X152104983Y-94649019D01*
X152104983Y-94473019D01*
X151928983Y-94473019D01*
X151876657Y-94451345D01*
X151854983Y-94399019D01*
X151854983Y-94223019D01*
X152354983Y-94223019D01*
X152986750Y-94223019D01*
X152986750Y-93743953D01*
X152965833Y-93745599D01*
X152810556Y-93790711D01*
X152750457Y-93826253D01*
X152694385Y-93834232D01*
X152674936Y-93824709D01*
X152674369Y-93825670D01*
X152531179Y-93740987D01*
X152375897Y-93695874D01*
X152375900Y-93695874D01*
X152354983Y-93694228D01*
X152354983Y-94223019D01*
X151854983Y-94223019D01*
X151854983Y-93694228D01*
X151834066Y-93695874D01*
X151678786Y-93740987D01*
X151539605Y-93823299D01*
X151425261Y-93937643D01*
X151390749Y-93995999D01*
X151345457Y-94030004D01*
X151295783Y-94025396D01*
X151259925Y-94008676D01*
X151259927Y-94008676D01*
X151227351Y-94004388D01*
X151211066Y-94002244D01*
X151211064Y-94002244D01*
X151124500Y-94002244D01*
X151072174Y-93980570D01*
X151050500Y-93928244D01*
X151050500Y-93006066D01*
X151072174Y-92953740D01*
X151124500Y-92932066D01*
X151173268Y-92952266D01*
X151173472Y-92951976D01*
X151174782Y-92952893D01*
X151176826Y-92953740D01*
X151178776Y-92955690D01*
X151287605Y-93006438D01*
X151337191Y-93012966D01*
X151396816Y-93012965D01*
X151415968Y-93015486D01*
X151446594Y-93023693D01*
X151481199Y-93032966D01*
X151481200Y-93032966D01*
X151612986Y-93032966D01*
X151612986Y-93032965D01*
X151678216Y-93015487D01*
X151697369Y-93012965D01*
X151756992Y-93012965D01*
X151806579Y-93006438D01*
X151915408Y-92955690D01*
X151993667Y-92877430D01*
X152045992Y-92855757D01*
X152098318Y-92877431D01*
G37*
%TD.AperFunction*%
%TA.AperFunction,Conductor*%
G36*
X150737429Y-82980598D02*
G01*
X152202826Y-84445995D01*
X152224500Y-84498321D01*
X152224500Y-88251679D01*
X152202826Y-88304005D01*
X150259540Y-90247290D01*
X150219978Y-90315813D01*
X150210345Y-90351761D01*
X150191195Y-90384930D01*
X150164491Y-90411636D01*
X150164489Y-90411638D01*
X150108540Y-90467586D01*
X150068979Y-90536107D01*
X150068977Y-90536112D01*
X150048500Y-90612533D01*
X150048500Y-93591768D01*
X150026826Y-93644094D01*
X149852826Y-93818094D01*
X149800500Y-93839768D01*
X149748174Y-93818094D01*
X149726500Y-93765768D01*
X149726500Y-92995641D01*
X149716037Y-92956591D01*
X149716037Y-92956590D01*
X149706023Y-92919218D01*
X149706022Y-92919214D01*
X149687602Y-92887309D01*
X149666462Y-92850694D01*
X149666461Y-92850693D01*
X149666460Y-92850691D01*
X149325309Y-92509540D01*
X149325308Y-92509539D01*
X149321879Y-92506110D01*
X149323976Y-92504012D01*
X149300312Y-92463075D01*
X149309699Y-92422785D01*
X149307450Y-92421854D01*
X149310239Y-92415118D01*
X149310238Y-92415118D01*
X149310240Y-92415117D01*
X149325500Y-92338401D01*
X149325499Y-92161600D01*
X149310240Y-92084883D01*
X149252112Y-91997888D01*
X149239386Y-91989385D01*
X149165117Y-91939760D01*
X149088392Y-91924498D01*
X149087231Y-91924384D01*
X149086884Y-91924198D01*
X149084835Y-91923791D01*
X149084958Y-91923168D01*
X149037287Y-91897675D01*
X149020500Y-91850742D01*
X149020500Y-91518000D01*
X149042174Y-91465674D01*
X149053556Y-91457710D01*
X149053014Y-91456936D01*
X149058311Y-91453225D01*
X149058316Y-91453224D01*
X149143224Y-91368316D01*
X149193972Y-91259487D01*
X149200500Y-91209901D01*
X149200499Y-91150273D01*
X149203020Y-91131124D01*
X149220500Y-91065892D01*
X149220500Y-90934108D01*
X149214942Y-90913366D01*
X149203020Y-90868870D01*
X149200499Y-90849718D01*
X149200499Y-90790100D01*
X149193972Y-90740514D01*
X149193972Y-90740513D01*
X149143224Y-90631684D01*
X149058316Y-90546776D01*
X149053013Y-90543063D01*
X149055048Y-90540156D01*
X149024947Y-90507263D01*
X149020500Y-90481998D01*
X149020500Y-89111900D01*
X149042174Y-89059574D01*
X149043266Y-89058482D01*
X149098528Y-89003220D01*
X149159719Y-88883126D01*
X149175500Y-88783488D01*
X149175500Y-88216512D01*
X149159719Y-88116874D01*
X149098528Y-87996780D01*
X149003220Y-87901472D01*
X149003219Y-87901471D01*
X148883126Y-87840281D01*
X148877584Y-87838480D01*
X148878602Y-87835346D01*
X148868339Y-87829043D01*
X148847174Y-87820277D01*
X148844824Y-87814604D01*
X148839593Y-87811392D01*
X148825500Y-87767951D01*
X148825500Y-87697915D01*
X148847174Y-87645589D01*
X148888830Y-87624688D01*
X148951393Y-87615573D01*
X149056483Y-87564198D01*
X149139198Y-87481483D01*
X149190573Y-87376393D01*
X149200500Y-87308260D01*
X149200500Y-86066740D01*
X149190573Y-85998607D01*
X149139198Y-85893517D01*
X149056483Y-85810802D01*
X149056482Y-85810801D01*
X148951394Y-85759427D01*
X148883264Y-85749500D01*
X148883260Y-85749500D01*
X148516740Y-85749500D01*
X148516735Y-85749500D01*
X148448606Y-85759427D01*
X148448605Y-85759427D01*
X148343517Y-85810801D01*
X148260801Y-85893517D01*
X148209427Y-85998605D01*
X148209427Y-85998606D01*
X148199500Y-86066735D01*
X148199500Y-87308264D01*
X148209427Y-87376395D01*
X148216980Y-87391843D01*
X148224500Y-87424345D01*
X148224500Y-87767951D01*
X148202826Y-87820277D01*
X148171665Y-87836171D01*
X148172416Y-87838480D01*
X148166873Y-87840281D01*
X148046780Y-87901471D01*
X147982448Y-87965803D01*
X147930121Y-87987477D01*
X147877796Y-87965803D01*
X147863056Y-87944751D01*
X147861550Y-87941522D01*
X147772573Y-87797268D01*
X147652731Y-87677426D01*
X147578567Y-87631681D01*
X147545410Y-87585763D01*
X147549507Y-87539296D01*
X147551283Y-87535193D01*
X147597099Y-87377493D01*
X147600000Y-87340641D01*
X147600000Y-86937500D01*
X147050000Y-86937500D01*
X147050000Y-87445000D01*
X147151000Y-87445000D01*
X147203326Y-87466674D01*
X147225000Y-87519000D01*
X147225000Y-89344377D01*
X147203326Y-89396703D01*
X146259540Y-90340488D01*
X146219979Y-90409009D01*
X146219977Y-90409014D01*
X146199499Y-90485438D01*
X146199462Y-90485721D01*
X146199390Y-90485845D01*
X146198244Y-90490123D01*
X146197097Y-90489815D01*
X146173499Y-90530682D01*
X146174174Y-90531357D01*
X146171655Y-90533875D01*
X146171140Y-90534768D01*
X146169726Y-90535804D01*
X146085935Y-90619595D01*
X146057067Y-90681504D01*
X146015309Y-90719767D01*
X145958726Y-90717297D01*
X145922933Y-90681504D01*
X145894065Y-90619596D01*
X145810404Y-90535935D01*
X145703173Y-90485932D01*
X145703171Y-90485931D01*
X145667178Y-90481193D01*
X145654316Y-90479500D01*
X145305684Y-90479500D01*
X145294318Y-90480996D01*
X145256828Y-90485931D01*
X145149595Y-90535935D01*
X145065935Y-90619595D01*
X145015931Y-90726828D01*
X145009500Y-90775685D01*
X145009500Y-91224314D01*
X145015931Y-91273171D01*
X145065935Y-91380404D01*
X145154174Y-91468643D01*
X145152599Y-91470217D01*
X145178375Y-91510674D01*
X145179500Y-91523526D01*
X145179500Y-91925299D01*
X145157826Y-91977625D01*
X145142500Y-91989385D01*
X145107594Y-92009537D01*
X144426826Y-92690305D01*
X144374500Y-92711979D01*
X144322174Y-92690305D01*
X144300500Y-92637979D01*
X144300500Y-88798312D01*
X146025001Y-88798312D01*
X146035144Y-88897608D01*
X146088452Y-89058482D01*
X146177426Y-89202731D01*
X146297268Y-89322573D01*
X146441517Y-89411547D01*
X146602391Y-89464855D01*
X146701689Y-89474999D01*
X146725000Y-89474999D01*
X146725000Y-88750000D01*
X146025001Y-88750000D01*
X146025001Y-88798312D01*
X144300500Y-88798312D01*
X144300500Y-87340641D01*
X146000000Y-87340641D01*
X146002900Y-87377493D01*
X146048718Y-87535199D01*
X146132317Y-87676556D01*
X146164894Y-87709133D01*
X146186568Y-87761459D01*
X146175551Y-87800307D01*
X146088452Y-87941517D01*
X146035144Y-88102391D01*
X146025000Y-88201688D01*
X146025000Y-88250000D01*
X146725000Y-88250000D01*
X146725000Y-88005000D01*
X146624000Y-88005000D01*
X146571674Y-87983326D01*
X146550000Y-87931000D01*
X146550000Y-86937500D01*
X146000000Y-86937500D01*
X146000000Y-87340641D01*
X144300500Y-87340641D01*
X144300500Y-86004457D01*
X144322174Y-85952131D01*
X144374500Y-85930457D01*
X144426826Y-85952131D01*
X144547268Y-86072573D01*
X144691517Y-86161547D01*
X144852391Y-86214855D01*
X144951689Y-86224999D01*
X144951690Y-86224999D01*
X144999999Y-86224998D01*
X145000000Y-86224998D01*
X145000000Y-85525000D01*
X145500000Y-85525000D01*
X145500000Y-86224999D01*
X145548307Y-86224999D01*
X145548312Y-86224998D01*
X145647608Y-86214855D01*
X145808484Y-86161546D01*
X145808487Y-86161545D01*
X145887152Y-86113024D01*
X145943065Y-86104001D01*
X145988982Y-86137158D01*
X146000000Y-86176006D01*
X146000000Y-86437500D01*
X146550000Y-86437500D01*
X146550000Y-85452703D01*
X146549999Y-85452703D01*
X146547506Y-85452900D01*
X146389798Y-85498718D01*
X146319134Y-85540509D01*
X146263062Y-85548489D01*
X146229140Y-85529140D01*
X146225000Y-85525000D01*
X145500000Y-85525000D01*
X145000000Y-85525000D01*
X145000000Y-85349000D01*
X145021674Y-85296674D01*
X145074000Y-85275000D01*
X145250000Y-85275000D01*
X145250000Y-85099000D01*
X145271674Y-85046674D01*
X145324000Y-85025000D01*
X146224999Y-85025000D01*
X146224999Y-85001693D01*
X146224998Y-85001687D01*
X146214855Y-84902391D01*
X146161547Y-84741517D01*
X146072573Y-84597268D01*
X145952731Y-84477426D01*
X145808484Y-84388454D01*
X145805243Y-84386942D01*
X145766983Y-84345181D01*
X145769457Y-84288598D01*
X145784193Y-84267554D01*
X145848528Y-84203220D01*
X145909719Y-84083126D01*
X145909719Y-84083120D01*
X145911520Y-84077584D01*
X145914670Y-84078607D01*
X145938546Y-84039637D01*
X145982048Y-84025500D01*
X146507377Y-84025500D01*
X146559703Y-84047174D01*
X147227826Y-84715297D01*
X147249500Y-84767623D01*
X147249500Y-85411577D01*
X147227826Y-85463903D01*
X147175500Y-85485577D01*
X147154855Y-85482639D01*
X147052493Y-85452900D01*
X147050000Y-85452703D01*
X147050000Y-86437500D01*
X147600000Y-86437500D01*
X147600000Y-86034358D01*
X147597099Y-85997506D01*
X147552834Y-85845145D01*
X147559049Y-85788850D01*
X147603251Y-85753438D01*
X147623896Y-85750500D01*
X147933254Y-85750500D01*
X147933260Y-85750500D01*
X148001393Y-85740573D01*
X148106483Y-85689198D01*
X148189198Y-85606483D01*
X148240573Y-85501393D01*
X148250500Y-85433260D01*
X148250500Y-85021855D01*
X148272174Y-84969529D01*
X148324500Y-84947855D01*
X148362169Y-84958160D01*
X148470554Y-85022259D01*
X148624622Y-85067020D01*
X148624619Y-85067020D01*
X148659748Y-85069784D01*
X148659748Y-85069783D01*
X149159748Y-85069783D01*
X149194874Y-85067020D01*
X149348941Y-85022259D01*
X149461438Y-84955729D01*
X149517510Y-84947749D01*
X149536776Y-84955729D01*
X149665838Y-85032056D01*
X149819906Y-85076817D01*
X149819903Y-85076817D01*
X149855032Y-85079581D01*
X149855032Y-85079580D01*
X150355032Y-85079580D01*
X150390158Y-85076817D01*
X150544225Y-85032056D01*
X150682321Y-84950386D01*
X150795767Y-84836940D01*
X150877437Y-84698844D01*
X150917877Y-84559651D01*
X150355032Y-84559651D01*
X150355032Y-85079580D01*
X149855032Y-85079580D01*
X149855032Y-84559651D01*
X149245481Y-84559651D01*
X149221829Y-84549854D01*
X149159748Y-84549854D01*
X149159748Y-85069783D01*
X148659748Y-85069783D01*
X148659748Y-84373854D01*
X148681422Y-84321528D01*
X148733748Y-84299854D01*
X148909748Y-84299854D01*
X148909748Y-84123854D01*
X148931422Y-84071528D01*
X148983748Y-84049854D01*
X149769299Y-84049854D01*
X149792951Y-84059651D01*
X150917877Y-84059651D01*
X150917877Y-84059650D01*
X150877437Y-83920457D01*
X150795767Y-83782361D01*
X150682322Y-83668916D01*
X150633467Y-83640023D01*
X150599462Y-83594730D01*
X150604070Y-83545055D01*
X150619100Y-83512824D01*
X150625532Y-83463967D01*
X150625532Y-83115335D01*
X150619100Y-83066478D01*
X150618036Y-83064198D01*
X150617966Y-83062591D01*
X150617516Y-83061045D01*
X150617894Y-83060934D01*
X150615565Y-83007616D01*
X150653828Y-82965858D01*
X150710411Y-82963386D01*
X150737429Y-82980598D01*
G37*
%TD.AperFunction*%
%TA.AperFunction,Conductor*%
G36*
X139944075Y-81052993D02*
G01*
X140009901Y-81167007D01*
X140102993Y-81260099D01*
X140217007Y-81325925D01*
X140280590Y-81342962D01*
X139648282Y-81975270D01*
X139702449Y-82014624D01*
X139891778Y-82111093D01*
X139891782Y-82111095D01*
X140093863Y-82176755D01*
X140093876Y-82176758D01*
X140286449Y-82207259D01*
X140334740Y-82236852D01*
X140347962Y-82291924D01*
X140318369Y-82340215D01*
X140289310Y-82352926D01*
X140103585Y-82389868D01*
X140103579Y-82389870D01*
X139912401Y-82469059D01*
X139740345Y-82584022D01*
X139740344Y-82584024D01*
X139594024Y-82730344D01*
X139594022Y-82730345D01*
X139479059Y-82902401D01*
X139399870Y-83093579D01*
X139399868Y-83093586D01*
X139359500Y-83296535D01*
X139359500Y-83503464D01*
X139399868Y-83706413D01*
X139399870Y-83706420D01*
X139479059Y-83897598D01*
X139591905Y-84066486D01*
X139594023Y-84069655D01*
X139740345Y-84215977D01*
X139912402Y-84330941D01*
X140103580Y-84410130D01*
X140306535Y-84450500D01*
X140306536Y-84450500D01*
X140513464Y-84450500D01*
X140513465Y-84450500D01*
X140716420Y-84410130D01*
X140867836Y-84347411D01*
X140924474Y-84347411D01*
X140948481Y-84363452D01*
X142578826Y-85993797D01*
X142600500Y-86046123D01*
X142600500Y-87526877D01*
X142578826Y-87579203D01*
X142526500Y-87600877D01*
X142474174Y-87579203D01*
X141373452Y-86478481D01*
X141351778Y-86426155D01*
X141357411Y-86397836D01*
X141420130Y-86246420D01*
X141460500Y-86043465D01*
X141460500Y-85836535D01*
X141420130Y-85633580D01*
X141340941Y-85442402D01*
X141225977Y-85270345D01*
X141079655Y-85124023D01*
X141074912Y-85120854D01*
X140907598Y-85009059D01*
X140716420Y-84929870D01*
X140716413Y-84929868D01*
X140563516Y-84899455D01*
X140513465Y-84889500D01*
X140306535Y-84889500D01*
X140266385Y-84897486D01*
X140103586Y-84929868D01*
X140103579Y-84929870D01*
X139912401Y-85009059D01*
X139740345Y-85124022D01*
X139740344Y-85124024D01*
X139594024Y-85270344D01*
X139594022Y-85270345D01*
X139479059Y-85442401D01*
X139399870Y-85633579D01*
X139399868Y-85633586D01*
X139359500Y-85836535D01*
X139359500Y-86043464D01*
X139399868Y-86246413D01*
X139399870Y-86246420D01*
X139479059Y-86437598D01*
X139591905Y-86606486D01*
X139594023Y-86609655D01*
X139740345Y-86755977D01*
X139912402Y-86870941D01*
X140103580Y-86950130D01*
X140306535Y-86990500D01*
X140306536Y-86990500D01*
X140513464Y-86990500D01*
X140513465Y-86990500D01*
X140716420Y-86950130D01*
X140867836Y-86887411D01*
X140924474Y-86887411D01*
X140948481Y-86903452D01*
X142177826Y-88132797D01*
X142199500Y-88185123D01*
X142199500Y-89665877D01*
X142177826Y-89718203D01*
X142125500Y-89739877D01*
X142073174Y-89718203D01*
X141373452Y-89018481D01*
X141351778Y-88966155D01*
X141357411Y-88937836D01*
X141374074Y-88897608D01*
X141420130Y-88786420D01*
X141460500Y-88583465D01*
X141460500Y-88376535D01*
X141420130Y-88173580D01*
X141340941Y-87982402D01*
X141225977Y-87810345D01*
X141079655Y-87664023D01*
X141074912Y-87660854D01*
X140907598Y-87549059D01*
X140716420Y-87469870D01*
X140716413Y-87469868D01*
X140563516Y-87439455D01*
X140513465Y-87429500D01*
X140306535Y-87429500D01*
X140266385Y-87437486D01*
X140103586Y-87469868D01*
X140103579Y-87469870D01*
X139912401Y-87549059D01*
X139740345Y-87664022D01*
X139740344Y-87664024D01*
X139594024Y-87810344D01*
X139594022Y-87810345D01*
X139479059Y-87982401D01*
X139399870Y-88173579D01*
X139399868Y-88173586D01*
X139359500Y-88376535D01*
X139359500Y-88583464D01*
X139399868Y-88786413D01*
X139399870Y-88786420D01*
X139479059Y-88977598D01*
X139591905Y-89146486D01*
X139594023Y-89149655D01*
X139740345Y-89295977D01*
X139912402Y-89410941D01*
X140103580Y-89490130D01*
X140306535Y-89530500D01*
X140306536Y-89530500D01*
X140513464Y-89530500D01*
X140513465Y-89530500D01*
X140716420Y-89490130D01*
X140867836Y-89427411D01*
X140924474Y-89427411D01*
X140948481Y-89443452D01*
X141677826Y-90172797D01*
X141699500Y-90225123D01*
X141699500Y-91705877D01*
X141677826Y-91758203D01*
X141625500Y-91779877D01*
X141573174Y-91758203D01*
X141373452Y-91558481D01*
X141351778Y-91506155D01*
X141357411Y-91477836D01*
X141363115Y-91464065D01*
X141420130Y-91326420D01*
X141460500Y-91123465D01*
X141460500Y-90916535D01*
X141420130Y-90713580D01*
X141340941Y-90522402D01*
X141225977Y-90350345D01*
X141079655Y-90204023D01*
X141074912Y-90200854D01*
X140907598Y-90089059D01*
X140716420Y-90009870D01*
X140716413Y-90009868D01*
X140563516Y-89979455D01*
X140513465Y-89969500D01*
X140306535Y-89969500D01*
X140266385Y-89977486D01*
X140103586Y-90009868D01*
X140103579Y-90009870D01*
X139912401Y-90089059D01*
X139740345Y-90204022D01*
X139740344Y-90204024D01*
X139594024Y-90350344D01*
X139594022Y-90350345D01*
X139479059Y-90522401D01*
X139399870Y-90713579D01*
X139399868Y-90713586D01*
X139359500Y-90916535D01*
X139359500Y-91123464D01*
X139399868Y-91326413D01*
X139399870Y-91326420D01*
X139479059Y-91517598D01*
X139591905Y-91686486D01*
X139594023Y-91689655D01*
X139740345Y-91835977D01*
X139912402Y-91950941D01*
X140103580Y-92030130D01*
X140289310Y-92067073D01*
X140336402Y-92098538D01*
X140347451Y-92154087D01*
X140315986Y-92201180D01*
X140286450Y-92212740D01*
X140093874Y-92243242D01*
X140093863Y-92243244D01*
X139891785Y-92308903D01*
X139702450Y-92405374D01*
X139648282Y-92444729D01*
X140280590Y-93077037D01*
X140217007Y-93094075D01*
X140102993Y-93159901D01*
X140009901Y-93252993D01*
X139944075Y-93367007D01*
X139927037Y-93430590D01*
X139294729Y-92798282D01*
X139294728Y-92798282D01*
X139259367Y-92846953D01*
X139211076Y-92876546D01*
X139156004Y-92863324D01*
X139126411Y-92815033D01*
X139125500Y-92803457D01*
X139125500Y-81616541D01*
X139147174Y-81564215D01*
X139199500Y-81542541D01*
X139251826Y-81564215D01*
X139259367Y-81573045D01*
X139294728Y-81621716D01*
X139927037Y-80989407D01*
X139944075Y-81052993D01*
G37*
%TD.AperFunction*%
%TA.AperFunction,Conductor*%
G36*
X159454131Y-81618548D02*
G01*
X159454131Y-81618547D01*
X159490634Y-81568309D01*
X159538925Y-81538717D01*
X159593997Y-81551940D01*
X159623589Y-81600231D01*
X159624500Y-81611806D01*
X159624500Y-92801856D01*
X159602826Y-92854182D01*
X159550500Y-92875856D01*
X159498174Y-92854182D01*
X159490633Y-92845353D01*
X159454130Y-92795113D01*
X158821823Y-93427421D01*
X158804786Y-93363838D01*
X158738960Y-93249824D01*
X158645868Y-93156732D01*
X158531854Y-93090906D01*
X158468269Y-93073868D01*
X159100577Y-92441559D01*
X159046417Y-92402209D01*
X159046411Y-92402206D01*
X158857082Y-92305737D01*
X158857078Y-92305735D01*
X158654997Y-92240075D01*
X158654986Y-92240073D01*
X158462410Y-92209571D01*
X158414120Y-92179978D01*
X158400898Y-92124905D01*
X158430491Y-92076615D01*
X158459547Y-92063905D01*
X158645281Y-92026961D01*
X158836459Y-91947772D01*
X159008516Y-91832808D01*
X159154838Y-91686486D01*
X159269802Y-91514429D01*
X159348991Y-91323251D01*
X159389361Y-91120296D01*
X159389361Y-90913366D01*
X159348991Y-90710411D01*
X159269802Y-90519233D01*
X159154838Y-90347176D01*
X159008516Y-90200854D01*
X159000494Y-90195494D01*
X158836459Y-90085890D01*
X158645281Y-90006701D01*
X158645274Y-90006699D01*
X158492377Y-89976286D01*
X158442326Y-89966331D01*
X158235396Y-89966331D01*
X158195246Y-89974317D01*
X158032447Y-90006699D01*
X158032440Y-90006701D01*
X157841262Y-90085890D01*
X157669206Y-90200853D01*
X157669205Y-90200855D01*
X157522885Y-90347175D01*
X157522883Y-90347176D01*
X157407920Y-90519232D01*
X157328731Y-90710410D01*
X157328729Y-90710417D01*
X157288361Y-90913366D01*
X157288361Y-91120296D01*
X157290514Y-91131120D01*
X157328729Y-91323244D01*
X157328732Y-91323255D01*
X157391449Y-91474667D01*
X157391449Y-91531304D01*
X157375408Y-91555311D01*
X156775826Y-92154894D01*
X156723500Y-92176568D01*
X156671174Y-92154894D01*
X156649500Y-92102568D01*
X156649500Y-90621814D01*
X156671173Y-90569489D01*
X157800380Y-89440281D01*
X157852705Y-89418608D01*
X157881021Y-89424240D01*
X158032441Y-89486961D01*
X158235396Y-89527331D01*
X158235397Y-89527331D01*
X158442325Y-89527331D01*
X158442326Y-89527331D01*
X158645281Y-89486961D01*
X158836459Y-89407772D01*
X159008516Y-89292808D01*
X159154838Y-89146486D01*
X159269802Y-88974429D01*
X159348991Y-88783251D01*
X159389361Y-88580296D01*
X159389361Y-88373366D01*
X159348991Y-88170411D01*
X159269802Y-87979233D01*
X159154838Y-87807176D01*
X159008516Y-87660854D01*
X158985670Y-87645589D01*
X158836459Y-87545890D01*
X158645281Y-87466701D01*
X158645274Y-87466699D01*
X158492377Y-87436286D01*
X158442326Y-87426331D01*
X158235396Y-87426331D01*
X158195246Y-87434317D01*
X158032447Y-87466699D01*
X158032440Y-87466701D01*
X157841262Y-87545890D01*
X157669206Y-87660853D01*
X157669205Y-87660855D01*
X157522885Y-87807175D01*
X157522883Y-87807176D01*
X157407920Y-87979232D01*
X157328731Y-88170410D01*
X157328729Y-88170417D01*
X157288361Y-88373366D01*
X157288361Y-88580296D01*
X157298316Y-88630347D01*
X157328729Y-88783244D01*
X157328732Y-88783255D01*
X157391449Y-88934667D01*
X157391449Y-88991304D01*
X157375408Y-89015311D01*
X156374826Y-90015894D01*
X156322500Y-90037568D01*
X156270174Y-90015894D01*
X156248500Y-89963568D01*
X156248500Y-85942814D01*
X156270173Y-85890489D01*
X156327296Y-85833366D01*
X157288361Y-85833366D01*
X157288361Y-86040296D01*
X157289520Y-86046123D01*
X157328729Y-86243244D01*
X157328731Y-86243251D01*
X157407920Y-86434429D01*
X157522884Y-86606486D01*
X157669206Y-86752808D01*
X157841263Y-86867772D01*
X158032441Y-86946961D01*
X158235396Y-86987331D01*
X158235397Y-86987331D01*
X158442325Y-86987331D01*
X158442326Y-86987331D01*
X158645281Y-86946961D01*
X158836459Y-86867772D01*
X159008516Y-86752808D01*
X159154838Y-86606486D01*
X159269802Y-86434429D01*
X159348991Y-86243251D01*
X159389361Y-86040296D01*
X159389361Y-85833366D01*
X159348991Y-85630411D01*
X159269802Y-85439233D01*
X159154838Y-85267176D01*
X159008516Y-85120854D01*
X158932082Y-85069783D01*
X158836459Y-85005890D01*
X158645281Y-84926701D01*
X158645274Y-84926699D01*
X158492377Y-84896286D01*
X158442326Y-84886331D01*
X158235396Y-84886331D01*
X158195246Y-84894317D01*
X158032447Y-84926699D01*
X158032440Y-84926701D01*
X157841262Y-85005890D01*
X157669206Y-85120853D01*
X157669205Y-85120855D01*
X157522885Y-85267175D01*
X157522883Y-85267176D01*
X157407920Y-85439232D01*
X157328731Y-85630410D01*
X157328729Y-85630417D01*
X157303068Y-85759427D01*
X157288361Y-85833366D01*
X156327296Y-85833366D01*
X157800380Y-84360281D01*
X157852705Y-84338608D01*
X157881021Y-84344240D01*
X158032441Y-84406961D01*
X158235396Y-84447331D01*
X158235397Y-84447331D01*
X158442325Y-84447331D01*
X158442326Y-84447331D01*
X158645281Y-84406961D01*
X158836459Y-84327772D01*
X159008516Y-84212808D01*
X159154838Y-84066486D01*
X159269802Y-83894429D01*
X159348991Y-83703251D01*
X159389361Y-83500296D01*
X159389361Y-83293366D01*
X159348991Y-83090411D01*
X159269802Y-82899233D01*
X159154838Y-82727176D01*
X159008516Y-82580854D01*
X158969249Y-82554617D01*
X158836459Y-82465890D01*
X158645281Y-82386701D01*
X158645275Y-82386699D01*
X158459550Y-82349757D01*
X158412458Y-82318291D01*
X158401409Y-82262742D01*
X158432875Y-82215650D01*
X158462411Y-82204090D01*
X158654984Y-82173589D01*
X158654997Y-82173586D01*
X158857078Y-82107926D01*
X158857082Y-82107924D01*
X159046415Y-82011454D01*
X159046422Y-82011449D01*
X159100577Y-81972101D01*
X159100578Y-81972101D01*
X158468270Y-81339793D01*
X158531854Y-81322756D01*
X158645868Y-81256930D01*
X158738960Y-81163838D01*
X158804786Y-81049824D01*
X158821823Y-80986240D01*
X159454131Y-81618548D01*
G37*
%TD.AperFunction*%
%TA.AperFunction,Conductor*%
G36*
X148397826Y-89197174D02*
G01*
X148419500Y-89249500D01*
X148419500Y-90265751D01*
X148397826Y-90318077D01*
X148345500Y-90339751D01*
X148300593Y-90321150D01*
X148299055Y-90323133D01*
X148295378Y-90320280D01*
X148156196Y-90237968D01*
X148010000Y-90195494D01*
X148010000Y-91804505D01*
X148156196Y-91762031D01*
X148295378Y-91679719D01*
X148299055Y-91676867D01*
X148300593Y-91678849D01*
X148345500Y-91660249D01*
X148397826Y-91681923D01*
X148419500Y-91734249D01*
X148419500Y-91850500D01*
X148397826Y-91902826D01*
X148345501Y-91924500D01*
X148261600Y-91924500D01*
X148184882Y-91939760D01*
X148097888Y-91997887D01*
X148097887Y-91997888D01*
X148039760Y-92084882D01*
X148024500Y-92161600D01*
X148024500Y-92338399D01*
X148039760Y-92415117D01*
X148039761Y-92415120D01*
X148069006Y-92458889D01*
X148080055Y-92514438D01*
X148069006Y-92541111D01*
X148039760Y-92584881D01*
X148024500Y-92661600D01*
X148024500Y-92680192D01*
X148002826Y-92732518D01*
X147950500Y-92754192D01*
X147931349Y-92751671D01*
X147923246Y-92749500D01*
X147791462Y-92749500D01*
X147791460Y-92749500D01*
X147664172Y-92783606D01*
X147664161Y-92783611D01*
X147661494Y-92785151D01*
X147659955Y-92785353D01*
X147659686Y-92785465D01*
X147659656Y-92785392D01*
X147605341Y-92792539D01*
X147560411Y-92758056D01*
X147550500Y-92721062D01*
X147550500Y-92180253D01*
X147546790Y-92161600D01*
X147538867Y-92121769D01*
X147494552Y-92055448D01*
X147472343Y-92040608D01*
X147428232Y-92011133D01*
X147428233Y-92011133D01*
X147398989Y-92005316D01*
X147369748Y-91999500D01*
X147130252Y-91999500D01*
X147101010Y-92005316D01*
X147071767Y-92011133D01*
X147005449Y-92055447D01*
X147005447Y-92055449D01*
X146961133Y-92121767D01*
X146949500Y-92180253D01*
X146949500Y-93305079D01*
X146927826Y-93357405D01*
X146875500Y-93379079D01*
X146823174Y-93357405D01*
X146471879Y-93006110D01*
X146473976Y-93004012D01*
X146450312Y-92963075D01*
X146459699Y-92922785D01*
X146457450Y-92921854D01*
X146460239Y-92915118D01*
X146460238Y-92915118D01*
X146460240Y-92915117D01*
X146475500Y-92838401D01*
X146475499Y-92661600D01*
X146460240Y-92584883D01*
X146430992Y-92541111D01*
X146419944Y-92485563D01*
X146430993Y-92458888D01*
X146437005Y-92449890D01*
X146460240Y-92415117D01*
X146475500Y-92338401D01*
X146475499Y-92161600D01*
X146460240Y-92084883D01*
X146402112Y-91997888D01*
X146389386Y-91989385D01*
X146315117Y-91939760D01*
X146238401Y-91924500D01*
X146238399Y-91924500D01*
X145955123Y-91924500D01*
X145902797Y-91902826D01*
X145802174Y-91802203D01*
X145780500Y-91749877D01*
X145780500Y-91523526D01*
X145802174Y-91471200D01*
X145808975Y-91465493D01*
X145810402Y-91464065D01*
X145810404Y-91464065D01*
X145894065Y-91380404D01*
X145922933Y-91318495D01*
X145964690Y-91280232D01*
X146021273Y-91282702D01*
X146057066Y-91318495D01*
X146060762Y-91326420D01*
X146085933Y-91380402D01*
X146085935Y-91380404D01*
X146169596Y-91464065D01*
X146276827Y-91514068D01*
X146325684Y-91520500D01*
X146325686Y-91520500D01*
X146674314Y-91520500D01*
X146674316Y-91520500D01*
X146723173Y-91514068D01*
X146830404Y-91464065D01*
X146903539Y-91390929D01*
X146955864Y-91369256D01*
X147008190Y-91390930D01*
X147026924Y-91422604D01*
X147027967Y-91426194D01*
X147110280Y-91565377D01*
X147224622Y-91679719D01*
X147363803Y-91762031D01*
X147509999Y-91804505D01*
X147510000Y-91804505D01*
X147510000Y-90195494D01*
X147509999Y-90195493D01*
X147426608Y-90219721D01*
X147370313Y-90213506D01*
X147334901Y-90169304D01*
X147341116Y-90113009D01*
X147353633Y-90096337D01*
X148252797Y-89197174D01*
X148305123Y-89175500D01*
X148345500Y-89175500D01*
X148397826Y-89197174D01*
G37*
%TD.AperFunction*%
%TA.AperFunction,Conductor*%
G36*
X141557690Y-79892661D02*
G01*
X143177826Y-81512797D01*
X143199500Y-81565123D01*
X143199500Y-85585877D01*
X143177826Y-85638203D01*
X143125500Y-85659877D01*
X143073174Y-85638203D01*
X141373452Y-83938481D01*
X141351778Y-83886155D01*
X141357411Y-83857836D01*
X141385447Y-83790151D01*
X141420130Y-83706420D01*
X141460500Y-83503465D01*
X141460500Y-83296535D01*
X141420130Y-83093580D01*
X141340941Y-82902402D01*
X141225977Y-82730345D01*
X141079655Y-82584023D01*
X141074912Y-82580854D01*
X140907598Y-82469059D01*
X140716420Y-82389870D01*
X140716414Y-82389868D01*
X140530689Y-82352926D01*
X140483597Y-82321460D01*
X140472548Y-82265911D01*
X140504014Y-82218819D01*
X140533550Y-82207259D01*
X140726123Y-82176758D01*
X140726136Y-82176755D01*
X140928217Y-82111095D01*
X140928221Y-82111093D01*
X141117554Y-82014623D01*
X141117561Y-82014618D01*
X141171716Y-81975270D01*
X141171717Y-81975270D01*
X140539409Y-81342962D01*
X140602993Y-81325925D01*
X140717007Y-81260099D01*
X140810099Y-81167007D01*
X140875925Y-81052993D01*
X140892962Y-80989408D01*
X141525270Y-81621716D01*
X141564618Y-81567561D01*
X141564623Y-81567554D01*
X141661093Y-81378221D01*
X141661095Y-81378217D01*
X141726755Y-81176136D01*
X141726758Y-81176123D01*
X141760000Y-80966248D01*
X141760000Y-80753751D01*
X141726758Y-80543876D01*
X141726755Y-80543863D01*
X141661095Y-80341782D01*
X141661093Y-80341778D01*
X141564624Y-80152449D01*
X141564621Y-80152443D01*
X141445497Y-79988483D01*
X141432275Y-79933411D01*
X141461868Y-79885120D01*
X141516940Y-79871898D01*
X141557690Y-79892661D01*
G37*
%TD.AperFunction*%
%TA.AperFunction,Conductor*%
G36*
X146478326Y-80466674D02*
G01*
X146500000Y-80519000D01*
X146500000Y-80695000D01*
X146676000Y-80695000D01*
X146728326Y-80716674D01*
X146750000Y-80769000D01*
X146750000Y-81769376D01*
X146728326Y-81821702D01*
X145497203Y-83052826D01*
X145444877Y-83074500D01*
X144966511Y-83074500D01*
X144866874Y-83090280D01*
X144866873Y-83090281D01*
X144746780Y-83151471D01*
X144651471Y-83246780D01*
X144590281Y-83366873D01*
X144590280Y-83366874D01*
X144574500Y-83466511D01*
X144574500Y-83983488D01*
X144590280Y-84083125D01*
X144590281Y-84083126D01*
X144651471Y-84203219D01*
X144715803Y-84267551D01*
X144737477Y-84319877D01*
X144715803Y-84372203D01*
X144694759Y-84386940D01*
X144691520Y-84388450D01*
X144547268Y-84477426D01*
X144426826Y-84597869D01*
X144374500Y-84619543D01*
X144322174Y-84597869D01*
X144300500Y-84545543D01*
X144300500Y-81307271D01*
X145680000Y-81307271D01*
X145699644Y-81344020D01*
X145700000Y-81351275D01*
X145700000Y-81467828D01*
X145706402Y-81527375D01*
X145706403Y-81527380D01*
X145756645Y-81662087D01*
X145756646Y-81662088D01*
X145842811Y-81777188D01*
X145957911Y-81863353D01*
X145957912Y-81863354D01*
X146092619Y-81913596D01*
X146092624Y-81913597D01*
X146152171Y-81920000D01*
X146250000Y-81920000D01*
X146250000Y-80945000D01*
X145680000Y-80945000D01*
X145680000Y-81307271D01*
X144300500Y-81307271D01*
X144300500Y-80528785D01*
X144322174Y-80476459D01*
X144374500Y-80454785D01*
X144426826Y-80476459D01*
X144447078Y-80514349D01*
X144468427Y-80621682D01*
X144468430Y-80621693D01*
X144543809Y-80803675D01*
X144653246Y-80967459D01*
X144792540Y-81106753D01*
X144956324Y-81216190D01*
X145138306Y-81291569D01*
X145138317Y-81291572D01*
X145179999Y-81299863D01*
X145180000Y-81299863D01*
X145180000Y-80496988D01*
X145189940Y-80514205D01*
X145245795Y-80570060D01*
X145314204Y-80609556D01*
X145390504Y-80630000D01*
X145469496Y-80630000D01*
X145545796Y-80609556D01*
X145614205Y-80570060D01*
X145670060Y-80514205D01*
X145709556Y-80445796D01*
X145709769Y-80445000D01*
X146426000Y-80445000D01*
X146478326Y-80466674D01*
G37*
%TD.AperFunction*%
%TA.AperFunction,Conductor*%
G36*
X139463207Y-74647174D02*
G01*
X139484881Y-74699500D01*
X139463207Y-74751826D01*
X139451994Y-74761028D01*
X139415450Y-74785446D01*
X139415447Y-74785449D01*
X139371133Y-74851767D01*
X139371133Y-74851769D01*
X139360131Y-74907083D01*
X139359500Y-74910253D01*
X139359500Y-76649746D01*
X139371133Y-76708232D01*
X139400608Y-76752343D01*
X139415448Y-76774552D01*
X139459560Y-76804027D01*
X139481767Y-76818866D01*
X139481768Y-76818866D01*
X139481769Y-76818867D01*
X139540252Y-76830500D01*
X141004877Y-76830500D01*
X141057203Y-76852174D01*
X143677826Y-79472797D01*
X143699500Y-79525123D01*
X143699500Y-81005877D01*
X143677826Y-81058203D01*
X143625500Y-81079877D01*
X143573174Y-81058203D01*
X141373452Y-78858481D01*
X141351778Y-78806155D01*
X141357411Y-78777836D01*
X141420130Y-78626420D01*
X141460500Y-78423465D01*
X141460500Y-78216535D01*
X141420130Y-78013580D01*
X141340941Y-77822402D01*
X141225977Y-77650345D01*
X141079655Y-77504023D01*
X141074912Y-77500854D01*
X140907598Y-77389059D01*
X140716420Y-77309870D01*
X140716413Y-77309868D01*
X140563516Y-77279455D01*
X140513465Y-77269500D01*
X140306535Y-77269500D01*
X140266385Y-77277486D01*
X140103586Y-77309868D01*
X140103579Y-77309870D01*
X139912401Y-77389059D01*
X139740345Y-77504022D01*
X139740344Y-77504024D01*
X139594024Y-77650344D01*
X139594022Y-77650345D01*
X139479059Y-77822401D01*
X139399870Y-78013579D01*
X139399868Y-78013586D01*
X139359500Y-78216535D01*
X139359500Y-78423464D01*
X139399868Y-78626413D01*
X139399870Y-78626420D01*
X139479059Y-78817598D01*
X139591905Y-78986486D01*
X139594023Y-78989655D01*
X139740345Y-79135977D01*
X139912402Y-79250941D01*
X140103580Y-79330130D01*
X140289310Y-79367073D01*
X140336402Y-79398538D01*
X140347451Y-79454087D01*
X140315986Y-79501180D01*
X140286450Y-79512740D01*
X140093874Y-79543242D01*
X140093863Y-79543244D01*
X139891785Y-79608903D01*
X139702450Y-79705374D01*
X139648282Y-79744729D01*
X140280591Y-80377037D01*
X140217007Y-80394075D01*
X140102993Y-80459901D01*
X140009901Y-80552993D01*
X139944075Y-80667007D01*
X139927037Y-80730590D01*
X139294729Y-80098282D01*
X139294728Y-80098282D01*
X139259367Y-80146953D01*
X139211076Y-80176546D01*
X139156004Y-80163324D01*
X139126411Y-80115033D01*
X139125500Y-80103457D01*
X139125500Y-74699500D01*
X139147174Y-74647174D01*
X139199500Y-74625500D01*
X139410881Y-74625500D01*
X139463207Y-74647174D01*
G37*
%TD.AperFunction*%
%TA.AperFunction,Conductor*%
G36*
X144591878Y-74647174D02*
G01*
X144613552Y-74699500D01*
X144601081Y-74740612D01*
X144543809Y-74826324D01*
X144468430Y-75008306D01*
X144468427Y-75008317D01*
X144430000Y-75201509D01*
X144430000Y-75350000D01*
X145130000Y-75350000D01*
X145130000Y-75850000D01*
X144430000Y-75850000D01*
X144430000Y-75998490D01*
X144468427Y-76191682D01*
X144468430Y-76191693D01*
X144543809Y-76373675D01*
X144653246Y-76537459D01*
X144792540Y-76676753D01*
X144956324Y-76786190D01*
X145138306Y-76861569D01*
X145138317Y-76861572D01*
X145179999Y-76869863D01*
X145180000Y-76869863D01*
X145180000Y-76066988D01*
X145189940Y-76084205D01*
X145245795Y-76140060D01*
X145314204Y-76179556D01*
X145390504Y-76200000D01*
X145469496Y-76200000D01*
X145545796Y-76179556D01*
X145614205Y-76140060D01*
X145670060Y-76084205D01*
X145680000Y-76066988D01*
X145680000Y-76869863D01*
X145721682Y-76861572D01*
X145721693Y-76861569D01*
X145903675Y-76786190D01*
X146067459Y-76676753D01*
X146206753Y-76537459D01*
X146316190Y-76373675D01*
X146391569Y-76191693D01*
X146391572Y-76191682D01*
X146430000Y-75998490D01*
X146430000Y-75850000D01*
X145730000Y-75850000D01*
X145730000Y-75350000D01*
X146430000Y-75350000D01*
X146430000Y-75201509D01*
X146391572Y-75008317D01*
X146391569Y-75008306D01*
X146316190Y-74826324D01*
X146258919Y-74740612D01*
X146247870Y-74685063D01*
X146279336Y-74637971D01*
X146320448Y-74625500D01*
X153179552Y-74625500D01*
X153231878Y-74647174D01*
X153253552Y-74699500D01*
X153241081Y-74740612D01*
X153183809Y-74826324D01*
X153108430Y-75008306D01*
X153108427Y-75008317D01*
X153070000Y-75201509D01*
X153070000Y-75350000D01*
X153770000Y-75350000D01*
X153770000Y-75850000D01*
X153070000Y-75850000D01*
X153070000Y-75998490D01*
X153108427Y-76191682D01*
X153108430Y-76191693D01*
X153183809Y-76373675D01*
X153293246Y-76537459D01*
X153432540Y-76676753D01*
X153596324Y-76786190D01*
X153778306Y-76861569D01*
X153778317Y-76861572D01*
X153819999Y-76869863D01*
X153820000Y-76869863D01*
X153820000Y-76066988D01*
X153829940Y-76084205D01*
X153885795Y-76140060D01*
X153954204Y-76179556D01*
X154030504Y-76200000D01*
X154109496Y-76200000D01*
X154185796Y-76179556D01*
X154254205Y-76140060D01*
X154310060Y-76084205D01*
X154320000Y-76066988D01*
X154320000Y-76869863D01*
X154361682Y-76861572D01*
X154361693Y-76861569D01*
X154543675Y-76786190D01*
X154707459Y-76676753D01*
X154846753Y-76537459D01*
X154956190Y-76373675D01*
X155031569Y-76191693D01*
X155031572Y-76191682D01*
X155070000Y-75998490D01*
X155070000Y-75850000D01*
X154370000Y-75850000D01*
X154370000Y-75350000D01*
X155070000Y-75350000D01*
X155070000Y-75201509D01*
X155031572Y-75008317D01*
X155031569Y-75008306D01*
X154956190Y-74826324D01*
X154898919Y-74740612D01*
X154887870Y-74685063D01*
X154919336Y-74637971D01*
X154960448Y-74625500D01*
X157335000Y-74625500D01*
X157387326Y-74647174D01*
X157409000Y-74699500D01*
X157387326Y-74751826D01*
X157376113Y-74761028D01*
X157344310Y-74782278D01*
X157344308Y-74782280D01*
X157299994Y-74848598D01*
X157288361Y-74907084D01*
X157288361Y-76371708D01*
X157266687Y-76424034D01*
X156512895Y-77177826D01*
X156460569Y-77199500D01*
X151077436Y-77199500D01*
X151001014Y-77219977D01*
X151001009Y-77219979D01*
X150932488Y-77259540D01*
X149647203Y-78544826D01*
X149594877Y-78566500D01*
X148163436Y-78566500D01*
X148087014Y-78586977D01*
X148087009Y-78586979D01*
X148024187Y-78623250D01*
X148018488Y-78626540D01*
X147533590Y-79111438D01*
X147481264Y-79133112D01*
X147428938Y-79111438D01*
X147409786Y-79078265D01*
X147396282Y-79027869D01*
X147396281Y-79027865D01*
X147320515Y-78896635D01*
X147213365Y-78789485D01*
X147213362Y-78789483D01*
X147082139Y-78713721D01*
X147082130Y-78713717D01*
X146935768Y-78674500D01*
X146935766Y-78674500D01*
X146784234Y-78674500D01*
X146784232Y-78674500D01*
X146637869Y-78713717D01*
X146637860Y-78713721D01*
X146506636Y-78789484D01*
X146459992Y-78836127D01*
X146407666Y-78857800D01*
X146355340Y-78836125D01*
X146339300Y-78812118D01*
X146316190Y-78756324D01*
X146206753Y-78592540D01*
X146067459Y-78453246D01*
X145903675Y-78343809D01*
X145721691Y-78268429D01*
X145721684Y-78268427D01*
X145680000Y-78260136D01*
X145680000Y-79063011D01*
X145670060Y-79045795D01*
X145614205Y-78989940D01*
X145545796Y-78950444D01*
X145469496Y-78930000D01*
X145390504Y-78930000D01*
X145314204Y-78950444D01*
X145245795Y-78989940D01*
X145189940Y-79045795D01*
X145180000Y-79063011D01*
X145180000Y-78260136D01*
X145179999Y-78260136D01*
X145138315Y-78268427D01*
X145138308Y-78268429D01*
X144956324Y-78343809D01*
X144792540Y-78453246D01*
X144653246Y-78592540D01*
X144543809Y-78756324D01*
X144468430Y-78938306D01*
X144468427Y-78938317D01*
X144430000Y-79131509D01*
X144430000Y-79251652D01*
X144408326Y-79303978D01*
X144356000Y-79325652D01*
X144303674Y-79303978D01*
X144284522Y-79270805D01*
X144280023Y-79254016D01*
X144280022Y-79254012D01*
X144254340Y-79209529D01*
X144240462Y-79185492D01*
X144240461Y-79185491D01*
X144240460Y-79185489D01*
X141482174Y-76427203D01*
X141460500Y-76374877D01*
X141460500Y-74910253D01*
X141459870Y-74907084D01*
X141448867Y-74851769D01*
X141404552Y-74785448D01*
X141399808Y-74782278D01*
X141368006Y-74761028D01*
X141336541Y-74713935D01*
X141347591Y-74658387D01*
X141394684Y-74626922D01*
X141409119Y-74625500D01*
X144539552Y-74625500D01*
X144591878Y-74647174D01*
G37*
%TD.AperFunction*%
%TD*%
%TA.AperFunction,NonConductor*%
G36*
X151113303Y-79189174D02*
G01*
X151567303Y-79643174D01*
X151588977Y-79695500D01*
X151567303Y-79747826D01*
X151514977Y-79769500D01*
X151330252Y-79769500D01*
X151271769Y-79781133D01*
X151271768Y-79781133D01*
X151264621Y-79782555D01*
X151263804Y-79778448D01*
X151236196Y-79778448D01*
X151235379Y-79782555D01*
X151228231Y-79781133D01*
X151169748Y-79769500D01*
X150873108Y-79769500D01*
X150820782Y-79747826D01*
X150801630Y-79714653D01*
X150780022Y-79634014D01*
X150780020Y-79634009D01*
X150765527Y-79608906D01*
X150740460Y-79565489D01*
X150684511Y-79509540D01*
X150603511Y-79428540D01*
X150584389Y-79417500D01*
X150551546Y-79398538D01*
X150534990Y-79388979D01*
X150534985Y-79388977D01*
X150458564Y-79368500D01*
X150458562Y-79368500D01*
X149509438Y-79368500D01*
X149509436Y-79368500D01*
X149433014Y-79388977D01*
X149433009Y-79388979D01*
X149383611Y-79417500D01*
X149364488Y-79428540D01*
X149259540Y-79533488D01*
X149219979Y-79602009D01*
X149219977Y-79602014D01*
X149199500Y-79678435D01*
X149199500Y-79695500D01*
X149177826Y-79747826D01*
X149125500Y-79769500D01*
X148830252Y-79769500D01*
X148771769Y-79781133D01*
X148771768Y-79781133D01*
X148764621Y-79782555D01*
X148763804Y-79778448D01*
X148736196Y-79778448D01*
X148735379Y-79782555D01*
X148728231Y-79781133D01*
X148669748Y-79769500D01*
X148330252Y-79769500D01*
X148271769Y-79781133D01*
X148271768Y-79781133D01*
X148264621Y-79782555D01*
X148263804Y-79778448D01*
X148236196Y-79778448D01*
X148235379Y-79782555D01*
X148228231Y-79781133D01*
X148169748Y-79769500D01*
X147904122Y-79769500D01*
X147851796Y-79747826D01*
X147830122Y-79695500D01*
X147851796Y-79643174D01*
X148014993Y-79479978D01*
X148305797Y-79189174D01*
X148358123Y-79167500D01*
X149710438Y-79167500D01*
X151060977Y-79167500D01*
X151113303Y-79189174D01*
G37*
%TD.AperFunction*%
%TA.AperFunction,NonConductor*%
G36*
X140948481Y-79283452D02*
G01*
X141377338Y-79712309D01*
X141399012Y-79764635D01*
X141377338Y-79816961D01*
X141325012Y-79838635D01*
X141281516Y-79824502D01*
X141117556Y-79705378D01*
X141117550Y-79705375D01*
X140928221Y-79608906D01*
X140928217Y-79608904D01*
X140726136Y-79543244D01*
X140726125Y-79543242D01*
X140533549Y-79512740D01*
X140485259Y-79483147D01*
X140472037Y-79428074D01*
X140501630Y-79379784D01*
X140530686Y-79367074D01*
X140716420Y-79330130D01*
X140867836Y-79267411D01*
X140924474Y-79267411D01*
X140948481Y-79283452D01*
G37*
%TD.AperFunction*%
%TA.AperFunction,NonConductor*%
G36*
X151803645Y-81599924D02*
G01*
X151807579Y-81600173D01*
X151809494Y-81602346D01*
X151816114Y-81605089D01*
X151821766Y-81608866D01*
X151821768Y-81608866D01*
X151821769Y-81608867D01*
X151880252Y-81620500D01*
X151880254Y-81620500D01*
X152103456Y-81620500D01*
X152155782Y-81642174D01*
X152177456Y-81694500D01*
X152155782Y-81746826D01*
X152122609Y-81765978D01*
X152056818Y-81783606D01*
X152056809Y-81783610D01*
X151942685Y-81849500D01*
X151910903Y-81881282D01*
X151858577Y-81902955D01*
X151806252Y-81881281D01*
X151663984Y-81739013D01*
X151657496Y-81723351D01*
X151646291Y-81710632D01*
X151647077Y-81698197D01*
X151642310Y-81686687D01*
X151648796Y-81671026D01*
X151649867Y-81654108D01*
X151658580Y-81647406D01*
X151663984Y-81634361D01*
X151692365Y-81616668D01*
X151697025Y-81615074D01*
X151728231Y-81608867D01*
X151741916Y-81599722D01*
X151751055Y-81596597D01*
X151770412Y-81597821D01*
X151789434Y-81594037D01*
X151803645Y-81599924D01*
G37*
%TD.AperFunction*%
%TA.AperFunction,NonConductor*%
G36*
X148673064Y-81620500D02*
G01*
X148673384Y-81620500D01*
X148673384Y-81620597D01*
X148685221Y-81624186D01*
X148698662Y-81622417D01*
X148711256Y-81632081D01*
X148726449Y-81636688D01*
X148743595Y-81656895D01*
X148751754Y-81671026D01*
X148759540Y-81684511D01*
X149009540Y-81934511D01*
X149065489Y-81990460D01*
X149134011Y-82030021D01*
X149134012Y-82030021D01*
X149134014Y-82030022D01*
X149137668Y-82031001D01*
X149210435Y-82050499D01*
X149210436Y-82050500D01*
X149776679Y-82050500D01*
X149829005Y-82072174D01*
X150464084Y-82707253D01*
X150485758Y-82759579D01*
X150464084Y-82811905D01*
X150411758Y-82833579D01*
X150402861Y-82833042D01*
X150391162Y-82831625D01*
X150378205Y-82825583D01*
X150329348Y-82819151D01*
X150288167Y-82819151D01*
X150283733Y-82818614D01*
X150282264Y-82817786D01*
X150273478Y-82816630D01*
X150270328Y-82815786D01*
X150170924Y-82789151D01*
X150039140Y-82789151D01*
X149939736Y-82815786D01*
X149936586Y-82816630D01*
X149917434Y-82819151D01*
X149880716Y-82819151D01*
X149869350Y-82820647D01*
X149831860Y-82825582D01*
X149724627Y-82875586D01*
X149640967Y-82959246D01*
X149590963Y-83066479D01*
X149587830Y-83090280D01*
X149584532Y-83115335D01*
X149584532Y-83463967D01*
X149588820Y-83496538D01*
X149590964Y-83512825D01*
X149605993Y-83545055D01*
X149607082Y-83570007D01*
X149610601Y-83594732D01*
X149608295Y-83597802D01*
X149608463Y-83601638D01*
X149576594Y-83640023D01*
X149553340Y-83653775D01*
X149497268Y-83661755D01*
X149478003Y-83653775D01*
X149438184Y-83630226D01*
X149404178Y-83584934D01*
X149408786Y-83535258D01*
X149423816Y-83503027D01*
X149430248Y-83454170D01*
X149430248Y-83105538D01*
X149423816Y-83056681D01*
X149373813Y-82949450D01*
X149290152Y-82865789D01*
X149182921Y-82815786D01*
X149182919Y-82815785D01*
X149146926Y-82811047D01*
X149134064Y-82809354D01*
X149134062Y-82809354D01*
X148894871Y-82809354D01*
X148842545Y-82787680D01*
X148322174Y-82267309D01*
X148300500Y-82214983D01*
X148300500Y-81694500D01*
X148322174Y-81642174D01*
X148374500Y-81620500D01*
X148669744Y-81620500D01*
X148669748Y-81620500D01*
X148669751Y-81620499D01*
X148672249Y-81620253D01*
X148673064Y-81620500D01*
G37*
%TD.AperFunction*%
%TA.AperFunction,NonConductor*%
G36*
X147662499Y-81796131D02*
G01*
X147696978Y-81841063D01*
X147699500Y-81860217D01*
X147699500Y-82409670D01*
X147719977Y-82486091D01*
X147719979Y-82486096D01*
X147745339Y-82530019D01*
X147745341Y-82530022D01*
X147759540Y-82554617D01*
X148367574Y-83162651D01*
X148389248Y-83214977D01*
X148389248Y-83454168D01*
X148395680Y-83503028D01*
X148410709Y-83535258D01*
X148413179Y-83591841D01*
X148381312Y-83630226D01*
X148332458Y-83659118D01*
X148219012Y-83772564D01*
X148153679Y-83883036D01*
X148108387Y-83917042D01*
X148057484Y-83911848D01*
X148001394Y-83884427D01*
X147933264Y-83874500D01*
X147933260Y-83874500D01*
X147566740Y-83874500D01*
X147566735Y-83874500D01*
X147498606Y-83884427D01*
X147498605Y-83884427D01*
X147393518Y-83935801D01*
X147388952Y-83939061D01*
X147333771Y-83951823D01*
X147293630Y-83931159D01*
X146847010Y-83484539D01*
X146815785Y-83466512D01*
X146778490Y-83444979D01*
X146778485Y-83444977D01*
X146702064Y-83424500D01*
X146702062Y-83424500D01*
X146154123Y-83424500D01*
X146101797Y-83402826D01*
X146080123Y-83350500D01*
X146101797Y-83298174D01*
X146450522Y-82949449D01*
X147540460Y-81859511D01*
X147546240Y-81849500D01*
X147561414Y-81823218D01*
X147606346Y-81788739D01*
X147662499Y-81796131D01*
G37*
%TD.AperFunction*%
%TA.AperFunction,NonConductor*%
G36*
X140948481Y-91983452D02*
G01*
X141238826Y-92273797D01*
X141260500Y-92326123D01*
X141260500Y-92364000D01*
X141238826Y-92416326D01*
X141186500Y-92438000D01*
X141143004Y-92423868D01*
X141117549Y-92405374D01*
X140928221Y-92308906D01*
X140928217Y-92308904D01*
X140726136Y-92243244D01*
X140726125Y-92243242D01*
X140533549Y-92212740D01*
X140485259Y-92183147D01*
X140472037Y-92128074D01*
X140501630Y-92079784D01*
X140530686Y-92067074D01*
X140716420Y-92030130D01*
X140867836Y-91967411D01*
X140924474Y-91967411D01*
X140948481Y-91983452D01*
G37*
%TD.AperFunction*%
%TA.AperFunction,NonConductor*%
G36*
X157881021Y-91964240D02*
G01*
X158032441Y-92026961D01*
X158218171Y-92063904D01*
X158265263Y-92095369D01*
X158276312Y-92150918D01*
X158244847Y-92198011D01*
X158215311Y-92209571D01*
X158022735Y-92240073D01*
X158022724Y-92240075D01*
X157820643Y-92305735D01*
X157820639Y-92305737D01*
X157631310Y-92402206D01*
X157631303Y-92402210D01*
X157467342Y-92521334D01*
X157412269Y-92534556D01*
X157363979Y-92504963D01*
X157350757Y-92449890D01*
X157371518Y-92409144D01*
X157800380Y-91980281D01*
X157852705Y-91958608D01*
X157881021Y-91964240D01*
G37*
%TD.AperFunction*%
%TA.AperFunction,NonConductor*%
G36*
X157295823Y-92589491D02*
G01*
X157317497Y-92641817D01*
X157303364Y-92685313D01*
X157184367Y-92849099D01*
X157136076Y-92878692D01*
X157081004Y-92865470D01*
X157051411Y-92817179D01*
X157050500Y-92805603D01*
X157050500Y-92760814D01*
X157072173Y-92708489D01*
X157191172Y-92589490D01*
X157243497Y-92567817D01*
X157295823Y-92589491D01*
G37*
%TD.AperFunction*%
%TA.AperFunction,NonConductor*%
G36*
X147661503Y-93714853D02*
G01*
X147664168Y-93716392D01*
X147791462Y-93750500D01*
X147791463Y-93750500D01*
X147923246Y-93750500D01*
X147931343Y-93748330D01*
X147987495Y-93755718D01*
X148021977Y-93800649D01*
X148023665Y-93808722D01*
X148024500Y-93814238D01*
X148024501Y-93838400D01*
X148039760Y-93915117D01*
X148039792Y-93915165D01*
X148040121Y-93917334D01*
X148033701Y-93943304D01*
X148028484Y-93969532D01*
X148026672Y-93971739D01*
X148026530Y-93972316D01*
X148025874Y-93972711D01*
X148019282Y-93980745D01*
X147639825Y-94360202D01*
X147587499Y-94381876D01*
X147535173Y-94360202D01*
X147301797Y-94126826D01*
X147280123Y-94074500D01*
X147301797Y-94022174D01*
X147354123Y-94000500D01*
X147369746Y-94000500D01*
X147369748Y-94000500D01*
X147428231Y-93988867D01*
X147494552Y-93944552D01*
X147538867Y-93878231D01*
X147550500Y-93819748D01*
X147550500Y-93778937D01*
X147572174Y-93726611D01*
X147624500Y-93704937D01*
X147661503Y-93714853D01*
G37*
%TD.AperFunction*%
%TA.AperFunction,NonConductor*%
G36*
X148927826Y-94097173D02*
G01*
X148949500Y-94149499D01*
X148949500Y-94813034D01*
X148927826Y-94865360D01*
X148875500Y-94887034D01*
X148823174Y-94865360D01*
X148807314Y-94849500D01*
X148693190Y-94783610D01*
X148693181Y-94783606D01*
X148565894Y-94749500D01*
X148565892Y-94749500D01*
X148434108Y-94749500D01*
X148434106Y-94749500D01*
X148306818Y-94783606D01*
X148306809Y-94783610D01*
X148224681Y-94831027D01*
X148168528Y-94838419D01*
X148123595Y-94803941D01*
X148116203Y-94747788D01*
X148135353Y-94714617D01*
X148752797Y-94097172D01*
X148805123Y-94075499D01*
X148875500Y-94075499D01*
X148927826Y-94097173D01*
G37*
%TD.AperFunction*%
%TA.AperFunction,NonConductor*%
G36*
X150539076Y-94819539D02*
G01*
X150606346Y-94886809D01*
X150668254Y-94915677D01*
X150706517Y-94957435D01*
X150704047Y-95014018D01*
X150668254Y-95049810D01*
X150640281Y-95062854D01*
X150606345Y-95078679D01*
X150539076Y-95145949D01*
X150486750Y-95167623D01*
X150434424Y-95145949D01*
X150367152Y-95078677D01*
X150321636Y-95057453D01*
X150305245Y-95049810D01*
X150266982Y-95008054D01*
X150269452Y-94951471D01*
X150305245Y-94915677D01*
X150357918Y-94891115D01*
X150367152Y-94886810D01*
X150367152Y-94886809D01*
X150367154Y-94886809D01*
X150434424Y-94819539D01*
X150486750Y-94797865D01*
X150539076Y-94819539D01*
G37*
%TD.AperFunction*%
%TA.AperFunction,NonConductor*%
G36*
X141246367Y-94712502D02*
G01*
X141260500Y-94755999D01*
X141260500Y-95286216D01*
X141238826Y-95338542D01*
X141186500Y-95360216D01*
X141134174Y-95338542D01*
X141079654Y-95284022D01*
X140907598Y-95169059D01*
X140716420Y-95089870D01*
X140716414Y-95089868D01*
X140530689Y-95052926D01*
X140483597Y-95021460D01*
X140472548Y-94965911D01*
X140504014Y-94918819D01*
X140533550Y-94907259D01*
X140726123Y-94876758D01*
X140726136Y-94876755D01*
X140928217Y-94811095D01*
X140928221Y-94811093D01*
X141117550Y-94714625D01*
X141143003Y-94696132D01*
X141198075Y-94682910D01*
X141246367Y-94712502D01*
G37*
%TD.AperFunction*%
%TA.AperFunction,NonConductor*%
G36*
X151591209Y-95689660D02*
G01*
X151594640Y-95689810D01*
X151630433Y-95725602D01*
X151651759Y-95771335D01*
X151736667Y-95856243D01*
X151845496Y-95906991D01*
X151895082Y-95913519D01*
X151954707Y-95913518D01*
X151973860Y-95916040D01*
X152021294Y-95928750D01*
X152066227Y-95963228D01*
X152073619Y-96019381D01*
X152054467Y-96052554D01*
X152004791Y-96102230D01*
X151952465Y-96123904D01*
X151938028Y-96122482D01*
X151934490Y-96121778D01*
X151861424Y-96107244D01*
X151712076Y-96107244D01*
X151675543Y-96114511D01*
X151639008Y-96121778D01*
X151627860Y-96129227D01*
X151572310Y-96140275D01*
X151545640Y-96129227D01*
X151534491Y-96121778D01*
X151510134Y-96116933D01*
X151461424Y-96107244D01*
X151312076Y-96107244D01*
X151275543Y-96114511D01*
X151239008Y-96121778D01*
X151227860Y-96129227D01*
X151172310Y-96140275D01*
X151164776Y-96138359D01*
X151154543Y-96135177D01*
X151134490Y-96121778D01*
X151070563Y-96109061D01*
X151066846Y-96107906D01*
X151047847Y-96092091D01*
X151027291Y-96078356D01*
X151026486Y-96074310D01*
X151023317Y-96071672D01*
X151021065Y-96047057D01*
X151016242Y-96022807D01*
X151018533Y-96019377D01*
X151018158Y-96015270D01*
X151033972Y-95996271D01*
X151047708Y-95975715D01*
X151052224Y-95974344D01*
X151054392Y-95971741D01*
X151063578Y-95970900D01*
X151088820Y-95963244D01*
X151211064Y-95963244D01*
X151211066Y-95963244D01*
X151259923Y-95956812D01*
X151367154Y-95906809D01*
X151450815Y-95823148D01*
X151496301Y-95725602D01*
X151514974Y-95708491D01*
X151532093Y-95689810D01*
X151535525Y-95689660D01*
X151538057Y-95687340D01*
X151563366Y-95688444D01*
X151588677Y-95687340D01*
X151591209Y-95689660D01*
G37*
%TD.AperFunction*%
%TA.AperFunction,NonConductor*%
G36*
X149498270Y-95781351D02*
G01*
X149513010Y-95802402D01*
X149522683Y-95823145D01*
X149522684Y-95823146D01*
X149522685Y-95823148D01*
X149606346Y-95906809D01*
X149713577Y-95956812D01*
X149713578Y-95956812D01*
X149714522Y-95957252D01*
X149742276Y-95979691D01*
X149745041Y-95983349D01*
X149746290Y-95985511D01*
X149747873Y-95987094D01*
X149750957Y-95991173D01*
X149756900Y-96014003D01*
X149765929Y-96035801D01*
X149763869Y-96040774D01*
X149765225Y-96045983D01*
X149753284Y-96066328D01*
X149744255Y-96088127D01*
X149738769Y-96091059D01*
X149736557Y-96094829D01*
X149727121Y-96097285D01*
X149706367Y-96108379D01*
X149639008Y-96121778D01*
X149627860Y-96129227D01*
X149572310Y-96140275D01*
X149545640Y-96129227D01*
X149534491Y-96121778D01*
X149510134Y-96116933D01*
X149461424Y-96107244D01*
X149312076Y-96107244D01*
X149246310Y-96120325D01*
X149190761Y-96109275D01*
X149159296Y-96062183D01*
X149170346Y-96006634D01*
X149179543Y-95995426D01*
X149393619Y-95781350D01*
X149445944Y-95759677D01*
X149498270Y-95781351D01*
G37*
%TD.AperFunction*%
%TA.AperFunction,NonConductor*%
G36*
X153597555Y-95963194D02*
G01*
X153722610Y-96088249D01*
X153744284Y-96140575D01*
X153744284Y-96375351D01*
X153750811Y-96424937D01*
X153750812Y-96424939D01*
X153801560Y-96533768D01*
X153868886Y-96601094D01*
X153890560Y-96653420D01*
X153868886Y-96705746D01*
X153816561Y-96727420D01*
X153698793Y-96727420D01*
X153649207Y-96733947D01*
X153649205Y-96733948D01*
X153540376Y-96784696D01*
X153455469Y-96869603D01*
X153455467Y-96869606D01*
X153443768Y-96894695D01*
X153402011Y-96932958D01*
X153376702Y-96937420D01*
X153008636Y-96937420D01*
X152929512Y-96937420D01*
X152853086Y-96957898D01*
X152853085Y-96957898D01*
X152853083Y-96957899D01*
X152853081Y-96957900D01*
X152784566Y-96997457D01*
X152521453Y-97260570D01*
X152469127Y-97282244D01*
X152152589Y-97282244D01*
X152100263Y-97260570D01*
X152078589Y-97208244D01*
X152080010Y-97193813D01*
X152087250Y-97157418D01*
X152087250Y-96900366D01*
X152108923Y-96848041D01*
X152972050Y-95984913D01*
X153024375Y-95963240D01*
X153024479Y-95963243D01*
X153026841Y-95963243D01*
X153026849Y-95963244D01*
X153446650Y-95963243D01*
X153496237Y-95956716D01*
X153513954Y-95948453D01*
X153570538Y-95945982D01*
X153597555Y-95963194D01*
G37*
%TD.AperFunction*%
%TA.AperFunction,NonConductor*%
G36*
X146262576Y-96133616D02*
G01*
X146284250Y-96185942D01*
X146284250Y-96782806D01*
X146284883Y-96787612D01*
X146284621Y-96787646D01*
X146286250Y-96800011D01*
X146286250Y-97216904D01*
X146284783Y-97220444D01*
X146285898Y-97224111D01*
X146274136Y-97246147D01*
X146264576Y-97269230D01*
X146261035Y-97270696D01*
X146259231Y-97274077D01*
X146243115Y-97278119D01*
X146212250Y-97290904D01*
X146205043Y-97290552D01*
X146201396Y-97290195D01*
X146161424Y-97282244D01*
X146120140Y-97282244D01*
X146116543Y-97281892D01*
X146094506Y-97270130D01*
X146071424Y-97260570D01*
X146069957Y-97257029D01*
X146066577Y-97255225D01*
X146059311Y-97231326D01*
X146049750Y-97208244D01*
X146049750Y-96268350D01*
X146071424Y-96216024D01*
X146083471Y-96207592D01*
X146083013Y-96206937D01*
X146088311Y-96203225D01*
X146088316Y-96203224D01*
X146157924Y-96133616D01*
X146210250Y-96111942D01*
X146262576Y-96133616D01*
G37*
%TD.AperFunction*%
%TA.AperFunction,NonConductor*%
G36*
X151627861Y-97361260D02*
G01*
X151639010Y-97368710D01*
X151670173Y-97374908D01*
X151717265Y-97406373D01*
X151728315Y-97461921D01*
X151708064Y-97499811D01*
X151680223Y-97527653D01*
X151680222Y-97527654D01*
X151624273Y-97583602D01*
X151619028Y-97592686D01*
X151574091Y-97627160D01*
X151517939Y-97619763D01*
X151493760Y-97595580D01*
X151493418Y-97595843D01*
X151491417Y-97593236D01*
X151490857Y-97592676D01*
X151490462Y-97591992D01*
X151490461Y-97591991D01*
X151490460Y-97591989D01*
X151408039Y-97509568D01*
X151386366Y-97457244D01*
X151408040Y-97404918D01*
X151457869Y-97384277D01*
X151457803Y-97383601D01*
X151460035Y-97383381D01*
X151460366Y-97383244D01*
X151461422Y-97383244D01*
X151461424Y-97383244D01*
X151534490Y-97368710D01*
X151545638Y-97361260D01*
X151560074Y-97358389D01*
X151572313Y-97350212D01*
X151586750Y-97353083D01*
X151601187Y-97350212D01*
X151627861Y-97361260D01*
G37*
%TD.AperFunction*%
%TA.AperFunction,NonConductor*%
G36*
X150512076Y-97383244D02*
G01*
X150512078Y-97383244D01*
X150612250Y-97383244D01*
X150664576Y-97404918D01*
X150686250Y-97457244D01*
X150686250Y-97552814D01*
X150706727Y-97629235D01*
X150706729Y-97629240D01*
X150729414Y-97668531D01*
X150729415Y-97668533D01*
X150729418Y-97668537D01*
X150746290Y-97697761D01*
X150746291Y-97697762D01*
X150903447Y-97854918D01*
X150925121Y-97907244D01*
X150903447Y-97959570D01*
X150851121Y-97981244D01*
X150402415Y-97981244D01*
X150350089Y-97959570D01*
X150328415Y-97907244D01*
X150338330Y-97870243D01*
X150347178Y-97854918D01*
X150358505Y-97835299D01*
X150392612Y-97708007D01*
X150392613Y-97708007D01*
X150392613Y-97576219D01*
X150392612Y-97576218D01*
X150387638Y-97557656D01*
X150362068Y-97462224D01*
X150364290Y-97445340D01*
X150360968Y-97428635D01*
X150367844Y-97418343D01*
X150369460Y-97406072D01*
X150382971Y-97395704D01*
X150392434Y-97381543D01*
X150404574Y-97379128D01*
X150414393Y-97371594D01*
X150447979Y-97370494D01*
X150512076Y-97383244D01*
G37*
%TD.AperFunction*%
%TA.AperFunction,NonConductor*%
G36*
X148427861Y-97361260D02*
G01*
X148439010Y-97368710D01*
X148512076Y-97383244D01*
X148512078Y-97383244D01*
X148612250Y-97383244D01*
X148664576Y-97404918D01*
X148686250Y-97457244D01*
X148686250Y-97907244D01*
X148664576Y-97959570D01*
X148612250Y-97981244D01*
X147246188Y-97981244D01*
X147196314Y-97994608D01*
X147140161Y-97987215D01*
X147105682Y-97942282D01*
X147113074Y-97886130D01*
X147153141Y-97816734D01*
X147187248Y-97689442D01*
X147187249Y-97689442D01*
X147187249Y-97557657D01*
X147187249Y-97557656D01*
X147161656Y-97462141D01*
X147169049Y-97405990D01*
X147213982Y-97371511D01*
X147247567Y-97370412D01*
X147312076Y-97383244D01*
X147312079Y-97383244D01*
X147461422Y-97383244D01*
X147461424Y-97383244D01*
X147534490Y-97368710D01*
X147545638Y-97361260D01*
X147601187Y-97350212D01*
X147627861Y-97361260D01*
X147639010Y-97368710D01*
X147712076Y-97383244D01*
X147712078Y-97383244D01*
X147861422Y-97383244D01*
X147861424Y-97383244D01*
X147934490Y-97368710D01*
X147945638Y-97361260D01*
X148001187Y-97350212D01*
X148027861Y-97361260D01*
X148039010Y-97368710D01*
X148112076Y-97383244D01*
X148112078Y-97383244D01*
X148261422Y-97383244D01*
X148261424Y-97383244D01*
X148334490Y-97368710D01*
X148345638Y-97361260D01*
X148401187Y-97350212D01*
X148427861Y-97361260D01*
G37*
%TD.AperFunction*%
%TA.AperFunction,NonConductor*%
G36*
X145089576Y-100304918D02*
G01*
X145111250Y-100357244D01*
X145111250Y-100408244D01*
X145089576Y-100460570D01*
X145037250Y-100482244D01*
X144437867Y-100482244D01*
X144385541Y-100460570D01*
X144334541Y-100409570D01*
X144312867Y-100357244D01*
X144334541Y-100304918D01*
X144386867Y-100283244D01*
X145037250Y-100283244D01*
X145089576Y-100304918D01*
G37*
%TD.AperFunction*%
%TA.AperFunction,NonConductor*%
G36*
X151679715Y-101198454D02*
G01*
X151905465Y-101424204D01*
X151949878Y-101449846D01*
X151950491Y-101450216D01*
X151966906Y-101472494D01*
X151983728Y-101494416D01*
X151983873Y-101495520D01*
X151984088Y-101495812D01*
X151983993Y-101496434D01*
X151986250Y-101513569D01*
X151986250Y-101608244D01*
X151964576Y-101660570D01*
X151912250Y-101682244D01*
X151627391Y-101682244D01*
X151575065Y-101660570D01*
X151553391Y-101608244D01*
X151553391Y-101250781D01*
X151575065Y-101198455D01*
X151627391Y-101176781D01*
X151679715Y-101198454D01*
G37*
%TD.AperFunction*%
%TA.AperFunction,NonConductor*%
G36*
X150957495Y-102762457D02*
G01*
X150967027Y-102763607D01*
X150979186Y-102779101D01*
X150994812Y-102791091D01*
X151001760Y-102807865D01*
X151001993Y-102808162D01*
X151002111Y-102808584D01*
X151020710Y-102877997D01*
X151022286Y-102880727D01*
X151024408Y-102888314D01*
X151021509Y-102912353D01*
X151021509Y-102936564D01*
X151018188Y-102939883D01*
X151017627Y-102944544D01*
X150998580Y-102959491D01*
X150981460Y-102976611D01*
X150976766Y-102976611D01*
X150973072Y-102979510D01*
X150953142Y-102982244D01*
X150912076Y-102982244D01*
X150883481Y-102987932D01*
X150839008Y-102996778D01*
X150827860Y-103004227D01*
X150772310Y-103015275D01*
X150745640Y-103004227D01*
X150734491Y-102996778D01*
X150710134Y-102991933D01*
X150661424Y-102982244D01*
X150512076Y-102982244D01*
X150483481Y-102987932D01*
X150439008Y-102996778D01*
X150427860Y-103004227D01*
X150416797Y-103006427D01*
X150408063Y-103013561D01*
X150392573Y-103011244D01*
X150372310Y-103015275D01*
X150351712Y-103007876D01*
X150348579Y-103006192D01*
X150334490Y-102996778D01*
X150329056Y-102995697D01*
X150319307Y-102990456D01*
X150307850Y-102976428D01*
X150292796Y-102966359D01*
X150290604Y-102955311D01*
X150283481Y-102946590D01*
X150285298Y-102928571D01*
X150281774Y-102910805D01*
X150288327Y-102898552D01*
X150289166Y-102890239D01*
X150295571Y-102885007D01*
X150302020Y-102872951D01*
X150352798Y-102822174D01*
X150405123Y-102800500D01*
X150789564Y-102800500D01*
X150789564Y-102800499D01*
X150865989Y-102780021D01*
X150893726Y-102764006D01*
X150903243Y-102762753D01*
X150910797Y-102756826D01*
X150930352Y-102759184D01*
X150949879Y-102756613D01*
X150957495Y-102762457D01*
G37*
%TD.AperFunction*%
%TA.AperFunction,NonConductor*%
G36*
X147677613Y-102822174D02*
G01*
X147699287Y-102874500D01*
X147684250Y-102919214D01*
X147652829Y-102960647D01*
X147650533Y-102966470D01*
X147611172Y-103007194D01*
X147554543Y-103008158D01*
X147540584Y-103000849D01*
X147534491Y-102996778D01*
X147510134Y-102991933D01*
X147461424Y-102982244D01*
X147312076Y-102982244D01*
X147283481Y-102987932D01*
X147239008Y-102996778D01*
X147227860Y-103004227D01*
X147217477Y-103006291D01*
X147209406Y-103013144D01*
X147193916Y-103010977D01*
X147172310Y-103015275D01*
X147152957Y-103008530D01*
X147149166Y-103006584D01*
X147134490Y-102996778D01*
X147127262Y-102995340D01*
X147102708Y-102990456D01*
X147061424Y-102982244D01*
X147003010Y-102982244D01*
X146950684Y-102960570D01*
X146929010Y-102908244D01*
X146950684Y-102855918D01*
X146966010Y-102844158D01*
X146967224Y-102843456D01*
X146998129Y-102825614D01*
X147001569Y-102822174D01*
X147017824Y-102815440D01*
X147031239Y-102804053D01*
X147042997Y-102805014D01*
X147053895Y-102800500D01*
X147625287Y-102800500D01*
X147677613Y-102822174D01*
G37*
%TD.AperFunction*%
%TA.AperFunction,NonConductor*%
G36*
X152212076Y-103083244D02*
G01*
X152584688Y-103083244D01*
X153481735Y-103083244D01*
X153491392Y-103083877D01*
X153494180Y-103084244D01*
X153494182Y-103084244D01*
X153573306Y-103084244D01*
X154061521Y-103084244D01*
X154113847Y-103105918D01*
X154201347Y-103193418D01*
X154223021Y-103245744D01*
X154201347Y-103298070D01*
X154149021Y-103319744D01*
X152161250Y-103319744D01*
X152108924Y-103298070D01*
X152087250Y-103245744D01*
X152087250Y-103208072D01*
X152084335Y-103193418D01*
X152077860Y-103160867D01*
X152080731Y-103146432D01*
X152077860Y-103131994D01*
X152086037Y-103119755D01*
X152088909Y-103105321D01*
X152101148Y-103097142D01*
X152109327Y-103084903D01*
X152123761Y-103082031D01*
X152136000Y-103073854D01*
X152164870Y-103073854D01*
X152212076Y-103083244D01*
G37*
%TD.AperFunction*%
%TA.AperFunction,NonConductor*%
G36*
X154383247Y-103942418D02*
G01*
X154724826Y-104283997D01*
X154746500Y-104336323D01*
X154746500Y-104375500D01*
X154724826Y-104427826D01*
X154672500Y-104449500D01*
X151905123Y-104449500D01*
X151852797Y-104427826D01*
X151809541Y-104384570D01*
X151787867Y-104332244D01*
X151809541Y-104279918D01*
X151857928Y-104259875D01*
X151857803Y-104258601D01*
X151861418Y-104258244D01*
X151861424Y-104258244D01*
X151934490Y-104243710D01*
X152017351Y-104188345D01*
X152072716Y-104105484D01*
X152087250Y-104032418D01*
X152087250Y-103994744D01*
X152108924Y-103942418D01*
X152161250Y-103920744D01*
X154330921Y-103920744D01*
X154383247Y-103942418D01*
G37*
%TD.AperFunction*%
%TA.AperFunction,NonConductor*%
G36*
X149573548Y-104998519D02*
G01*
X149741250Y-105166221D01*
X149762924Y-105218547D01*
X149755916Y-105249980D01*
X149752995Y-105256204D01*
X149752657Y-105256543D01*
X149723790Y-105318447D01*
X149723714Y-105318610D01*
X149702895Y-105337596D01*
X149682031Y-105356714D01*
X149681936Y-105356709D01*
X149681866Y-105356774D01*
X149653756Y-105355479D01*
X149625448Y-105354244D01*
X149625377Y-105354173D01*
X149625289Y-105354169D01*
X149624418Y-105353214D01*
X149589655Y-105318451D01*
X149560787Y-105256543D01*
X149477126Y-105172882D01*
X149472548Y-105168304D01*
X149473287Y-105167564D01*
X149468896Y-105165746D01*
X149460346Y-105145105D01*
X149448344Y-105126259D01*
X149447222Y-105113420D01*
X149447222Y-105050845D01*
X149468896Y-104998519D01*
X149521222Y-104976845D01*
X149573548Y-104998519D01*
G37*
%TD.AperFunction*%
%TA.AperFunction,NonConductor*%
G36*
X146264172Y-103084902D02*
G01*
X146295639Y-103131994D01*
X146295639Y-103160868D01*
X146286250Y-103208070D01*
X146286250Y-103465121D01*
X146264576Y-103517447D01*
X143926826Y-105855197D01*
X143874500Y-105876871D01*
X143822174Y-105855197D01*
X143800500Y-105802871D01*
X143800500Y-105187117D01*
X143822174Y-105134791D01*
X145852047Y-103104918D01*
X145904373Y-103083244D01*
X146161421Y-103083244D01*
X146161424Y-103083244D01*
X146208626Y-103073854D01*
X146264172Y-103084902D01*
G37*
%TD.AperFunction*%
%TA.AperFunction,NonConductor*%
G36*
X149687995Y-105919649D02*
G01*
X149723789Y-105955443D01*
X149752655Y-106017349D01*
X149840896Y-106105590D01*
X149840157Y-106106328D01*
X149844548Y-106108147D01*
X149853096Y-106128785D01*
X149865097Y-106147621D01*
X149866222Y-106160473D01*
X149866222Y-106258244D01*
X149844548Y-106310570D01*
X149792222Y-106332244D01*
X149232484Y-106332244D01*
X149202051Y-106335098D01*
X149202049Y-106335098D01*
X149202045Y-106335099D01*
X149073868Y-106379950D01*
X149073866Y-106379951D01*
X148994164Y-106438774D01*
X148939193Y-106452407D01*
X148890682Y-106423176D01*
X148876222Y-106379234D01*
X148876222Y-106229164D01*
X148897896Y-106176838D01*
X148950222Y-106155164D01*
X148959875Y-106155797D01*
X148970201Y-106157156D01*
X148972405Y-106157447D01*
X148972406Y-106157447D01*
X149321036Y-106157447D01*
X149321038Y-106157447D01*
X149369895Y-106151015D01*
X149477126Y-106101012D01*
X149560787Y-106017351D01*
X149589655Y-105955442D01*
X149631412Y-105917179D01*
X149687995Y-105919649D01*
G37*
%TD.AperFunction*%
%TA.AperFunction,NonConductor*%
G36*
X150763548Y-105524514D02*
G01*
X150887326Y-105648292D01*
X150909000Y-105700618D01*
X150902067Y-105731891D01*
X150882778Y-105773256D01*
X150882777Y-105773258D01*
X150876250Y-105822844D01*
X150876250Y-106182643D01*
X150881830Y-106225029D01*
X150867170Y-106279736D01*
X150846133Y-106298380D01*
X150821374Y-106313022D01*
X150707031Y-106427365D01*
X150664863Y-106498667D01*
X150655231Y-106505897D01*
X150649893Y-106516691D01*
X150633450Y-106522250D01*
X150619570Y-106532672D01*
X150607648Y-106530975D01*
X150596240Y-106534833D01*
X150582707Y-106527425D01*
X150563498Y-106524692D01*
X150545474Y-106509722D01*
X150543453Y-106507412D01*
X150508900Y-106460594D01*
X150490818Y-106447249D01*
X150485528Y-106441202D01*
X150478834Y-106421407D01*
X150468048Y-106403506D01*
X150467222Y-106392477D01*
X150467222Y-106160473D01*
X150488896Y-106108147D01*
X150495697Y-106102440D01*
X150497124Y-106101012D01*
X150497126Y-106101012D01*
X150580787Y-106017351D01*
X150630790Y-105910120D01*
X150637222Y-105861263D01*
X150637222Y-105576840D01*
X150658896Y-105524514D01*
X150711222Y-105502840D01*
X150763548Y-105524514D01*
G37*
%TD.AperFunction*%
%TA.AperFunction,NonConductor*%
G36*
X157467344Y-107292328D02*
G01*
X157631304Y-107411452D01*
X157631310Y-107411455D01*
X157820639Y-107507924D01*
X157820643Y-107507926D01*
X158022724Y-107573586D01*
X158022737Y-107573589D01*
X158215310Y-107604090D01*
X158263601Y-107633683D01*
X158276823Y-107688755D01*
X158247230Y-107737046D01*
X158218171Y-107749757D01*
X158032446Y-107786699D01*
X158032440Y-107786701D01*
X157881025Y-107849420D01*
X157824387Y-107849420D01*
X157800380Y-107833379D01*
X157371522Y-107404521D01*
X157349848Y-107352195D01*
X157371522Y-107299869D01*
X157423848Y-107278195D01*
X157467344Y-107292328D01*
G37*
%TD.AperFunction*%
%TA.AperFunction,NonConductor*%
G36*
X157467344Y-119992328D02*
G01*
X157631304Y-120111452D01*
X157631310Y-120111455D01*
X157820639Y-120207924D01*
X157820643Y-120207926D01*
X158022724Y-120273586D01*
X158022737Y-120273589D01*
X158215310Y-120304090D01*
X158263601Y-120333683D01*
X158276823Y-120388755D01*
X158247230Y-120437046D01*
X158218171Y-120449757D01*
X158032446Y-120486699D01*
X158032440Y-120486701D01*
X157881025Y-120549420D01*
X157824387Y-120549420D01*
X157800380Y-120533379D01*
X157371522Y-120104521D01*
X157349848Y-120052195D01*
X157371522Y-119999869D01*
X157423848Y-119978195D01*
X157467344Y-119992328D01*
G37*
%TD.AperFunction*%
%TA.AperFunction,NonConductor*%
G36*
X141384876Y-120011870D02*
G01*
X141398098Y-120066942D01*
X141377335Y-120107692D01*
X140948480Y-120536547D01*
X140896154Y-120558221D01*
X140867836Y-120552588D01*
X140716424Y-120489871D01*
X140716414Y-120489868D01*
X140530689Y-120452926D01*
X140483597Y-120421460D01*
X140472548Y-120365911D01*
X140504014Y-120318819D01*
X140533550Y-120307259D01*
X140726123Y-120276758D01*
X140726136Y-120276755D01*
X140928217Y-120211095D01*
X140928221Y-120211093D01*
X141117550Y-120114624D01*
X141117556Y-120114621D01*
X141281513Y-119995499D01*
X141336585Y-119982277D01*
X141384876Y-120011870D01*
G37*
%TD.AperFunction*%
M02*
