%TF.GenerationSoftware,KiCad,Pcbnew,9.0.6*%
%TF.CreationDate,2025-12-02T19:28:56-05:00*%
%TF.ProjectId,DEVBOARD,44455642-4f41-4524-942e-6b696361645f,rev?*%
%TF.SameCoordinates,Original*%
%TF.FileFunction,Copper,L2,Bot*%
%TF.FilePolarity,Positive*%
%FSLAX46Y46*%
G04 Gerber Fmt 4.6, Leading zero omitted, Abs format (unit mm)*
G04 Created by KiCad (PCBNEW 9.0.6) date 2025-12-02 19:28:56*
%MOMM*%
%LPD*%
G01*
G04 APERTURE LIST*
%TA.AperFunction,HeatsinkPad*%
%ADD10O,1.000000X2.100000*%
%TD*%
%TA.AperFunction,HeatsinkPad*%
%ADD11O,1.000000X1.600000*%
%TD*%
%TA.AperFunction,ComponentPad*%
%ADD12R,1.700000X1.700000*%
%TD*%
%TA.AperFunction,ComponentPad*%
%ADD13C,1.700000*%
%TD*%
%TA.AperFunction,ViaPad*%
%ADD14C,0.600000*%
%TD*%
%TA.AperFunction,Conductor*%
%ADD15C,0.200000*%
%TD*%
G04 APERTURE END LIST*
D10*
%TO.P,J1,S1,SHIELD*%
%TO.N,GND*%
X154070000Y-79780000D03*
D11*
X154070000Y-75600000D03*
D10*
X145430000Y-79780000D03*
D11*
X145430000Y-75600000D03*
%TD*%
D12*
%TO.P,J2,1,Pin_1*%
%TO.N,GPIO0*%
X140410000Y-75780000D03*
D13*
%TO.P,J2,2,Pin_2*%
%TO.N,GPIO1*%
X140410000Y-78320000D03*
%TO.P,J2,3,Pin_3*%
%TO.N,GND*%
X140410000Y-80860000D03*
%TO.P,J2,4,Pin_4*%
%TO.N,GPIO2*%
X140410000Y-83400000D03*
%TO.P,J2,5,Pin_5*%
%TO.N,GPIO3*%
X140410000Y-85940000D03*
%TO.P,J2,6,Pin_6*%
%TO.N,GPIO4*%
X140410000Y-88480000D03*
%TO.P,J2,7,Pin_7*%
%TO.N,GPIO5*%
X140410000Y-91020000D03*
%TO.P,J2,8,Pin_8*%
%TO.N,GND*%
X140410000Y-93560000D03*
%TO.P,J2,9,Pin_9*%
%TO.N,GPIO6*%
X140410000Y-96100000D03*
%TO.P,J2,10,Pin_10*%
%TO.N,GPIO7*%
X140410000Y-98640000D03*
%TO.P,J2,11,Pin_11*%
%TO.N,GPIO8*%
X140410000Y-101180000D03*
%TO.P,J2,12,Pin_12*%
%TO.N,GPIO9*%
X140410000Y-103720000D03*
%TO.P,J2,13,Pin_13*%
%TO.N,GND*%
X140410000Y-106260000D03*
%TO.P,J2,14,Pin_14*%
%TO.N,GPIO10*%
X140410000Y-108800000D03*
%TO.P,J2,15,Pin_15*%
%TO.N,GPIO11*%
X140410000Y-111340000D03*
%TO.P,J2,16,Pin_16*%
%TO.N,GPIO12*%
X140410000Y-113880000D03*
%TO.P,J2,17,Pin_17*%
%TO.N,GPIO13*%
X140410000Y-116420000D03*
%TO.P,J2,18,Pin_18*%
%TO.N,GND*%
X140410000Y-118960000D03*
%TO.P,J2,19,Pin_19*%
%TO.N,GPIO14*%
X140410000Y-121500000D03*
%TO.P,J2,20,Pin_20*%
%TO.N,GPIO15*%
X140410000Y-124040000D03*
%TD*%
D12*
%TO.P,J3,1,Pin_1*%
%TO.N,VBUS*%
X158338861Y-75776831D03*
D13*
%TO.P,J3,2,Pin_2*%
%TO.N,GPIO29_ADC3*%
X158338861Y-78316831D03*
%TO.P,J3,3,Pin_3*%
%TO.N,GND*%
X158338861Y-80856831D03*
%TO.P,J3,4,Pin_4*%
%TO.N,GPIO28_ADC2*%
X158338861Y-83396831D03*
%TO.P,J3,5,Pin_5*%
%TO.N,+3V3*%
X158338861Y-85936831D03*
%TO.P,J3,6,Pin_6*%
%TO.N,GPIO27_ADC1*%
X158338861Y-88476831D03*
%TO.P,J3,7,Pin_7*%
%TO.N,GPIO26_ADC0*%
X158338861Y-91016831D03*
%TO.P,J3,8,Pin_8*%
%TO.N,GND*%
X158338861Y-93556831D03*
%TO.P,J3,9,Pin_9*%
%TO.N,GPIO24*%
X158338861Y-96096831D03*
%TO.P,J3,10,Pin_10*%
%TO.N,GPIO23*%
X158338861Y-98636831D03*
%TO.P,J3,11,Pin_11*%
%TO.N,RUN*%
X158338861Y-101176831D03*
%TO.P,J3,12,Pin_12*%
%TO.N,GPIO22*%
X158338861Y-103716831D03*
%TO.P,J3,13,Pin_13*%
%TO.N,GND*%
X158338861Y-106256831D03*
%TO.P,J3,14,Pin_14*%
%TO.N,GPIO21*%
X158338861Y-108796831D03*
%TO.P,J3,15,Pin_15*%
%TO.N,GPIO20*%
X158338861Y-111336831D03*
%TO.P,J3,16,Pin_16*%
%TO.N,GPIO19*%
X158338861Y-113876831D03*
%TO.P,J3,17,Pin_17*%
%TO.N,GPIO18*%
X158338861Y-116416831D03*
%TO.P,J3,18,Pin_18*%
%TO.N,GND*%
X158338861Y-118956831D03*
%TO.P,J3,19,Pin_19*%
%TO.N,GPIO17*%
X158338861Y-121496831D03*
%TO.P,J3,20,Pin_20*%
%TO.N,GPIO16*%
X158338861Y-124036831D03*
%TD*%
D12*
%TO.P,J4,1,Pin_1*%
%TO.N,SWCLK*%
X146920000Y-123750000D03*
D13*
%TO.P,J4,2,Pin_2*%
%TO.N,GND*%
X149460000Y-123750000D03*
%TO.P,J4,3,Pin_3*%
%TO.N,SWD*%
X152000000Y-123750000D03*
%TD*%
D14*
%TO.N,+3V3*%
X145749250Y-95750750D03*
X152560342Y-92549722D03*
X143661869Y-101250000D03*
X154000000Y-85750000D03*
X149892113Y-97642113D03*
X149892113Y-97642113D03*
X148720000Y-91000000D03*
X148500000Y-102500000D03*
X148700000Y-86687500D03*
X146690815Y-102425114D03*
X155943581Y-84943581D03*
%TO.N,GND*%
X144790000Y-95750000D03*
X147050000Y-118750000D03*
X145825000Y-94000000D03*
X145825000Y-94000000D03*
%TO.N,+1V1*%
X152104983Y-95433019D03*
X151252891Y-98401875D03*
X151547092Y-92532466D03*
%TO.N,Net-(J1-CC1)*%
X150105032Y-83289651D03*
X152250000Y-82250000D03*
%TO.N,GPIO6*%
X146679213Y-101324162D03*
%TO.N,GPIO20*%
X151487102Y-102684811D03*
%TO.N,GPIO29_ADC3*%
X155048351Y-98134929D03*
%TO.N,QSPI_SS*%
X146686749Y-97623548D03*
X148740000Y-121000000D03*
%TO.N,QSPI_SCLK*%
X148500000Y-95250000D03*
X147857354Y-93250000D03*
%TD*%
D15*
%TO.N,+3V3*%
X145161869Y-102750000D02*
X146365929Y-102750000D01*
X155943581Y-84943581D02*
X157345611Y-84943581D01*
X154000000Y-85750000D02*
X149637500Y-85750000D01*
X149637500Y-85750000D02*
X148700000Y-86687500D01*
X143661869Y-101250000D02*
X145161869Y-102750000D01*
X149892113Y-92172113D02*
X148720000Y-91000000D01*
X157345611Y-84943581D02*
X158338861Y-85936831D01*
X152560342Y-92549722D02*
X151010620Y-91000000D01*
X148500000Y-102500000D02*
X148500000Y-99034226D01*
X146365929Y-102750000D02*
X146690815Y-102425114D01*
X151010620Y-91000000D02*
X148720000Y-91000000D01*
X149892113Y-97642113D02*
X149892113Y-92172113D01*
X145749250Y-95750750D02*
X148000750Y-95750750D01*
X148000750Y-95750750D02*
X149892113Y-97642113D01*
X148500000Y-99034226D02*
X149892113Y-97642113D01*
%TO.N,GND*%
X144790000Y-95710000D02*
X144790000Y-95750000D01*
X140620000Y-118750000D02*
X140410000Y-118960000D01*
X158338861Y-118956831D02*
X154253169Y-118956831D01*
X145825000Y-94675000D02*
X144790000Y-95710000D01*
X154253169Y-118956831D02*
X149460000Y-123750000D01*
X145825000Y-94000000D02*
X145825000Y-94675000D01*
X147050000Y-118750000D02*
X140620000Y-118750000D01*
%TO.N,+1V1*%
X151547092Y-94875128D02*
X152104983Y-95433019D01*
X151252891Y-98401875D02*
X151252891Y-96497109D01*
X151547092Y-92532466D02*
X151547092Y-94875128D01*
X152104983Y-95645017D02*
X152104983Y-95433019D01*
X151252891Y-96497109D02*
X152104983Y-95645017D01*
%TO.N,Net-(J1-CC1)*%
X151210349Y-83289651D02*
X150105032Y-83289651D01*
X152250000Y-82250000D02*
X151210349Y-83289651D01*
%TO.N,GPIO6*%
X146679213Y-101324162D02*
X146605051Y-101250000D01*
X145560000Y-101250000D02*
X140410000Y-96100000D01*
X146605051Y-101250000D02*
X145560000Y-101250000D01*
%TO.N,GPIO20*%
X151487102Y-102684811D02*
X152171913Y-102000000D01*
X155250000Y-102000000D02*
X156000000Y-102750000D01*
X156000000Y-102750000D02*
X156000000Y-108997970D01*
X156000000Y-108997970D02*
X158338861Y-111336831D01*
X152171913Y-102000000D02*
X155250000Y-102000000D01*
%TO.N,GPIO29_ADC3*%
X155048351Y-81607341D02*
X158338861Y-78316831D01*
X155048351Y-98134929D02*
X155048351Y-81607341D01*
%TO.N,QSPI_SS*%
X147297102Y-98233901D02*
X147297102Y-102561599D01*
X148740000Y-104004497D02*
X148740000Y-121000000D01*
X147297102Y-102561599D02*
X148740000Y-104004497D01*
X146686749Y-97623548D02*
X147297102Y-98233901D01*
%TO.N,QSPI_SCLK*%
X147750000Y-94500000D02*
X148500000Y-95250000D01*
X147750000Y-93357354D02*
X147750000Y-94500000D01*
X147857354Y-93250000D02*
X147750000Y-93357354D01*
%TD*%
%TA.AperFunction,Conductor*%
%TO.N,GND*%
G36*
X139463207Y-74647174D02*
G01*
X139484881Y-74699500D01*
X139463207Y-74751826D01*
X139451994Y-74761028D01*
X139415450Y-74785446D01*
X139415447Y-74785449D01*
X139371133Y-74851767D01*
X139371133Y-74851769D01*
X139360131Y-74907083D01*
X139359500Y-74910253D01*
X139359500Y-76649746D01*
X139371133Y-76708232D01*
X139400608Y-76752343D01*
X139415448Y-76774552D01*
X139459560Y-76804027D01*
X139481767Y-76818866D01*
X139481768Y-76818866D01*
X139481769Y-76818867D01*
X139540252Y-76830500D01*
X139540254Y-76830500D01*
X141279746Y-76830500D01*
X141279748Y-76830500D01*
X141338231Y-76818867D01*
X141404552Y-76774552D01*
X141448867Y-76708231D01*
X141460500Y-76649748D01*
X141460500Y-74910252D01*
X141448867Y-74851769D01*
X141404552Y-74785448D01*
X141399808Y-74782278D01*
X141368006Y-74761028D01*
X141336541Y-74713935D01*
X141347591Y-74658387D01*
X141394684Y-74626922D01*
X141409119Y-74625500D01*
X144539552Y-74625500D01*
X144591878Y-74647174D01*
X144613552Y-74699500D01*
X144601081Y-74740612D01*
X144543809Y-74826324D01*
X144468430Y-75008306D01*
X144468427Y-75008317D01*
X144430000Y-75201509D01*
X144430000Y-75350000D01*
X145130000Y-75350000D01*
X145130000Y-75850000D01*
X144430000Y-75850000D01*
X144430000Y-75998490D01*
X144468427Y-76191682D01*
X144468430Y-76191693D01*
X144543809Y-76373675D01*
X144653246Y-76537459D01*
X144792540Y-76676753D01*
X144956324Y-76786190D01*
X145138306Y-76861569D01*
X145138317Y-76861572D01*
X145179999Y-76869863D01*
X145180000Y-76869863D01*
X145180000Y-76066988D01*
X145189940Y-76084205D01*
X145245795Y-76140060D01*
X145314204Y-76179556D01*
X145390504Y-76200000D01*
X145469496Y-76200000D01*
X145545796Y-76179556D01*
X145614205Y-76140060D01*
X145670060Y-76084205D01*
X145680000Y-76066988D01*
X145680000Y-76869863D01*
X145721682Y-76861572D01*
X145721693Y-76861569D01*
X145903675Y-76786190D01*
X146067459Y-76676753D01*
X146206753Y-76537459D01*
X146316190Y-76373675D01*
X146391569Y-76191693D01*
X146391572Y-76191682D01*
X146430000Y-75998490D01*
X146430000Y-75850000D01*
X145730000Y-75850000D01*
X145730000Y-75350000D01*
X146430000Y-75350000D01*
X146430000Y-75201509D01*
X146391572Y-75008317D01*
X146391569Y-75008306D01*
X146316190Y-74826324D01*
X146258919Y-74740612D01*
X146247870Y-74685063D01*
X146279336Y-74637971D01*
X146320448Y-74625500D01*
X153179552Y-74625500D01*
X153231878Y-74647174D01*
X153253552Y-74699500D01*
X153241081Y-74740612D01*
X153183809Y-74826324D01*
X153108430Y-75008306D01*
X153108427Y-75008317D01*
X153070000Y-75201509D01*
X153070000Y-75350000D01*
X153770000Y-75350000D01*
X153770000Y-75850000D01*
X153070000Y-75850000D01*
X153070000Y-75998490D01*
X153108427Y-76191682D01*
X153108430Y-76191693D01*
X153183809Y-76373675D01*
X153293246Y-76537459D01*
X153432540Y-76676753D01*
X153596324Y-76786190D01*
X153778306Y-76861569D01*
X153778317Y-76861572D01*
X153819999Y-76869863D01*
X153820000Y-76869863D01*
X153820000Y-76066988D01*
X153829940Y-76084205D01*
X153885795Y-76140060D01*
X153954204Y-76179556D01*
X154030504Y-76200000D01*
X154109496Y-76200000D01*
X154185796Y-76179556D01*
X154254205Y-76140060D01*
X154310060Y-76084205D01*
X154320000Y-76066988D01*
X154320000Y-76869863D01*
X154361682Y-76861572D01*
X154361693Y-76861569D01*
X154543675Y-76786190D01*
X154707459Y-76676753D01*
X154846753Y-76537459D01*
X154956190Y-76373675D01*
X155031569Y-76191693D01*
X155031572Y-76191682D01*
X155070000Y-75998490D01*
X155070000Y-75850000D01*
X154370000Y-75850000D01*
X154370000Y-75350000D01*
X155070000Y-75350000D01*
X155070000Y-75201509D01*
X155031572Y-75008317D01*
X155031569Y-75008306D01*
X154956190Y-74826324D01*
X154898919Y-74740612D01*
X154887870Y-74685063D01*
X154919336Y-74637971D01*
X154960448Y-74625500D01*
X157335000Y-74625500D01*
X157387326Y-74647174D01*
X157409000Y-74699500D01*
X157387326Y-74751826D01*
X157376113Y-74761028D01*
X157344310Y-74782278D01*
X157344308Y-74782280D01*
X157299994Y-74848598D01*
X157292238Y-74887588D01*
X157288361Y-74907083D01*
X157288361Y-76646579D01*
X157294363Y-76676753D01*
X157299994Y-76705063D01*
X157302111Y-76708231D01*
X157344309Y-76771383D01*
X157366469Y-76786190D01*
X157410628Y-76815697D01*
X157410629Y-76815697D01*
X157410630Y-76815698D01*
X157469113Y-76827331D01*
X157469115Y-76827331D01*
X159208607Y-76827331D01*
X159208609Y-76827331D01*
X159267092Y-76815698D01*
X159333413Y-76771383D01*
X159377728Y-76705062D01*
X159389361Y-76646579D01*
X159389361Y-74907083D01*
X159377728Y-74848600D01*
X159333413Y-74782279D01*
X159301608Y-74761027D01*
X159270144Y-74713936D01*
X159281194Y-74658387D01*
X159328286Y-74626922D01*
X159342722Y-74625500D01*
X159550500Y-74625500D01*
X159602826Y-74647174D01*
X159624500Y-74699500D01*
X159624500Y-80101856D01*
X159602826Y-80154182D01*
X159550500Y-80175856D01*
X159498174Y-80154182D01*
X159490633Y-80145353D01*
X159454130Y-80095113D01*
X158821823Y-80727421D01*
X158804786Y-80663838D01*
X158738960Y-80549824D01*
X158645868Y-80456732D01*
X158531854Y-80390906D01*
X158468269Y-80373868D01*
X159100577Y-79741559D01*
X159046417Y-79702209D01*
X159046411Y-79702206D01*
X158857082Y-79605737D01*
X158857078Y-79605735D01*
X158654997Y-79540075D01*
X158654986Y-79540073D01*
X158462410Y-79509571D01*
X158414120Y-79479978D01*
X158400898Y-79424905D01*
X158430491Y-79376615D01*
X158459547Y-79363905D01*
X158645281Y-79326961D01*
X158836459Y-79247772D01*
X159008516Y-79132808D01*
X159154838Y-78986486D01*
X159269802Y-78814429D01*
X159348991Y-78623251D01*
X159389361Y-78420296D01*
X159389361Y-78213366D01*
X159348991Y-78010411D01*
X159269802Y-77819233D01*
X159154838Y-77647176D01*
X159008516Y-77500854D01*
X158836459Y-77385890D01*
X158645281Y-77306701D01*
X158645274Y-77306699D01*
X158492377Y-77276286D01*
X158442326Y-77266331D01*
X158235396Y-77266331D01*
X158195246Y-77274317D01*
X158032447Y-77306699D01*
X158032440Y-77306701D01*
X157841262Y-77385890D01*
X157669206Y-77500853D01*
X157669205Y-77500855D01*
X157522885Y-77647175D01*
X157522883Y-77647176D01*
X157407920Y-77819232D01*
X157328731Y-78010410D01*
X157328729Y-78010417D01*
X157328099Y-78013586D01*
X157288361Y-78213366D01*
X157288361Y-78420296D01*
X157294915Y-78453246D01*
X157328729Y-78623244D01*
X157328732Y-78623255D01*
X157391449Y-78774667D01*
X157391449Y-78831304D01*
X157375408Y-78855311D01*
X154863840Y-81366881D01*
X154807891Y-81422829D01*
X154768330Y-81491350D01*
X154768328Y-81491355D01*
X154747851Y-81567776D01*
X154747851Y-97696963D01*
X154726177Y-97749289D01*
X154647851Y-97827614D01*
X154581961Y-97941738D01*
X154581957Y-97941747D01*
X154547851Y-98069034D01*
X154547851Y-98200823D01*
X154581957Y-98328110D01*
X154581961Y-98328119D01*
X154586914Y-98336698D01*
X154647851Y-98442243D01*
X154741037Y-98535429D01*
X154855165Y-98601321D01*
X154982456Y-98635428D01*
X154982457Y-98635429D01*
X154982459Y-98635429D01*
X155114245Y-98635429D01*
X155114245Y-98635428D01*
X155241537Y-98601321D01*
X155355665Y-98535429D01*
X155357728Y-98533366D01*
X157288361Y-98533366D01*
X157288361Y-98740296D01*
X157298316Y-98790347D01*
X157328729Y-98943244D01*
X157328731Y-98943251D01*
X157407920Y-99134429D01*
X157522884Y-99306486D01*
X157669206Y-99452808D01*
X157841263Y-99567772D01*
X158032441Y-99646961D01*
X158235396Y-99687331D01*
X158235397Y-99687331D01*
X158442325Y-99687331D01*
X158442326Y-99687331D01*
X158645281Y-99646961D01*
X158836459Y-99567772D01*
X159008516Y-99452808D01*
X159154838Y-99306486D01*
X159269802Y-99134429D01*
X159348991Y-98943251D01*
X159389361Y-98740296D01*
X159389361Y-98533366D01*
X159348991Y-98330411D01*
X159269802Y-98139233D01*
X159154838Y-97967176D01*
X159008516Y-97820854D01*
X159002342Y-97816729D01*
X158836459Y-97705890D01*
X158645281Y-97626701D01*
X158645274Y-97626699D01*
X158492377Y-97596286D01*
X158442326Y-97586331D01*
X158235396Y-97586331D01*
X158195246Y-97594317D01*
X158032447Y-97626699D01*
X158032440Y-97626701D01*
X157841262Y-97705890D01*
X157669206Y-97820853D01*
X157669205Y-97820855D01*
X157522885Y-97967175D01*
X157522883Y-97967176D01*
X157407920Y-98139232D01*
X157328731Y-98330410D01*
X157328729Y-98330417D01*
X157327480Y-98336698D01*
X157288361Y-98533366D01*
X155357728Y-98533366D01*
X155448851Y-98442243D01*
X155514743Y-98328115D01*
X155548850Y-98200823D01*
X155548851Y-98200823D01*
X155548851Y-98069035D01*
X155548850Y-98069034D01*
X155543586Y-98049390D01*
X155514743Y-97941743D01*
X155448851Y-97827615D01*
X155370525Y-97749289D01*
X155348851Y-97696963D01*
X155348851Y-88373366D01*
X157288361Y-88373366D01*
X157288361Y-88580296D01*
X157298316Y-88630347D01*
X157328729Y-88783244D01*
X157328731Y-88783251D01*
X157407920Y-88974429D01*
X157522884Y-89146486D01*
X157669206Y-89292808D01*
X157841263Y-89407772D01*
X158032441Y-89486961D01*
X158235396Y-89527331D01*
X158235397Y-89527331D01*
X158442325Y-89527331D01*
X158442326Y-89527331D01*
X158645281Y-89486961D01*
X158836459Y-89407772D01*
X159008516Y-89292808D01*
X159154838Y-89146486D01*
X159269802Y-88974429D01*
X159348991Y-88783251D01*
X159389361Y-88580296D01*
X159389361Y-88373366D01*
X159348991Y-88170411D01*
X159269802Y-87979233D01*
X159154838Y-87807176D01*
X159008516Y-87660854D01*
X158836459Y-87545890D01*
X158645281Y-87466701D01*
X158645274Y-87466699D01*
X158492377Y-87436286D01*
X158442326Y-87426331D01*
X158235396Y-87426331D01*
X158195246Y-87434317D01*
X158032447Y-87466699D01*
X158032440Y-87466701D01*
X157841262Y-87545890D01*
X157669206Y-87660853D01*
X157669205Y-87660855D01*
X157522885Y-87807175D01*
X157522883Y-87807176D01*
X157407920Y-87979232D01*
X157328731Y-88170410D01*
X157328729Y-88170417D01*
X157328099Y-88173586D01*
X157288361Y-88373366D01*
X155348851Y-88373366D01*
X155348851Y-85190651D01*
X155370525Y-85138325D01*
X155422851Y-85116651D01*
X155475177Y-85138325D01*
X155486937Y-85153651D01*
X155543081Y-85250895D01*
X155636267Y-85344081D01*
X155750395Y-85409973D01*
X155877686Y-85444080D01*
X155877687Y-85444081D01*
X155877689Y-85444081D01*
X156009475Y-85444081D01*
X156009475Y-85444080D01*
X156136767Y-85409973D01*
X156250895Y-85344081D01*
X156329221Y-85265755D01*
X156381547Y-85244081D01*
X157190488Y-85244081D01*
X157242814Y-85265755D01*
X157375409Y-85398350D01*
X157397083Y-85450676D01*
X157391450Y-85478995D01*
X157328731Y-85630410D01*
X157328729Y-85630417D01*
X157291837Y-85815892D01*
X157288361Y-85833366D01*
X157288361Y-86040296D01*
X157290391Y-86050500D01*
X157328729Y-86243244D01*
X157328731Y-86243251D01*
X157407920Y-86434429D01*
X157502277Y-86575646D01*
X157522884Y-86606486D01*
X157669206Y-86752808D01*
X157841263Y-86867772D01*
X158032441Y-86946961D01*
X158235396Y-86987331D01*
X158235397Y-86987331D01*
X158442325Y-86987331D01*
X158442326Y-86987331D01*
X158645281Y-86946961D01*
X158836459Y-86867772D01*
X159008516Y-86752808D01*
X159154838Y-86606486D01*
X159269802Y-86434429D01*
X159348991Y-86243251D01*
X159389361Y-86040296D01*
X159389361Y-85833366D01*
X159348991Y-85630411D01*
X159269802Y-85439233D01*
X159154838Y-85267176D01*
X159008516Y-85120854D01*
X158836459Y-85005890D01*
X158645281Y-84926701D01*
X158645274Y-84926699D01*
X158492377Y-84896286D01*
X158442326Y-84886331D01*
X158235396Y-84886331D01*
X158195246Y-84894317D01*
X158032447Y-84926699D01*
X158032440Y-84926701D01*
X157881025Y-84989420D01*
X157824387Y-84989420D01*
X157800380Y-84973379D01*
X157530122Y-84703121D01*
X157520677Y-84697668D01*
X157461601Y-84663560D01*
X157461596Y-84663558D01*
X157385175Y-84643081D01*
X157385173Y-84643081D01*
X156381547Y-84643081D01*
X156329221Y-84621407D01*
X156250895Y-84543081D01*
X156136771Y-84477191D01*
X156136762Y-84477187D01*
X156009475Y-84443081D01*
X156009473Y-84443081D01*
X155877689Y-84443081D01*
X155877687Y-84443081D01*
X155750399Y-84477187D01*
X155750390Y-84477191D01*
X155636266Y-84543081D01*
X155543081Y-84636266D01*
X155486937Y-84733510D01*
X155442003Y-84767989D01*
X155385851Y-84760596D01*
X155351372Y-84715662D01*
X155348851Y-84696510D01*
X155348851Y-81762463D01*
X155370524Y-81710138D01*
X157191174Y-79889488D01*
X157243498Y-79867815D01*
X157295824Y-79889489D01*
X157317498Y-79941815D01*
X157303365Y-79985311D01*
X157184240Y-80149273D01*
X157184236Y-80149280D01*
X157087767Y-80338609D01*
X157087765Y-80338613D01*
X157022105Y-80540694D01*
X157022102Y-80540707D01*
X156988861Y-80750582D01*
X156988861Y-80963079D01*
X157022102Y-81172954D01*
X157022105Y-81172967D01*
X157087765Y-81375048D01*
X157087767Y-81375052D01*
X157184236Y-81564381D01*
X157184239Y-81564387D01*
X157223589Y-81618547D01*
X157855898Y-80986239D01*
X157872936Y-81049824D01*
X157938762Y-81163838D01*
X158031854Y-81256930D01*
X158145868Y-81322756D01*
X158209451Y-81339793D01*
X157577143Y-81972101D01*
X157631310Y-82011455D01*
X157820639Y-82107924D01*
X157820643Y-82107926D01*
X158022724Y-82173586D01*
X158022737Y-82173589D01*
X158215310Y-82204090D01*
X158263601Y-82233683D01*
X158276823Y-82288755D01*
X158247230Y-82337046D01*
X158218171Y-82349757D01*
X158032446Y-82386699D01*
X158032440Y-82386701D01*
X157841262Y-82465890D01*
X157669206Y-82580853D01*
X157669205Y-82580855D01*
X157522885Y-82727175D01*
X157522883Y-82727176D01*
X157407920Y-82899232D01*
X157328731Y-83090410D01*
X157328729Y-83090417D01*
X157300300Y-83233345D01*
X157288361Y-83293366D01*
X157288361Y-83500296D01*
X157294291Y-83530110D01*
X157328729Y-83703244D01*
X157328731Y-83703251D01*
X157407920Y-83894429D01*
X157522884Y-84066486D01*
X157669206Y-84212808D01*
X157841263Y-84327772D01*
X158032441Y-84406961D01*
X158235396Y-84447331D01*
X158235397Y-84447331D01*
X158442325Y-84447331D01*
X158442326Y-84447331D01*
X158645281Y-84406961D01*
X158836459Y-84327772D01*
X159008516Y-84212808D01*
X159154838Y-84066486D01*
X159269802Y-83894429D01*
X159348991Y-83703251D01*
X159389361Y-83500296D01*
X159389361Y-83293366D01*
X159348991Y-83090411D01*
X159269802Y-82899233D01*
X159154838Y-82727176D01*
X159008516Y-82580854D01*
X158836459Y-82465890D01*
X158645281Y-82386701D01*
X158645275Y-82386699D01*
X158459550Y-82349757D01*
X158412458Y-82318291D01*
X158401409Y-82262742D01*
X158432875Y-82215650D01*
X158462411Y-82204090D01*
X158654984Y-82173589D01*
X158654997Y-82173586D01*
X158857078Y-82107926D01*
X158857082Y-82107924D01*
X159046415Y-82011454D01*
X159046422Y-82011449D01*
X159100577Y-81972101D01*
X159100578Y-81972101D01*
X158468270Y-81339793D01*
X158531854Y-81322756D01*
X158645868Y-81256930D01*
X158738960Y-81163838D01*
X158804786Y-81049824D01*
X158821823Y-80986240D01*
X159454131Y-81618548D01*
X159454131Y-81618547D01*
X159490634Y-81568309D01*
X159538925Y-81538717D01*
X159593997Y-81551940D01*
X159623589Y-81600231D01*
X159624500Y-81611806D01*
X159624500Y-92801856D01*
X159602826Y-92854182D01*
X159550500Y-92875856D01*
X159498174Y-92854182D01*
X159490633Y-92845353D01*
X159454130Y-92795113D01*
X158821823Y-93427421D01*
X158804786Y-93363838D01*
X158738960Y-93249824D01*
X158645868Y-93156732D01*
X158531854Y-93090906D01*
X158468268Y-93073868D01*
X159100577Y-92441559D01*
X159046417Y-92402209D01*
X159046411Y-92402206D01*
X158857082Y-92305737D01*
X158857078Y-92305735D01*
X158654997Y-92240075D01*
X158654986Y-92240073D01*
X158462410Y-92209571D01*
X158414120Y-92179978D01*
X158400898Y-92124905D01*
X158430491Y-92076615D01*
X158459547Y-92063905D01*
X158645281Y-92026961D01*
X158836459Y-91947772D01*
X159008516Y-91832808D01*
X159154838Y-91686486D01*
X159269802Y-91514429D01*
X159348991Y-91323251D01*
X159389361Y-91120296D01*
X159389361Y-90913366D01*
X159348991Y-90710411D01*
X159269802Y-90519233D01*
X159154838Y-90347176D01*
X159008516Y-90200854D01*
X158836459Y-90085890D01*
X158645281Y-90006701D01*
X158645274Y-90006699D01*
X158492377Y-89976286D01*
X158442326Y-89966331D01*
X158235396Y-89966331D01*
X158195246Y-89974317D01*
X158032447Y-90006699D01*
X158032440Y-90006701D01*
X157841262Y-90085890D01*
X157669206Y-90200853D01*
X157669205Y-90200855D01*
X157522885Y-90347175D01*
X157522883Y-90347176D01*
X157407920Y-90519232D01*
X157328731Y-90710410D01*
X157328729Y-90710417D01*
X157288361Y-90913366D01*
X157288361Y-91120296D01*
X157298316Y-91170347D01*
X157328729Y-91323244D01*
X157328731Y-91323251D01*
X157407920Y-91514429D01*
X157522884Y-91686486D01*
X157669206Y-91832808D01*
X157841263Y-91947772D01*
X158032441Y-92026961D01*
X158218171Y-92063904D01*
X158265263Y-92095369D01*
X158276312Y-92150918D01*
X158244847Y-92198011D01*
X158215311Y-92209571D01*
X158022735Y-92240073D01*
X158022724Y-92240075D01*
X157820646Y-92305734D01*
X157631311Y-92402205D01*
X157577143Y-92441560D01*
X158209451Y-93073868D01*
X158145868Y-93090906D01*
X158031854Y-93156732D01*
X157938762Y-93249824D01*
X157872936Y-93363838D01*
X157855898Y-93427421D01*
X157223590Y-92795113D01*
X157184235Y-92849281D01*
X157087764Y-93038616D01*
X157022105Y-93240694D01*
X157022102Y-93240707D01*
X156988861Y-93450582D01*
X156988861Y-93663079D01*
X157022102Y-93872954D01*
X157022105Y-93872967D01*
X157087765Y-94075048D01*
X157087767Y-94075052D01*
X157184236Y-94264381D01*
X157184239Y-94264387D01*
X157223589Y-94318547D01*
X157855898Y-93686238D01*
X157872936Y-93749824D01*
X157938762Y-93863838D01*
X158031854Y-93956930D01*
X158145868Y-94022756D01*
X158209451Y-94039793D01*
X157577143Y-94672101D01*
X157631310Y-94711455D01*
X157820639Y-94807924D01*
X157820643Y-94807926D01*
X158022724Y-94873586D01*
X158022737Y-94873589D01*
X158215310Y-94904090D01*
X158263601Y-94933683D01*
X158276823Y-94988755D01*
X158247230Y-95037046D01*
X158218171Y-95049757D01*
X158032446Y-95086699D01*
X158032440Y-95086701D01*
X157841262Y-95165890D01*
X157669206Y-95280853D01*
X157669205Y-95280855D01*
X157522885Y-95427175D01*
X157522883Y-95427176D01*
X157407920Y-95599232D01*
X157328731Y-95790410D01*
X157328729Y-95790417D01*
X157298194Y-95943931D01*
X157288361Y-95993366D01*
X157288361Y-96200296D01*
X157291711Y-96217139D01*
X157328729Y-96403244D01*
X157328731Y-96403251D01*
X157407920Y-96594429D01*
X157503843Y-96737990D01*
X157522884Y-96766486D01*
X157669206Y-96912808D01*
X157841263Y-97027772D01*
X158032441Y-97106961D01*
X158235396Y-97147331D01*
X158235397Y-97147331D01*
X158442325Y-97147331D01*
X158442326Y-97147331D01*
X158645281Y-97106961D01*
X158836459Y-97027772D01*
X159008516Y-96912808D01*
X159154838Y-96766486D01*
X159269802Y-96594429D01*
X159348991Y-96403251D01*
X159389361Y-96200296D01*
X159389361Y-95993366D01*
X159348991Y-95790411D01*
X159269802Y-95599233D01*
X159154838Y-95427176D01*
X159008516Y-95280854D01*
X158947129Y-95239837D01*
X158836459Y-95165890D01*
X158645281Y-95086701D01*
X158645275Y-95086699D01*
X158459550Y-95049757D01*
X158412458Y-95018291D01*
X158401409Y-94962742D01*
X158432875Y-94915650D01*
X158462411Y-94904090D01*
X158654984Y-94873589D01*
X158654997Y-94873586D01*
X158857078Y-94807926D01*
X158857082Y-94807924D01*
X159046415Y-94711454D01*
X159046422Y-94711449D01*
X159100577Y-94672101D01*
X159100578Y-94672101D01*
X158468270Y-94039793D01*
X158531854Y-94022756D01*
X158645868Y-93956930D01*
X158738960Y-93863838D01*
X158804786Y-93749824D01*
X158821823Y-93686240D01*
X159454131Y-94318548D01*
X159454131Y-94318547D01*
X159490634Y-94268309D01*
X159538925Y-94238717D01*
X159593997Y-94251940D01*
X159623589Y-94300231D01*
X159624500Y-94311806D01*
X159624500Y-105501856D01*
X159602826Y-105554182D01*
X159550500Y-105575856D01*
X159498174Y-105554182D01*
X159490633Y-105545353D01*
X159454130Y-105495113D01*
X158821823Y-106127421D01*
X158804786Y-106063838D01*
X158738960Y-105949824D01*
X158645868Y-105856732D01*
X158531854Y-105790906D01*
X158468268Y-105773868D01*
X159100577Y-105141559D01*
X159046417Y-105102209D01*
X159046411Y-105102206D01*
X158857082Y-105005737D01*
X158857078Y-105005735D01*
X158654997Y-104940075D01*
X158654986Y-104940073D01*
X158462410Y-104909571D01*
X158414120Y-104879978D01*
X158400898Y-104824905D01*
X158430491Y-104776615D01*
X158459547Y-104763905D01*
X158645281Y-104726961D01*
X158836459Y-104647772D01*
X159008516Y-104532808D01*
X159154838Y-104386486D01*
X159269802Y-104214429D01*
X159348991Y-104023251D01*
X159389361Y-103820296D01*
X159389361Y-103613366D01*
X159348991Y-103410411D01*
X159269802Y-103219233D01*
X159154838Y-103047176D01*
X159008516Y-102900854D01*
X159007986Y-102900500D01*
X158836459Y-102785890D01*
X158645281Y-102706701D01*
X158645274Y-102706699D01*
X158492377Y-102676286D01*
X158442326Y-102666331D01*
X158235396Y-102666331D01*
X158195246Y-102674317D01*
X158032447Y-102706699D01*
X158032440Y-102706701D01*
X157841262Y-102785890D01*
X157669206Y-102900853D01*
X157669205Y-102900855D01*
X157522885Y-103047175D01*
X157522883Y-103047176D01*
X157407920Y-103219232D01*
X157328731Y-103410410D01*
X157328729Y-103410417D01*
X157328099Y-103413586D01*
X157288361Y-103613366D01*
X157288361Y-103820296D01*
X157298316Y-103870347D01*
X157328729Y-104023244D01*
X157328731Y-104023251D01*
X157407920Y-104214429D01*
X157522884Y-104386486D01*
X157669206Y-104532808D01*
X157841263Y-104647772D01*
X158032441Y-104726961D01*
X158218171Y-104763904D01*
X158265263Y-104795369D01*
X158276312Y-104850918D01*
X158244847Y-104898011D01*
X158215311Y-104909571D01*
X158022735Y-104940073D01*
X158022724Y-104940075D01*
X157820646Y-105005734D01*
X157631311Y-105102205D01*
X157577143Y-105141560D01*
X158209451Y-105773868D01*
X158145868Y-105790906D01*
X158031854Y-105856732D01*
X157938762Y-105949824D01*
X157872936Y-106063838D01*
X157855898Y-106127421D01*
X157223590Y-105495113D01*
X157184235Y-105549281D01*
X157087764Y-105738616D01*
X157022105Y-105940694D01*
X157022102Y-105940707D01*
X156988861Y-106150582D01*
X156988861Y-106363079D01*
X157022102Y-106572954D01*
X157022105Y-106572967D01*
X157087765Y-106775048D01*
X157087767Y-106775052D01*
X157184236Y-106964381D01*
X157184239Y-106964387D01*
X157223589Y-107018547D01*
X157855898Y-106386238D01*
X157872936Y-106449824D01*
X157938762Y-106563838D01*
X158031854Y-106656930D01*
X158145868Y-106722756D01*
X158209451Y-106739793D01*
X157577143Y-107372101D01*
X157631310Y-107411455D01*
X157820639Y-107507924D01*
X157820643Y-107507926D01*
X158022724Y-107573586D01*
X158022737Y-107573589D01*
X158215310Y-107604090D01*
X158263601Y-107633683D01*
X158276823Y-107688755D01*
X158247230Y-107737046D01*
X158218171Y-107749757D01*
X158032446Y-107786699D01*
X158032440Y-107786701D01*
X157841262Y-107865890D01*
X157669206Y-107980853D01*
X157669205Y-107980855D01*
X157522885Y-108127175D01*
X157522883Y-108127176D01*
X157407920Y-108299232D01*
X157328731Y-108490410D01*
X157328729Y-108490417D01*
X157328099Y-108493586D01*
X157288361Y-108693366D01*
X157288361Y-108900296D01*
X157298316Y-108950347D01*
X157328729Y-109103244D01*
X157328731Y-109103251D01*
X157407920Y-109294429D01*
X157522884Y-109466486D01*
X157669206Y-109612808D01*
X157841263Y-109727772D01*
X158032441Y-109806961D01*
X158235396Y-109847331D01*
X158235397Y-109847331D01*
X158442325Y-109847331D01*
X158442326Y-109847331D01*
X158645281Y-109806961D01*
X158836459Y-109727772D01*
X159008516Y-109612808D01*
X159154838Y-109466486D01*
X159269802Y-109294429D01*
X159348991Y-109103251D01*
X159389361Y-108900296D01*
X159389361Y-108693366D01*
X159348991Y-108490411D01*
X159269802Y-108299233D01*
X159154838Y-108127176D01*
X159008516Y-107980854D01*
X158836459Y-107865890D01*
X158645281Y-107786701D01*
X158645275Y-107786699D01*
X158459550Y-107749757D01*
X158412458Y-107718291D01*
X158401409Y-107662742D01*
X158432875Y-107615650D01*
X158462411Y-107604090D01*
X158654984Y-107573589D01*
X158654997Y-107573586D01*
X158857078Y-107507926D01*
X158857082Y-107507924D01*
X159046415Y-107411454D01*
X159046422Y-107411449D01*
X159100577Y-107372101D01*
X159100578Y-107372101D01*
X158468270Y-106739793D01*
X158531854Y-106722756D01*
X158645868Y-106656930D01*
X158738960Y-106563838D01*
X158804786Y-106449824D01*
X158821823Y-106386240D01*
X159454131Y-107018548D01*
X159454131Y-107018547D01*
X159490634Y-106968309D01*
X159538925Y-106938717D01*
X159593997Y-106951940D01*
X159623589Y-107000231D01*
X159624500Y-107011806D01*
X159624500Y-118201856D01*
X159602826Y-118254182D01*
X159550500Y-118275856D01*
X159498174Y-118254182D01*
X159490633Y-118245353D01*
X159454130Y-118195113D01*
X158821823Y-118827421D01*
X158804786Y-118763838D01*
X158738960Y-118649824D01*
X158645868Y-118556732D01*
X158531854Y-118490906D01*
X158468268Y-118473868D01*
X159100577Y-117841559D01*
X159046417Y-117802209D01*
X159046411Y-117802206D01*
X158857082Y-117705737D01*
X158857078Y-117705735D01*
X158654997Y-117640075D01*
X158654986Y-117640073D01*
X158462410Y-117609571D01*
X158414120Y-117579978D01*
X158400898Y-117524905D01*
X158430491Y-117476615D01*
X158459547Y-117463905D01*
X158645281Y-117426961D01*
X158836459Y-117347772D01*
X159008516Y-117232808D01*
X159154838Y-117086486D01*
X159269802Y-116914429D01*
X159348991Y-116723251D01*
X159389361Y-116520296D01*
X159389361Y-116313366D01*
X159348991Y-116110411D01*
X159269802Y-115919233D01*
X159154838Y-115747176D01*
X159008516Y-115600854D01*
X158836459Y-115485890D01*
X158645281Y-115406701D01*
X158645274Y-115406699D01*
X158492377Y-115376286D01*
X158442326Y-115366331D01*
X158235396Y-115366331D01*
X158195246Y-115374317D01*
X158032447Y-115406699D01*
X158032440Y-115406701D01*
X157841262Y-115485890D01*
X157669206Y-115600853D01*
X157669205Y-115600855D01*
X157522885Y-115747175D01*
X157522883Y-115747176D01*
X157407920Y-115919232D01*
X157328731Y-116110410D01*
X157328729Y-116110417D01*
X157328099Y-116113586D01*
X157288361Y-116313366D01*
X157288361Y-116520296D01*
X157298316Y-116570347D01*
X157328729Y-116723244D01*
X157328731Y-116723251D01*
X157407920Y-116914429D01*
X157522884Y-117086486D01*
X157669206Y-117232808D01*
X157841263Y-117347772D01*
X158032441Y-117426961D01*
X158218171Y-117463904D01*
X158265263Y-117495369D01*
X158276312Y-117550918D01*
X158244847Y-117598011D01*
X158215311Y-117609571D01*
X158022735Y-117640073D01*
X158022724Y-117640075D01*
X157820646Y-117705734D01*
X157631311Y-117802205D01*
X157577143Y-117841560D01*
X158209451Y-118473868D01*
X158145868Y-118490906D01*
X158031854Y-118556732D01*
X157938762Y-118649824D01*
X157872936Y-118763838D01*
X157855898Y-118827421D01*
X157223590Y-118195113D01*
X157184235Y-118249281D01*
X157087764Y-118438616D01*
X157022105Y-118640694D01*
X157022102Y-118640707D01*
X156988861Y-118850582D01*
X156988861Y-119063079D01*
X157022102Y-119272954D01*
X157022105Y-119272967D01*
X157087765Y-119475048D01*
X157087767Y-119475052D01*
X157184236Y-119664381D01*
X157184239Y-119664387D01*
X157223589Y-119718547D01*
X157855898Y-119086238D01*
X157872936Y-119149824D01*
X157938762Y-119263838D01*
X158031854Y-119356930D01*
X158145868Y-119422756D01*
X158209451Y-119439793D01*
X157577143Y-120072101D01*
X157631310Y-120111455D01*
X157820639Y-120207924D01*
X157820643Y-120207926D01*
X158022724Y-120273586D01*
X158022737Y-120273589D01*
X158215310Y-120304090D01*
X158263601Y-120333683D01*
X158276823Y-120388755D01*
X158247230Y-120437046D01*
X158218171Y-120449757D01*
X158032446Y-120486699D01*
X158032440Y-120486701D01*
X157841262Y-120565890D01*
X157669206Y-120680853D01*
X157669205Y-120680855D01*
X157522885Y-120827175D01*
X157522883Y-120827176D01*
X157407920Y-120999232D01*
X157328731Y-121190410D01*
X157328729Y-121190417D01*
X157299492Y-121337405D01*
X157288361Y-121393366D01*
X157288361Y-121600296D01*
X157298316Y-121650347D01*
X157328729Y-121803244D01*
X157328731Y-121803251D01*
X157407920Y-121994429D01*
X157522884Y-122166486D01*
X157669206Y-122312808D01*
X157841263Y-122427772D01*
X158032441Y-122506961D01*
X158235396Y-122547331D01*
X158235397Y-122547331D01*
X158442325Y-122547331D01*
X158442326Y-122547331D01*
X158645281Y-122506961D01*
X158836459Y-122427772D01*
X159008516Y-122312808D01*
X159154838Y-122166486D01*
X159269802Y-121994429D01*
X159348991Y-121803251D01*
X159389361Y-121600296D01*
X159389361Y-121393366D01*
X159348991Y-121190411D01*
X159269802Y-120999233D01*
X159154838Y-120827176D01*
X159008516Y-120680854D01*
X158836459Y-120565890D01*
X158645281Y-120486701D01*
X158645275Y-120486699D01*
X158459550Y-120449757D01*
X158412458Y-120418291D01*
X158401409Y-120362742D01*
X158432875Y-120315650D01*
X158462411Y-120304090D01*
X158654984Y-120273589D01*
X158654997Y-120273586D01*
X158857078Y-120207926D01*
X158857082Y-120207924D01*
X159046415Y-120111454D01*
X159046422Y-120111449D01*
X159100577Y-120072101D01*
X159100578Y-120072101D01*
X158468270Y-119439793D01*
X158531854Y-119422756D01*
X158645868Y-119356930D01*
X158738960Y-119263838D01*
X158804786Y-119149824D01*
X158821823Y-119086240D01*
X159454131Y-119718548D01*
X159454131Y-119718547D01*
X159490634Y-119668309D01*
X159538925Y-119638717D01*
X159593997Y-119651940D01*
X159623589Y-119700231D01*
X159624500Y-119711806D01*
X159624500Y-125050500D01*
X159602826Y-125102826D01*
X159550500Y-125124500D01*
X158830107Y-125124500D01*
X158777781Y-125102826D01*
X158756107Y-125050500D01*
X158777781Y-124998174D01*
X158801789Y-124982133D01*
X158828808Y-124970941D01*
X158836459Y-124967772D01*
X159008516Y-124852808D01*
X159154838Y-124706486D01*
X159269802Y-124534429D01*
X159348991Y-124343251D01*
X159389361Y-124140296D01*
X159389361Y-123933366D01*
X159348991Y-123730411D01*
X159269802Y-123539233D01*
X159154838Y-123367176D01*
X159008516Y-123220854D01*
X158836459Y-123105890D01*
X158645281Y-123026701D01*
X158645274Y-123026699D01*
X158492377Y-122996286D01*
X158442326Y-122986331D01*
X158235396Y-122986331D01*
X158195246Y-122994317D01*
X158032447Y-123026699D01*
X158032440Y-123026701D01*
X157841262Y-123105890D01*
X157669206Y-123220853D01*
X157669205Y-123220855D01*
X157522885Y-123367175D01*
X157522883Y-123367176D01*
X157407920Y-123539232D01*
X157328731Y-123730410D01*
X157328729Y-123730417D01*
X157300828Y-123870689D01*
X157288361Y-123933366D01*
X157288361Y-124140296D01*
X157290311Y-124150099D01*
X157328729Y-124343244D01*
X157328731Y-124343251D01*
X157407920Y-124534429D01*
X157522883Y-124706485D01*
X157669206Y-124852808D01*
X157841263Y-124967772D01*
X157875933Y-124982133D01*
X157915982Y-125022181D01*
X157915982Y-125078818D01*
X157875934Y-125118867D01*
X157847615Y-125124500D01*
X150044253Y-125124500D01*
X149991927Y-125102826D01*
X149970253Y-125050500D01*
X149991927Y-124998174D01*
X150010658Y-124984566D01*
X150167554Y-124904623D01*
X150167561Y-124904618D01*
X150221716Y-124865270D01*
X150221717Y-124865270D01*
X149589409Y-124232962D01*
X149652993Y-124215925D01*
X149767007Y-124150099D01*
X149860099Y-124057007D01*
X149925925Y-123942993D01*
X149942962Y-123879409D01*
X150575270Y-124511717D01*
X150575270Y-124511716D01*
X150614618Y-124457561D01*
X150614623Y-124457554D01*
X150711093Y-124268221D01*
X150711095Y-124268217D01*
X150776755Y-124066136D01*
X150776758Y-124066123D01*
X150807259Y-123873550D01*
X150836852Y-123825259D01*
X150891924Y-123812037D01*
X150940215Y-123841630D01*
X150952926Y-123870689D01*
X150989868Y-124056414D01*
X150989870Y-124056420D01*
X151069059Y-124247598D01*
X151135084Y-124346413D01*
X151184023Y-124419655D01*
X151330345Y-124565977D01*
X151502402Y-124680941D01*
X151693580Y-124760130D01*
X151896535Y-124800500D01*
X151896536Y-124800500D01*
X152103464Y-124800500D01*
X152103465Y-124800500D01*
X152306420Y-124760130D01*
X152497598Y-124680941D01*
X152669655Y-124565977D01*
X152815977Y-124419655D01*
X152930941Y-124247598D01*
X153010130Y-124056420D01*
X153050500Y-123853465D01*
X153050500Y-123646535D01*
X153010130Y-123443580D01*
X152930941Y-123252402D01*
X152815977Y-123080345D01*
X152669655Y-122934023D01*
X152589180Y-122880252D01*
X152497598Y-122819059D01*
X152306420Y-122739870D01*
X152306413Y-122739868D01*
X152153516Y-122709455D01*
X152103465Y-122699500D01*
X151896535Y-122699500D01*
X151856385Y-122707486D01*
X151693586Y-122739868D01*
X151693579Y-122739870D01*
X151502401Y-122819059D01*
X151330345Y-122934022D01*
X151330344Y-122934024D01*
X151184024Y-123080344D01*
X151184022Y-123080345D01*
X151069059Y-123252401D01*
X150989870Y-123443579D01*
X150989868Y-123443585D01*
X150952926Y-123629310D01*
X150921460Y-123676402D01*
X150865911Y-123687451D01*
X150818819Y-123655985D01*
X150807259Y-123626449D01*
X150776758Y-123433876D01*
X150776755Y-123433863D01*
X150711095Y-123231782D01*
X150711093Y-123231778D01*
X150614624Y-123042449D01*
X150614625Y-123042449D01*
X150575269Y-122988282D01*
X149942962Y-123620590D01*
X149925925Y-123557007D01*
X149860099Y-123442993D01*
X149767007Y-123349901D01*
X149652993Y-123284075D01*
X149589407Y-123267037D01*
X150221716Y-122634728D01*
X150167556Y-122595378D01*
X150167550Y-122595375D01*
X149978221Y-122498906D01*
X149978217Y-122498904D01*
X149776136Y-122433244D01*
X149776123Y-122433241D01*
X149566249Y-122400000D01*
X149353751Y-122400000D01*
X149143876Y-122433241D01*
X149143863Y-122433244D01*
X148941785Y-122498903D01*
X148752450Y-122595374D01*
X148698282Y-122634729D01*
X149330590Y-123267037D01*
X149267007Y-123284075D01*
X149152993Y-123349901D01*
X149059901Y-123442993D01*
X148994075Y-123557007D01*
X148977037Y-123620590D01*
X148344729Y-122988282D01*
X148305374Y-123042450D01*
X148208903Y-123231785D01*
X148143244Y-123433863D01*
X148143241Y-123433876D01*
X148117589Y-123595837D01*
X148087996Y-123644128D01*
X148032924Y-123657350D01*
X147984633Y-123627757D01*
X147970500Y-123584261D01*
X147970500Y-122880253D01*
X147970500Y-122880252D01*
X147958867Y-122821769D01*
X147957056Y-122819059D01*
X147944027Y-122799560D01*
X147914552Y-122755448D01*
X147848231Y-122711133D01*
X147789748Y-122699500D01*
X146050252Y-122699500D01*
X146021010Y-122705316D01*
X145991767Y-122711133D01*
X145925449Y-122755447D01*
X145925447Y-122755449D01*
X145881133Y-122821767D01*
X145869500Y-122880253D01*
X145869500Y-124619746D01*
X145881133Y-124678232D01*
X145902130Y-124709655D01*
X145925448Y-124744552D01*
X145969560Y-124774027D01*
X145991767Y-124788866D01*
X145991768Y-124788866D01*
X145991769Y-124788867D01*
X146050252Y-124800500D01*
X146050254Y-124800500D01*
X147789746Y-124800500D01*
X147789748Y-124800500D01*
X147848231Y-124788867D01*
X147914552Y-124744552D01*
X147958867Y-124678231D01*
X147970500Y-124619748D01*
X147970500Y-123915738D01*
X147992174Y-123863412D01*
X148044500Y-123841738D01*
X148096826Y-123863412D01*
X148117589Y-123904162D01*
X148143241Y-124066123D01*
X148143244Y-124066136D01*
X148208904Y-124268217D01*
X148208906Y-124268221D01*
X148305375Y-124457550D01*
X148305378Y-124457556D01*
X148344728Y-124511716D01*
X148977037Y-123879407D01*
X148994075Y-123942993D01*
X149059901Y-124057007D01*
X149152993Y-124150099D01*
X149267007Y-124215925D01*
X149330590Y-124232962D01*
X148698282Y-124865270D01*
X148752449Y-124904624D01*
X148909342Y-124984566D01*
X148946125Y-125027633D01*
X148941681Y-125084095D01*
X148898614Y-125120878D01*
X148875747Y-125124500D01*
X140908897Y-125124500D01*
X140856571Y-125102826D01*
X140834897Y-125050500D01*
X140856571Y-124998174D01*
X140880578Y-124982133D01*
X140907598Y-124970941D01*
X141079655Y-124855977D01*
X141225977Y-124709655D01*
X141340941Y-124537598D01*
X141420130Y-124346420D01*
X141460500Y-124143465D01*
X141460500Y-123936535D01*
X141420130Y-123733580D01*
X141340941Y-123542402D01*
X141225977Y-123370345D01*
X141079655Y-123224023D01*
X141074912Y-123220854D01*
X140907598Y-123109059D01*
X140716420Y-123029870D01*
X140716413Y-123029868D01*
X140563516Y-122999455D01*
X140513465Y-122989500D01*
X140306535Y-122989500D01*
X140266385Y-122997486D01*
X140103586Y-123029868D01*
X140103579Y-123029870D01*
X139912401Y-123109059D01*
X139740345Y-123224022D01*
X139740344Y-123224024D01*
X139594024Y-123370344D01*
X139594022Y-123370345D01*
X139479059Y-123542401D01*
X139399870Y-123733579D01*
X139399868Y-123733586D01*
X139359500Y-123936535D01*
X139359500Y-124143464D01*
X139399868Y-124346413D01*
X139399870Y-124346420D01*
X139479059Y-124537598D01*
X139591905Y-124706486D01*
X139594023Y-124709655D01*
X139740345Y-124855977D01*
X139912402Y-124970941D01*
X139939422Y-124982133D01*
X139979470Y-125022181D01*
X139979470Y-125078819D01*
X139939422Y-125118867D01*
X139911103Y-125124500D01*
X139199500Y-125124500D01*
X139147174Y-125102826D01*
X139125500Y-125050500D01*
X139125500Y-119716541D01*
X139147174Y-119664215D01*
X139199500Y-119642541D01*
X139251826Y-119664215D01*
X139259367Y-119673045D01*
X139294728Y-119721716D01*
X139927037Y-119089407D01*
X139944075Y-119152993D01*
X140009901Y-119267007D01*
X140102993Y-119360099D01*
X140217007Y-119425925D01*
X140280590Y-119442962D01*
X139648282Y-120075270D01*
X139702449Y-120114624D01*
X139891778Y-120211093D01*
X139891782Y-120211095D01*
X140093863Y-120276755D01*
X140093876Y-120276758D01*
X140286449Y-120307259D01*
X140334740Y-120336852D01*
X140347962Y-120391924D01*
X140318369Y-120440215D01*
X140289310Y-120452926D01*
X140103585Y-120489868D01*
X140103579Y-120489870D01*
X139912401Y-120569059D01*
X139740345Y-120684022D01*
X139740344Y-120684024D01*
X139594024Y-120830344D01*
X139594022Y-120830345D01*
X139479059Y-121002401D01*
X139399870Y-121193579D01*
X139399868Y-121193586D01*
X139359500Y-121396535D01*
X139359500Y-121603464D01*
X139399868Y-121806413D01*
X139399870Y-121806420D01*
X139479059Y-121997598D01*
X139591905Y-122166486D01*
X139594023Y-122169655D01*
X139740345Y-122315977D01*
X139912402Y-122430941D01*
X140103580Y-122510130D01*
X140306535Y-122550500D01*
X140306536Y-122550500D01*
X140513464Y-122550500D01*
X140513465Y-122550500D01*
X140716420Y-122510130D01*
X140907598Y-122430941D01*
X141079655Y-122315977D01*
X141225977Y-122169655D01*
X141340941Y-121997598D01*
X141420130Y-121806420D01*
X141460500Y-121603465D01*
X141460500Y-121396535D01*
X141420130Y-121193580D01*
X141340941Y-121002402D01*
X141225977Y-120830345D01*
X141079655Y-120684023D01*
X141074912Y-120680854D01*
X140907598Y-120569059D01*
X140716420Y-120489870D01*
X140716414Y-120489868D01*
X140530689Y-120452926D01*
X140483597Y-120421460D01*
X140472548Y-120365911D01*
X140504014Y-120318819D01*
X140533550Y-120307259D01*
X140726123Y-120276758D01*
X140726136Y-120276755D01*
X140928217Y-120211095D01*
X140928221Y-120211093D01*
X141117554Y-120114623D01*
X141117561Y-120114618D01*
X141171716Y-120075270D01*
X141171717Y-120075270D01*
X140539409Y-119442962D01*
X140602993Y-119425925D01*
X140717007Y-119360099D01*
X140810099Y-119267007D01*
X140875925Y-119152993D01*
X140892962Y-119089409D01*
X141525270Y-119721717D01*
X141525270Y-119721716D01*
X141564618Y-119667561D01*
X141564623Y-119667554D01*
X141661093Y-119478221D01*
X141661095Y-119478217D01*
X141726755Y-119276136D01*
X141726758Y-119276123D01*
X141760000Y-119066248D01*
X141760000Y-118853751D01*
X141726758Y-118643876D01*
X141726755Y-118643863D01*
X141661095Y-118441782D01*
X141661093Y-118441778D01*
X141564624Y-118252449D01*
X141564625Y-118252449D01*
X141525269Y-118198282D01*
X140892962Y-118830590D01*
X140875925Y-118767007D01*
X140810099Y-118652993D01*
X140717007Y-118559901D01*
X140602993Y-118494075D01*
X140539407Y-118477037D01*
X141171716Y-117844728D01*
X141117556Y-117805378D01*
X141117550Y-117805375D01*
X140928221Y-117708906D01*
X140928217Y-117708904D01*
X140726136Y-117643244D01*
X140726125Y-117643242D01*
X140533549Y-117612740D01*
X140485259Y-117583147D01*
X140472037Y-117528074D01*
X140501630Y-117479784D01*
X140530686Y-117467074D01*
X140716420Y-117430130D01*
X140907598Y-117350941D01*
X141079655Y-117235977D01*
X141225977Y-117089655D01*
X141340941Y-116917598D01*
X141420130Y-116726420D01*
X141460500Y-116523465D01*
X141460500Y-116316535D01*
X141420130Y-116113580D01*
X141340941Y-115922402D01*
X141225977Y-115750345D01*
X141079655Y-115604023D01*
X141074912Y-115600854D01*
X140907598Y-115489059D01*
X140716420Y-115409870D01*
X140716413Y-115409868D01*
X140563516Y-115379455D01*
X140513465Y-115369500D01*
X140306535Y-115369500D01*
X140266385Y-115377486D01*
X140103586Y-115409868D01*
X140103579Y-115409870D01*
X139912401Y-115489059D01*
X139740345Y-115604022D01*
X139740344Y-115604024D01*
X139594024Y-115750344D01*
X139594022Y-115750345D01*
X139479059Y-115922401D01*
X139399870Y-116113579D01*
X139399868Y-116113586D01*
X139359500Y-116316535D01*
X139359500Y-116523464D01*
X139399868Y-116726413D01*
X139399870Y-116726420D01*
X139479059Y-116917598D01*
X139591905Y-117086486D01*
X139594023Y-117089655D01*
X139740345Y-117235977D01*
X139912402Y-117350941D01*
X140103580Y-117430130D01*
X140289310Y-117467073D01*
X140336402Y-117498538D01*
X140347451Y-117554087D01*
X140315986Y-117601180D01*
X140286450Y-117612740D01*
X140093874Y-117643242D01*
X140093863Y-117643244D01*
X139891785Y-117708903D01*
X139702450Y-117805374D01*
X139648282Y-117844729D01*
X140280590Y-118477037D01*
X140217007Y-118494075D01*
X140102993Y-118559901D01*
X140009901Y-118652993D01*
X139944075Y-118767007D01*
X139927037Y-118830590D01*
X139294729Y-118198282D01*
X139294728Y-118198282D01*
X139259367Y-118246953D01*
X139211076Y-118276546D01*
X139156004Y-118263324D01*
X139126411Y-118215033D01*
X139125500Y-118203457D01*
X139125500Y-113776535D01*
X139359500Y-113776535D01*
X139359500Y-113983464D01*
X139399868Y-114186413D01*
X139399870Y-114186420D01*
X139479059Y-114377598D01*
X139591905Y-114546486D01*
X139594023Y-114549655D01*
X139740345Y-114695977D01*
X139912402Y-114810941D01*
X140103580Y-114890130D01*
X140306535Y-114930500D01*
X140306536Y-114930500D01*
X140513464Y-114930500D01*
X140513465Y-114930500D01*
X140716420Y-114890130D01*
X140907598Y-114810941D01*
X141079655Y-114695977D01*
X141225977Y-114549655D01*
X141340941Y-114377598D01*
X141420130Y-114186420D01*
X141460500Y-113983465D01*
X141460500Y-113776535D01*
X141420130Y-113573580D01*
X141340941Y-113382402D01*
X141225977Y-113210345D01*
X141079655Y-113064023D01*
X141074912Y-113060854D01*
X140907598Y-112949059D01*
X140716420Y-112869870D01*
X140716413Y-112869868D01*
X140563516Y-112839455D01*
X140513465Y-112829500D01*
X140306535Y-112829500D01*
X140266385Y-112837486D01*
X140103586Y-112869868D01*
X140103579Y-112869870D01*
X139912401Y-112949059D01*
X139740345Y-113064022D01*
X139740344Y-113064024D01*
X139594024Y-113210344D01*
X139594022Y-113210345D01*
X139479059Y-113382401D01*
X139399870Y-113573579D01*
X139399868Y-113573586D01*
X139359500Y-113776535D01*
X139125500Y-113776535D01*
X139125500Y-111236535D01*
X139359500Y-111236535D01*
X139359500Y-111443464D01*
X139399868Y-111646413D01*
X139399870Y-111646420D01*
X139479059Y-111837598D01*
X139591905Y-112006486D01*
X139594023Y-112009655D01*
X139740345Y-112155977D01*
X139912402Y-112270941D01*
X140103580Y-112350130D01*
X140306535Y-112390500D01*
X140306536Y-112390500D01*
X140513464Y-112390500D01*
X140513465Y-112390500D01*
X140716420Y-112350130D01*
X140907598Y-112270941D01*
X141079655Y-112155977D01*
X141225977Y-112009655D01*
X141340941Y-111837598D01*
X141420130Y-111646420D01*
X141460500Y-111443465D01*
X141460500Y-111236535D01*
X141420130Y-111033580D01*
X141340941Y-110842402D01*
X141225977Y-110670345D01*
X141079655Y-110524023D01*
X141074912Y-110520854D01*
X140907598Y-110409059D01*
X140716420Y-110329870D01*
X140716413Y-110329868D01*
X140563516Y-110299455D01*
X140513465Y-110289500D01*
X140306535Y-110289500D01*
X140266385Y-110297486D01*
X140103586Y-110329868D01*
X140103579Y-110329870D01*
X139912401Y-110409059D01*
X139740345Y-110524022D01*
X139740344Y-110524024D01*
X139594024Y-110670344D01*
X139594022Y-110670345D01*
X139479059Y-110842401D01*
X139399870Y-111033579D01*
X139399868Y-111033586D01*
X139359500Y-111236535D01*
X139125500Y-111236535D01*
X139125500Y-107016541D01*
X139147174Y-106964215D01*
X139199500Y-106942541D01*
X139251826Y-106964215D01*
X139259367Y-106973045D01*
X139294728Y-107021716D01*
X139927037Y-106389407D01*
X139944075Y-106452993D01*
X140009901Y-106567007D01*
X140102993Y-106660099D01*
X140217007Y-106725925D01*
X140280590Y-106742962D01*
X139648282Y-107375270D01*
X139702449Y-107414624D01*
X139891778Y-107511093D01*
X139891782Y-107511095D01*
X140093863Y-107576755D01*
X140093876Y-107576758D01*
X140286449Y-107607259D01*
X140334740Y-107636852D01*
X140347962Y-107691924D01*
X140318369Y-107740215D01*
X140289310Y-107752926D01*
X140103585Y-107789868D01*
X140103579Y-107789870D01*
X139912401Y-107869059D01*
X139740345Y-107984022D01*
X139740344Y-107984024D01*
X139594024Y-108130344D01*
X139594022Y-108130345D01*
X139479059Y-108302401D01*
X139399870Y-108493579D01*
X139399868Y-108493586D01*
X139359500Y-108696535D01*
X139359500Y-108903464D01*
X139399868Y-109106413D01*
X139399870Y-109106420D01*
X139479059Y-109297598D01*
X139591905Y-109466486D01*
X139594023Y-109469655D01*
X139740345Y-109615977D01*
X139912402Y-109730941D01*
X140103580Y-109810130D01*
X140306535Y-109850500D01*
X140306536Y-109850500D01*
X140513464Y-109850500D01*
X140513465Y-109850500D01*
X140716420Y-109810130D01*
X140907598Y-109730941D01*
X141079655Y-109615977D01*
X141225977Y-109469655D01*
X141340941Y-109297598D01*
X141420130Y-109106420D01*
X141460500Y-108903465D01*
X141460500Y-108696535D01*
X141420130Y-108493580D01*
X141340941Y-108302402D01*
X141225977Y-108130345D01*
X141079655Y-107984023D01*
X141074912Y-107980854D01*
X140907598Y-107869059D01*
X140716420Y-107789870D01*
X140716414Y-107789868D01*
X140530689Y-107752926D01*
X140483597Y-107721460D01*
X140472548Y-107665911D01*
X140504014Y-107618819D01*
X140533550Y-107607259D01*
X140726123Y-107576758D01*
X140726136Y-107576755D01*
X140928217Y-107511095D01*
X140928221Y-107511093D01*
X141117554Y-107414623D01*
X141117561Y-107414618D01*
X141171716Y-107375270D01*
X141171717Y-107375270D01*
X140539409Y-106742962D01*
X140602993Y-106725925D01*
X140717007Y-106660099D01*
X140810099Y-106567007D01*
X140875925Y-106452993D01*
X140892962Y-106389409D01*
X141525270Y-107021717D01*
X141525270Y-107021716D01*
X141564618Y-106967561D01*
X141564623Y-106967554D01*
X141661093Y-106778221D01*
X141661095Y-106778217D01*
X141726755Y-106576136D01*
X141726758Y-106576123D01*
X141760000Y-106366248D01*
X141760000Y-106153751D01*
X141726758Y-105943876D01*
X141726755Y-105943863D01*
X141661095Y-105741782D01*
X141661093Y-105741778D01*
X141564624Y-105552449D01*
X141564625Y-105552449D01*
X141525269Y-105498282D01*
X140892962Y-106130590D01*
X140875925Y-106067007D01*
X140810099Y-105952993D01*
X140717007Y-105859901D01*
X140602993Y-105794075D01*
X140539407Y-105777037D01*
X141171716Y-105144728D01*
X141117556Y-105105378D01*
X141117550Y-105105375D01*
X140928221Y-105008906D01*
X140928217Y-105008904D01*
X140726136Y-104943244D01*
X140726125Y-104943242D01*
X140533549Y-104912740D01*
X140485259Y-104883147D01*
X140472037Y-104828074D01*
X140501630Y-104779784D01*
X140530686Y-104767074D01*
X140716420Y-104730130D01*
X140907598Y-104650941D01*
X141079655Y-104535977D01*
X141225977Y-104389655D01*
X141340941Y-104217598D01*
X141420130Y-104026420D01*
X141460500Y-103823465D01*
X141460500Y-103616535D01*
X141420130Y-103413580D01*
X141340941Y-103222402D01*
X141225977Y-103050345D01*
X141079655Y-102904023D01*
X141074912Y-102900854D01*
X140907598Y-102789059D01*
X140716420Y-102709870D01*
X140716413Y-102709868D01*
X140563516Y-102679455D01*
X140513465Y-102669500D01*
X140306535Y-102669500D01*
X140266385Y-102677486D01*
X140103586Y-102709868D01*
X140103579Y-102709870D01*
X139912401Y-102789059D01*
X139740345Y-102904022D01*
X139740344Y-102904024D01*
X139594024Y-103050344D01*
X139594022Y-103050345D01*
X139479059Y-103222401D01*
X139399870Y-103413579D01*
X139399868Y-103413586D01*
X139359500Y-103616535D01*
X139359500Y-103823464D01*
X139399868Y-104026413D01*
X139399870Y-104026420D01*
X139479059Y-104217598D01*
X139591905Y-104386486D01*
X139594023Y-104389655D01*
X139740345Y-104535977D01*
X139912402Y-104650941D01*
X140103580Y-104730130D01*
X140289310Y-104767073D01*
X140336402Y-104798538D01*
X140347451Y-104854087D01*
X140315986Y-104901180D01*
X140286450Y-104912740D01*
X140093874Y-104943242D01*
X140093863Y-104943244D01*
X139891785Y-105008903D01*
X139702450Y-105105374D01*
X139648282Y-105144729D01*
X140280590Y-105777037D01*
X140217007Y-105794075D01*
X140102993Y-105859901D01*
X140009901Y-105952993D01*
X139944075Y-106067007D01*
X139927037Y-106130590D01*
X139294729Y-105498282D01*
X139294728Y-105498282D01*
X139259367Y-105546953D01*
X139211076Y-105576546D01*
X139156004Y-105563324D01*
X139126411Y-105515033D01*
X139125500Y-105503457D01*
X139125500Y-101076535D01*
X139359500Y-101076535D01*
X139359500Y-101283465D01*
X139367462Y-101323492D01*
X139399868Y-101486413D01*
X139399870Y-101486420D01*
X139479059Y-101677598D01*
X139591905Y-101846486D01*
X139594023Y-101849655D01*
X139740345Y-101995977D01*
X139912402Y-102110941D01*
X140103580Y-102190130D01*
X140306535Y-102230500D01*
X140306536Y-102230500D01*
X140513464Y-102230500D01*
X140513465Y-102230500D01*
X140716420Y-102190130D01*
X140907598Y-102110941D01*
X141079655Y-101995977D01*
X141225977Y-101849655D01*
X141340941Y-101677598D01*
X141420130Y-101486420D01*
X141460500Y-101283465D01*
X141460500Y-101076535D01*
X141420130Y-100873580D01*
X141340941Y-100682402D01*
X141225977Y-100510345D01*
X141079655Y-100364023D01*
X141074912Y-100360854D01*
X140907598Y-100249059D01*
X140716420Y-100169870D01*
X140716413Y-100169868D01*
X140563516Y-100139455D01*
X140513465Y-100129500D01*
X140306535Y-100129500D01*
X140266385Y-100137486D01*
X140103586Y-100169868D01*
X140103579Y-100169870D01*
X139912401Y-100249059D01*
X139740345Y-100364022D01*
X139740344Y-100364024D01*
X139594024Y-100510344D01*
X139594022Y-100510345D01*
X139479059Y-100682401D01*
X139399870Y-100873579D01*
X139399868Y-100873586D01*
X139363424Y-101056809D01*
X139359500Y-101076535D01*
X139125500Y-101076535D01*
X139125500Y-98536535D01*
X139359500Y-98536535D01*
X139359500Y-98743464D01*
X139399868Y-98946413D01*
X139399870Y-98946420D01*
X139479059Y-99137598D01*
X139591905Y-99306486D01*
X139594023Y-99309655D01*
X139740345Y-99455977D01*
X139912402Y-99570941D01*
X140103580Y-99650130D01*
X140306535Y-99690500D01*
X140306536Y-99690500D01*
X140513464Y-99690500D01*
X140513465Y-99690500D01*
X140716420Y-99650130D01*
X140907598Y-99570941D01*
X141079655Y-99455977D01*
X141225977Y-99309655D01*
X141340941Y-99137598D01*
X141420130Y-98946420D01*
X141460500Y-98743465D01*
X141460500Y-98536535D01*
X141420130Y-98333580D01*
X141340941Y-98142402D01*
X141225977Y-97970345D01*
X141079655Y-97824023D01*
X141074912Y-97820854D01*
X140907598Y-97709059D01*
X140716420Y-97629870D01*
X140716413Y-97629868D01*
X140552357Y-97597236D01*
X140513465Y-97589500D01*
X140306535Y-97589500D01*
X140267643Y-97597236D01*
X140103586Y-97629868D01*
X140103579Y-97629870D01*
X139912401Y-97709059D01*
X139740345Y-97824022D01*
X139740344Y-97824024D01*
X139594024Y-97970344D01*
X139594022Y-97970345D01*
X139479059Y-98142401D01*
X139399870Y-98333579D01*
X139399868Y-98333586D01*
X139359500Y-98536535D01*
X139125500Y-98536535D01*
X139125500Y-94316541D01*
X139147174Y-94264215D01*
X139199500Y-94242541D01*
X139251826Y-94264215D01*
X139259367Y-94273045D01*
X139294728Y-94321716D01*
X139927037Y-93689407D01*
X139944075Y-93752993D01*
X140009901Y-93867007D01*
X140102993Y-93960099D01*
X140217007Y-94025925D01*
X140280590Y-94042962D01*
X139648282Y-94675270D01*
X139702449Y-94714624D01*
X139891778Y-94811093D01*
X139891782Y-94811095D01*
X140093863Y-94876755D01*
X140093876Y-94876758D01*
X140286449Y-94907259D01*
X140334740Y-94936852D01*
X140347962Y-94991924D01*
X140318369Y-95040215D01*
X140289310Y-95052926D01*
X140103585Y-95089868D01*
X140103579Y-95089870D01*
X139912401Y-95169059D01*
X139740345Y-95284022D01*
X139740344Y-95284024D01*
X139594024Y-95430344D01*
X139594022Y-95430345D01*
X139479059Y-95602401D01*
X139399870Y-95793579D01*
X139399868Y-95793586D01*
X139359500Y-95996535D01*
X139359500Y-96203464D01*
X139399868Y-96406413D01*
X139399870Y-96406420D01*
X139479059Y-96597598D01*
X139591905Y-96766486D01*
X139594023Y-96769655D01*
X139740345Y-96915977D01*
X139912402Y-97030941D01*
X140103580Y-97110130D01*
X140306535Y-97150500D01*
X140306536Y-97150500D01*
X140513464Y-97150500D01*
X140513465Y-97150500D01*
X140716420Y-97110130D01*
X140867836Y-97047411D01*
X140924474Y-97047411D01*
X140948481Y-97063452D01*
X145319540Y-101434511D01*
X145375489Y-101490460D01*
X145444011Y-101530021D01*
X145444012Y-101530021D01*
X145444014Y-101530022D01*
X145482224Y-101540260D01*
X145520435Y-101550499D01*
X145520436Y-101550500D01*
X145520438Y-101550500D01*
X146189237Y-101550500D01*
X146241563Y-101572174D01*
X146253323Y-101587500D01*
X146278710Y-101631472D01*
X146278711Y-101631473D01*
X146278713Y-101631476D01*
X146371899Y-101724662D01*
X146486027Y-101790554D01*
X146538873Y-101804713D01*
X146583806Y-101839192D01*
X146591199Y-101895344D01*
X146556720Y-101940278D01*
X146538874Y-101947670D01*
X146497631Y-101958721D01*
X146497624Y-101958724D01*
X146383500Y-102024614D01*
X146290315Y-102117799D01*
X146224425Y-102231923D01*
X146224421Y-102231932D01*
X146190315Y-102359219D01*
X146190315Y-102375500D01*
X146168641Y-102427826D01*
X146116315Y-102449500D01*
X145316992Y-102449500D01*
X145264666Y-102427826D01*
X144184043Y-101347203D01*
X144162369Y-101294877D01*
X144162369Y-101184106D01*
X144162368Y-101184105D01*
X144128262Y-101056818D01*
X144128261Y-101056814D01*
X144062369Y-100942686D01*
X143969183Y-100849500D01*
X143855059Y-100783610D01*
X143855050Y-100783606D01*
X143727763Y-100749500D01*
X143727761Y-100749500D01*
X143595977Y-100749500D01*
X143595975Y-100749500D01*
X143468687Y-100783606D01*
X143468678Y-100783610D01*
X143354554Y-100849500D01*
X143261369Y-100942685D01*
X143195479Y-101056809D01*
X143195475Y-101056818D01*
X143161369Y-101184105D01*
X143161369Y-101315894D01*
X143195475Y-101443181D01*
X143195479Y-101443190D01*
X143220434Y-101486413D01*
X143261369Y-101557314D01*
X143354555Y-101650500D01*
X143468683Y-101716392D01*
X143595974Y-101750499D01*
X143595975Y-101750500D01*
X143706746Y-101750500D01*
X143759072Y-101772174D01*
X144921409Y-102934511D01*
X144977358Y-102990460D01*
X145045880Y-103030021D01*
X145045881Y-103030021D01*
X145045883Y-103030022D01*
X145084093Y-103040260D01*
X145122304Y-103050499D01*
X145122305Y-103050500D01*
X145122307Y-103050500D01*
X146405493Y-103050500D01*
X146405493Y-103050499D01*
X146481918Y-103030021D01*
X146550440Y-102990460D01*
X146593612Y-102947288D01*
X146645938Y-102925614D01*
X146756709Y-102925614D01*
X146756709Y-102925613D01*
X146884001Y-102891506D01*
X146998129Y-102825614D01*
X147014811Y-102808931D01*
X147067135Y-102787257D01*
X147119462Y-102808930D01*
X148417826Y-104107294D01*
X148439500Y-104159620D01*
X148439500Y-120562034D01*
X148417826Y-120614360D01*
X148339500Y-120692685D01*
X148273610Y-120806809D01*
X148273606Y-120806818D01*
X148239500Y-120934105D01*
X148239500Y-121065894D01*
X148273606Y-121193181D01*
X148273607Y-121193184D01*
X148273608Y-121193186D01*
X148339500Y-121307314D01*
X148432686Y-121400500D01*
X148546814Y-121466392D01*
X148674105Y-121500499D01*
X148674106Y-121500500D01*
X148674108Y-121500500D01*
X148805894Y-121500500D01*
X148805894Y-121500499D01*
X148933186Y-121466392D01*
X149047314Y-121400500D01*
X149140500Y-121307314D01*
X149206392Y-121193186D01*
X149240499Y-121065894D01*
X149240500Y-121065894D01*
X149240500Y-120934106D01*
X149240499Y-120934105D01*
X149206393Y-120806818D01*
X149206392Y-120806814D01*
X149140500Y-120692686D01*
X149062174Y-120614360D01*
X149040500Y-120562034D01*
X149040500Y-113773366D01*
X157288361Y-113773366D01*
X157288361Y-113980296D01*
X157298316Y-114030347D01*
X157328729Y-114183244D01*
X157328731Y-114183251D01*
X157407920Y-114374429D01*
X157522884Y-114546486D01*
X157669206Y-114692808D01*
X157841263Y-114807772D01*
X158032441Y-114886961D01*
X158235396Y-114927331D01*
X158235397Y-114927331D01*
X158442325Y-114927331D01*
X158442326Y-114927331D01*
X158645281Y-114886961D01*
X158836459Y-114807772D01*
X159008516Y-114692808D01*
X159154838Y-114546486D01*
X159269802Y-114374429D01*
X159348991Y-114183251D01*
X159389361Y-113980296D01*
X159389361Y-113773366D01*
X159348991Y-113570411D01*
X159269802Y-113379233D01*
X159154838Y-113207176D01*
X159008516Y-113060854D01*
X158836459Y-112945890D01*
X158645281Y-112866701D01*
X158645274Y-112866699D01*
X158492377Y-112836286D01*
X158442326Y-112826331D01*
X158235396Y-112826331D01*
X158195246Y-112834317D01*
X158032447Y-112866699D01*
X158032440Y-112866701D01*
X157841262Y-112945890D01*
X157669206Y-113060853D01*
X157669205Y-113060855D01*
X157522885Y-113207175D01*
X157522883Y-113207176D01*
X157407920Y-113379232D01*
X157328731Y-113570410D01*
X157328729Y-113570417D01*
X157328099Y-113573586D01*
X157288361Y-113773366D01*
X149040500Y-113773366D01*
X149040500Y-103964933D01*
X149040499Y-103964932D01*
X149020022Y-103888511D01*
X149020020Y-103888506D01*
X149009420Y-103870146D01*
X148980460Y-103819986D01*
X148924511Y-103764037D01*
X148256283Y-103095809D01*
X148234609Y-103043483D01*
X148256283Y-102991157D01*
X148308609Y-102969483D01*
X148327762Y-102972005D01*
X148434105Y-103000499D01*
X148434106Y-103000500D01*
X148434108Y-103000500D01*
X148565894Y-103000500D01*
X148565894Y-103000499D01*
X148693186Y-102966392D01*
X148807314Y-102900500D01*
X148900500Y-102807314D01*
X148966392Y-102693186D01*
X148986292Y-102618919D01*
X148986293Y-102618916D01*
X150986602Y-102618916D01*
X150986602Y-102750705D01*
X151020708Y-102877992D01*
X151020712Y-102878001D01*
X151036371Y-102905123D01*
X151086602Y-102992125D01*
X151179788Y-103085311D01*
X151293916Y-103151203D01*
X151421207Y-103185310D01*
X151421208Y-103185311D01*
X151421210Y-103185311D01*
X151552996Y-103185311D01*
X151552996Y-103185310D01*
X151680288Y-103151203D01*
X151794416Y-103085311D01*
X151887602Y-102992125D01*
X151953494Y-102877997D01*
X151987601Y-102750705D01*
X151987602Y-102750705D01*
X151987602Y-102639933D01*
X152009276Y-102587607D01*
X152274710Y-102322174D01*
X152327036Y-102300500D01*
X155094877Y-102300500D01*
X155147203Y-102322174D01*
X155677826Y-102852797D01*
X155699500Y-102905123D01*
X155699500Y-109037534D01*
X155719978Y-109113958D01*
X155742129Y-109152326D01*
X155742130Y-109152326D01*
X155759540Y-109182481D01*
X157375409Y-110798350D01*
X157397083Y-110850676D01*
X157391450Y-110878995D01*
X157328731Y-111030410D01*
X157328729Y-111030417D01*
X157328099Y-111033586D01*
X157288361Y-111233366D01*
X157288361Y-111440296D01*
X157298316Y-111490347D01*
X157328729Y-111643244D01*
X157328731Y-111643251D01*
X157407920Y-111834429D01*
X157522884Y-112006486D01*
X157669206Y-112152808D01*
X157841263Y-112267772D01*
X158032441Y-112346961D01*
X158235396Y-112387331D01*
X158235397Y-112387331D01*
X158442325Y-112387331D01*
X158442326Y-112387331D01*
X158645281Y-112346961D01*
X158836459Y-112267772D01*
X159008516Y-112152808D01*
X159154838Y-112006486D01*
X159269802Y-111834429D01*
X159348991Y-111643251D01*
X159389361Y-111440296D01*
X159389361Y-111233366D01*
X159348991Y-111030411D01*
X159269802Y-110839233D01*
X159154838Y-110667176D01*
X159008516Y-110520854D01*
X158836459Y-110405890D01*
X158645281Y-110326701D01*
X158645274Y-110326699D01*
X158492377Y-110296286D01*
X158442326Y-110286331D01*
X158235396Y-110286331D01*
X158195246Y-110294317D01*
X158032447Y-110326699D01*
X158032440Y-110326701D01*
X157881025Y-110389420D01*
X157824387Y-110389420D01*
X157800380Y-110373379D01*
X156322174Y-108895173D01*
X156300500Y-108842847D01*
X156300500Y-102710436D01*
X156300499Y-102710435D01*
X156299498Y-102706701D01*
X156280021Y-102634011D01*
X156240460Y-102565489D01*
X156184511Y-102509540D01*
X155434511Y-101759540D01*
X155418853Y-101750500D01*
X155415325Y-101748463D01*
X155365990Y-101719979D01*
X155365985Y-101719977D01*
X155289564Y-101699500D01*
X155289562Y-101699500D01*
X152132351Y-101699500D01*
X152132349Y-101699500D01*
X152055927Y-101719977D01*
X152055922Y-101719979D01*
X152003060Y-101750500D01*
X151987401Y-101759540D01*
X151584304Y-102162637D01*
X151531978Y-102184311D01*
X151421208Y-102184311D01*
X151293920Y-102218417D01*
X151293911Y-102218421D01*
X151179787Y-102284311D01*
X151086602Y-102377496D01*
X151020712Y-102491620D01*
X151020708Y-102491629D01*
X150986602Y-102618916D01*
X148986293Y-102618916D01*
X148992722Y-102594922D01*
X148992723Y-102594917D01*
X149000500Y-102565891D01*
X149000500Y-102434106D01*
X149000499Y-102434105D01*
X148980434Y-102359222D01*
X148966392Y-102306814D01*
X148900500Y-102192686D01*
X148822174Y-102114360D01*
X148800500Y-102062034D01*
X148800500Y-101073366D01*
X157288361Y-101073366D01*
X157288361Y-101280296D01*
X157291261Y-101294877D01*
X157328729Y-101483244D01*
X157328731Y-101483251D01*
X157407920Y-101674429D01*
X157508301Y-101824662D01*
X157522884Y-101846486D01*
X157669206Y-101992808D01*
X157841263Y-102107772D01*
X158032441Y-102186961D01*
X158235396Y-102227331D01*
X158235397Y-102227331D01*
X158442325Y-102227331D01*
X158442326Y-102227331D01*
X158645281Y-102186961D01*
X158836459Y-102107772D01*
X159008516Y-101992808D01*
X159154838Y-101846486D01*
X159269802Y-101674429D01*
X159348991Y-101483251D01*
X159389361Y-101280296D01*
X159389361Y-101073366D01*
X159348991Y-100870411D01*
X159269802Y-100679233D01*
X159154838Y-100507176D01*
X159008516Y-100360854D01*
X158836459Y-100245890D01*
X158645281Y-100166701D01*
X158645274Y-100166699D01*
X158492377Y-100136286D01*
X158442326Y-100126331D01*
X158235396Y-100126331D01*
X158195246Y-100134317D01*
X158032447Y-100166699D01*
X158032440Y-100166701D01*
X157841262Y-100245890D01*
X157669206Y-100360853D01*
X157669205Y-100360855D01*
X157522885Y-100507175D01*
X157522883Y-100507176D01*
X157407920Y-100679232D01*
X157328731Y-100870410D01*
X157328729Y-100870417D01*
X157312999Y-100949500D01*
X157288361Y-101073366D01*
X148800500Y-101073366D01*
X148800500Y-99189348D01*
X148822173Y-99137023D01*
X149794909Y-98164286D01*
X149847235Y-98142613D01*
X149958007Y-98142613D01*
X149958007Y-98142612D01*
X150085299Y-98108505D01*
X150199427Y-98042613D01*
X150292613Y-97949427D01*
X150358505Y-97835299D01*
X150392612Y-97708007D01*
X150392613Y-97708007D01*
X150392613Y-97576219D01*
X150392612Y-97576218D01*
X150387638Y-97557656D01*
X150358505Y-97448927D01*
X150292613Y-97334799D01*
X150214287Y-97256473D01*
X150192613Y-97204147D01*
X150192613Y-92132549D01*
X150192612Y-92132548D01*
X150172135Y-92056127D01*
X150172133Y-92056122D01*
X150132572Y-91987601D01*
X149571797Y-91426826D01*
X149550123Y-91374500D01*
X149571797Y-91322174D01*
X149624123Y-91300500D01*
X150855497Y-91300500D01*
X150907823Y-91322174D01*
X151498155Y-91912506D01*
X151519829Y-91964832D01*
X151498155Y-92017158D01*
X151464982Y-92036310D01*
X151353910Y-92066072D01*
X151353901Y-92066076D01*
X151239777Y-92131966D01*
X151146592Y-92225151D01*
X151080702Y-92339275D01*
X151080698Y-92339284D01*
X151046592Y-92466571D01*
X151046592Y-92598360D01*
X151080698Y-92725647D01*
X151080702Y-92725656D01*
X151146592Y-92839780D01*
X151224918Y-92918106D01*
X151246592Y-92970432D01*
X151246592Y-94914692D01*
X151267069Y-94991113D01*
X151267071Y-94991118D01*
X151298947Y-95046328D01*
X151300927Y-95049757D01*
X151305003Y-95056818D01*
X151306633Y-95059640D01*
X151582809Y-95335816D01*
X151604483Y-95388142D01*
X151604483Y-95498913D01*
X151639846Y-95630889D01*
X151637319Y-95631566D01*
X151637297Y-95679782D01*
X151621269Y-95703758D01*
X151068380Y-96256649D01*
X151012431Y-96312597D01*
X150972870Y-96381118D01*
X150972868Y-96381123D01*
X150952391Y-96457544D01*
X150952391Y-97963909D01*
X150930717Y-98016235D01*
X150852391Y-98094560D01*
X150786501Y-98208684D01*
X150786497Y-98208693D01*
X150752391Y-98335980D01*
X150752391Y-98467769D01*
X150786497Y-98595056D01*
X150786501Y-98595065D01*
X150852391Y-98709189D01*
X150945577Y-98802375D01*
X151059705Y-98868267D01*
X151186996Y-98902374D01*
X151186997Y-98902375D01*
X151186999Y-98902375D01*
X151318785Y-98902375D01*
X151318785Y-98902374D01*
X151446077Y-98868267D01*
X151560205Y-98802375D01*
X151653391Y-98709189D01*
X151719283Y-98595061D01*
X151753390Y-98467769D01*
X151753391Y-98467769D01*
X151753391Y-98335981D01*
X151753390Y-98335980D01*
X151751899Y-98330417D01*
X151719283Y-98208689D01*
X151653391Y-98094561D01*
X151574204Y-98015374D01*
X151573378Y-98014492D01*
X151563798Y-97989035D01*
X151553391Y-97963909D01*
X151553391Y-96652231D01*
X151575064Y-96599906D01*
X152253264Y-95921705D01*
X152286438Y-95902554D01*
X152298169Y-95899411D01*
X152412297Y-95833519D01*
X152505483Y-95740333D01*
X152571375Y-95626205D01*
X152605482Y-95498913D01*
X152605483Y-95498913D01*
X152605483Y-95367125D01*
X152605482Y-95367124D01*
X152583215Y-95284023D01*
X152571375Y-95239833D01*
X152505483Y-95125705D01*
X152412297Y-95032519D01*
X152393142Y-95021460D01*
X152298173Y-94966629D01*
X152298164Y-94966625D01*
X152170877Y-94932519D01*
X152170875Y-94932519D01*
X152060106Y-94932519D01*
X152007780Y-94910845D01*
X151869266Y-94772331D01*
X151847592Y-94720005D01*
X151847592Y-92970432D01*
X151869266Y-92918106D01*
X151947592Y-92839780D01*
X151984650Y-92775592D01*
X152029582Y-92741116D01*
X152085735Y-92748508D01*
X152112821Y-92775594D01*
X152125920Y-92798282D01*
X152159842Y-92857036D01*
X152253028Y-92950222D01*
X152367156Y-93016114D01*
X152494447Y-93050221D01*
X152494448Y-93050222D01*
X152494450Y-93050222D01*
X152626236Y-93050222D01*
X152626236Y-93050221D01*
X152753528Y-93016114D01*
X152867656Y-92950222D01*
X152960842Y-92857036D01*
X153026734Y-92742908D01*
X153060841Y-92615616D01*
X153060842Y-92615616D01*
X153060842Y-92483828D01*
X153060841Y-92483827D01*
X153056217Y-92466571D01*
X153026734Y-92356536D01*
X152960842Y-92242408D01*
X152867656Y-92149222D01*
X152779869Y-92098538D01*
X152753532Y-92083332D01*
X152753523Y-92083328D01*
X152626236Y-92049222D01*
X152626234Y-92049222D01*
X152515465Y-92049222D01*
X152463139Y-92027548D01*
X151195131Y-90759540D01*
X151185686Y-90754087D01*
X151126610Y-90719979D01*
X151126605Y-90719977D01*
X151050184Y-90699500D01*
X151050182Y-90699500D01*
X149157966Y-90699500D01*
X149105640Y-90677826D01*
X149027314Y-90599500D01*
X148913190Y-90533610D01*
X148913181Y-90533606D01*
X148785894Y-90499500D01*
X148785892Y-90499500D01*
X148654108Y-90499500D01*
X148654106Y-90499500D01*
X148526818Y-90533606D01*
X148526809Y-90533610D01*
X148412685Y-90599500D01*
X148319500Y-90692685D01*
X148253610Y-90806809D01*
X148253606Y-90806818D01*
X148219500Y-90934105D01*
X148219500Y-91065894D01*
X148253606Y-91193181D01*
X148253607Y-91193184D01*
X148253608Y-91193186D01*
X148319500Y-91307314D01*
X148412686Y-91400500D01*
X148526814Y-91466392D01*
X148654105Y-91500499D01*
X148654106Y-91500500D01*
X148764877Y-91500500D01*
X148817203Y-91522174D01*
X149569939Y-92274910D01*
X149591613Y-92327236D01*
X149591613Y-96737990D01*
X149569939Y-96790316D01*
X149517613Y-96811990D01*
X149465287Y-96790316D01*
X148545776Y-95870805D01*
X148524102Y-95818479D01*
X148545776Y-95766153D01*
X148578946Y-95747002D01*
X148693186Y-95716392D01*
X148807314Y-95650500D01*
X148900500Y-95557314D01*
X148966392Y-95443186D01*
X149000499Y-95315894D01*
X149000500Y-95315894D01*
X149000500Y-95184106D01*
X149000499Y-95184105D01*
X148996467Y-95169059D01*
X148966392Y-95056814D01*
X148900500Y-94942686D01*
X148807314Y-94849500D01*
X148740795Y-94811095D01*
X148693190Y-94783610D01*
X148693181Y-94783606D01*
X148565894Y-94749500D01*
X148565892Y-94749500D01*
X148455123Y-94749500D01*
X148402797Y-94727826D01*
X148072174Y-94397203D01*
X148050500Y-94344877D01*
X148050500Y-93759138D01*
X148072174Y-93706812D01*
X148087494Y-93695056D01*
X148164668Y-93650500D01*
X148257854Y-93557314D01*
X148323746Y-93443186D01*
X148357853Y-93315894D01*
X148357854Y-93315894D01*
X148357854Y-93184106D01*
X148357853Y-93184105D01*
X148323750Y-93056831D01*
X148323746Y-93056814D01*
X148257854Y-92942686D01*
X148164668Y-92849500D01*
X148104970Y-92815033D01*
X148050544Y-92783610D01*
X148050535Y-92783606D01*
X147923248Y-92749500D01*
X147923246Y-92749500D01*
X147791462Y-92749500D01*
X147791460Y-92749500D01*
X147664172Y-92783606D01*
X147664163Y-92783610D01*
X147550039Y-92849500D01*
X147456854Y-92942685D01*
X147390964Y-93056809D01*
X147390960Y-93056818D01*
X147356854Y-93184105D01*
X147356854Y-93315894D01*
X147390960Y-93443181D01*
X147390961Y-93443183D01*
X147390962Y-93443186D01*
X147390964Y-93443190D01*
X147439586Y-93527404D01*
X147449500Y-93564404D01*
X147449500Y-94539564D01*
X147469977Y-94615985D01*
X147469979Y-94615990D01*
X147509540Y-94684511D01*
X147977826Y-95152797D01*
X147999500Y-95205123D01*
X147999500Y-95315891D01*
X148010541Y-95357098D01*
X148003148Y-95413250D01*
X147958214Y-95447729D01*
X147939062Y-95450250D01*
X146187216Y-95450250D01*
X146134890Y-95428576D01*
X146056564Y-95350250D01*
X145942440Y-95284360D01*
X145942431Y-95284356D01*
X145815144Y-95250250D01*
X145815142Y-95250250D01*
X145683358Y-95250250D01*
X145683356Y-95250250D01*
X145556068Y-95284356D01*
X145556059Y-95284360D01*
X145441935Y-95350250D01*
X145348750Y-95443435D01*
X145282860Y-95557559D01*
X145282856Y-95557568D01*
X145248750Y-95684855D01*
X145248750Y-95816644D01*
X145282856Y-95943931D01*
X145282857Y-95943934D01*
X145282858Y-95943936D01*
X145348750Y-96058064D01*
X145441936Y-96151250D01*
X145556064Y-96217142D01*
X145683355Y-96251249D01*
X145683356Y-96251250D01*
X145683358Y-96251250D01*
X145815144Y-96251250D01*
X145815144Y-96251249D01*
X145942436Y-96217142D01*
X146056564Y-96151250D01*
X146134890Y-96072924D01*
X146187216Y-96051250D01*
X147845627Y-96051250D01*
X147897953Y-96072924D01*
X149369939Y-97544910D01*
X149391613Y-97597236D01*
X149391613Y-97686989D01*
X149369939Y-97739315D01*
X148315489Y-98793766D01*
X148259540Y-98849714D01*
X148219979Y-98918235D01*
X148219977Y-98918240D01*
X148199500Y-98994661D01*
X148199500Y-102062034D01*
X148177826Y-102114360D01*
X148099500Y-102192685D01*
X148033610Y-102306809D01*
X148033606Y-102306818D01*
X147999500Y-102434105D01*
X147999500Y-102434108D01*
X147999500Y-102565892D01*
X148017752Y-102634009D01*
X148027995Y-102672238D01*
X148020602Y-102728390D01*
X147975668Y-102762869D01*
X147919516Y-102755476D01*
X147904190Y-102743716D01*
X147619276Y-102458802D01*
X147597602Y-102406476D01*
X147597602Y-98194337D01*
X147597601Y-98194336D01*
X147577124Y-98117915D01*
X147577122Y-98117910D01*
X147537561Y-98049389D01*
X147208923Y-97720751D01*
X147187249Y-97668425D01*
X147187249Y-97557654D01*
X147187248Y-97557653D01*
X147158116Y-97448931D01*
X147153141Y-97430362D01*
X147087249Y-97316234D01*
X146994063Y-97223048D01*
X146961326Y-97204147D01*
X146879939Y-97157158D01*
X146879930Y-97157154D01*
X146752643Y-97123048D01*
X146752641Y-97123048D01*
X146620857Y-97123048D01*
X146620855Y-97123048D01*
X146493567Y-97157154D01*
X146493558Y-97157158D01*
X146379434Y-97223048D01*
X146286249Y-97316233D01*
X146220359Y-97430357D01*
X146220355Y-97430366D01*
X146186249Y-97557653D01*
X146186249Y-97689442D01*
X146220355Y-97816729D01*
X146220359Y-97816738D01*
X146231078Y-97835303D01*
X146286249Y-97930862D01*
X146379435Y-98024048D01*
X146493563Y-98089940D01*
X146620854Y-98124047D01*
X146620855Y-98124048D01*
X146731626Y-98124048D01*
X146783952Y-98145722D01*
X146974928Y-98336698D01*
X146996602Y-98389024D01*
X146996602Y-100801306D01*
X146974928Y-100853632D01*
X146922602Y-100875306D01*
X146885604Y-100865393D01*
X146872405Y-100857773D01*
X146872401Y-100857771D01*
X146872399Y-100857770D01*
X146872397Y-100857769D01*
X146872394Y-100857768D01*
X146745107Y-100823662D01*
X146745105Y-100823662D01*
X146613321Y-100823662D01*
X146613319Y-100823662D01*
X146486031Y-100857768D01*
X146486022Y-100857772D01*
X146371898Y-100923662D01*
X146367735Y-100927826D01*
X146315409Y-100949500D01*
X145715123Y-100949500D01*
X145662797Y-100927826D01*
X141373452Y-96638481D01*
X141351778Y-96586155D01*
X141357411Y-96557836D01*
X141398952Y-96457547D01*
X141420130Y-96406420D01*
X141460500Y-96203465D01*
X141460500Y-95996535D01*
X141420130Y-95793580D01*
X141340941Y-95602402D01*
X141225977Y-95430345D01*
X141079655Y-95284023D01*
X141074912Y-95280854D01*
X140907598Y-95169059D01*
X140716420Y-95089870D01*
X140716414Y-95089868D01*
X140530689Y-95052926D01*
X140483597Y-95021460D01*
X140472548Y-94965911D01*
X140504014Y-94918819D01*
X140533550Y-94907259D01*
X140726123Y-94876758D01*
X140726136Y-94876755D01*
X140928217Y-94811095D01*
X140928221Y-94811093D01*
X141117554Y-94714623D01*
X141117561Y-94714618D01*
X141171716Y-94675270D01*
X141171717Y-94675270D01*
X140539409Y-94042962D01*
X140602993Y-94025925D01*
X140717007Y-93960099D01*
X140810099Y-93867007D01*
X140875925Y-93752993D01*
X140892962Y-93689409D01*
X141525270Y-94321717D01*
X141525270Y-94321716D01*
X141564618Y-94267561D01*
X141564623Y-94267554D01*
X141661093Y-94078221D01*
X141661095Y-94078217D01*
X141726755Y-93876136D01*
X141726758Y-93876123D01*
X141760000Y-93666248D01*
X141760000Y-93453751D01*
X141726758Y-93243876D01*
X141726755Y-93243863D01*
X141661095Y-93041782D01*
X141661093Y-93041778D01*
X141564624Y-92852449D01*
X141564625Y-92852449D01*
X141525269Y-92798282D01*
X140892962Y-93430590D01*
X140875925Y-93367007D01*
X140810099Y-93252993D01*
X140717007Y-93159901D01*
X140602993Y-93094075D01*
X140539407Y-93077037D01*
X141171716Y-92444728D01*
X141117556Y-92405378D01*
X141117550Y-92405375D01*
X140928221Y-92308906D01*
X140928217Y-92308904D01*
X140726136Y-92243244D01*
X140726125Y-92243242D01*
X140533549Y-92212740D01*
X140485259Y-92183147D01*
X140472037Y-92128074D01*
X140501630Y-92079784D01*
X140530686Y-92067074D01*
X140716420Y-92030130D01*
X140907598Y-91950941D01*
X141079655Y-91835977D01*
X141225977Y-91689655D01*
X141340941Y-91517598D01*
X141420130Y-91326420D01*
X141460500Y-91123465D01*
X141460500Y-90916535D01*
X141420130Y-90713580D01*
X141340941Y-90522402D01*
X141225977Y-90350345D01*
X141079655Y-90204023D01*
X141074912Y-90200854D01*
X140907598Y-90089059D01*
X140716420Y-90009870D01*
X140716413Y-90009868D01*
X140563516Y-89979455D01*
X140513465Y-89969500D01*
X140306535Y-89969500D01*
X140266385Y-89977486D01*
X140103586Y-90009868D01*
X140103579Y-90009870D01*
X139912401Y-90089059D01*
X139740345Y-90204022D01*
X139740344Y-90204024D01*
X139594024Y-90350344D01*
X139594022Y-90350345D01*
X139479059Y-90522401D01*
X139399870Y-90713579D01*
X139399868Y-90713586D01*
X139359500Y-90916535D01*
X139359500Y-91123464D01*
X139399868Y-91326413D01*
X139399870Y-91326420D01*
X139479059Y-91517598D01*
X139591905Y-91686486D01*
X139594023Y-91689655D01*
X139740345Y-91835977D01*
X139912402Y-91950941D01*
X140103580Y-92030130D01*
X140289310Y-92067073D01*
X140336402Y-92098538D01*
X140347451Y-92154087D01*
X140315986Y-92201180D01*
X140286450Y-92212740D01*
X140093874Y-92243242D01*
X140093863Y-92243244D01*
X139891785Y-92308903D01*
X139702450Y-92405374D01*
X139648282Y-92444729D01*
X140280590Y-93077037D01*
X140217007Y-93094075D01*
X140102993Y-93159901D01*
X140009901Y-93252993D01*
X139944075Y-93367007D01*
X139927037Y-93430590D01*
X139294729Y-92798282D01*
X139294728Y-92798282D01*
X139259367Y-92846953D01*
X139211076Y-92876546D01*
X139156004Y-92863324D01*
X139126411Y-92815033D01*
X139125500Y-92803457D01*
X139125500Y-88376535D01*
X139359500Y-88376535D01*
X139359500Y-88583464D01*
X139399868Y-88786413D01*
X139399870Y-88786420D01*
X139479059Y-88977598D01*
X139591905Y-89146486D01*
X139594023Y-89149655D01*
X139740345Y-89295977D01*
X139912402Y-89410941D01*
X140103580Y-89490130D01*
X140306535Y-89530500D01*
X140306536Y-89530500D01*
X140513464Y-89530500D01*
X140513465Y-89530500D01*
X140716420Y-89490130D01*
X140907598Y-89410941D01*
X141079655Y-89295977D01*
X141225977Y-89149655D01*
X141340941Y-88977598D01*
X141420130Y-88786420D01*
X141460500Y-88583465D01*
X141460500Y-88376535D01*
X141420130Y-88173580D01*
X141340941Y-87982402D01*
X141225977Y-87810345D01*
X141079655Y-87664023D01*
X141074912Y-87660854D01*
X140907598Y-87549059D01*
X140716420Y-87469870D01*
X140716413Y-87469868D01*
X140563516Y-87439455D01*
X140513465Y-87429500D01*
X140306535Y-87429500D01*
X140266385Y-87437486D01*
X140103586Y-87469868D01*
X140103579Y-87469870D01*
X139912401Y-87549059D01*
X139740345Y-87664022D01*
X139740344Y-87664024D01*
X139594024Y-87810344D01*
X139594022Y-87810345D01*
X139479059Y-87982401D01*
X139399870Y-88173579D01*
X139399868Y-88173586D01*
X139359500Y-88376535D01*
X139125500Y-88376535D01*
X139125500Y-85836535D01*
X139359500Y-85836535D01*
X139359500Y-86043465D01*
X139362255Y-86057314D01*
X139399868Y-86246413D01*
X139399870Y-86246420D01*
X139479059Y-86437598D01*
X139591905Y-86606486D01*
X139594023Y-86609655D01*
X139740345Y-86755977D01*
X139912402Y-86870941D01*
X140103580Y-86950130D01*
X140306535Y-86990500D01*
X140306536Y-86990500D01*
X140513464Y-86990500D01*
X140513465Y-86990500D01*
X140716420Y-86950130D01*
X140907598Y-86870941D01*
X141079655Y-86755977D01*
X141214027Y-86621605D01*
X148199500Y-86621605D01*
X148199500Y-86753394D01*
X148233606Y-86880681D01*
X148233610Y-86880690D01*
X148273702Y-86950131D01*
X148299500Y-86994814D01*
X148392686Y-87088000D01*
X148506814Y-87153892D01*
X148634105Y-87187999D01*
X148634106Y-87188000D01*
X148634108Y-87188000D01*
X148765894Y-87188000D01*
X148765894Y-87187999D01*
X148893186Y-87153892D01*
X149007314Y-87088000D01*
X149100500Y-86994814D01*
X149166392Y-86880686D01*
X149200499Y-86753394D01*
X149200500Y-86753394D01*
X149200500Y-86642622D01*
X149222174Y-86590296D01*
X149740297Y-86072174D01*
X149792623Y-86050500D01*
X153562034Y-86050500D01*
X153614360Y-86072174D01*
X153692686Y-86150500D01*
X153806814Y-86216392D01*
X153934105Y-86250499D01*
X153934106Y-86250500D01*
X153934108Y-86250500D01*
X154065894Y-86250500D01*
X154065894Y-86250499D01*
X154193186Y-86216392D01*
X154307314Y-86150500D01*
X154400500Y-86057314D01*
X154466392Y-85943186D01*
X154500499Y-85815894D01*
X154500500Y-85815894D01*
X154500500Y-85684106D01*
X154500499Y-85684105D01*
X154466393Y-85556818D01*
X154466392Y-85556814D01*
X154400500Y-85442686D01*
X154307314Y-85349500D01*
X154297926Y-85344080D01*
X154193190Y-85283610D01*
X154193181Y-85283606D01*
X154065894Y-85249500D01*
X154065892Y-85249500D01*
X153934108Y-85249500D01*
X153934106Y-85249500D01*
X153806818Y-85283606D01*
X153806809Y-85283610D01*
X153692685Y-85349500D01*
X153614360Y-85427826D01*
X153562034Y-85449500D01*
X149597936Y-85449500D01*
X149521514Y-85469977D01*
X149521509Y-85469979D01*
X149462434Y-85504087D01*
X149452988Y-85509540D01*
X148797202Y-86165326D01*
X148744876Y-86187000D01*
X148634106Y-86187000D01*
X148506818Y-86221106D01*
X148506809Y-86221110D01*
X148392685Y-86287000D01*
X148299500Y-86380185D01*
X148233610Y-86494309D01*
X148233606Y-86494318D01*
X148199500Y-86621605D01*
X141214027Y-86621605D01*
X141225977Y-86609655D01*
X141340941Y-86437598D01*
X141420130Y-86246420D01*
X141460500Y-86043465D01*
X141460500Y-85836535D01*
X141420130Y-85633580D01*
X141340941Y-85442402D01*
X141225977Y-85270345D01*
X141079655Y-85124023D01*
X141074912Y-85120854D01*
X140907598Y-85009059D01*
X140716420Y-84929870D01*
X140716413Y-84929868D01*
X140563516Y-84899455D01*
X140513465Y-84889500D01*
X140306535Y-84889500D01*
X140266385Y-84897486D01*
X140103586Y-84929868D01*
X140103579Y-84929870D01*
X139912401Y-85009059D01*
X139740345Y-85124022D01*
X139740344Y-85124024D01*
X139594024Y-85270344D01*
X139594022Y-85270345D01*
X139479059Y-85442401D01*
X139399870Y-85633579D01*
X139399868Y-85633586D01*
X139389819Y-85684108D01*
X139359500Y-85836535D01*
X139125500Y-85836535D01*
X139125500Y-81616541D01*
X139147174Y-81564215D01*
X139199500Y-81542541D01*
X139251826Y-81564215D01*
X139259367Y-81573045D01*
X139294728Y-81621716D01*
X139927037Y-80989407D01*
X139944075Y-81052993D01*
X140009901Y-81167007D01*
X140102993Y-81260099D01*
X140217007Y-81325925D01*
X140280590Y-81342962D01*
X139648282Y-81975270D01*
X139702449Y-82014624D01*
X139891778Y-82111093D01*
X139891782Y-82111095D01*
X140093863Y-82176755D01*
X140093876Y-82176758D01*
X140286449Y-82207259D01*
X140334740Y-82236852D01*
X140347962Y-82291924D01*
X140318369Y-82340215D01*
X140289310Y-82352926D01*
X140103585Y-82389868D01*
X140103579Y-82389870D01*
X139912401Y-82469059D01*
X139740345Y-82584022D01*
X139740344Y-82584024D01*
X139594024Y-82730344D01*
X139594022Y-82730345D01*
X139479059Y-82902401D01*
X139399870Y-83093579D01*
X139399868Y-83093586D01*
X139359500Y-83296535D01*
X139359500Y-83503464D01*
X139399868Y-83706413D01*
X139399870Y-83706420D01*
X139479059Y-83897598D01*
X139591905Y-84066486D01*
X139594023Y-84069655D01*
X139740345Y-84215977D01*
X139912402Y-84330941D01*
X140103580Y-84410130D01*
X140306535Y-84450500D01*
X140306536Y-84450500D01*
X140513464Y-84450500D01*
X140513465Y-84450500D01*
X140716420Y-84410130D01*
X140907598Y-84330941D01*
X141079655Y-84215977D01*
X141225977Y-84069655D01*
X141340941Y-83897598D01*
X141420130Y-83706420D01*
X141460500Y-83503465D01*
X141460500Y-83296535D01*
X141446023Y-83223756D01*
X149604532Y-83223756D01*
X149604532Y-83355545D01*
X149638638Y-83482832D01*
X149638642Y-83482841D01*
X149665933Y-83530110D01*
X149704532Y-83596965D01*
X149797718Y-83690151D01*
X149911846Y-83756043D01*
X150039137Y-83790150D01*
X150039138Y-83790151D01*
X150039140Y-83790151D01*
X150170926Y-83790151D01*
X150170926Y-83790150D01*
X150298218Y-83756043D01*
X150412346Y-83690151D01*
X150490672Y-83611825D01*
X150542998Y-83590151D01*
X151249913Y-83590151D01*
X151249913Y-83590150D01*
X151326338Y-83569672D01*
X151394860Y-83530111D01*
X151450809Y-83474162D01*
X152152796Y-82772173D01*
X152205122Y-82750500D01*
X152315894Y-82750500D01*
X152315894Y-82750499D01*
X152443186Y-82716392D01*
X152557314Y-82650500D01*
X152650500Y-82557314D01*
X152716392Y-82443186D01*
X152750499Y-82315894D01*
X152750500Y-82315894D01*
X152750500Y-82184106D01*
X152750499Y-82184105D01*
X152748530Y-82176758D01*
X152716392Y-82056814D01*
X152650500Y-81942686D01*
X152557314Y-81849500D01*
X152443190Y-81783610D01*
X152443181Y-81783606D01*
X152315894Y-81749500D01*
X152315892Y-81749500D01*
X152184108Y-81749500D01*
X152184106Y-81749500D01*
X152056818Y-81783606D01*
X152056809Y-81783610D01*
X151942685Y-81849500D01*
X151849500Y-81942685D01*
X151783610Y-82056809D01*
X151783606Y-82056818D01*
X151749500Y-82184105D01*
X151749500Y-82294876D01*
X151727826Y-82347202D01*
X151107552Y-82967477D01*
X151055226Y-82989151D01*
X150542998Y-82989151D01*
X150490672Y-82967477D01*
X150412346Y-82889151D01*
X150298222Y-82823261D01*
X150298213Y-82823257D01*
X150170926Y-82789151D01*
X150170924Y-82789151D01*
X150039140Y-82789151D01*
X150039138Y-82789151D01*
X149911850Y-82823257D01*
X149911841Y-82823261D01*
X149797717Y-82889151D01*
X149704532Y-82982336D01*
X149638642Y-83096460D01*
X149638638Y-83096469D01*
X149604532Y-83223756D01*
X141446023Y-83223756D01*
X141420131Y-83093585D01*
X141420130Y-83093584D01*
X141420130Y-83093580D01*
X141340941Y-82902402D01*
X141225977Y-82730345D01*
X141079655Y-82584023D01*
X141074912Y-82580854D01*
X140907598Y-82469059D01*
X140716420Y-82389870D01*
X140716414Y-82389868D01*
X140530689Y-82352926D01*
X140483597Y-82321460D01*
X140472548Y-82265911D01*
X140504014Y-82218819D01*
X140533550Y-82207259D01*
X140726123Y-82176758D01*
X140726136Y-82176755D01*
X140928217Y-82111095D01*
X140928221Y-82111093D01*
X141117554Y-82014623D01*
X141117561Y-82014618D01*
X141171716Y-81975270D01*
X141171717Y-81975270D01*
X140539409Y-81342962D01*
X140602993Y-81325925D01*
X140717007Y-81260099D01*
X140810099Y-81167007D01*
X140875925Y-81052993D01*
X140892962Y-80989409D01*
X141525270Y-81621717D01*
X141525270Y-81621716D01*
X141564618Y-81567561D01*
X141564623Y-81567554D01*
X141661093Y-81378221D01*
X141661095Y-81378217D01*
X141726755Y-81176136D01*
X141726758Y-81176123D01*
X141760000Y-80966248D01*
X141760000Y-80753751D01*
X141726758Y-80543876D01*
X141726755Y-80543863D01*
X141661095Y-80341782D01*
X141661093Y-80341778D01*
X141564624Y-80152449D01*
X141564625Y-80152449D01*
X141525269Y-80098282D01*
X140892962Y-80730590D01*
X140875925Y-80667007D01*
X140810099Y-80552993D01*
X140717007Y-80459901D01*
X140602993Y-80394075D01*
X140539407Y-80377036D01*
X140969423Y-79947022D01*
X141171716Y-79744728D01*
X141117556Y-79705378D01*
X141117550Y-79705375D01*
X140928221Y-79608906D01*
X140928217Y-79608904D01*
X140726136Y-79543244D01*
X140726125Y-79543242D01*
X140533549Y-79512740D01*
X140485259Y-79483147D01*
X140472037Y-79428074D01*
X140501630Y-79379784D01*
X140530686Y-79367074D01*
X140716420Y-79330130D01*
X140907598Y-79250941D01*
X141079655Y-79135977D01*
X141084123Y-79131509D01*
X144430000Y-79131509D01*
X144430000Y-79530000D01*
X145130000Y-79530000D01*
X145130000Y-80030000D01*
X144430000Y-80030000D01*
X144430000Y-80428490D01*
X144468427Y-80621682D01*
X144468430Y-80621693D01*
X144543809Y-80803675D01*
X144653246Y-80967459D01*
X144792540Y-81106753D01*
X144956324Y-81216190D01*
X145138306Y-81291569D01*
X145138317Y-81291572D01*
X145179999Y-81299863D01*
X145180000Y-81299863D01*
X145180000Y-80496988D01*
X145189940Y-80514205D01*
X145245795Y-80570060D01*
X145314204Y-80609556D01*
X145390504Y-80630000D01*
X145469496Y-80630000D01*
X145545796Y-80609556D01*
X145614205Y-80570060D01*
X145670060Y-80514205D01*
X145680000Y-80496988D01*
X145680000Y-81299863D01*
X145721682Y-81291572D01*
X145721693Y-81291569D01*
X145903675Y-81216190D01*
X146067459Y-81106753D01*
X146206753Y-80967459D01*
X146316190Y-80803675D01*
X146391569Y-80621693D01*
X146391572Y-80621682D01*
X146430000Y-80428490D01*
X146430000Y-80030000D01*
X145730000Y-80030000D01*
X145730000Y-79530000D01*
X146314404Y-79530000D01*
X146366730Y-79551674D01*
X146378488Y-79566997D01*
X146399485Y-79603365D01*
X146506635Y-79710515D01*
X146637865Y-79786281D01*
X146784231Y-79825499D01*
X146784232Y-79825500D01*
X146784234Y-79825500D01*
X146935768Y-79825500D01*
X146935768Y-79825499D01*
X147082135Y-79786281D01*
X147213365Y-79710515D01*
X147320515Y-79603365D01*
X147396281Y-79472135D01*
X147435499Y-79325768D01*
X147435500Y-79325768D01*
X147435500Y-79174232D01*
X147435499Y-79174231D01*
X152064500Y-79174231D01*
X152064500Y-79325768D01*
X152103717Y-79472130D01*
X152103721Y-79472139D01*
X152179483Y-79603362D01*
X152179485Y-79603365D01*
X152286635Y-79710515D01*
X152417865Y-79786281D01*
X152564231Y-79825499D01*
X152564232Y-79825500D01*
X152564234Y-79825500D01*
X152715768Y-79825500D01*
X152715768Y-79825499D01*
X152862135Y-79786281D01*
X152993365Y-79710515D01*
X153100515Y-79603365D01*
X153121510Y-79566999D01*
X153166443Y-79532522D01*
X153185596Y-79530000D01*
X153770000Y-79530000D01*
X153770000Y-80030000D01*
X153070000Y-80030000D01*
X153070000Y-80428490D01*
X153108427Y-80621682D01*
X153108430Y-80621693D01*
X153183809Y-80803675D01*
X153293246Y-80967459D01*
X153432540Y-81106753D01*
X153596324Y-81216190D01*
X153778306Y-81291569D01*
X153778317Y-81291572D01*
X153819999Y-81299863D01*
X153820000Y-81299863D01*
X153820000Y-80496988D01*
X153829940Y-80514205D01*
X153885795Y-80570060D01*
X153954204Y-80609556D01*
X154030504Y-80630000D01*
X154109496Y-80630000D01*
X154185796Y-80609556D01*
X154254205Y-80570060D01*
X154310060Y-80514205D01*
X154320000Y-80496988D01*
X154320000Y-81299863D01*
X154361682Y-81291572D01*
X154361693Y-81291569D01*
X154543675Y-81216190D01*
X154707459Y-81106753D01*
X154846753Y-80967459D01*
X154956190Y-80803675D01*
X155031569Y-80621693D01*
X155031572Y-80621682D01*
X155070000Y-80428490D01*
X155070000Y-80030000D01*
X154370000Y-80030000D01*
X154370000Y-79530000D01*
X155070000Y-79530000D01*
X155070000Y-79131509D01*
X155031572Y-78938317D01*
X155031569Y-78938306D01*
X154956190Y-78756324D01*
X154846753Y-78592540D01*
X154707459Y-78453246D01*
X154543675Y-78343809D01*
X154361691Y-78268429D01*
X154361684Y-78268427D01*
X154320000Y-78260136D01*
X154320000Y-79063011D01*
X154310060Y-79045795D01*
X154254205Y-78989940D01*
X154185796Y-78950444D01*
X154109496Y-78930000D01*
X154030504Y-78930000D01*
X153954204Y-78950444D01*
X153885795Y-78989940D01*
X153829940Y-79045795D01*
X153820000Y-79063011D01*
X153820000Y-78260136D01*
X153819999Y-78260136D01*
X153778315Y-78268427D01*
X153778308Y-78268429D01*
X153596324Y-78343809D01*
X153432540Y-78453246D01*
X153293246Y-78592540D01*
X153183811Y-78756321D01*
X153160698Y-78812120D01*
X153120648Y-78852168D01*
X153064011Y-78852167D01*
X153040008Y-78836128D01*
X152993365Y-78789485D01*
X152935924Y-78756321D01*
X152862139Y-78713721D01*
X152862130Y-78713717D01*
X152715768Y-78674500D01*
X152715766Y-78674500D01*
X152564234Y-78674500D01*
X152564232Y-78674500D01*
X152417869Y-78713717D01*
X152417860Y-78713721D01*
X152286637Y-78789483D01*
X152179483Y-78896637D01*
X152103721Y-79027860D01*
X152103717Y-79027869D01*
X152064500Y-79174231D01*
X147435499Y-79174231D01*
X147396282Y-79027869D01*
X147396281Y-79027865D01*
X147320515Y-78896635D01*
X147213365Y-78789485D01*
X147155924Y-78756321D01*
X147082139Y-78713721D01*
X147082130Y-78713717D01*
X146935768Y-78674500D01*
X146935766Y-78674500D01*
X146784234Y-78674500D01*
X146784232Y-78674500D01*
X146637869Y-78713717D01*
X146637860Y-78713721D01*
X146506636Y-78789484D01*
X146459992Y-78836127D01*
X146407666Y-78857800D01*
X146355340Y-78836125D01*
X146339300Y-78812118D01*
X146316190Y-78756324D01*
X146206753Y-78592540D01*
X146067459Y-78453246D01*
X145903675Y-78343809D01*
X145721691Y-78268429D01*
X145721684Y-78268427D01*
X145680000Y-78260136D01*
X145680000Y-79063011D01*
X145670060Y-79045795D01*
X145614205Y-78989940D01*
X145545796Y-78950444D01*
X145469496Y-78930000D01*
X145390504Y-78930000D01*
X145314204Y-78950444D01*
X145245795Y-78989940D01*
X145189940Y-79045795D01*
X145180000Y-79063011D01*
X145180000Y-78260136D01*
X145179999Y-78260136D01*
X145138315Y-78268427D01*
X145138308Y-78268429D01*
X144956324Y-78343809D01*
X144792540Y-78453246D01*
X144653246Y-78592540D01*
X144543809Y-78756324D01*
X144468430Y-78938306D01*
X144468427Y-78938317D01*
X144430000Y-79131509D01*
X141084123Y-79131509D01*
X141225977Y-78989655D01*
X141340941Y-78817598D01*
X141420130Y-78626420D01*
X141460500Y-78423465D01*
X141460500Y-78216535D01*
X141420130Y-78013580D01*
X141340941Y-77822402D01*
X141225977Y-77650345D01*
X141079655Y-77504023D01*
X141074912Y-77500854D01*
X140907598Y-77389059D01*
X140716420Y-77309870D01*
X140716413Y-77309868D01*
X140563516Y-77279455D01*
X140513465Y-77269500D01*
X140306535Y-77269500D01*
X140266385Y-77277486D01*
X140103586Y-77309868D01*
X140103579Y-77309870D01*
X139912401Y-77389059D01*
X139740345Y-77504022D01*
X139740344Y-77504024D01*
X139594024Y-77650344D01*
X139594022Y-77650345D01*
X139479059Y-77822401D01*
X139399870Y-78013579D01*
X139399868Y-78013586D01*
X139359500Y-78216535D01*
X139359500Y-78423464D01*
X139399868Y-78626413D01*
X139399870Y-78626420D01*
X139479059Y-78817598D01*
X139591905Y-78986486D01*
X139594023Y-78989655D01*
X139740345Y-79135977D01*
X139912402Y-79250941D01*
X140103580Y-79330130D01*
X140289310Y-79367073D01*
X140336402Y-79398538D01*
X140347451Y-79454087D01*
X140315986Y-79501180D01*
X140286450Y-79512740D01*
X140093874Y-79543242D01*
X140093863Y-79543244D01*
X139891785Y-79608903D01*
X139702450Y-79705374D01*
X139648282Y-79744729D01*
X140280591Y-80377037D01*
X140217007Y-80394075D01*
X140102993Y-80459901D01*
X140009901Y-80552993D01*
X139944075Y-80667007D01*
X139927037Y-80730590D01*
X139294729Y-80098282D01*
X139294728Y-80098282D01*
X139259367Y-80146953D01*
X139211076Y-80176546D01*
X139156004Y-80163324D01*
X139126411Y-80115033D01*
X139125500Y-80103457D01*
X139125500Y-74699500D01*
X139147174Y-74647174D01*
X139199500Y-74625500D01*
X139410881Y-74625500D01*
X139463207Y-74647174D01*
G37*
%TD.AperFunction*%
%TD*%
%TA.AperFunction,NonConductor*%
G36*
X157881021Y-79264240D02*
G01*
X158032441Y-79326961D01*
X158218171Y-79363904D01*
X158265263Y-79395369D01*
X158276312Y-79450918D01*
X158244847Y-79498011D01*
X158215311Y-79509571D01*
X158022735Y-79540073D01*
X158022724Y-79540075D01*
X157820643Y-79605735D01*
X157820639Y-79605737D01*
X157631310Y-79702206D01*
X157631303Y-79702210D01*
X157467341Y-79821335D01*
X157412269Y-79834557D01*
X157363978Y-79804964D01*
X157350756Y-79749892D01*
X157371517Y-79709144D01*
X157800380Y-79280281D01*
X157852705Y-79258608D01*
X157881021Y-79264240D01*
G37*
%TD.AperFunction*%
M02*
