%TF.GenerationSoftware,KiCad,Pcbnew,9.0.6*%
%TF.CreationDate,2025-12-02T19:28:56-05:00*%
%TF.ProjectId,DEVBOARD,44455642-4f41-4524-942e-6b696361645f,rev?*%
%TF.SameCoordinates,Original*%
%TF.FileFunction,Legend,Top*%
%TF.FilePolarity,Positive*%
%FSLAX46Y46*%
G04 Gerber Fmt 4.6, Leading zero omitted, Abs format (unit mm)*
G04 Created by KiCad (PCBNEW 9.0.6) date 2025-12-02 19:28:56*
%MOMM*%
%LPD*%
G01*
G04 APERTURE LIST*
%ADD10C,0.150000*%
%ADD11C,0.300000*%
%ADD12C,0.120000*%
%ADD13C,0.000000*%
G04 APERTURE END LIST*
D10*
X143166666Y-77454819D02*
X143166666Y-78169104D01*
X143166666Y-78169104D02*
X143119047Y-78311961D01*
X143119047Y-78311961D02*
X143023809Y-78407200D01*
X143023809Y-78407200D02*
X142880952Y-78454819D01*
X142880952Y-78454819D02*
X142785714Y-78454819D01*
X144166666Y-78454819D02*
X143595238Y-78454819D01*
X143880952Y-78454819D02*
X143880952Y-77454819D01*
X143880952Y-77454819D02*
X143785714Y-77597676D01*
X143785714Y-77597676D02*
X143690476Y-77692914D01*
X143690476Y-77692914D02*
X143595238Y-77740533D01*
X143163095Y-92704819D02*
X143163095Y-93514342D01*
X143163095Y-93514342D02*
X143210714Y-93609580D01*
X143210714Y-93609580D02*
X143258333Y-93657200D01*
X143258333Y-93657200D02*
X143353571Y-93704819D01*
X143353571Y-93704819D02*
X143544047Y-93704819D01*
X143544047Y-93704819D02*
X143639285Y-93657200D01*
X143639285Y-93657200D02*
X143686904Y-93609580D01*
X143686904Y-93609580D02*
X143734523Y-93514342D01*
X143734523Y-93514342D02*
X143734523Y-92704819D01*
X144639285Y-93038152D02*
X144639285Y-93704819D01*
X144401190Y-92657200D02*
X144163095Y-93371485D01*
X144163095Y-93371485D02*
X144782142Y-93371485D01*
X150454819Y-87011904D02*
X151264342Y-87011904D01*
X151264342Y-87011904D02*
X151359580Y-86964285D01*
X151359580Y-86964285D02*
X151407200Y-86916666D01*
X151407200Y-86916666D02*
X151454819Y-86821428D01*
X151454819Y-86821428D02*
X151454819Y-86630952D01*
X151454819Y-86630952D02*
X151407200Y-86535714D01*
X151407200Y-86535714D02*
X151359580Y-86488095D01*
X151359580Y-86488095D02*
X151264342Y-86440476D01*
X151264342Y-86440476D02*
X150454819Y-86440476D01*
X150550057Y-86011904D02*
X150502438Y-85964285D01*
X150502438Y-85964285D02*
X150454819Y-85869047D01*
X150454819Y-85869047D02*
X150454819Y-85630952D01*
X150454819Y-85630952D02*
X150502438Y-85535714D01*
X150502438Y-85535714D02*
X150550057Y-85488095D01*
X150550057Y-85488095D02*
X150645295Y-85440476D01*
X150645295Y-85440476D02*
X150740533Y-85440476D01*
X150740533Y-85440476D02*
X150883390Y-85488095D01*
X150883390Y-85488095D02*
X151454819Y-86059523D01*
X151454819Y-86059523D02*
X151454819Y-85440476D01*
X143166666Y-75204819D02*
X143166666Y-75919104D01*
X143166666Y-75919104D02*
X143119047Y-76061961D01*
X143119047Y-76061961D02*
X143023809Y-76157200D01*
X143023809Y-76157200D02*
X142880952Y-76204819D01*
X142880952Y-76204819D02*
X142785714Y-76204819D01*
X143595238Y-75300057D02*
X143642857Y-75252438D01*
X143642857Y-75252438D02*
X143738095Y-75204819D01*
X143738095Y-75204819D02*
X143976190Y-75204819D01*
X143976190Y-75204819D02*
X144071428Y-75252438D01*
X144071428Y-75252438D02*
X144119047Y-75300057D01*
X144119047Y-75300057D02*
X144166666Y-75395295D01*
X144166666Y-75395295D02*
X144166666Y-75490533D01*
X144166666Y-75490533D02*
X144119047Y-75633390D01*
X144119047Y-75633390D02*
X143547619Y-76204819D01*
X143547619Y-76204819D02*
X144166666Y-76204819D01*
X152416667Y-119657200D02*
X152559524Y-119704819D01*
X152559524Y-119704819D02*
X152797619Y-119704819D01*
X152797619Y-119704819D02*
X152892857Y-119657200D01*
X152892857Y-119657200D02*
X152940476Y-119609580D01*
X152940476Y-119609580D02*
X152988095Y-119514342D01*
X152988095Y-119514342D02*
X152988095Y-119419104D01*
X152988095Y-119419104D02*
X152940476Y-119323866D01*
X152940476Y-119323866D02*
X152892857Y-119276247D01*
X152892857Y-119276247D02*
X152797619Y-119228628D01*
X152797619Y-119228628D02*
X152607143Y-119181009D01*
X152607143Y-119181009D02*
X152511905Y-119133390D01*
X152511905Y-119133390D02*
X152464286Y-119085771D01*
X152464286Y-119085771D02*
X152416667Y-118990533D01*
X152416667Y-118990533D02*
X152416667Y-118895295D01*
X152416667Y-118895295D02*
X152464286Y-118800057D01*
X152464286Y-118800057D02*
X152511905Y-118752438D01*
X152511905Y-118752438D02*
X152607143Y-118704819D01*
X152607143Y-118704819D02*
X152845238Y-118704819D01*
X152845238Y-118704819D02*
X152988095Y-118752438D01*
X153321429Y-118704819D02*
X153559524Y-119704819D01*
X153559524Y-119704819D02*
X153750000Y-118990533D01*
X153750000Y-118990533D02*
X153940476Y-119704819D01*
X153940476Y-119704819D02*
X154178572Y-118704819D01*
X155083333Y-119704819D02*
X154511905Y-119704819D01*
X154797619Y-119704819D02*
X154797619Y-118704819D01*
X154797619Y-118704819D02*
X154702381Y-118847676D01*
X154702381Y-118847676D02*
X154607143Y-118942914D01*
X154607143Y-118942914D02*
X154511905Y-118990533D01*
X153724845Y-99437563D02*
X153724845Y-100247086D01*
X153724845Y-100247086D02*
X153772464Y-100342324D01*
X153772464Y-100342324D02*
X153820083Y-100389944D01*
X153820083Y-100389944D02*
X153915321Y-100437563D01*
X153915321Y-100437563D02*
X154105797Y-100437563D01*
X154105797Y-100437563D02*
X154201035Y-100389944D01*
X154201035Y-100389944D02*
X154248654Y-100342324D01*
X154248654Y-100342324D02*
X154296273Y-100247086D01*
X154296273Y-100247086D02*
X154296273Y-99437563D01*
X155296273Y-100437563D02*
X154724845Y-100437563D01*
X155010559Y-100437563D02*
X155010559Y-99437563D01*
X155010559Y-99437563D02*
X154915321Y-99580420D01*
X154915321Y-99580420D02*
X154820083Y-99675658D01*
X154820083Y-99675658D02*
X154724845Y-99723277D01*
X155166666Y-75204819D02*
X155166666Y-75919104D01*
X155166666Y-75919104D02*
X155119047Y-76061961D01*
X155119047Y-76061961D02*
X155023809Y-76157200D01*
X155023809Y-76157200D02*
X154880952Y-76204819D01*
X154880952Y-76204819D02*
X154785714Y-76204819D01*
X155547619Y-75204819D02*
X156166666Y-75204819D01*
X156166666Y-75204819D02*
X155833333Y-75585771D01*
X155833333Y-75585771D02*
X155976190Y-75585771D01*
X155976190Y-75585771D02*
X156071428Y-75633390D01*
X156071428Y-75633390D02*
X156119047Y-75681009D01*
X156119047Y-75681009D02*
X156166666Y-75776247D01*
X156166666Y-75776247D02*
X156166666Y-76014342D01*
X156166666Y-76014342D02*
X156119047Y-76109580D01*
X156119047Y-76109580D02*
X156071428Y-76157200D01*
X156071428Y-76157200D02*
X155976190Y-76204819D01*
X155976190Y-76204819D02*
X155690476Y-76204819D01*
X155690476Y-76204819D02*
X155595238Y-76157200D01*
X155595238Y-76157200D02*
X155547619Y-76109580D01*
X148273809Y-111728628D02*
X148273809Y-112204819D01*
X147940476Y-111204819D02*
X148273809Y-111728628D01*
X148273809Y-111728628D02*
X148607142Y-111204819D01*
X149464285Y-112204819D02*
X148892857Y-112204819D01*
X149178571Y-112204819D02*
X149178571Y-111204819D01*
X149178571Y-111204819D02*
X149083333Y-111347676D01*
X149083333Y-111347676D02*
X148988095Y-111442914D01*
X148988095Y-111442914D02*
X148892857Y-111490533D01*
D11*
X147928572Y-110499757D02*
X147785715Y-110428328D01*
X147785715Y-110428328D02*
X147571429Y-110428328D01*
X147571429Y-110428328D02*
X147357143Y-110499757D01*
X147357143Y-110499757D02*
X147214286Y-110642614D01*
X147214286Y-110642614D02*
X147142857Y-110785471D01*
X147142857Y-110785471D02*
X147071429Y-111071185D01*
X147071429Y-111071185D02*
X147071429Y-111285471D01*
X147071429Y-111285471D02*
X147142857Y-111571185D01*
X147142857Y-111571185D02*
X147214286Y-111714042D01*
X147214286Y-111714042D02*
X147357143Y-111856900D01*
X147357143Y-111856900D02*
X147571429Y-111928328D01*
X147571429Y-111928328D02*
X147714286Y-111928328D01*
X147714286Y-111928328D02*
X147928572Y-111856900D01*
X147928572Y-111856900D02*
X148000000Y-111785471D01*
X148000000Y-111785471D02*
X148000000Y-111285471D01*
X148000000Y-111285471D02*
X147714286Y-111285471D01*
X148857143Y-110428328D02*
X148857143Y-110785471D01*
X148500000Y-110642614D02*
X148857143Y-110785471D01*
X148857143Y-110785471D02*
X149214286Y-110642614D01*
X148642857Y-111071185D02*
X148857143Y-110785471D01*
X148857143Y-110785471D02*
X149071429Y-111071185D01*
X150000000Y-110428328D02*
X150000000Y-110785471D01*
X149642857Y-110642614D02*
X150000000Y-110785471D01*
X150000000Y-110785471D02*
X150357143Y-110642614D01*
X149785714Y-111071185D02*
X150000000Y-110785471D01*
X150000000Y-110785471D02*
X150214286Y-111071185D01*
X151142857Y-110428328D02*
X151142857Y-110785471D01*
X150785714Y-110642614D02*
X151142857Y-110785471D01*
X151142857Y-110785471D02*
X151500000Y-110642614D01*
X150928571Y-111071185D02*
X151142857Y-110785471D01*
X151142857Y-110785471D02*
X151357143Y-111071185D01*
D10*
X143994819Y-124083333D02*
X144709104Y-124083333D01*
X144709104Y-124083333D02*
X144851961Y-124130952D01*
X144851961Y-124130952D02*
X144947200Y-124226190D01*
X144947200Y-124226190D02*
X144994819Y-124369047D01*
X144994819Y-124369047D02*
X144994819Y-124464285D01*
X144328152Y-123178571D02*
X144994819Y-123178571D01*
X143947200Y-123416666D02*
X144661485Y-123654761D01*
X144661485Y-123654761D02*
X144661485Y-123035714D01*
D12*
%TO.C,C15*%
X147791190Y-109930324D02*
X147575518Y-109930324D01*
X147791190Y-110650324D02*
X147575518Y-110650324D01*
%TO.C,J1*%
X145050000Y-74650000D02*
X145050000Y-72750000D01*
X145050000Y-78550000D02*
X145050000Y-76550000D01*
X154450000Y-72750000D02*
X145050000Y-72750000D01*
X154450000Y-74650000D02*
X154450000Y-72750000D01*
X154450000Y-78550000D02*
X154450000Y-76550000D01*
%TO.C,U4*%
X146064432Y-91865000D02*
X148860000Y-91865000D01*
X148860000Y-94135000D02*
X145640000Y-94135000D01*
X145770000Y-91860000D02*
X145630000Y-91670000D01*
X145910000Y-91670000D01*
X145770000Y-91860000D01*
G36*
X145770000Y-91860000D02*
G01*
X145630000Y-91670000D01*
X145910000Y-91670000D01*
X145770000Y-91860000D01*
G37*
%TO.C,C6*%
X152200342Y-92177558D02*
X152200342Y-91961886D01*
X152920342Y-92177558D02*
X152920342Y-91961886D01*
%TO.C,C3*%
X143278441Y-100901264D02*
X143062769Y-100901264D01*
X143278441Y-101621264D02*
X143062769Y-101621264D01*
%TO.C,U2*%
X146190000Y-84990000D02*
X147190000Y-84990000D01*
X146190000Y-86510000D02*
X146190000Y-84990000D01*
X146240000Y-86510000D02*
X146190000Y-86510000D01*
X148140000Y-86510000D02*
X147360000Y-86510000D01*
X148310000Y-84990000D02*
X149310000Y-84990000D01*
X149310000Y-84990000D02*
X149310000Y-86510000D01*
X149310000Y-86510000D02*
X149260000Y-86510000D01*
X147700000Y-87290000D02*
X147370000Y-87050000D01*
X147700000Y-86810000D01*
X147700000Y-87290000D01*
G36*
X147700000Y-87290000D02*
G01*
X147370000Y-87050000D01*
X147700000Y-86810000D01*
X147700000Y-87290000D01*
G37*
%TO.C,C11*%
X151187092Y-92160302D02*
X151187092Y-91944630D01*
X151907092Y-92160302D02*
X151907092Y-91944630D01*
%TO.C,C10*%
X151744983Y-95060855D02*
X151744983Y-94845183D01*
X152464983Y-95060855D02*
X152464983Y-94845183D01*
%TO.C,C12*%
X152026750Y-106374908D02*
X152026750Y-106590580D01*
X152746750Y-106374908D02*
X152746750Y-106590580D01*
%TO.C,R4*%
X150606750Y-94829103D02*
X150606750Y-95136385D01*
X151366750Y-94829103D02*
X151366750Y-95136385D01*
%TO.C,J2*%
X139030000Y-74400000D02*
X140410000Y-74400000D01*
X139030000Y-75780000D02*
X139030000Y-74400000D01*
X139030000Y-77050000D02*
X139030000Y-125420000D01*
X139030000Y-77050000D02*
X141790000Y-77050000D01*
X139030000Y-125420000D02*
X141790000Y-125420000D01*
X141790000Y-77050000D02*
X141790000Y-125420000D01*
%TO.C,R3*%
X149606750Y-94829103D02*
X149606750Y-95136385D01*
X150366750Y-94829103D02*
X150366750Y-95136385D01*
%TO.C,C1*%
X154596948Y-95805452D02*
X154812620Y-95805452D01*
X154596948Y-96525452D02*
X154812620Y-96525452D01*
%TO.C,R6*%
X149403641Y-120620000D02*
X149096359Y-120620000D01*
X149403641Y-121380000D02*
X149096359Y-121380000D01*
%TO.C,SW1*%
X147080000Y-117180000D02*
X151220000Y-117180000D01*
X147080000Y-117480000D02*
X147080000Y-117180000D01*
X147080000Y-120320000D02*
X147080000Y-120020000D01*
X151220000Y-117180000D02*
X151220000Y-117480000D01*
X151220000Y-120020000D02*
X151220000Y-120320000D01*
X151220000Y-120320000D02*
X147080000Y-120320000D01*
%TO.C,U1*%
X145576750Y-96572744D02*
X146226750Y-96572744D01*
X145576750Y-97222744D02*
X145576750Y-96572744D01*
X145576750Y-103792744D02*
X145576750Y-103142744D01*
X146226750Y-103792744D02*
X145576750Y-103792744D01*
X152146750Y-96572744D02*
X152796750Y-96572744D01*
X152796750Y-96572744D02*
X152796750Y-97222744D01*
X152796750Y-103142744D02*
X152796750Y-103792744D01*
X152796750Y-103792744D02*
X152146750Y-103792744D01*
X145046750Y-97582744D02*
X144716750Y-97822744D01*
X144716750Y-97342744D01*
X145046750Y-97582744D01*
G36*
X145046750Y-97582744D02*
G01*
X144716750Y-97822744D01*
X144716750Y-97342744D01*
X145046750Y-97582744D01*
G37*
%TO.C,J3*%
X156958861Y-74396831D02*
X158338861Y-74396831D01*
X156958861Y-75776831D02*
X156958861Y-74396831D01*
X156958861Y-77046831D02*
X156958861Y-125416831D01*
X156958861Y-77046831D02*
X159718861Y-77046831D01*
X156958861Y-125416831D02*
X159718861Y-125416831D01*
X159718861Y-77046831D02*
X159718861Y-125416831D01*
%TO.C,Y1*%
X150696750Y-106272744D02*
X146576750Y-106272744D01*
X150696750Y-109692744D02*
X150696750Y-106272744D01*
%TO.C,C4*%
X145377836Y-95390000D02*
X145162164Y-95390000D01*
X145377836Y-96110000D02*
X145162164Y-96110000D01*
%TO.C,R2*%
X148529748Y-83636213D02*
X148529748Y-83943495D01*
X149289748Y-83636213D02*
X149289748Y-83943495D01*
%TO.C,C17*%
X148347836Y-90640000D02*
X148132164Y-90640000D01*
X148347836Y-91360000D02*
X148132164Y-91360000D01*
%TO.C,C13*%
X144740000Y-84359420D02*
X144740000Y-84640580D01*
X145760000Y-84359420D02*
X145760000Y-84640580D01*
D13*
%TO.C,G\u002A\u002A\u002A*%
G36*
X149234993Y-103473460D02*
G01*
X149771938Y-103541929D01*
X150249440Y-103602822D01*
X150642958Y-103653009D01*
X150927950Y-103689360D01*
X151079876Y-103708745D01*
X151098121Y-103711077D01*
X151109484Y-103787869D01*
X151101998Y-103972744D01*
X151098121Y-104018683D01*
X151070333Y-104322699D01*
X152407346Y-104759516D01*
X153744360Y-105196333D01*
X155095279Y-107059000D01*
X156446197Y-108921666D01*
X156446432Y-111303749D01*
X156446666Y-113685831D01*
X155109893Y-115537082D01*
X153773120Y-117388333D01*
X151538511Y-118123973D01*
X150766718Y-118373580D01*
X150132350Y-118569163D01*
X149640395Y-118709317D01*
X149295838Y-118792638D01*
X149103668Y-118817721D01*
X149083882Y-118815609D01*
X148965365Y-118805928D01*
X148871980Y-118852878D01*
X148776629Y-118986380D01*
X148652215Y-119236353D01*
X148599951Y-119349969D01*
X148336039Y-119928333D01*
X148380805Y-119248383D01*
X148425570Y-118568433D01*
X148008974Y-118434344D01*
X149080666Y-118434344D01*
X149099644Y-118489063D01*
X149167115Y-118515395D01*
X149298890Y-118509558D01*
X149510778Y-118467770D01*
X149818587Y-118386248D01*
X150238128Y-118261211D01*
X150785208Y-118088877D01*
X151475638Y-117865463D01*
X151522645Y-117850130D01*
X153610333Y-117168927D01*
X154626333Y-115760654D01*
X154958232Y-115299520D01*
X155278277Y-114852874D01*
X155564976Y-114450855D01*
X155796840Y-114123602D01*
X155952379Y-113901257D01*
X155959833Y-113890429D01*
X156277333Y-113428478D01*
X156277333Y-111293646D01*
X156277333Y-109158814D01*
X156044500Y-108818726D01*
X155926238Y-108649405D01*
X155727293Y-108368373D01*
X155465960Y-108001309D01*
X155160538Y-107573895D01*
X154829322Y-107111812D01*
X154711000Y-106947077D01*
X153610333Y-105415515D01*
X152340333Y-105003594D01*
X151854845Y-104848396D01*
X151505956Y-104743822D01*
X151270298Y-104684963D01*
X151124502Y-104666910D01*
X151045198Y-104684755D01*
X151012533Y-104724669D01*
X150987662Y-104839592D01*
X150947458Y-105093198D01*
X150895012Y-105460400D01*
X150833415Y-105916111D01*
X150765759Y-106435243D01*
X150695133Y-106992709D01*
X150624629Y-107563421D01*
X150557337Y-108122293D01*
X150496348Y-108644236D01*
X150444753Y-109104164D01*
X150405643Y-109476989D01*
X150382109Y-109737623D01*
X150377242Y-109860980D01*
X150378965Y-109867187D01*
X150470405Y-109885910D01*
X150700076Y-109915455D01*
X151037477Y-109952363D01*
X151452108Y-109993175D01*
X151652243Y-110011577D01*
X152092852Y-110054025D01*
X152471166Y-110095756D01*
X152756198Y-110132943D01*
X152916963Y-110161755D01*
X152940279Y-110170723D01*
X152913675Y-110253786D01*
X152819752Y-110475015D01*
X152665095Y-110820219D01*
X152456288Y-111275209D01*
X152199918Y-111825797D01*
X151902570Y-112457792D01*
X151570828Y-113157005D01*
X151211278Y-113909247D01*
X151034219Y-114277786D01*
X150662406Y-115052203D01*
X150313763Y-115781798D01*
X149995073Y-116452138D01*
X149713115Y-117048796D01*
X149474674Y-117557339D01*
X149286531Y-117963340D01*
X149155468Y-118252366D01*
X149088267Y-118409988D01*
X149080666Y-118434344D01*
X148008974Y-118434344D01*
X146643181Y-117994738D01*
X144860791Y-117421044D01*
X143499395Y-115545899D01*
X142138000Y-113670754D01*
X142139820Y-111296210D01*
X142141555Y-109033988D01*
X142391999Y-109033988D01*
X142392815Y-111306160D01*
X142393630Y-113578333D01*
X143624827Y-115271666D01*
X143971096Y-115746156D01*
X144289911Y-116179710D01*
X144566083Y-116551940D01*
X144784426Y-116842458D01*
X144929752Y-117030876D01*
X144980777Y-117092000D01*
X145087155Y-117147569D01*
X145324617Y-117244606D01*
X145663063Y-117372673D01*
X146072392Y-117521336D01*
X146522506Y-117680158D01*
X146983306Y-117838705D01*
X147424690Y-117986541D01*
X147816560Y-118113230D01*
X148128816Y-118208337D01*
X148331358Y-118261427D01*
X148374221Y-118268500D01*
X148442107Y-118197544D01*
X148500949Y-118003018D01*
X148521463Y-117875166D01*
X148541921Y-117685408D01*
X148574693Y-117353353D01*
X148617300Y-116905394D01*
X148667265Y-116367918D01*
X148722109Y-115767318D01*
X148779355Y-115129983D01*
X148781817Y-115102333D01*
X148838758Y-114464197D01*
X148892780Y-113861804D01*
X148941499Y-113321512D01*
X148982529Y-112869674D01*
X149013486Y-112532646D01*
X149031987Y-112336785D01*
X149032474Y-112331858D01*
X149044227Y-112089788D01*
X149029160Y-111927899D01*
X149012023Y-111894902D01*
X148910671Y-111872147D01*
X148672528Y-111834660D01*
X148329042Y-111786940D01*
X147911659Y-111733486D01*
X147725124Y-111710796D01*
X147285503Y-111654760D01*
X146906043Y-111600029D01*
X146618471Y-111551667D01*
X146454514Y-111514739D01*
X146430420Y-111504106D01*
X146425405Y-111407678D01*
X146442370Y-111154930D01*
X146479981Y-110757264D01*
X146536906Y-110226081D01*
X146611812Y-109572783D01*
X146703364Y-108808770D01*
X146810230Y-107945445D01*
X146931077Y-106994208D01*
X147064571Y-105966461D01*
X147180421Y-105090500D01*
X147197528Y-104871895D01*
X147184256Y-104744226D01*
X147170296Y-104730666D01*
X147051416Y-104756495D01*
X146812446Y-104825405D01*
X146492588Y-104924529D01*
X146131047Y-105041000D01*
X145767027Y-105161951D01*
X145439730Y-105274515D01*
X145188362Y-105365826D01*
X145052124Y-105423016D01*
X145042348Y-105429070D01*
X144966871Y-105516333D01*
X144807156Y-105721964D01*
X144577604Y-106026691D01*
X144292616Y-106411247D01*
X143966596Y-106856361D01*
X143666515Y-107269947D01*
X142391999Y-109033988D01*
X142141555Y-109033988D01*
X142141641Y-108921666D01*
X143495806Y-107059000D01*
X144849970Y-105196333D01*
X146055151Y-104803802D01*
X147260333Y-104411272D01*
X147329993Y-103825352D01*
X147399654Y-103239431D01*
X149234993Y-103473460D01*
G37*
D12*
%TO.C,C2*%
X151026750Y-106374908D02*
X151026750Y-106590580D01*
X151746750Y-106374908D02*
X151746750Y-106590580D01*
%TO.C,R5*%
X149810363Y-105256947D02*
X149503081Y-105256947D01*
X149810363Y-106016947D02*
X149503081Y-106016947D01*
%TO.C,C14*%
X147890580Y-87990000D02*
X147609420Y-87990000D01*
X147890580Y-89010000D02*
X147609420Y-89010000D01*
%TO.C,R1*%
X149725032Y-83646010D02*
X149725032Y-83953292D01*
X150485032Y-83646010D02*
X150485032Y-83953292D01*
%TO.C,C9*%
X155486373Y-101067535D02*
X155702045Y-101067535D01*
X155486373Y-101787535D02*
X155702045Y-101787535D01*
%TO.C,J4*%
X145540000Y-125130000D02*
X145540000Y-123750000D01*
X146920000Y-125130000D02*
X145540000Y-125130000D01*
X148190000Y-122370000D02*
X153380000Y-122370000D01*
X148190000Y-125130000D02*
X148190000Y-122370000D01*
X148190000Y-125130000D02*
X153380000Y-125130000D01*
X153380000Y-125130000D02*
X153380000Y-122370000D01*
%TO.C,C7*%
X153200342Y-92177558D02*
X153200342Y-91961886D01*
X153920342Y-92177558D02*
X153920342Y-91961886D01*
%TO.C,C16*%
X151026750Y-108590580D02*
X151026750Y-108374908D01*
X151746750Y-108590580D02*
X151746750Y-108374908D01*
%TO.C,C5*%
X152876750Y-95110580D02*
X152876750Y-94894908D01*
X153596750Y-95110580D02*
X153596750Y-94894908D01*
%TO.C,C8*%
X154250857Y-96877920D02*
X154466529Y-96877920D01*
X154250857Y-97597920D02*
X154466529Y-97597920D01*
%TO.C,R7*%
X145836359Y-90620000D02*
X146143641Y-90620000D01*
X145836359Y-91380000D02*
X146143641Y-91380000D01*
%TD*%
M02*
